G04*
G04 #@! TF.GenerationSoftware,Altium Limited,Altium Designer,18.1.7 (191)*
G04*
G04 Layer_Color=8421504*
%FSLAX25Y25*%
%MOIN*%
G70*
G01*
G75*
%ADD24O,0.31496X0.11417*%
%ADD25R,0.10000X0.06000*%
%ADD26R,0.02000X0.02500*%
%ADD27R,0.05000X0.05000*%
%ADD28R,0.03500X0.03800*%
%ADD29R,0.03550X0.04337*%
%ADD30R,0.08268X0.12598*%
%ADD31R,0.03800X0.03500*%
%ADD32R,0.08268X0.03543*%
%ADD33R,0.02500X0.02000*%
%ADD34R,0.07880X0.14967*%
%ADD35O,0.01581X0.06306*%
%ADD36O,0.06306X0.01581*%
%ADD37R,0.04724X0.05906*%
%ADD38O,0.02638X0.08078*%
%ADD39R,0.05124X0.14179*%
%ADD40R,0.13471X0.08865*%
%ADD41R,0.09000X0.14963*%
%ADD42R,0.09000X0.14984*%
%ADD43R,0.14963X0.09000*%
%ADD44R,0.14984X0.09000*%
G36*
X285382Y345705D02*
X284398D01*
Y348067D01*
X285382D01*
Y345705D01*
D02*
G37*
G36*
X283413D02*
X282429D01*
Y348067D01*
X283413D01*
Y345705D01*
D02*
G37*
G36*
X281445D02*
X280461D01*
Y348067D01*
X281445D01*
Y345705D01*
D02*
G37*
G36*
X279476D02*
X278492D01*
Y348067D01*
X279476D01*
Y345705D01*
D02*
G37*
G36*
X277508D02*
X276524D01*
Y348067D01*
X277508D01*
Y345705D01*
D02*
G37*
G36*
X275539D02*
X274555D01*
Y348067D01*
X275539D01*
Y345705D01*
D02*
G37*
G36*
X273571D02*
X272587D01*
Y348067D01*
X273571D01*
Y345705D01*
D02*
G37*
G36*
X271602D02*
X270618D01*
Y348067D01*
X271602D01*
Y345705D01*
D02*
G37*
G36*
X288630Y343835D02*
X286268D01*
Y344819D01*
X288630D01*
Y343835D01*
D02*
G37*
G36*
X269732D02*
X267370D01*
Y344819D01*
X269732D01*
Y343835D01*
D02*
G37*
G36*
X288630Y341866D02*
X286268D01*
Y342850D01*
X288630D01*
Y341866D01*
D02*
G37*
G36*
X269732D02*
X267370D01*
Y342850D01*
X269732D01*
Y341866D01*
D02*
G37*
G36*
X288630Y339898D02*
X286268D01*
Y340882D01*
X288630D01*
Y339898D01*
D02*
G37*
G36*
X269732D02*
X267370D01*
Y340882D01*
X269732D01*
Y339898D01*
D02*
G37*
G36*
X288630Y337929D02*
X286268D01*
Y338913D01*
X288630D01*
Y337929D01*
D02*
G37*
G36*
X269732D02*
X267370D01*
Y338913D01*
X269732D01*
Y337929D01*
D02*
G37*
G36*
X288630Y335961D02*
X286268D01*
Y336945D01*
X288630D01*
Y335961D01*
D02*
G37*
G36*
X269732D02*
X267370D01*
Y336945D01*
X269732D01*
Y335961D01*
D02*
G37*
G36*
X288630Y333992D02*
X286268D01*
Y334976D01*
X288630D01*
Y333992D01*
D02*
G37*
G36*
X269732D02*
X267370D01*
Y334976D01*
X269732D01*
Y333992D01*
D02*
G37*
G36*
X288630Y332024D02*
X286268D01*
Y333008D01*
X288630D01*
Y332024D01*
D02*
G37*
G36*
X269732D02*
X267370D01*
Y333008D01*
X269732D01*
Y332024D01*
D02*
G37*
G36*
X288630Y330055D02*
X286268D01*
Y331039D01*
X288630D01*
Y330055D01*
D02*
G37*
G36*
X269732D02*
X267370D01*
Y331039D01*
X269732D01*
Y330055D01*
D02*
G37*
G36*
X288630Y328087D02*
X286268D01*
Y329071D01*
X288630D01*
Y328087D01*
D02*
G37*
G36*
X269732D02*
X267370D01*
Y329071D01*
X269732D01*
Y328087D01*
D02*
G37*
G36*
X288630Y326118D02*
X286268D01*
Y327102D01*
X288630D01*
Y326118D01*
D02*
G37*
G36*
X269732D02*
X267370D01*
Y327102D01*
X269732D01*
Y326118D01*
D02*
G37*
G36*
X283827Y324524D02*
X272174D01*
Y342477D01*
X283827D01*
Y324524D01*
D02*
G37*
G36*
X288630Y324150D02*
X286268D01*
Y325134D01*
X288630D01*
Y324150D01*
D02*
G37*
G36*
X269732D02*
X267370D01*
Y325134D01*
X269732D01*
Y324150D01*
D02*
G37*
G36*
X288630Y322181D02*
X286268D01*
Y323165D01*
X288630D01*
Y322181D01*
D02*
G37*
G36*
X269732D02*
X267370D01*
Y323165D01*
X269732D01*
Y322181D01*
D02*
G37*
G36*
X285382Y318933D02*
X284398D01*
Y321295D01*
X285382D01*
Y318933D01*
D02*
G37*
G36*
X283413D02*
X282429D01*
Y321295D01*
X283413D01*
Y318933D01*
D02*
G37*
G36*
X281445D02*
X280461D01*
Y321295D01*
X281445D01*
Y318933D01*
D02*
G37*
G36*
X279476D02*
X278492D01*
Y321295D01*
X279476D01*
Y318933D01*
D02*
G37*
G36*
X277508D02*
X276524D01*
Y321295D01*
X277508D01*
Y318933D01*
D02*
G37*
G36*
X275539D02*
X274555D01*
Y321295D01*
X275539D01*
Y318933D01*
D02*
G37*
G36*
X273571D02*
X272587D01*
Y321295D01*
X273571D01*
Y318933D01*
D02*
G37*
G36*
X271602D02*
X270618D01*
Y321295D01*
X271602D01*
Y318933D01*
D02*
G37*
G36*
X277933Y459157D02*
X276949D01*
Y461519D01*
X277933D01*
Y459157D01*
D02*
G37*
G36*
X275965D02*
X274981D01*
Y461519D01*
X275965D01*
Y459157D01*
D02*
G37*
G36*
X273996D02*
X273012D01*
Y461519D01*
X273996D01*
Y459157D01*
D02*
G37*
G36*
X272028D02*
X271044D01*
Y461519D01*
X272028D01*
Y459157D01*
D02*
G37*
G36*
X270059D02*
X269075D01*
Y461519D01*
X270059D01*
Y459157D01*
D02*
G37*
G36*
X268091D02*
X267107D01*
Y461519D01*
X268091D01*
Y459157D01*
D02*
G37*
G36*
X266122D02*
X265138D01*
Y461519D01*
X266122D01*
Y459157D01*
D02*
G37*
G36*
X264154D02*
X263170D01*
Y461519D01*
X264154D01*
Y459157D01*
D02*
G37*
G36*
X281181Y457287D02*
X278819D01*
Y458271D01*
X281181D01*
Y457287D01*
D02*
G37*
G36*
X262284D02*
X259922D01*
Y458271D01*
X262284D01*
Y457287D01*
D02*
G37*
G36*
X281181Y455319D02*
X278819D01*
Y456303D01*
X281181D01*
Y455319D01*
D02*
G37*
G36*
X262284D02*
X259922D01*
Y456303D01*
X262284D01*
Y455319D01*
D02*
G37*
G36*
X281181Y453350D02*
X278819D01*
Y454334D01*
X281181D01*
Y453350D01*
D02*
G37*
G36*
X262284D02*
X259922D01*
Y454334D01*
X262284D01*
Y453350D01*
D02*
G37*
G36*
X281181Y451382D02*
X278819D01*
Y452366D01*
X281181D01*
Y451382D01*
D02*
G37*
G36*
X262284D02*
X259922D01*
Y452366D01*
X262284D01*
Y451382D01*
D02*
G37*
G36*
X281181Y449413D02*
X278819D01*
Y450397D01*
X281181D01*
Y449413D01*
D02*
G37*
G36*
X262284D02*
X259922D01*
Y450397D01*
X262284D01*
Y449413D01*
D02*
G37*
G36*
X281181Y447445D02*
X278819D01*
Y448429D01*
X281181D01*
Y447445D01*
D02*
G37*
G36*
X262284D02*
X259922D01*
Y448429D01*
X262284D01*
Y447445D01*
D02*
G37*
G36*
X281181Y445476D02*
X278819D01*
Y446460D01*
X281181D01*
Y445476D01*
D02*
G37*
G36*
X262284D02*
X259922D01*
Y446460D01*
X262284D01*
Y445476D01*
D02*
G37*
G36*
X281181Y443508D02*
X278819D01*
Y444492D01*
X281181D01*
Y443508D01*
D02*
G37*
G36*
X262284D02*
X259922D01*
Y444492D01*
X262284D01*
Y443508D01*
D02*
G37*
G36*
X281181Y441539D02*
X278819D01*
Y442523D01*
X281181D01*
Y441539D01*
D02*
G37*
G36*
X262284D02*
X259922D01*
Y442523D01*
X262284D01*
Y441539D01*
D02*
G37*
G36*
X281181Y439571D02*
X278819D01*
Y440555D01*
X281181D01*
Y439571D01*
D02*
G37*
G36*
X262284D02*
X259922D01*
Y440555D01*
X262284D01*
Y439571D01*
D02*
G37*
G36*
X276378Y437976D02*
X264724D01*
Y455928D01*
X276378D01*
Y437976D01*
D02*
G37*
G36*
X281181Y437602D02*
X278819D01*
Y438586D01*
X281181D01*
Y437602D01*
D02*
G37*
G36*
X262284D02*
X259922D01*
Y438586D01*
X262284D01*
Y437602D01*
D02*
G37*
G36*
X281181Y435634D02*
X278819D01*
Y436618D01*
X281181D01*
Y435634D01*
D02*
G37*
G36*
X262284D02*
X259922D01*
Y436618D01*
X262284D01*
Y435634D01*
D02*
G37*
G36*
X277933Y432385D02*
X276949D01*
Y434748D01*
X277933D01*
Y432385D01*
D02*
G37*
G36*
X275965D02*
X274981D01*
Y434748D01*
X275965D01*
Y432385D01*
D02*
G37*
G36*
X273996D02*
X273012D01*
Y434748D01*
X273996D01*
Y432385D01*
D02*
G37*
G36*
X272028D02*
X271044D01*
Y434748D01*
X272028D01*
Y432385D01*
D02*
G37*
G36*
X270059D02*
X269075D01*
Y434748D01*
X270059D01*
Y432385D01*
D02*
G37*
G36*
X268091D02*
X267107D01*
Y434748D01*
X268091D01*
Y432385D01*
D02*
G37*
G36*
X266122D02*
X265138D01*
Y434748D01*
X266122D01*
Y432385D01*
D02*
G37*
G36*
X264154D02*
X263170D01*
Y434748D01*
X264154D01*
Y432385D01*
D02*
G37*
D24*
X417900Y446300D02*
D03*
X419000Y474800D02*
D03*
D25*
X331900Y465100D02*
D03*
Y478600D02*
D03*
Y440000D02*
D03*
Y453500D02*
D03*
D26*
X383000Y303200D02*
D03*
Y308020D02*
D03*
X381700Y318100D02*
D03*
Y322920D02*
D03*
X384000Y409400D02*
D03*
Y404580D02*
D03*
X381000Y420000D02*
D03*
Y415180D02*
D03*
X243000Y397000D02*
D03*
Y392180D02*
D03*
X280800Y425100D02*
D03*
Y420280D02*
D03*
X388600Y308020D02*
D03*
Y303200D02*
D03*
X285400Y425100D02*
D03*
Y420280D02*
D03*
X299600Y425000D02*
D03*
Y420180D02*
D03*
X310900Y353200D02*
D03*
Y358020D02*
D03*
X266600Y353700D02*
D03*
Y358520D02*
D03*
X261800Y353700D02*
D03*
Y358520D02*
D03*
X257000Y353700D02*
D03*
Y358520D02*
D03*
X238000Y363100D02*
D03*
Y367920D02*
D03*
X237800Y377600D02*
D03*
Y372780D02*
D03*
X238100Y428500D02*
D03*
Y423680D02*
D03*
X261900Y415100D02*
D03*
Y410280D02*
D03*
X238200Y413900D02*
D03*
Y418720D02*
D03*
X316300Y441485D02*
D03*
Y436885D02*
D03*
X311600Y441485D02*
D03*
Y436885D02*
D03*
X286000Y460100D02*
D03*
Y455500D02*
D03*
X291000Y460100D02*
D03*
Y455500D02*
D03*
X294900Y425200D02*
D03*
Y420600D02*
D03*
X290100Y425200D02*
D03*
Y420600D02*
D03*
X276000Y425200D02*
D03*
Y420600D02*
D03*
X271100Y420500D02*
D03*
Y425100D02*
D03*
X266500Y415200D02*
D03*
Y410600D02*
D03*
X314700Y364600D02*
D03*
Y369200D02*
D03*
X270100Y365300D02*
D03*
Y369900D02*
D03*
X276700Y358300D02*
D03*
Y353700D02*
D03*
X271400Y353600D02*
D03*
Y358200D02*
D03*
X263200Y320500D02*
D03*
Y325100D02*
D03*
X258500Y320500D02*
D03*
Y325100D02*
D03*
X294000Y324500D02*
D03*
Y329100D02*
D03*
X379500Y404900D02*
D03*
Y409500D02*
D03*
X362500Y427500D02*
D03*
Y432100D02*
D03*
X353500Y413500D02*
D03*
Y418100D02*
D03*
X256900Y363600D02*
D03*
Y368200D02*
D03*
X261800Y363600D02*
D03*
Y368200D02*
D03*
D27*
X374300Y304100D02*
D03*
X366070Y304080D02*
D03*
X371600Y319000D02*
D03*
X363370Y318980D02*
D03*
X377900Y438000D02*
D03*
X369630Y438010D02*
D03*
X378000Y427500D02*
D03*
X369730Y427510D02*
D03*
D28*
X387900Y333900D02*
D03*
Y340800D02*
D03*
D29*
X337060Y325927D02*
D03*
X340800Y316873D02*
D03*
X344540Y325927D02*
D03*
D30*
X357179Y341500D02*
D03*
D31*
X374800Y361689D02*
D03*
X381700D02*
D03*
X409500Y426000D02*
D03*
X402600D02*
D03*
X388600D02*
D03*
X395500D02*
D03*
D32*
X379621Y350555D02*
D03*
Y341500D02*
D03*
Y332445D02*
D03*
D33*
X348500Y396000D02*
D03*
X353320D02*
D03*
X357000Y424500D02*
D03*
X352180D02*
D03*
X356900Y429500D02*
D03*
X352080D02*
D03*
X230800Y394300D02*
D03*
X225980D02*
D03*
X243500Y460000D02*
D03*
X238680D02*
D03*
X239000Y438200D02*
D03*
X243820D02*
D03*
X249100Y437100D02*
D03*
X253920D02*
D03*
X239000Y443767D02*
D03*
X243820D02*
D03*
X249100Y442667D02*
D03*
X253920D02*
D03*
X338380Y331306D02*
D03*
X343200D02*
D03*
X249100Y448233D02*
D03*
X253920D02*
D03*
X239000Y449333D02*
D03*
X243820D02*
D03*
X239000Y454900D02*
D03*
X243820D02*
D03*
X249100Y453800D02*
D03*
X253920D02*
D03*
X314500Y340600D02*
D03*
X309680D02*
D03*
X304300D02*
D03*
X299480D02*
D03*
X314500Y334900D02*
D03*
X309680D02*
D03*
X304300Y335000D02*
D03*
X299480D02*
D03*
X304300Y329600D02*
D03*
X299480D02*
D03*
X314500D02*
D03*
X309680D02*
D03*
X314500Y324000D02*
D03*
X309680D02*
D03*
X304300Y324100D02*
D03*
X299480D02*
D03*
X300100Y318600D02*
D03*
X304920D02*
D03*
X249000Y458700D02*
D03*
X253600D02*
D03*
X255600Y406500D02*
D03*
X251000D02*
D03*
X230900Y404200D02*
D03*
X226300D02*
D03*
X230900Y399300D02*
D03*
X226300D02*
D03*
X251400Y383500D02*
D03*
X256000D02*
D03*
X338400Y368600D02*
D03*
X343000D02*
D03*
X305300Y358600D02*
D03*
X300700D02*
D03*
X305400Y353200D02*
D03*
X300800D02*
D03*
X250600Y357000D02*
D03*
X246000D02*
D03*
X250700Y352100D02*
D03*
X246100D02*
D03*
X348400Y400500D02*
D03*
X353000D02*
D03*
Y405500D02*
D03*
X348400D02*
D03*
X320500Y407900D02*
D03*
X315900D02*
D03*
D34*
X289313Y439300D02*
D03*
X303487D02*
D03*
X259187Y340900D02*
D03*
X245013D02*
D03*
D35*
X277382Y411941D02*
D03*
X279351D02*
D03*
X281319D02*
D03*
X283289D02*
D03*
X285257D02*
D03*
X287226D02*
D03*
X289194D02*
D03*
X291162D02*
D03*
X293130D02*
D03*
X295099D02*
D03*
X297067D02*
D03*
X299037D02*
D03*
X301005D02*
D03*
X302974D02*
D03*
X304942D02*
D03*
X306910D02*
D03*
Y367059D02*
D03*
X304942D02*
D03*
X302974D02*
D03*
X301005D02*
D03*
X299037D02*
D03*
X297067D02*
D03*
X295099D02*
D03*
X293130D02*
D03*
X291162D02*
D03*
X289194D02*
D03*
X287226D02*
D03*
X285257D02*
D03*
X283289D02*
D03*
X281319D02*
D03*
X279351D02*
D03*
X277382D02*
D03*
D36*
X314494Y404264D02*
D03*
Y402295D02*
D03*
Y400327D02*
D03*
Y398358D02*
D03*
Y396390D02*
D03*
Y394421D02*
D03*
Y392453D02*
D03*
Y390484D02*
D03*
Y388516D02*
D03*
Y386547D02*
D03*
Y384579D02*
D03*
Y382610D02*
D03*
Y380642D02*
D03*
Y378673D02*
D03*
Y376705D02*
D03*
Y374736D02*
D03*
X269706D02*
D03*
Y376705D02*
D03*
Y378673D02*
D03*
Y380642D02*
D03*
Y382610D02*
D03*
Y384579D02*
D03*
Y386547D02*
D03*
Y388516D02*
D03*
Y390484D02*
D03*
Y392453D02*
D03*
Y394421D02*
D03*
Y396390D02*
D03*
Y398358D02*
D03*
Y400327D02*
D03*
Y402295D02*
D03*
Y404264D02*
D03*
D37*
X256950Y389800D02*
D03*
X249150Y400100D02*
D03*
X256850Y400200D02*
D03*
X249050Y389800D02*
D03*
D38*
X333000Y338950D02*
D03*
X338000D02*
D03*
X343000D02*
D03*
X348000D02*
D03*
X333000Y360250D02*
D03*
X338000D02*
D03*
X343000D02*
D03*
X348000D02*
D03*
X374000Y417650D02*
D03*
X369000D02*
D03*
X364000D02*
D03*
X359000D02*
D03*
X374000Y396350D02*
D03*
X369000D02*
D03*
X364000D02*
D03*
X359000D02*
D03*
D39*
X240500Y299976D02*
D03*
Y321000D02*
D03*
X310000Y479524D02*
D03*
Y458500D02*
D03*
X354000Y457988D02*
D03*
Y479012D02*
D03*
D40*
X400000Y416500D02*
D03*
Y393564D02*
D03*
D41*
X383000Y378000D02*
D03*
D42*
X354000Y378100D02*
D03*
D43*
X380500Y450500D02*
D03*
D44*
X380600Y479500D02*
D03*
M02*
