G04*
G04 #@! TF.GenerationSoftware,Altium Limited,Altium Designer,18.1.7 (191)*
G04*
G04 Layer_Color=2752767*
%FSLAX25Y25*%
%MOIN*%
G70*
G01*
G75*
%ADD107C,0.00200*%
%ADD108C,0.00267*%
D107*
X427011Y486775D02*
Y488375D01*
X428611D01*
Y486775D01*
X427011D01*
Y433625D02*
Y435225D01*
X428611D01*
Y433625D01*
X427011D01*
X346400Y305500D02*
X345600Y307100D01*
X347200D01*
X346400Y305500D01*
X336390D02*
X335590Y307100D01*
X337190D01*
X336390Y305500D01*
X228500Y417700D02*
X228900Y418100D01*
X229300D01*
X228900Y418500D01*
X229300Y418900D01*
X228900D01*
X228500Y419300D01*
X228100Y418900D01*
X227700D01*
X228100Y418500D01*
X227700Y418100D01*
X228100D01*
X228500Y417700D01*
Y427700D02*
X228900Y428100D01*
X229300D01*
X228900Y428500D01*
X229300Y428900D01*
X228900D01*
X228500Y429300D01*
X228100Y428900D01*
X227700D01*
X228100Y428500D01*
X227700Y428100D01*
X228100D01*
X228500Y427700D01*
X228500Y437700D02*
X228900Y438100D01*
X229300D01*
X228900Y438500D01*
X229300Y438900D01*
X228900D01*
X228500Y439300D01*
X228100Y438900D01*
X227700D01*
X228100Y438500D01*
X227700Y438100D01*
X228100D01*
X228500Y437700D01*
Y447700D02*
X228900Y448100D01*
X229300D01*
X228900Y448500D01*
X229300Y448900D01*
X228900D01*
X228500Y449300D01*
X228100Y448900D01*
X227700D01*
X228100Y448500D01*
X227700Y448100D01*
X228100D01*
X228500Y447700D01*
X285700Y305200D02*
X286100Y306000D01*
X285700Y306800D01*
X286500Y306400D01*
X287300Y306800D01*
X286900Y306000D01*
X287300Y305200D01*
X286500Y305600D01*
X285700Y305200D01*
X275857D02*
X276257Y306000D01*
X275857Y306800D01*
X276658Y306400D01*
X277457Y306800D01*
X277058Y306000D01*
X277457Y305200D01*
X276658Y305600D01*
X275857Y305200D01*
X266015D02*
X266415Y306000D01*
X266015Y306800D01*
X266815Y306400D01*
X267615Y306800D01*
X267215Y306000D01*
X267615Y305200D01*
X266815Y305600D01*
X266015Y305200D01*
X396450Y374785D02*
Y374385D01*
X397250D01*
Y374785D01*
X397650D01*
Y375585D01*
X397250D01*
Y375985D01*
X396450D01*
Y375585D01*
X396050D01*
Y374785D01*
X396450D01*
Y364943D02*
Y364543D01*
X397250D01*
Y364943D01*
X397650D01*
Y365742D01*
X397250D01*
Y366143D01*
X396450D01*
Y365742D01*
X396050D01*
Y364943D01*
X396450D01*
Y355100D02*
Y354700D01*
X397250D01*
Y355100D01*
X397650D01*
Y355900D01*
X397250D01*
Y356300D01*
X396450D01*
Y355900D01*
X396050D01*
Y355100D01*
X396450D01*
Y331943D02*
Y331542D01*
X397250D01*
Y331943D01*
X397650D01*
Y332743D01*
X397250D01*
Y333142D01*
X396450D01*
Y332743D01*
X396050D01*
Y331943D01*
X396450D01*
Y322100D02*
Y321700D01*
X397250D01*
Y322100D01*
X397650D01*
Y322900D01*
X397250D01*
Y323300D01*
X396450D01*
Y322900D01*
X396050D01*
Y322100D01*
X396450D01*
Y312258D02*
Y311858D01*
X397250D01*
Y312258D01*
X397650D01*
Y313057D01*
X397250D01*
Y313457D01*
X396450D01*
Y313057D01*
X396050D01*
Y312258D01*
X396450D01*
X264357Y472700D02*
X264757Y473500D01*
X264357Y474300D01*
X265158Y473900D01*
X265957Y474300D01*
X265558Y473500D01*
X265957Y472700D01*
X265158Y473100D01*
X264357Y472700D01*
X274200D02*
X274600Y473500D01*
X274200Y474300D01*
X275000Y473900D01*
X275800Y474300D01*
X275400Y473500D01*
X275800Y472700D01*
X275000Y473100D01*
X274200Y472700D01*
X284043D02*
X284442Y473500D01*
X284043Y474300D01*
X284842Y473900D01*
X285643Y474300D01*
X285243Y473500D01*
X285643Y472700D01*
X284842Y473100D01*
X284043Y472700D01*
X335500Y394400D02*
X335900Y394800D01*
X336300D01*
X335900Y395200D01*
X336300Y395600D01*
X335900D01*
X335500Y396000D01*
X335100Y395600D01*
X334700D01*
X335100Y395200D01*
X334700Y394800D01*
X335100D01*
X335500Y394400D01*
Y404400D02*
X335900Y404800D01*
X336300D01*
X335900Y405200D01*
X336300Y405600D01*
X335900D01*
X335500Y406000D01*
X335100Y405600D01*
X334700D01*
X335100Y405200D01*
X334700Y404800D01*
X335100D01*
X335500Y404400D01*
X335500Y414400D02*
X335900Y414800D01*
X336300D01*
X335900Y415200D01*
X336300Y415600D01*
X335900D01*
X335500Y416000D01*
X335100Y415600D01*
X334700D01*
X335100Y415200D01*
X334700Y414800D01*
X335100D01*
X335500Y414400D01*
Y424400D02*
X335900Y424800D01*
X336300D01*
X335900Y425200D01*
X336300Y425600D01*
X335900D01*
X335500Y426000D01*
X335100Y425600D01*
X334700D01*
X335100Y425200D01*
X334700Y424800D01*
X335100D01*
X335500Y424400D01*
X228500Y343700D02*
X228900Y344100D01*
X229300D01*
X228900Y344500D01*
X229300Y344900D01*
X228900D01*
X228500Y345300D01*
X228100Y344900D01*
X227700D01*
X228100Y344500D01*
X227700Y344100D01*
X228100D01*
X228500Y343700D01*
Y353700D02*
X228900Y354100D01*
X229300D01*
X228900Y354500D01*
X229300Y354900D01*
X228900D01*
X228500Y355300D01*
X228100Y354900D01*
X227700D01*
X228100Y354500D01*
X227700Y354100D01*
X228100D01*
X228500Y353700D01*
X228500Y363700D02*
X228900Y364100D01*
X229300D01*
X228900Y364500D01*
X229300Y364900D01*
X228900D01*
X228500Y365300D01*
X228100Y364900D01*
X227700D01*
X228100Y364500D01*
X227700Y364100D01*
X228100D01*
X228500Y363700D01*
Y373700D02*
X228900Y374100D01*
X229300D01*
X228900Y374500D01*
X229300Y374900D01*
X228900D01*
X228500Y375300D01*
X228100Y374900D01*
X227700D01*
X228100Y374500D01*
X227700Y374100D01*
X228100D01*
X228500Y373700D01*
X263400Y412100D02*
X263800D01*
X264200Y412500D01*
X264600Y412100D01*
X265000D01*
Y412500D01*
X264600Y412900D01*
X265000Y413300D01*
Y413700D01*
X264600D01*
X264200Y413300D01*
X263800Y413700D01*
X263400D01*
Y413300D01*
X263800Y412900D01*
X263400Y412500D01*
Y412100D01*
X298900Y416500D02*
X299300D01*
X299700Y416900D01*
X300100Y416500D01*
X300500D01*
Y416900D01*
X300100Y417300D01*
X300500Y417700D01*
Y418100D01*
X300100D01*
X299700Y417700D01*
X299300Y418100D01*
X298900D01*
Y417700D01*
X299300Y417300D01*
X298900Y416900D01*
Y416500D01*
X353700Y327600D02*
X354500Y328400D01*
X355300Y327600D01*
X354500Y326800D01*
X353700Y327600D01*
Y443962D02*
X354500Y444762D01*
X355300Y443962D01*
X354500Y443162D01*
X353700Y443962D01*
X340000Y349200D02*
X340400D01*
X340800Y349600D01*
X341200Y349200D01*
X341600D01*
Y349600D01*
X341200Y350000D01*
X341600Y350400D01*
Y350800D01*
X341200D01*
X340800Y350400D01*
X340400Y350800D01*
X340000D01*
Y350400D01*
X340400Y350000D01*
X340000Y349600D01*
Y349200D01*
X224900Y327600D02*
X225700Y328400D01*
X226500Y327600D01*
X225700Y326800D01*
X224900Y327600D01*
X403600Y484220D02*
X404000D01*
X404400Y484620D01*
X404800Y484220D01*
X405200D01*
Y484620D01*
X404800Y485020D01*
X405200Y485420D01*
Y485820D01*
X404800D01*
X404400Y485420D01*
X404000Y485820D01*
X403600D01*
Y485420D01*
X404000Y485020D01*
X403600Y484620D01*
Y484220D01*
X388600D02*
X389000D01*
X389400Y484620D01*
X389800Y484220D01*
X390200D01*
Y484620D01*
X389800Y485020D01*
X390200Y485420D01*
Y485820D01*
X389800D01*
X389400Y485420D01*
X389000Y485820D01*
X388600D01*
Y485420D01*
X389000Y485020D01*
X388600Y484620D01*
Y484220D01*
X373600D02*
X374000D01*
X374400Y484620D01*
X374800Y484220D01*
X375200D01*
Y484620D01*
X374800Y485020D01*
X375200Y485420D01*
Y485820D01*
X374800D01*
X374400Y485420D01*
X374000Y485820D01*
X373600D01*
Y485420D01*
X374000Y485020D01*
X373600Y484620D01*
Y484220D01*
X398183Y295900D02*
X398583D01*
X398983Y296300D01*
X399383Y295900D01*
X399783D01*
Y296300D01*
X399383Y296700D01*
X399783Y297100D01*
Y297500D01*
X399383D01*
X398983Y297100D01*
X398583Y297500D01*
X398183D01*
Y297100D01*
X398583Y296700D01*
X398183Y296300D01*
Y295900D01*
X383183D02*
X383583D01*
X383983Y296300D01*
X384383Y295900D01*
X384783D01*
Y296300D01*
X384383Y296700D01*
X384783Y297100D01*
Y297500D01*
X384383D01*
X383983Y297100D01*
X383583Y297500D01*
X383183D01*
Y297100D01*
X383583Y296700D01*
X383183Y296300D01*
Y295900D01*
X368183D02*
X368583D01*
X368983Y296300D01*
X369383Y295900D01*
X369783D01*
Y296300D01*
X369383Y296700D01*
X369783Y297100D01*
Y297500D01*
X369383D01*
X368983Y297100D01*
X368583Y297500D01*
X368183D01*
Y297100D01*
X368583Y296700D01*
X368183Y296300D01*
Y295900D01*
X353183D02*
X353583D01*
X353983Y296300D01*
X354383Y295900D01*
X354783D01*
Y296300D01*
X354383Y296700D01*
X354783Y297100D01*
Y297500D01*
X354383D01*
X353983Y297100D01*
X353583Y297500D01*
X353183D01*
Y297100D01*
X353583Y296700D01*
X353183Y296300D01*
Y295900D01*
X338183D02*
X338583D01*
X338983Y296300D01*
X339383Y295900D01*
X339783D01*
Y296300D01*
X339383Y296700D01*
X339783Y297100D01*
Y297500D01*
X339383D01*
X338983Y297100D01*
X338583Y297500D01*
X338183D01*
Y297100D01*
X338583Y296700D01*
X338183Y296300D01*
Y295900D01*
X323183D02*
X323583D01*
X323983Y296300D01*
X324383Y295900D01*
X324783D01*
Y296300D01*
X324383Y296700D01*
X324783Y297100D01*
Y297500D01*
X324383D01*
X323983Y297100D01*
X323583Y297500D01*
X323183D01*
Y297100D01*
X323583Y296700D01*
X323183Y296300D01*
Y295900D01*
X308183D02*
X308583D01*
X308983Y296300D01*
X309383Y295900D01*
X309783D01*
Y296300D01*
X309383Y296700D01*
X309783Y297100D01*
Y297500D01*
X309383D01*
X308983Y297100D01*
X308583Y297500D01*
X308183D01*
Y297100D01*
X308583Y296700D01*
X308183Y296300D01*
Y295900D01*
X293183D02*
X293583D01*
X293983Y296300D01*
X294383Y295900D01*
X294783D01*
Y296300D01*
X294383Y296700D01*
X294783Y297100D01*
Y297500D01*
X294383D01*
X293983Y297100D01*
X293583Y297500D01*
X293183D01*
Y297100D01*
X293583Y296700D01*
X293183Y296300D01*
Y295900D01*
X278183D02*
X278583D01*
X278983Y296300D01*
X279383Y295900D01*
X279783D01*
Y296300D01*
X279383Y296700D01*
X279783Y297100D01*
Y297500D01*
X279383D01*
X278983Y297100D01*
X278583Y297500D01*
X278183D01*
Y297100D01*
X278583Y296700D01*
X278183Y296300D01*
Y295900D01*
X263183D02*
X263583D01*
X263983Y296300D01*
X264383Y295900D01*
X264783D01*
Y296300D01*
X264383Y296700D01*
X264783Y297100D01*
Y297500D01*
X264383D01*
X263983Y297100D01*
X263583Y297500D01*
X263183D01*
Y297100D01*
X263583Y296700D01*
X263183Y296300D01*
Y295900D01*
X248183D02*
X248583D01*
X248983Y296300D01*
X249383Y295900D01*
X249783D01*
Y296300D01*
X249383Y296700D01*
X249783Y297100D01*
Y297500D01*
X249383D01*
X248983Y297100D01*
X248583Y297500D01*
X248183D01*
Y297100D01*
X248583Y296700D01*
X248183Y296300D01*
Y295900D01*
X409100Y305100D02*
X409500D01*
X409900Y305500D01*
X410300Y305100D01*
X410700D01*
Y305500D01*
X410300Y305900D01*
X410700Y306300D01*
Y306700D01*
X410300D01*
X409900Y306300D01*
X409500Y306700D01*
X409100D01*
Y306300D01*
X409500Y305900D01*
X409100Y305500D01*
Y305100D01*
X410200Y314600D02*
X410600D01*
X411000Y315000D01*
X411400Y314600D01*
X411800D01*
Y315000D01*
X411400Y315400D01*
X411800Y315800D01*
Y316200D01*
X411400D01*
X411000Y315800D01*
X410600Y316200D01*
X410200D01*
Y315800D01*
X410600Y315400D01*
X410200Y315000D01*
Y314600D01*
X410100Y321300D02*
X410500D01*
X410900Y321700D01*
X411300Y321300D01*
X411700D01*
Y321700D01*
X411300Y322100D01*
X411700Y322500D01*
Y322900D01*
X411300D01*
X410900Y322500D01*
X410500Y322900D01*
X410100D01*
Y322500D01*
X410500Y322100D01*
X410100Y321700D01*
Y321300D01*
X409900Y330600D02*
X410300D01*
X410700Y331000D01*
X411100Y330600D01*
X411500D01*
Y331000D01*
X411100Y331400D01*
X411500Y331800D01*
Y332200D01*
X411100D01*
X410700Y331800D01*
X410300Y332200D01*
X409900D01*
Y331800D01*
X410300Y331400D01*
X409900Y331000D01*
Y330600D01*
X409800Y338400D02*
X410200D01*
X410600Y338800D01*
X411000Y338400D01*
X411400D01*
Y338800D01*
X411000Y339200D01*
X411400Y339600D01*
Y340000D01*
X411000D01*
X410600Y339600D01*
X410200Y340000D01*
X409800D01*
Y339600D01*
X410200Y339200D01*
X409800Y338800D01*
Y338400D01*
Y348600D02*
X410200D01*
X410600Y349000D01*
X411000Y348600D01*
X411400D01*
Y349000D01*
X411000Y349400D01*
X411400Y349800D01*
Y350200D01*
X411000D01*
X410600Y349800D01*
X410200Y350200D01*
X409800D01*
Y349800D01*
X410200Y349400D01*
X409800Y349000D01*
Y348600D01*
X410000Y359000D02*
X410400D01*
X410800Y359400D01*
X411200Y359000D01*
X411600D01*
Y359400D01*
X411200Y359800D01*
X411600Y360200D01*
Y360600D01*
X411200D01*
X410800Y360200D01*
X410400Y360600D01*
X410000D01*
Y360200D01*
X410400Y359800D01*
X410000Y359400D01*
Y359000D01*
X409826Y368049D02*
X410226D01*
X410626Y368449D01*
X411026Y368049D01*
X411426D01*
Y368449D01*
X411026Y368849D01*
X411426Y369249D01*
Y369649D01*
X411026D01*
X410626Y369249D01*
X410226Y369649D01*
X409826D01*
Y369249D01*
X410226Y368849D01*
X409826Y368449D01*
Y368049D01*
X410000Y379400D02*
X410400D01*
X410800Y379800D01*
X411200Y379400D01*
X411600D01*
Y379800D01*
X411200Y380200D01*
X411600Y380600D01*
Y381000D01*
X411200D01*
X410800Y380600D01*
X410400Y381000D01*
X410000D01*
Y380600D01*
X410400Y380200D01*
X410000Y379800D01*
Y379400D01*
X410285Y395200D02*
X410685D01*
X411085Y395600D01*
X411485Y395200D01*
X411885D01*
Y395600D01*
X411485Y396000D01*
X411885Y396400D01*
Y396800D01*
X411485D01*
X411085Y396400D01*
X410685Y396800D01*
X410285D01*
Y396400D01*
X410685Y396000D01*
X410285Y395600D01*
Y395200D01*
X410300Y405500D02*
X410700D01*
X411100Y405900D01*
X411500Y405500D01*
X411900D01*
Y405900D01*
X411500Y406300D01*
X411900Y406700D01*
Y407100D01*
X411500D01*
X411100Y406700D01*
X410700Y407100D01*
X410300D01*
Y406700D01*
X410700Y406300D01*
X410300Y405900D01*
Y405500D01*
X410285Y416700D02*
X410685D01*
X411085Y417100D01*
X411485Y416700D01*
X411885D01*
Y417100D01*
X411485Y417500D01*
X411885Y417900D01*
Y418300D01*
X411485D01*
X411085Y417900D01*
X410685Y418300D01*
X410285D01*
Y417900D01*
X410685Y417500D01*
X410285Y417100D01*
Y416700D01*
X358600Y484220D02*
X359000D01*
X359400Y484620D01*
X359800Y484220D01*
X360200D01*
Y484620D01*
X359800Y485020D01*
X360200Y485420D01*
Y485820D01*
X359800D01*
X359400Y485420D01*
X359000Y485820D01*
X358600D01*
Y485420D01*
X359000Y485020D01*
X358600Y484620D01*
Y484220D01*
X343200D02*
X343600D01*
X344000Y484620D01*
X344400Y484220D01*
X344800D01*
Y484620D01*
X344400Y485020D01*
X344800Y485420D01*
Y485820D01*
X344400D01*
X344000Y485420D01*
X343600Y485820D01*
X343200D01*
Y485420D01*
X343600Y485020D01*
X343200Y484620D01*
Y484220D01*
X329500Y484600D02*
X329900D01*
X330300Y485000D01*
X330700Y484600D01*
X331100D01*
Y485000D01*
X330700Y485400D01*
X331100Y485800D01*
Y486200D01*
X330700D01*
X330300Y485800D01*
X329900Y486200D01*
X329500D01*
Y485800D01*
X329900Y485400D01*
X329500Y485000D01*
Y484600D01*
X316700Y484400D02*
X317100D01*
X317500Y484800D01*
X317900Y484400D01*
X318300D01*
Y484800D01*
X317900Y485200D01*
X318300Y485600D01*
Y486000D01*
X317900D01*
X317500Y485600D01*
X317100Y486000D01*
X316700D01*
Y485600D01*
X317100Y485200D01*
X316700Y484800D01*
Y484400D01*
X294100Y484000D02*
X294500D01*
X294900Y484400D01*
X295300Y484000D01*
X295700D01*
Y484400D01*
X295300Y484800D01*
X295700Y485200D01*
Y485600D01*
X295300D01*
X294900Y485200D01*
X294500Y485600D01*
X294100D01*
Y485200D01*
X294500Y484800D01*
X294100Y484400D01*
Y484000D01*
X279027Y483900D02*
X279427D01*
X279827Y484300D01*
X280227Y483900D01*
X280627D01*
Y484300D01*
X280227Y484700D01*
X280627Y485100D01*
Y485500D01*
X280227D01*
X279827Y485100D01*
X279427Y485500D01*
X279027D01*
Y485100D01*
X279427Y484700D01*
X279027Y484300D01*
Y483900D01*
X260100Y483600D02*
X260500D01*
X260900Y484000D01*
X261300Y483600D01*
X261700D01*
Y484000D01*
X261300Y484400D01*
X261700Y484800D01*
Y485200D01*
X261300D01*
X260900Y484800D01*
X260500Y485200D01*
X260100D01*
Y484800D01*
X260500Y484400D01*
X260100Y484000D01*
Y483600D01*
X252300Y483700D02*
X252700D01*
X253100Y484100D01*
X253500Y483700D01*
X253900D01*
Y484100D01*
X253500Y484500D01*
X253900Y484900D01*
Y485300D01*
X253500D01*
X253100Y484900D01*
X252700Y485300D01*
X252300D01*
Y484900D01*
X252700Y484500D01*
X252300Y484100D01*
Y483700D01*
X243182Y483400D02*
X243582D01*
X243982Y483800D01*
X244382Y483400D01*
X244782D01*
Y483800D01*
X244382Y484200D01*
X244782Y484600D01*
Y485000D01*
X244382D01*
X243982Y484600D01*
X243582Y485000D01*
X243182D01*
Y484600D01*
X243582Y484200D01*
X243182Y483800D01*
Y483400D01*
X234858Y483600D02*
X235258D01*
X235658Y484000D01*
X236058Y483600D01*
X236458D01*
Y484000D01*
X236058Y484400D01*
X236458Y484800D01*
Y485200D01*
X236058D01*
X235658Y484800D01*
X235258Y485200D01*
X234858D01*
Y484800D01*
X235258Y484400D01*
X234858Y484000D01*
Y483600D01*
X228500Y483400D02*
X228900D01*
X229300Y483800D01*
X229700Y483400D01*
X230100D01*
Y483800D01*
X229700Y484200D01*
X230100Y484600D01*
Y485000D01*
X229700D01*
X229300Y484600D01*
X228900Y485000D01*
X228500D01*
Y484600D01*
X228900Y484200D01*
X228500Y483800D01*
Y483400D01*
X224063Y480900D02*
X224463D01*
X224863Y481300D01*
X225263Y480900D01*
X225663D01*
Y481300D01*
X225263Y481700D01*
X225663Y482100D01*
Y482500D01*
X225263D01*
X224863Y482100D01*
X224463Y482500D01*
X224063D01*
Y482100D01*
X224463Y481700D01*
X224063Y481300D01*
Y480900D01*
X220700Y475300D02*
X221100D01*
X221500Y475700D01*
X221900Y475300D01*
X222300D01*
Y475700D01*
X221900Y476100D01*
X222300Y476500D01*
Y476900D01*
X221900D01*
X221500Y476500D01*
X221100Y476900D01*
X220700D01*
Y476500D01*
X221100Y476100D01*
X220700Y475700D01*
Y475300D01*
X220500Y470500D02*
X220900D01*
X221300Y470900D01*
X221700Y470500D01*
X222100D01*
Y470900D01*
X221700Y471300D01*
X222100Y471700D01*
Y472100D01*
X221700D01*
X221300Y471700D01*
X220900Y472100D01*
X220500D01*
Y471700D01*
X220900Y471300D01*
X220500Y470900D01*
Y470500D01*
Y466400D02*
X220900D01*
X221300Y466800D01*
X221700Y466400D01*
X222100D01*
Y466800D01*
X221700Y467200D01*
X222100Y467600D01*
Y468000D01*
X221700D01*
X221300Y467600D01*
X220900Y468000D01*
X220500D01*
Y467600D01*
X220900Y467200D01*
X220500Y466800D01*
Y466400D01*
X221900Y341339D02*
X222300D01*
X222700Y341740D01*
X223100Y341339D01*
X223500D01*
Y341740D01*
X223100Y342140D01*
X223500Y342540D01*
Y342939D01*
X223100D01*
X222700Y342540D01*
X222300Y342939D01*
X221900D01*
Y342540D01*
X222300Y342140D01*
X221900Y341740D01*
Y341339D01*
Y335516D02*
X222300D01*
X222700Y335916D01*
X223100Y335516D01*
X223500D01*
Y335916D01*
X223100Y336316D01*
X223500Y336716D01*
Y337116D01*
X223100D01*
X222700Y336716D01*
X222300Y337116D01*
X221900D01*
Y336716D01*
X222300Y336316D01*
X221900Y335916D01*
Y335516D01*
X221300Y313878D02*
X221700D01*
X222100Y314278D01*
X222500Y313878D01*
X222900D01*
Y314278D01*
X222500Y314678D01*
X222900Y315078D01*
Y315478D01*
X222500D01*
X222100Y315078D01*
X221700Y315478D01*
X221300D01*
Y315078D01*
X221700Y314678D01*
X221300Y314278D01*
Y313878D01*
X233500Y295800D02*
X233900D01*
X234300Y296200D01*
X234700Y295800D01*
X235100D01*
Y296200D01*
X234700Y296600D01*
X235100Y297000D01*
Y297400D01*
X234700D01*
X234300Y297000D01*
X233900Y297400D01*
X233500D01*
Y297000D01*
X233900Y296600D01*
X233500Y296200D01*
Y295800D01*
X221100Y309100D02*
X221500D01*
X221900Y309500D01*
X222300Y309100D01*
X222700D01*
Y309500D01*
X222300Y309900D01*
X222700Y310300D01*
Y310700D01*
X222300D01*
X221900Y310300D01*
X221500Y310700D01*
X221100D01*
Y310300D01*
X221500Y309900D01*
X221100Y309500D01*
Y309100D01*
Y301151D02*
X221500D01*
X221900Y301551D01*
X222300Y301151D01*
X222700D01*
Y301551D01*
X222300Y301951D01*
X222700Y302351D01*
Y302751D01*
X222300D01*
X221900Y302351D01*
X221500Y302751D01*
X221100D01*
Y302351D01*
X221500Y301951D01*
X221100Y301551D01*
Y301151D01*
X227500Y295800D02*
X227900D01*
X228300Y296200D01*
X228700Y295800D01*
X229100D01*
Y296200D01*
X228700Y296600D01*
X229100Y297000D01*
Y297400D01*
X228700D01*
X228300Y297000D01*
X227900Y297400D01*
X227500D01*
Y297000D01*
X227900Y296600D01*
X227500Y296200D01*
Y295800D01*
X407400Y297800D02*
X407800D01*
X408200Y298200D01*
X408600Y297800D01*
X409000D01*
Y298200D01*
X408600Y298600D01*
X409000Y299000D01*
Y299400D01*
X408600D01*
X408200Y299000D01*
X407800Y299400D01*
X407400D01*
Y299000D01*
X407800Y298600D01*
X407400Y298200D01*
Y297800D01*
X272600Y462600D02*
X273000D01*
X273400Y463000D01*
X273800Y462600D01*
X274200D01*
Y463000D01*
X273800Y463400D01*
X274200Y463800D01*
Y464200D01*
X273800D01*
X273400Y463800D01*
X273000Y464200D01*
X272600D01*
Y463800D01*
X273000Y463400D01*
X272600Y463000D01*
Y462600D01*
X266600Y461700D02*
X267000D01*
X267400Y462100D01*
X267800Y461700D01*
X268200D01*
Y462100D01*
X267800Y462500D01*
X268200Y462900D01*
Y463300D01*
X267800D01*
X267400Y462900D01*
X267000Y463300D01*
X266600D01*
Y462900D01*
X267000Y462500D01*
X266600Y462100D01*
Y461700D01*
X262073Y367673D02*
X262473D01*
X262873Y368073D01*
X263273Y367673D01*
X263673D01*
Y368073D01*
X263273Y368473D01*
X263673Y368873D01*
Y369273D01*
X263273D01*
X262873Y368873D01*
X262473Y369273D01*
X262073D01*
Y368873D01*
X262473Y368473D01*
X262073Y368073D01*
Y367673D01*
X245400Y416100D02*
X245800D01*
X246200Y416500D01*
X246600Y416100D01*
X247000D01*
Y416500D01*
X246600Y416900D01*
X247000Y417300D01*
Y417700D01*
X246600D01*
X246200Y417300D01*
X245800Y417700D01*
X245400D01*
Y417300D01*
X245800Y416900D01*
X245400Y416500D01*
Y416100D01*
X284456Y371357D02*
X284857D01*
X285257Y371757D01*
X285656Y371357D01*
X286056D01*
Y371757D01*
X285656Y372157D01*
X286056Y372556D01*
Y372956D01*
X285656D01*
X285257Y372556D01*
X284857Y372956D01*
X284456D01*
Y372556D01*
X284857Y372157D01*
X284456Y371757D01*
Y371357D01*
X266000Y370100D02*
X266400D01*
X266800Y370500D01*
X267200Y370100D01*
X267600D01*
Y370500D01*
X267200Y370900D01*
X267600Y371300D01*
Y371700D01*
X267200D01*
X266800Y371300D01*
X266400Y371700D01*
X266000D01*
Y371300D01*
X266400Y370900D01*
X266000Y370500D01*
Y370100D01*
X254792Y367373D02*
X255192D01*
X255592Y367773D01*
X255992Y367373D01*
X256392D01*
Y367773D01*
X255992Y368173D01*
X256392Y368573D01*
Y368973D01*
X255992D01*
X255592Y368573D01*
X255192Y368973D01*
X254792D01*
Y368573D01*
X255192Y368173D01*
X254792Y367773D01*
Y367373D01*
X249900Y358500D02*
X250300D01*
X250700Y358900D01*
X251100Y358500D01*
X251500D01*
Y358900D01*
X251100Y359300D01*
X251500Y359700D01*
Y360100D01*
X251100D01*
X250700Y359700D01*
X250300Y360100D01*
X249900D01*
Y359700D01*
X250300Y359300D01*
X249900Y358900D01*
Y358500D01*
X276800Y358300D02*
X277200D01*
X277600Y358700D01*
X278000Y358300D01*
X278400D01*
Y358700D01*
X278000Y359100D01*
X278400Y359500D01*
Y359900D01*
X278000D01*
X277600Y359500D01*
X277200Y359900D01*
X276800D01*
Y359500D01*
X277200Y359100D01*
X276800Y358700D01*
Y358300D01*
X250000Y375000D02*
X250400D01*
X250800Y375400D01*
X251200Y375000D01*
X251600D01*
Y375400D01*
X251200Y375800D01*
X251600Y376200D01*
Y376600D01*
X251200D01*
X250800Y376200D01*
X250400Y376600D01*
X250000D01*
Y376200D01*
X250400Y375800D01*
X250000Y375400D01*
Y375000D01*
X252100Y375100D02*
X252500D01*
X252900Y375500D01*
X253300Y375100D01*
X253700D01*
Y375500D01*
X253300Y375900D01*
X253700Y376300D01*
Y376700D01*
X253300D01*
X252900Y376300D01*
X252500Y376700D01*
X252100D01*
Y376300D01*
X252500Y375900D01*
X252100Y375500D01*
Y375100D01*
X277182Y315800D02*
X277582D01*
X277982Y316200D01*
X278382Y315800D01*
X278782D01*
Y316200D01*
X278382Y316600D01*
X278782Y317000D01*
Y317400D01*
X278382D01*
X277982Y317000D01*
X277582Y317400D01*
X277182D01*
Y317000D01*
X277582Y316600D01*
X277182Y316200D01*
Y315800D01*
X277300Y311700D02*
X277700D01*
X278100Y312100D01*
X278500Y311700D01*
X278900D01*
Y312100D01*
X278500Y312500D01*
X278900Y312900D01*
Y313300D01*
X278500D01*
X278100Y312900D01*
X277700Y313300D01*
X277300D01*
Y312900D01*
X277700Y312500D01*
X277300Y312100D01*
Y311700D01*
X268767Y314100D02*
X269167D01*
X269567Y314500D01*
X269967Y314100D01*
X270367D01*
Y314500D01*
X269967Y314900D01*
X270367Y315300D01*
Y315700D01*
X269967D01*
X269567Y315300D01*
X269167Y315700D01*
X268767D01*
Y315300D01*
X269167Y314900D01*
X268767Y314500D01*
Y314100D01*
X278300Y464100D02*
X278700D01*
X279100Y464500D01*
X279500Y464100D01*
X279900D01*
Y464500D01*
X279500Y464900D01*
X279900Y465300D01*
Y465700D01*
X279500D01*
X279100Y465300D01*
X278700Y465700D01*
X278300D01*
Y465300D01*
X278700Y464900D01*
X278300Y464500D01*
Y464100D01*
X269700Y463150D02*
X270100D01*
X270500Y463550D01*
X270900Y463150D01*
X271300D01*
Y463550D01*
X270900Y463950D01*
X271300Y464350D01*
Y464750D01*
X270900D01*
X270500Y464350D01*
X270100Y464750D01*
X269700D01*
Y464350D01*
X270100Y463950D01*
X269700Y463550D01*
Y463150D01*
X263500Y465300D02*
X263900D01*
X264300Y465700D01*
X264700Y465300D01*
X265100D01*
Y465700D01*
X264700Y466100D01*
X265100Y466500D01*
Y466900D01*
X264700D01*
X264300Y466500D01*
X263900Y466900D01*
X263500D01*
Y466500D01*
X263900Y466100D01*
X263500Y465700D01*
Y465300D01*
X277200Y319600D02*
X277600D01*
X278000Y320000D01*
X278400Y319600D01*
X278800D01*
Y320000D01*
X278400Y320400D01*
X278800Y320800D01*
Y321200D01*
X278400D01*
X278000Y320800D01*
X277600Y321200D01*
X277200D01*
Y320800D01*
X277600Y320400D01*
X277200Y320000D01*
Y319600D01*
X269900Y316300D02*
X270300D01*
X270700Y316700D01*
X271100Y316300D01*
X271500D01*
Y316700D01*
X271100Y317100D01*
X271500Y317500D01*
Y317900D01*
X271100D01*
X270700Y317500D01*
X270300Y317900D01*
X269900D01*
Y317500D01*
X270300Y317100D01*
X269900Y316700D01*
Y316300D01*
X276100Y461900D02*
X276500D01*
X276900Y462300D01*
X277300Y461900D01*
X277700D01*
Y462300D01*
X277300Y462700D01*
X277700Y463100D01*
Y463500D01*
X277300D01*
X276900Y463100D01*
X276500Y463500D01*
X276100D01*
Y463100D01*
X276500Y462700D01*
X276100Y462300D01*
Y461900D01*
X263500Y462500D02*
X263900D01*
X264300Y462900D01*
X264700Y462500D01*
X265100D01*
Y462900D01*
X264700Y463300D01*
X265100Y463700D01*
Y464100D01*
X264700D01*
X264300Y463700D01*
X263900Y464100D01*
X263500D01*
Y463700D01*
X263900Y463300D01*
X263500Y462900D01*
Y462500D01*
X272705Y461483D02*
X273105D01*
X273504Y461883D01*
X273904Y461483D01*
X274305D01*
Y461883D01*
X273904Y462283D01*
X274305Y462683D01*
Y463083D01*
X273904D01*
X273504Y462683D01*
X273105Y463083D01*
X272705D01*
Y462683D01*
X273105Y462283D01*
X272705Y461883D01*
Y461483D01*
X269800Y459400D02*
X270200D01*
X270600Y459800D01*
X271000Y459400D01*
X271400D01*
Y459800D01*
X271000Y460200D01*
X271400Y460600D01*
Y461000D01*
X271000D01*
X270600Y460600D01*
X270200Y461000D01*
X269800D01*
Y460600D01*
X270200Y460200D01*
X269800Y459800D01*
Y459400D01*
X281597Y458000D02*
X281997D01*
X282397Y458400D01*
X282797Y458000D01*
X283197D01*
Y458400D01*
X282797Y458800D01*
X283197Y459200D01*
Y459600D01*
X282797D01*
X282397Y459200D01*
X281997Y459600D01*
X281597D01*
Y459200D01*
X281997Y458800D01*
X281597Y458400D01*
Y458000D01*
X283292Y462000D02*
X283692D01*
X284092Y462400D01*
X284492Y462000D01*
X284892D01*
Y462400D01*
X284492Y462800D01*
X284892Y463200D01*
Y463600D01*
X284492D01*
X284092Y463200D01*
X283692Y463600D01*
X283292D01*
Y463200D01*
X283692Y462800D01*
X283292Y462400D01*
Y462000D01*
X281450Y460100D02*
X281850D01*
X282250Y460500D01*
X282650Y460100D01*
X283050D01*
Y460500D01*
X282650Y460900D01*
X283050Y461300D01*
Y461700D01*
X282650D01*
X282250Y461300D01*
X281850Y461700D01*
X281450D01*
Y461300D01*
X281850Y460900D01*
X281450Y460500D01*
Y460100D01*
X279500Y459100D02*
X279900D01*
X280300Y459500D01*
X280700Y459100D01*
X281100D01*
Y459500D01*
X280700Y459900D01*
X281100Y460300D01*
Y460700D01*
X280700D01*
X280300Y460300D01*
X279900Y460700D01*
X279500D01*
Y460300D01*
X279900Y459900D01*
X279500Y459500D01*
Y459100D01*
X259382Y316200D02*
X259782D01*
X260182Y316600D01*
X260582Y316200D01*
X260982D01*
Y316600D01*
X260582Y317000D01*
X260982Y317400D01*
Y317800D01*
X260582D01*
X260182Y317400D01*
X259782Y317800D01*
X259382D01*
Y317400D01*
X259782Y317000D01*
X259382Y316600D01*
Y316200D01*
X262400Y316348D02*
X262800D01*
X263200Y316748D01*
X263600Y316348D01*
X264000D01*
Y316748D01*
X263600Y317148D01*
X264000Y317548D01*
Y317948D01*
X263600D01*
X263200Y317548D01*
X262800Y317948D01*
X262400D01*
Y317548D01*
X262800Y317148D01*
X262400Y316748D01*
Y316348D01*
X265100Y317200D02*
X265500D01*
X265900Y317600D01*
X266300Y317200D01*
X266700D01*
Y317600D01*
X266300Y318000D01*
X266700Y318400D01*
Y318800D01*
X266300D01*
X265900Y318400D01*
X265500Y318800D01*
X265100D01*
Y318400D01*
X265500Y318000D01*
X265100Y317600D01*
Y317200D01*
X266792Y319594D02*
X267192D01*
X267592Y319994D01*
X267992Y319594D01*
X268392D01*
Y319994D01*
X267992Y320394D01*
X268392Y320794D01*
Y321194D01*
X267992D01*
X267592Y320794D01*
X267192Y321194D01*
X266792D01*
Y320794D01*
X267192Y320394D01*
X266792Y319994D01*
Y319594D01*
X274353Y316800D02*
X274753D01*
X275153Y317200D01*
X275553Y316800D01*
X275953D01*
Y317200D01*
X275553Y317600D01*
X275953Y318000D01*
Y318400D01*
X275553D01*
X275153Y318000D01*
X274753Y318400D01*
X274353D01*
Y318000D01*
X274753Y317600D01*
X274353Y317200D01*
Y316800D01*
X274248Y314032D02*
X274647D01*
X275047Y314432D01*
X275448Y314032D01*
X275848D01*
Y314432D01*
X275448Y314832D01*
X275848Y315232D01*
Y315632D01*
X275448D01*
X275047Y315232D01*
X274647Y315632D01*
X274248D01*
Y315232D01*
X274647Y314832D01*
X274248Y314432D01*
Y314032D01*
X280281Y313093D02*
X280681D01*
X281081Y313493D01*
X281481Y313093D01*
X281881D01*
Y313493D01*
X281481Y313893D01*
X281881Y314293D01*
Y314693D01*
X281481D01*
X281081Y314293D01*
X280681Y314693D01*
X280281D01*
Y314293D01*
X280681Y313893D01*
X280281Y313493D01*
Y313093D01*
Y316670D02*
X280681D01*
X281081Y317070D01*
X281481Y316670D01*
X281881D01*
Y317070D01*
X281481Y317470D01*
X281881Y317870D01*
Y318270D01*
X281481D01*
X281081Y317870D01*
X280681Y318270D01*
X280281D01*
Y317870D01*
X280681Y317470D01*
X280281Y317070D01*
Y316670D01*
X342200Y373661D02*
X342600D01*
X343000Y374061D01*
X343400Y373661D01*
X343800D01*
Y374061D01*
X343400Y374461D01*
X343800Y374861D01*
Y375261D01*
X343400D01*
X343000Y374861D01*
X342600Y375261D01*
X342200D01*
Y374861D01*
X342600Y374461D01*
X342200Y374061D01*
Y373661D01*
X235200Y442400D02*
X235600D01*
X236000Y442800D01*
X236400Y442400D01*
X236800D01*
Y442800D01*
X236400Y443200D01*
X236800Y443600D01*
Y444000D01*
X236400D01*
X236000Y443600D01*
X235600Y444000D01*
X235200D01*
Y443600D01*
X235600Y443200D01*
X235200Y442800D01*
Y442400D01*
X235121Y448533D02*
X235521D01*
X235921Y448933D01*
X236321Y448533D01*
X236721D01*
Y448933D01*
X236321Y449333D01*
X236721Y449733D01*
Y450133D01*
X236321D01*
X235921Y449733D01*
X235521Y450133D01*
X235121D01*
Y449733D01*
X235521Y449333D01*
X235121Y448933D01*
Y448533D01*
X236350Y437400D02*
X236750D01*
X237150Y437800D01*
X237550Y437400D01*
X237950D01*
Y437800D01*
X237550Y438200D01*
X237950Y438600D01*
Y439000D01*
X237550D01*
X237150Y438600D01*
X236750Y439000D01*
X236350D01*
Y438600D01*
X236750Y438200D01*
X236350Y437800D01*
Y437400D01*
X310800Y443900D02*
X311200D01*
X311600Y444300D01*
X312000Y443900D01*
X312400D01*
Y444300D01*
X312000Y444700D01*
X312400Y445100D01*
Y445500D01*
X312000D01*
X311600Y445100D01*
X311200Y445500D01*
X310800D01*
Y445100D01*
X311200Y444700D01*
X310800Y444300D01*
Y443900D01*
X277600Y419900D02*
X278000D01*
X278400Y420300D01*
X278800Y419900D01*
X279200D01*
Y420300D01*
X278800Y420700D01*
X279200Y421100D01*
Y421500D01*
X278800D01*
X278400Y421100D01*
X278000Y421500D01*
X277600D01*
Y421100D01*
X278000Y420700D01*
X277600Y420300D01*
Y419900D01*
X301968Y421950D02*
X302368D01*
X302768Y422350D01*
X303168Y421950D01*
X303568D01*
Y422350D01*
X303168Y422750D01*
X303568Y423150D01*
Y423550D01*
X303168D01*
X302768Y423150D01*
X302368Y423550D01*
X301968D01*
Y423150D01*
X302368Y422750D01*
X301968Y422350D01*
Y421950D01*
X308600Y371721D02*
X309000D01*
X309400Y372121D01*
X309800Y371721D01*
X310200D01*
Y372121D01*
X309800Y372521D01*
X310200Y372921D01*
Y373321D01*
X309800D01*
X309400Y372921D01*
X309000Y373321D01*
X308600D01*
Y372921D01*
X309000Y372521D01*
X308600Y372121D01*
Y371721D01*
X256150Y403700D02*
X256550D01*
X256950Y404100D01*
X257350Y403700D01*
X257750D01*
Y404100D01*
X257350Y404500D01*
X257750Y404900D01*
Y405300D01*
X257350D01*
X256950Y404900D01*
X256550Y405300D01*
X256150D01*
Y404900D01*
X256550Y404500D01*
X256150Y404100D01*
Y403700D01*
X249700Y383279D02*
X250100D01*
X250500Y383679D01*
X250900Y383279D01*
X251300D01*
Y383679D01*
X250900Y384079D01*
X251300Y384479D01*
Y384879D01*
X250900D01*
X250500Y384479D01*
X250100Y384879D01*
X249700D01*
Y384479D01*
X250100Y384079D01*
X249700Y383679D01*
Y383279D01*
X248400Y458200D02*
X248800D01*
X249200Y458600D01*
X249600Y458200D01*
X250000D01*
Y458600D01*
X249600Y459000D01*
X250000Y459400D01*
Y459800D01*
X249600D01*
X249200Y459400D01*
X248800Y459800D01*
X248400D01*
Y459400D01*
X248800Y459000D01*
X248400Y458600D01*
Y458200D01*
X232200Y455100D02*
X232600D01*
X233000Y455500D01*
X233400Y455100D01*
X233800D01*
Y455500D01*
X233400Y455900D01*
X233800Y456300D01*
Y456700D01*
X233400D01*
X233000Y456300D01*
X232600Y456700D01*
X232200D01*
Y456300D01*
X232600Y455900D01*
X232200Y455500D01*
Y455100D01*
X264919Y339590D02*
X265319D01*
X265720Y339989D01*
X266120Y339590D01*
X266519D01*
Y339989D01*
X266120Y340389D01*
X266519Y340790D01*
Y341190D01*
X266120D01*
X265720Y340790D01*
X265319Y341190D01*
X264919D01*
Y340790D01*
X265319Y340389D01*
X264919Y339989D01*
Y339590D01*
X299800Y355742D02*
X300200D01*
X300600Y356142D01*
X301000Y355742D01*
X301400D01*
Y356142D01*
X301000Y356542D01*
X301400Y356942D01*
Y357342D01*
X301000D01*
X300600Y356942D01*
X300200Y357342D01*
X299800D01*
Y356942D01*
X300200Y356542D01*
X299800Y356142D01*
Y355742D01*
X272500Y367700D02*
X272900D01*
X273300Y368100D01*
X273700Y367700D01*
X274100D01*
Y368100D01*
X273700Y368500D01*
X274100Y368900D01*
Y369300D01*
X273700D01*
X273300Y368900D01*
X272900Y369300D01*
X272500D01*
Y368900D01*
X272900Y368500D01*
X272500Y368100D01*
Y367700D01*
X352200Y393100D02*
X352600D01*
X353000Y393500D01*
X353400Y393100D01*
X353800D01*
Y393500D01*
X353400Y393900D01*
X353800Y394300D01*
Y394700D01*
X353400D01*
X353000Y394300D01*
X352600Y394700D01*
X352200D01*
Y394300D01*
X352600Y393900D01*
X352200Y393500D01*
Y393100D01*
X347600Y407600D02*
X348000D01*
X348400Y408000D01*
X348800Y407600D01*
X349200D01*
Y408000D01*
X348800Y408400D01*
X349200Y408800D01*
Y409200D01*
X348800D01*
X348400Y408800D01*
X348000Y409200D01*
X347600D01*
Y408800D01*
X348000Y408400D01*
X347600Y408000D01*
Y407600D01*
X311000Y320500D02*
X311400D01*
X311800Y320900D01*
X312200Y320500D01*
X312600D01*
Y320900D01*
X312200Y321300D01*
X312600Y321700D01*
Y322100D01*
X312200D01*
X311800Y321700D01*
X311400Y322100D01*
X311000D01*
Y321700D01*
X311400Y321300D01*
X311000Y320900D01*
Y320500D01*
X321300Y329400D02*
X321700D01*
X322100Y329800D01*
X322500Y329400D01*
X322900D01*
Y329800D01*
X322500Y330200D01*
X322900Y330600D01*
Y331000D01*
X322500D01*
X322100Y330600D01*
X321700Y331000D01*
X321300D01*
Y330600D01*
X321700Y330200D01*
X321300Y329800D01*
Y329400D01*
X247900Y469700D02*
X248300D01*
X248700Y470100D01*
X249100Y469700D01*
X249500D01*
Y470100D01*
X249100Y470500D01*
X249500Y470900D01*
Y471300D01*
X249100D01*
X248700Y470900D01*
X248300Y471300D01*
X247900D01*
Y470900D01*
X248300Y470500D01*
X247900Y470100D01*
Y469700D01*
X245800Y469900D02*
X246200D01*
X246600Y470300D01*
X247000Y469900D01*
X247400D01*
Y470300D01*
X247000Y470700D01*
X247400Y471100D01*
Y471500D01*
X247000D01*
X246600Y471100D01*
X246200Y471500D01*
X245800D01*
Y471100D01*
X246200Y470700D01*
X245800Y470300D01*
Y469900D01*
X247500Y471900D02*
X247900D01*
X248300Y472300D01*
X248700Y471900D01*
X249100D01*
Y472300D01*
X248700Y472700D01*
X249100Y473100D01*
Y473500D01*
X248700D01*
X248300Y473100D01*
X247900Y473500D01*
X247500D01*
Y473100D01*
X247900Y472700D01*
X247500Y472300D01*
Y471900D01*
X245300Y472000D02*
X245700D01*
X246100Y472400D01*
X246500Y472000D01*
X246900D01*
Y472400D01*
X246500Y472800D01*
X246900Y473200D01*
Y473600D01*
X246500D01*
X246100Y473200D01*
X245700Y473600D01*
X245300D01*
Y473200D01*
X245700Y472800D01*
X245300Y472400D01*
Y472000D01*
X243300Y470100D02*
X243700D01*
X244100Y470500D01*
X244500Y470100D01*
X244900D01*
Y470500D01*
X244500Y470900D01*
X244900Y471300D01*
Y471700D01*
X244500D01*
X244100Y471300D01*
X243700Y471700D01*
X243300D01*
Y471300D01*
X243700Y470900D01*
X243300Y470500D01*
Y470100D01*
X257658Y453042D02*
X258058D01*
X258458Y453442D01*
X258858Y453042D01*
X259258D01*
Y453442D01*
X258858Y453842D01*
X259258Y454242D01*
Y454642D01*
X258858D01*
X258458Y454242D01*
X258058Y454642D01*
X257658D01*
Y454242D01*
X258058Y453842D01*
X257658Y453442D01*
Y453042D01*
X278552Y371448D02*
X278952D01*
X279351Y371849D01*
X279751Y371448D01*
X280152D01*
Y371849D01*
X279751Y372249D01*
X280152Y372649D01*
Y373048D01*
X279751D01*
X279351Y372649D01*
X278952Y373048D01*
X278552D01*
Y372649D01*
X278952Y372249D01*
X278552Y371849D01*
Y371448D01*
X250100Y469800D02*
X250500D01*
X250900Y470200D01*
X251300Y469800D01*
X251700D01*
Y470200D01*
X251300Y470600D01*
X251700Y471000D01*
Y471400D01*
X251300D01*
X250900Y471000D01*
X250500Y471400D01*
X250100D01*
Y471000D01*
X250500Y470600D01*
X250100Y470200D01*
Y469800D01*
X250000Y471900D02*
X250400D01*
X250800Y472300D01*
X251200Y471900D01*
X251600D01*
Y472300D01*
X251200Y472700D01*
X251600Y473100D01*
Y473500D01*
X251200D01*
X250800Y473100D01*
X250400Y473500D01*
X250000D01*
Y473100D01*
X250400Y472700D01*
X250000Y472300D01*
Y471900D01*
X252600Y469500D02*
X253000D01*
X253400Y469900D01*
X253800Y469500D01*
X254200D01*
Y469900D01*
X253800Y470300D01*
X254200Y470700D01*
Y471100D01*
X253800D01*
X253400Y470700D01*
X253000Y471100D01*
X252600D01*
Y470700D01*
X253000Y470300D01*
X252600Y469900D01*
Y469500D01*
X252300Y471800D02*
X252700D01*
X253100Y472200D01*
X253500Y471800D01*
X253900D01*
Y472200D01*
X253500Y472600D01*
X253900Y473000D01*
Y473400D01*
X253500D01*
X253100Y473000D01*
X252700Y473400D01*
X252300D01*
Y473000D01*
X252700Y472600D01*
X252300Y472200D01*
Y471800D01*
X257400Y458300D02*
X257800D01*
X258200Y458700D01*
X258600Y458300D01*
X259000D01*
Y458700D01*
X258600Y459100D01*
X259000Y459500D01*
Y459900D01*
X258600D01*
X258200Y459500D01*
X257800Y459900D01*
X257400D01*
Y459500D01*
X257800Y459100D01*
X257400Y458700D01*
Y458300D01*
X243900Y417600D02*
X244300D01*
X244700Y418000D01*
X245100Y417600D01*
X245500D01*
Y418000D01*
X245100Y418400D01*
X245500Y418800D01*
Y419200D01*
X245100D01*
X244700Y418800D01*
X244300Y419200D01*
X243900D01*
Y418800D01*
X244300Y418400D01*
X243900Y418000D01*
Y417600D01*
X246100Y418000D02*
X246500D01*
X246900Y418400D01*
X247300Y418000D01*
X247700D01*
Y418400D01*
X247300Y418800D01*
X247700Y419200D01*
Y419600D01*
X247300D01*
X246900Y419200D01*
X246500Y419600D01*
X246100D01*
Y419200D01*
X246500Y418800D01*
X246100Y418400D01*
Y418000D01*
X247400Y416000D02*
X247800D01*
X248200Y416400D01*
X248600Y416000D01*
X249000D01*
Y416400D01*
X248600Y416800D01*
X249000Y417200D01*
Y417600D01*
X248600D01*
X248200Y417200D01*
X247800Y417600D01*
X247400D01*
Y417200D01*
X247800Y416800D01*
X247400Y416400D01*
Y416000D01*
X248700Y417900D02*
X249100D01*
X249500Y418300D01*
X249900Y417900D01*
X250300D01*
Y418300D01*
X249900Y418700D01*
X250300Y419100D01*
Y419500D01*
X249900D01*
X249500Y419100D01*
X249100Y419500D01*
X248700D01*
Y419100D01*
X249100Y418700D01*
X248700Y418300D01*
Y417900D01*
X249800Y416000D02*
X250200D01*
X250600Y416400D01*
X251000Y416000D01*
X251400D01*
Y416400D01*
X251000Y416800D01*
X251400Y417200D01*
Y417600D01*
X251000D01*
X250600Y417200D01*
X250200Y417600D01*
X249800D01*
Y417200D01*
X250200Y416800D01*
X249800Y416400D01*
Y416000D01*
X250800Y417700D02*
X251200D01*
X251600Y418100D01*
X252000Y417700D01*
X252400D01*
Y418100D01*
X252000Y418500D01*
X252400Y418900D01*
Y419300D01*
X252000D01*
X251600Y418900D01*
X251200Y419300D01*
X250800D01*
Y418900D01*
X251200Y418500D01*
X250800Y418100D01*
Y417700D01*
X251900Y415900D02*
X252300D01*
X252700Y416300D01*
X253100Y415900D01*
X253500D01*
Y416300D01*
X253100Y416700D01*
X253500Y417100D01*
Y417500D01*
X253100D01*
X252700Y417100D01*
X252300Y417500D01*
X251900D01*
Y417100D01*
X252300Y416700D01*
X251900Y416300D01*
Y415900D01*
X246400Y420000D02*
X246800D01*
X247200Y420400D01*
X247600Y420000D01*
X248000D01*
Y420400D01*
X247600Y420800D01*
X248000Y421200D01*
Y421600D01*
X247600D01*
X247200Y421200D01*
X246800Y421600D01*
X246400D01*
Y421200D01*
X246800Y420800D01*
X246400Y420400D01*
Y420000D01*
X243800Y419900D02*
X244200D01*
X244600Y420300D01*
X245000Y419900D01*
X245400D01*
Y420300D01*
X245000Y420700D01*
X245400Y421100D01*
Y421500D01*
X245000D01*
X244600Y421100D01*
X244200Y421500D01*
X243800D01*
Y421100D01*
X244200Y420700D01*
X243800Y420300D01*
Y419900D01*
X248900Y420106D02*
X249300D01*
X249700Y420506D01*
X250100Y420106D01*
X250500D01*
Y420506D01*
X250100Y420906D01*
X250500Y421306D01*
Y421706D01*
X250100D01*
X249700Y421306D01*
X249300Y421706D01*
X248900D01*
Y421306D01*
X249300Y420906D01*
X248900Y420506D01*
Y420106D01*
X251300Y420200D02*
X251700D01*
X252100Y420600D01*
X252500Y420200D01*
X252900D01*
Y420600D01*
X252500Y421000D01*
X252900Y421400D01*
Y421800D01*
X252500D01*
X252100Y421400D01*
X251700Y421800D01*
X251300D01*
Y421400D01*
X251700Y421000D01*
X251300Y420600D01*
Y420200D01*
X252800Y418300D02*
X253200D01*
X253600Y418700D01*
X254000Y418300D01*
X254400D01*
Y418700D01*
X254000Y419100D01*
X254400Y419500D01*
Y419900D01*
X254000D01*
X253600Y419500D01*
X253200Y419900D01*
X252800D01*
Y419500D01*
X253200Y419100D01*
X252800Y418700D01*
Y418300D01*
X241000Y470200D02*
X241400D01*
X241800Y470600D01*
X242200Y470200D01*
X242600D01*
Y470600D01*
X242200Y471000D01*
X242600Y471400D01*
Y471800D01*
X242200D01*
X241800Y471400D01*
X241400Y471800D01*
X241000D01*
Y471400D01*
X241400Y471000D01*
X241000Y470600D01*
Y470200D01*
X238300Y469900D02*
X238700D01*
X239100Y470300D01*
X239500Y469900D01*
X239900D01*
Y470300D01*
X239500Y470700D01*
X239900Y471100D01*
Y471500D01*
X239500D01*
X239100Y471100D01*
X238700Y471500D01*
X238300D01*
Y471100D01*
X238700Y470700D01*
X238300Y470300D01*
Y469900D01*
X236300D02*
X236700D01*
X237100Y470300D01*
X237500Y469900D01*
X237900D01*
Y470300D01*
X237500Y470700D01*
X237900Y471100D01*
Y471500D01*
X237500D01*
X237100Y471100D01*
X236700Y471500D01*
X236300D01*
Y471100D01*
X236700Y470700D01*
X236300Y470300D01*
Y469900D01*
X243000Y472100D02*
X243400D01*
X243800Y472500D01*
X244200Y472100D01*
X244600D01*
Y472500D01*
X244200Y472900D01*
X244600Y473300D01*
Y473700D01*
X244200D01*
X243800Y473300D01*
X243400Y473700D01*
X243000D01*
Y473300D01*
X243400Y472900D01*
X243000Y472500D01*
Y472100D01*
X240700Y472241D02*
X241100D01*
X241500Y472641D01*
X241900Y472241D01*
X242300D01*
Y472641D01*
X241900Y473041D01*
X242300Y473441D01*
Y473841D01*
X241900D01*
X241500Y473441D01*
X241100Y473841D01*
X240700D01*
Y473441D01*
X241100Y473041D01*
X240700Y472641D01*
Y472241D01*
X238700D02*
X239100D01*
X239500Y472641D01*
X239900Y472241D01*
X240300D01*
Y472641D01*
X239900Y473041D01*
X240300Y473441D01*
Y473841D01*
X239900D01*
X239500Y473441D01*
X239100Y473841D01*
X238700D01*
Y473441D01*
X239100Y473041D01*
X238700Y472641D01*
Y472241D01*
X236300Y472300D02*
X236700D01*
X237100Y472700D01*
X237500Y472300D01*
X237900D01*
Y472700D01*
X237500Y473100D01*
X237900Y473500D01*
Y473900D01*
X237500D01*
X237100Y473500D01*
X236700Y473900D01*
X236300D01*
Y473500D01*
X236700Y473100D01*
X236300Y472700D01*
Y472300D01*
X256050Y443200D02*
X256450D01*
X256850Y443600D01*
X257250Y443200D01*
X257650D01*
Y443600D01*
X257250Y444000D01*
X257650Y444400D01*
Y444800D01*
X257250D01*
X256850Y444400D01*
X256450Y444800D01*
X256050D01*
Y444400D01*
X256450Y444000D01*
X256050Y443600D01*
Y443200D01*
X257900Y441100D02*
X258300D01*
X258700Y441500D01*
X259100Y441100D01*
X259500D01*
Y441500D01*
X259100Y441900D01*
X259500Y442300D01*
Y442700D01*
X259100D01*
X258700Y442300D01*
X258300Y442700D01*
X257900D01*
Y442300D01*
X258300Y441900D01*
X257900Y441500D01*
Y441100D01*
X255963Y439263D02*
X256363D01*
X256763Y439663D01*
X257163Y439263D01*
X257563D01*
Y439663D01*
X257163Y440063D01*
X257563Y440463D01*
Y440863D01*
X257163D01*
X256763Y440463D01*
X256363Y440863D01*
X255963D01*
Y440463D01*
X256363Y440063D01*
X255963Y439663D01*
Y439263D01*
X258000Y437100D02*
X258400D01*
X258800Y437500D01*
X259200Y437100D01*
X259600D01*
Y437500D01*
X259200Y437900D01*
X259600Y438300D01*
Y438700D01*
X259200D01*
X258800Y438300D01*
X258400Y438700D01*
X258000D01*
Y438300D01*
X258400Y437900D01*
X258000Y437500D01*
Y437100D01*
X287700Y354600D02*
X288100D01*
X288500Y355000D01*
X288900Y354600D01*
X289300D01*
Y355000D01*
X288900Y355400D01*
X289300Y355800D01*
Y356200D01*
X288900D01*
X288500Y355800D01*
X288100Y356200D01*
X287700D01*
Y355800D01*
X288100Y355400D01*
X287700Y355000D01*
Y354600D01*
X286400Y357600D02*
X286800D01*
X287200Y358000D01*
X287600Y357600D01*
X288000D01*
Y358000D01*
X287600Y358400D01*
X288000Y358800D01*
Y359200D01*
X287600D01*
X287200Y358800D01*
X286800Y359200D01*
X286400D01*
Y358800D01*
X286800Y358400D01*
X286400Y358000D01*
Y357600D01*
X280200Y390700D02*
X280600D01*
X281000Y391100D01*
X281400Y390700D01*
X281800D01*
Y391100D01*
X281400Y391500D01*
X281800Y391900D01*
Y392300D01*
X281400D01*
X281000Y391900D01*
X280600Y392300D01*
X280200D01*
Y391900D01*
X280600Y391500D01*
X280200Y391100D01*
Y390700D01*
X292331Y373700D02*
X292730D01*
X293130Y374100D01*
X293531Y373700D01*
X293931D01*
Y374100D01*
X293531Y374500D01*
X293931Y374900D01*
Y375300D01*
X293531D01*
X293130Y374900D01*
X292730Y375300D01*
X292331D01*
Y374900D01*
X292730Y374500D01*
X292331Y374100D01*
Y373700D01*
X274400Y385700D02*
X274800D01*
X275200Y386100D01*
X275600Y385700D01*
X276000D01*
Y386100D01*
X275600Y386500D01*
X276000Y386900D01*
Y387300D01*
X275600D01*
X275200Y386900D01*
X274800Y387300D01*
X274400D01*
Y386900D01*
X274800Y386500D01*
X274400Y386100D01*
Y385700D01*
X277800Y387300D02*
X278200D01*
X278600Y387700D01*
X279000Y387300D01*
X279400D01*
Y387700D01*
X279000Y388100D01*
X279400Y388500D01*
Y388900D01*
X279000D01*
X278600Y388500D01*
X278200Y388900D01*
X277800D01*
Y388500D01*
X278200Y388100D01*
X277800Y387700D01*
Y387300D01*
X264200Y439400D02*
X264600D01*
X265000Y439800D01*
X265400Y439400D01*
X265800D01*
Y439800D01*
X265400Y440200D01*
X265800Y440600D01*
Y441000D01*
X265400D01*
X265000Y440600D01*
X264600Y441000D01*
X264200D01*
Y440600D01*
X264600Y440200D01*
X264200Y439800D01*
Y439400D01*
X267900D02*
X268300D01*
X268700Y439800D01*
X269100Y439400D01*
X269500D01*
Y439800D01*
X269100Y440200D01*
X269500Y440600D01*
Y441000D01*
X269100D01*
X268700Y440600D01*
X268300Y441000D01*
X267900D01*
Y440600D01*
X268300Y440200D01*
X267900Y439800D01*
Y439400D01*
X271600D02*
X272000D01*
X272400Y439800D01*
X272800Y439400D01*
X273200D01*
Y439800D01*
X272800Y440200D01*
X273200Y440600D01*
Y441000D01*
X272800D01*
X272400Y440600D01*
X272000Y441000D01*
X271600D01*
Y440600D01*
X272000Y440200D01*
X271600Y439800D01*
Y439400D01*
X267900Y443100D02*
X268300D01*
X268700Y443500D01*
X269100Y443100D01*
X269500D01*
Y443500D01*
X269100Y443900D01*
X269500Y444300D01*
Y444700D01*
X269100D01*
X268700Y444300D01*
X268300Y444700D01*
X267900D01*
Y444300D01*
X268300Y443900D01*
X267900Y443500D01*
Y443100D01*
X282488Y373989D02*
X282889D01*
X283289Y374389D01*
X283688Y373989D01*
X284088D01*
Y374389D01*
X283688Y374788D01*
X284088Y375188D01*
Y375588D01*
X283688D01*
X283289Y375188D01*
X282889Y375588D01*
X282488D01*
Y375188D01*
X282889Y374788D01*
X282488Y374389D01*
Y373989D01*
X256126Y435326D02*
X256526D01*
X256926Y435726D01*
X257326Y435326D01*
X257726D01*
Y435726D01*
X257326Y436126D01*
X257726Y436526D01*
Y436926D01*
X257326D01*
X256926Y436526D01*
X256526Y436926D01*
X256126D01*
Y436526D01*
X256526Y436126D01*
X256126Y435726D01*
Y435326D01*
X257714Y445168D02*
X258114D01*
X258514Y445568D01*
X258914Y445168D01*
X259314D01*
Y445568D01*
X258914Y445968D01*
X259314Y446368D01*
Y446768D01*
X258914D01*
X258514Y446368D01*
X258114Y446768D01*
X257714D01*
Y446368D01*
X258114Y445968D01*
X257714Y445568D01*
Y445168D01*
X308700Y385747D02*
X309100D01*
X309500Y386147D01*
X309900Y385747D01*
X310300D01*
Y386147D01*
X309900Y386547D01*
X310300Y386947D01*
Y387347D01*
X309900D01*
X309500Y386947D01*
X309100Y387347D01*
X308700D01*
Y386947D01*
X309100Y386547D01*
X308700Y386147D01*
Y385747D01*
X306700Y387716D02*
X307100D01*
X307500Y388116D01*
X307900Y387716D01*
X308300D01*
Y388116D01*
X307900Y388516D01*
X308300Y388916D01*
Y389316D01*
X307900D01*
X307500Y388916D01*
X307100Y389316D01*
X306700D01*
Y388916D01*
X307100Y388516D01*
X306700Y388116D01*
Y387716D01*
Y383779D02*
X307100D01*
X307500Y384179D01*
X307900Y383779D01*
X308300D01*
Y384179D01*
X307900Y384579D01*
X308300Y384979D01*
Y385379D01*
X307900D01*
X307500Y384979D01*
X307100Y385379D01*
X306700D01*
Y384979D01*
X307100Y384579D01*
X306700Y384179D01*
Y383779D01*
X290363Y371600D02*
X290762D01*
X291162Y372000D01*
X291563Y371600D01*
X291963D01*
Y372000D01*
X291563Y372400D01*
X291963Y372800D01*
Y373200D01*
X291563D01*
X291162Y372800D01*
X290762Y373200D01*
X290363D01*
Y372800D01*
X290762Y372400D01*
X290363Y372000D01*
Y371600D01*
X312500Y356900D02*
X312900D01*
X313300Y357300D01*
X313700Y356900D01*
X314100D01*
Y357300D01*
X313700Y357700D01*
X314100Y358100D01*
Y358500D01*
X313700D01*
X313300Y358100D01*
X312900Y358500D01*
X312500D01*
Y358100D01*
X312900Y357700D01*
X312500Y357300D01*
Y356900D01*
X245700Y453800D02*
X246100D01*
X246500Y454200D01*
X246900Y453800D01*
X247300D01*
Y454200D01*
X246900Y454600D01*
X247300Y455000D01*
Y455400D01*
X246900D01*
X246500Y455000D01*
X246100Y455400D01*
X245700D01*
Y455000D01*
X246100Y454600D01*
X245700Y454200D01*
Y453800D01*
X230500Y462900D02*
X230900D01*
X231300Y463300D01*
X231700Y462900D01*
X232100D01*
Y463300D01*
X231700Y463700D01*
X232100Y464100D01*
Y464500D01*
X231700D01*
X231300Y464100D01*
X230900Y464500D01*
X230500D01*
Y464100D01*
X230900Y463700D01*
X230500Y463300D01*
Y462900D01*
X295850Y325850D02*
X296250D01*
X296650Y326250D01*
X297050Y325850D01*
X297450D01*
Y326250D01*
X297050Y326650D01*
X297450Y327050D01*
Y327450D01*
X297050D01*
X296650Y327050D01*
X296250Y327450D01*
X295850D01*
Y327050D01*
X296250Y326650D01*
X295850Y326250D01*
Y325850D01*
X290300Y325800D02*
X290700D01*
X291100Y326200D01*
X291500Y325800D01*
X291900D01*
Y326200D01*
X291500Y326600D01*
X291900Y327000D01*
Y327400D01*
X291500D01*
X291100Y327000D01*
X290700Y327400D01*
X290300D01*
Y327000D01*
X290700Y326600D01*
X290300Y326200D01*
Y325800D01*
X289500Y428200D02*
X289900D01*
X290300Y428600D01*
X290700Y428200D01*
X291100D01*
Y428600D01*
X290700Y429000D01*
X291100Y429400D01*
Y429800D01*
X290700D01*
X290300Y429400D01*
X289900Y429800D01*
X289500D01*
Y429400D01*
X289900Y429000D01*
X289500Y428600D01*
Y428200D01*
X318500Y381700D02*
X318900D01*
X319300Y382100D01*
X319700Y381700D01*
X320100D01*
Y382100D01*
X319700Y382500D01*
X320100Y382900D01*
Y383300D01*
X319700D01*
X319300Y382900D01*
X318900Y383300D01*
X318500D01*
Y382900D01*
X318900Y382500D01*
X318500Y382100D01*
Y381700D01*
X309300Y395400D02*
X309700D01*
X310100Y395800D01*
X310500Y395400D01*
X310900D01*
Y395800D01*
X310500Y396200D01*
X310900Y396600D01*
Y397000D01*
X310500D01*
X310100Y396600D01*
X309700Y397000D01*
X309300D01*
Y396600D01*
X309700Y396200D01*
X309300Y395800D01*
Y395400D01*
X323900Y388600D02*
X324300D01*
X324700Y389000D01*
X325100Y388600D01*
X325500D01*
Y389000D01*
X325100Y389400D01*
X325500Y389800D01*
Y390200D01*
X325100D01*
X324700Y389800D01*
X324300Y390200D01*
X323900D01*
Y389800D01*
X324300Y389400D01*
X323900Y389000D01*
Y388600D01*
X322300Y379400D02*
X322700D01*
X323100Y379800D01*
X323500Y379400D01*
X323900D01*
Y379800D01*
X323500Y380200D01*
X323900Y380600D01*
Y381000D01*
X323500D01*
X323100Y380600D01*
X322700Y381000D01*
X322300D01*
Y380600D01*
X322700Y380200D01*
X322300Y379800D01*
Y379400D01*
X327300Y384800D02*
X327700D01*
X328100Y385200D01*
X328500Y384800D01*
X328900D01*
Y385200D01*
X328500Y385600D01*
X328900Y386000D01*
Y386400D01*
X328500D01*
X328100Y386000D01*
X327700Y386400D01*
X327300D01*
Y386000D01*
X327700Y385600D01*
X327300Y385200D01*
Y384800D01*
X325300Y366600D02*
X325700D01*
X326100Y367000D01*
X326500Y366600D01*
X326900D01*
Y367000D01*
X326500Y367400D01*
X326900Y367800D01*
Y368200D01*
X326500D01*
X326100Y367800D01*
X325700Y368200D01*
X325300D01*
Y367800D01*
X325700Y367400D01*
X325300Y367000D01*
Y366600D01*
X291500Y335652D02*
X291900D01*
X292300Y336052D01*
X292700Y335652D01*
X293100D01*
Y336052D01*
X292700Y336453D01*
X293100Y336853D01*
Y337252D01*
X292700D01*
X292300Y336853D01*
X291900Y337252D01*
X291500D01*
Y336853D01*
X291900Y336453D01*
X291500Y336052D01*
Y335652D01*
X289600Y337500D02*
X290000D01*
X290400Y337900D01*
X290800Y337500D01*
X291200D01*
Y337900D01*
X290800Y338300D01*
X291200Y338700D01*
Y339100D01*
X290800D01*
X290400Y338700D01*
X290000Y339100D01*
X289600D01*
Y338700D01*
X290000Y338300D01*
X289600Y337900D01*
Y337500D01*
X289758Y341684D02*
X290159D01*
X290559Y342084D01*
X290958Y341684D01*
X291358D01*
Y342084D01*
X290958Y342484D01*
X291358Y342884D01*
Y343284D01*
X290958D01*
X290559Y342884D01*
X290159Y343284D01*
X289758D01*
Y342884D01*
X290159Y342484D01*
X289758Y342084D01*
Y341684D01*
X291600Y339700D02*
X292000D01*
X292400Y340100D01*
X292800Y339700D01*
X293200D01*
Y340100D01*
X292800Y340500D01*
X293200Y340900D01*
Y341300D01*
X292800D01*
X292400Y340900D01*
X292000Y341300D01*
X291600D01*
Y340900D01*
X292000Y340500D01*
X291600Y340100D01*
Y339700D01*
X291400Y343700D02*
X291800D01*
X292200Y344100D01*
X292600Y343700D01*
X293000D01*
Y344100D01*
X292600Y344500D01*
X293000Y344900D01*
Y345300D01*
X292600D01*
X292200Y344900D01*
X291800Y345300D01*
X291400D01*
Y344900D01*
X291800Y344500D01*
X291400Y344100D01*
Y343700D01*
X289700Y333500D02*
X290100D01*
X290500Y333900D01*
X290900Y333500D01*
X291300D01*
Y333900D01*
X290900Y334300D01*
X291300Y334700D01*
Y335100D01*
X290900D01*
X290500Y334700D01*
X290100Y335100D01*
X289700D01*
Y334700D01*
X290100Y334300D01*
X289700Y333900D01*
Y333500D01*
X327100Y330200D02*
X327500D01*
X327900Y330600D01*
X328300Y330200D01*
X328700D01*
Y330600D01*
X328300Y331000D01*
X328700Y331400D01*
Y331800D01*
X328300D01*
X327900Y331400D01*
X327500Y331800D01*
X327100D01*
Y331400D01*
X327500Y331000D01*
X327100Y330600D01*
Y330200D01*
X282600Y436911D02*
X283000D01*
X283400Y437312D01*
X283800Y436911D01*
X284200D01*
Y437312D01*
X283800Y437711D01*
X284200Y438111D01*
Y438512D01*
X283800D01*
X283400Y438111D01*
X283000Y438512D01*
X282600D01*
Y438111D01*
X283000Y437711D01*
X282600Y437312D01*
Y436911D01*
X318700Y430800D02*
X319100D01*
X319500Y431200D01*
X319900Y430800D01*
X320300D01*
Y431200D01*
X319900Y431600D01*
X320300Y432000D01*
Y432400D01*
X319900D01*
X319500Y432000D01*
X319100Y432400D01*
X318700D01*
Y432000D01*
X319100Y431600D01*
X318700Y431200D01*
Y430800D01*
X316000D02*
X316400D01*
X316800Y431200D01*
X317200Y430800D01*
X317600D01*
Y431200D01*
X317200Y431600D01*
X317600Y432000D01*
Y432400D01*
X317200D01*
X316800Y432000D01*
X316400Y432400D01*
X316000D01*
Y432000D01*
X316400Y431600D01*
X316000Y431200D01*
Y430800D01*
X313300D02*
X313700D01*
X314100Y431200D01*
X314500Y430800D01*
X314900D01*
Y431200D01*
X314500Y431600D01*
X314900Y432000D01*
Y432400D01*
X314500D01*
X314100Y432000D01*
X313700Y432400D01*
X313300D01*
Y432000D01*
X313700Y431600D01*
X313300Y431200D01*
Y430800D01*
X310800D02*
X311200D01*
X311600Y431200D01*
X312000Y430800D01*
X312400D01*
Y431200D01*
X312000Y431600D01*
X312400Y432000D01*
Y432400D01*
X312000D01*
X311600Y432000D01*
X311200Y432400D01*
X310800D01*
Y432000D01*
X311200Y431600D01*
X310800Y431200D01*
Y430800D01*
X308100D02*
X308500D01*
X308900Y431200D01*
X309300Y430800D01*
X309700D01*
Y431200D01*
X309300Y431600D01*
X309700Y432000D01*
Y432400D01*
X309300D01*
X308900Y432000D01*
X308500Y432400D01*
X308100D01*
Y432000D01*
X308500Y431600D01*
X308100Y431200D01*
Y430800D01*
X299200Y455200D02*
X299600D01*
X300000Y455600D01*
X300400Y455200D01*
X300800D01*
Y455600D01*
X300400Y456000D01*
X300800Y456400D01*
Y456800D01*
X300400D01*
X300000Y456400D01*
X299600Y456800D01*
X299200D01*
Y456400D01*
X299600Y456000D01*
X299200Y455600D01*
Y455200D01*
X299400Y452700D02*
X299800D01*
X300200Y453100D01*
X300600Y452700D01*
X301000D01*
Y453100D01*
X300600Y453500D01*
X301000Y453900D01*
Y454300D01*
X300600D01*
X300200Y453900D01*
X299800Y454300D01*
X299400D01*
Y453900D01*
X299800Y453500D01*
X299400Y453100D01*
Y452700D01*
X301800Y452200D02*
X302200D01*
X302600Y452600D01*
X303000Y452200D01*
X303400D01*
Y452600D01*
X303000Y453000D01*
X303400Y453400D01*
Y453800D01*
X303000D01*
X302600Y453400D01*
X302200Y453800D01*
X301800D01*
Y453400D01*
X302200Y453000D01*
X301800Y452600D01*
Y452200D01*
X304600Y452700D02*
X305000D01*
X305400Y453100D01*
X305800Y452700D01*
X306200D01*
Y453100D01*
X305800Y453500D01*
X306200Y453900D01*
Y454300D01*
X305800D01*
X305400Y453900D01*
X305000Y454300D01*
X304600D01*
Y453900D01*
X305000Y453500D01*
X304600Y453100D01*
Y452700D01*
X303500Y454800D02*
X303900D01*
X304300Y455200D01*
X304700Y454800D01*
X305100D01*
Y455200D01*
X304700Y455600D01*
X305100Y456000D01*
Y456400D01*
X304700D01*
X304300Y456000D01*
X303900Y456400D01*
X303500D01*
Y456000D01*
X303900Y455600D01*
X303500Y455200D01*
Y454800D01*
X301200Y454500D02*
X301600D01*
X302000Y454900D01*
X302400Y454500D01*
X302800D01*
Y454900D01*
X302400Y455300D01*
X302800Y455700D01*
Y456100D01*
X302400D01*
X302000Y455700D01*
X301600Y456100D01*
X301200D01*
Y455700D01*
X301600Y455300D01*
X301200Y454900D01*
Y454500D01*
X305100Y458600D02*
X305500D01*
X305900Y459000D01*
X306300Y458600D01*
X306700D01*
Y459000D01*
X306300Y459400D01*
X306700Y459800D01*
Y460200D01*
X306300D01*
X305900Y459800D01*
X305500Y460200D01*
X305100D01*
Y459800D01*
X305500Y459400D01*
X305100Y459000D01*
Y458600D01*
X303900Y456800D02*
X304300D01*
X304700Y457200D01*
X305100Y456800D01*
X305500D01*
Y457200D01*
X305100Y457600D01*
X305500Y458000D01*
Y458400D01*
X305100D01*
X304700Y458000D01*
X304300Y458400D01*
X303900D01*
Y458000D01*
X304300Y457600D01*
X303900Y457200D01*
Y456800D01*
X301200Y457100D02*
X301600D01*
X302000Y457500D01*
X302400Y457100D01*
X302800D01*
Y457500D01*
X302400Y457900D01*
X302800Y458300D01*
Y458700D01*
X302400D01*
X302000Y458300D01*
X301600Y458700D01*
X301200D01*
Y458300D01*
X301600Y457900D01*
X301200Y457500D01*
Y457100D01*
X303000Y459500D02*
X303400D01*
X303800Y459900D01*
X304200Y459500D01*
X304600D01*
Y459900D01*
X304200Y460300D01*
X304600Y460700D01*
Y461100D01*
X304200D01*
X303800Y460700D01*
X303400Y461100D01*
X303000D01*
Y460700D01*
X303400Y460300D01*
X303000Y459900D01*
Y459500D01*
X305000Y461200D02*
X305400D01*
X305800Y461600D01*
X306200Y461200D01*
X306600D01*
Y461600D01*
X306200Y462000D01*
X306600Y462400D01*
Y462800D01*
X306200D01*
X305800Y462400D01*
X305400Y462800D01*
X305000D01*
Y462400D01*
X305400Y462000D01*
X305000Y461600D01*
Y461200D01*
X239400Y324200D02*
X239800D01*
X240200Y324600D01*
X240600Y324200D01*
X241000D01*
Y324600D01*
X240600Y325000D01*
X241000Y325400D01*
Y325800D01*
X240600D01*
X240200Y325400D01*
X239800Y325800D01*
X239400D01*
Y325400D01*
X239800Y325000D01*
X239400Y324600D01*
Y324200D01*
X239500Y326700D02*
X239900D01*
X240300Y327100D01*
X240700Y326700D01*
X241100D01*
Y327100D01*
X240700Y327500D01*
X241100Y327900D01*
Y328300D01*
X240700D01*
X240300Y327900D01*
X239900Y328300D01*
X239500D01*
Y327900D01*
X239900Y327500D01*
X239500Y327100D01*
Y326700D01*
X242200Y324300D02*
X242600D01*
X243000Y324700D01*
X243400Y324300D01*
X243800D01*
Y324700D01*
X243400Y325100D01*
X243800Y325500D01*
Y325900D01*
X243400D01*
X243000Y325500D01*
X242600Y325900D01*
X242200D01*
Y325500D01*
X242600Y325100D01*
X242200Y324700D01*
Y324300D01*
X242300Y326800D02*
X242700D01*
X243100Y327200D01*
X243500Y326800D01*
X243900D01*
Y327200D01*
X243500Y327600D01*
X243900Y328000D01*
Y328400D01*
X243500D01*
X243100Y328000D01*
X242700Y328400D01*
X242300D01*
Y328000D01*
X242700Y327600D01*
X242300Y327200D01*
Y326800D01*
X251700Y326300D02*
X252100D01*
X252500Y326700D01*
X252900Y326300D01*
X253300D01*
Y326700D01*
X252900Y327100D01*
X253300Y327500D01*
Y327900D01*
X252900D01*
X252500Y327500D01*
X252100Y327900D01*
X251700D01*
Y327500D01*
X252100Y327100D01*
X251700Y326700D01*
Y326300D01*
X251500Y324100D02*
X251900D01*
X252300Y324500D01*
X252700Y324100D01*
X253100D01*
Y324500D01*
X252700Y324900D01*
X253100Y325300D01*
Y325700D01*
X252700D01*
X252300Y325300D01*
X251900Y325700D01*
X251500D01*
Y325300D01*
X251900Y324900D01*
X251500Y324500D01*
Y324100D01*
X249000Y324300D02*
X249400D01*
X249800Y324700D01*
X250200Y324300D01*
X250600D01*
Y324700D01*
X250200Y325100D01*
X250600Y325500D01*
Y325900D01*
X250200D01*
X249800Y325500D01*
X249400Y325900D01*
X249000D01*
Y325500D01*
X249400Y325100D01*
X249000Y324700D01*
Y324300D01*
X247000Y324500D02*
X247400D01*
X247800Y324900D01*
X248200Y324500D01*
X248600D01*
Y324900D01*
X248200Y325300D01*
X248600Y325700D01*
Y326100D01*
X248200D01*
X247800Y325700D01*
X247400Y326100D01*
X247000D01*
Y325700D01*
X247400Y325300D01*
X247000Y324900D01*
Y324500D01*
X244500D02*
X244900D01*
X245300Y324900D01*
X245700Y324500D01*
X246100D01*
Y324900D01*
X245700Y325300D01*
X246100Y325700D01*
Y326100D01*
X245700D01*
X245300Y325700D01*
X244900Y326100D01*
X244500D01*
Y325700D01*
X244900Y325300D01*
X244500Y324900D01*
Y324500D01*
X249500Y326500D02*
X249900D01*
X250300Y326900D01*
X250700Y326500D01*
X251100D01*
Y326900D01*
X250700Y327300D01*
X251100Y327700D01*
Y328100D01*
X250700D01*
X250300Y327700D01*
X249900Y328100D01*
X249500D01*
Y327700D01*
X249900Y327300D01*
X249500Y326900D01*
Y326500D01*
X247000Y326700D02*
X247400D01*
X247800Y327100D01*
X248200Y326700D01*
X248600D01*
Y327100D01*
X248200Y327500D01*
X248600Y327900D01*
Y328300D01*
X248200D01*
X247800Y327900D01*
X247400Y328300D01*
X247000D01*
Y327900D01*
X247400Y327500D01*
X247000Y327100D01*
Y326700D01*
X244700Y326800D02*
X245100D01*
X245500Y327200D01*
X245900Y326800D01*
X246300D01*
Y327200D01*
X245900Y327600D01*
X246300Y328000D01*
Y328400D01*
X245900D01*
X245500Y328000D01*
X245100Y328400D01*
X244700D01*
Y328000D01*
X245100Y327600D01*
X244700Y327200D01*
Y326800D01*
X361100Y455800D02*
X361500D01*
X361900Y456200D01*
X362300Y455800D01*
X362700D01*
Y456200D01*
X362300Y456600D01*
X362700Y457000D01*
Y457400D01*
X362300D01*
X361900Y457000D01*
X361500Y457400D01*
X361100D01*
Y457000D01*
X361500Y456600D01*
X361100Y456200D01*
Y455800D01*
X358800D02*
X359200D01*
X359600Y456200D01*
X360000Y455800D01*
X360400D01*
Y456200D01*
X360000Y456600D01*
X360400Y457000D01*
Y457400D01*
X360000D01*
X359600Y457000D01*
X359200Y457400D01*
X358800D01*
Y457000D01*
X359200Y456600D01*
X358800Y456200D01*
Y455800D01*
X356500D02*
X356900D01*
X357300Y456200D01*
X357700Y455800D01*
X358100D01*
Y456200D01*
X357700Y456600D01*
X358100Y457000D01*
Y457400D01*
X357700D01*
X357300Y457000D01*
X356900Y457400D01*
X356500D01*
Y457000D01*
X356900Y456600D01*
X356500Y456200D01*
Y455800D01*
X361000Y458200D02*
X361400D01*
X361800Y458600D01*
X362200Y458200D01*
X362600D01*
Y458600D01*
X362200Y459000D01*
X362600Y459400D01*
Y459800D01*
X362200D01*
X361800Y459400D01*
X361400Y459800D01*
X361000D01*
Y459400D01*
X361400Y459000D01*
X361000Y458600D01*
Y458200D01*
X358800D02*
X359200D01*
X359600Y458600D01*
X360000Y458200D01*
X360400D01*
Y458600D01*
X360000Y459000D01*
X360400Y459400D01*
Y459800D01*
X360000D01*
X359600Y459400D01*
X359200Y459800D01*
X358800D01*
Y459400D01*
X359200Y459000D01*
X358800Y458600D01*
Y458200D01*
X356500D02*
X356900D01*
X357300Y458600D01*
X357700Y458200D01*
X358100D01*
Y458600D01*
X357700Y459000D01*
X358100Y459400D01*
Y459800D01*
X357700D01*
X357300Y459400D01*
X356900Y459800D01*
X356500D01*
Y459400D01*
X356900Y459000D01*
X356500Y458600D01*
Y458200D01*
X361000Y460600D02*
X361400D01*
X361800Y461000D01*
X362200Y460600D01*
X362600D01*
Y461000D01*
X362200Y461400D01*
X362600Y461800D01*
Y462200D01*
X362200D01*
X361800Y461800D01*
X361400Y462200D01*
X361000D01*
Y461800D01*
X361400Y461400D01*
X361000Y461000D01*
Y460600D01*
X358800D02*
X359200D01*
X359600Y461000D01*
X360000Y460600D01*
X360400D01*
Y461000D01*
X360000Y461400D01*
X360400Y461800D01*
Y462200D01*
X360000D01*
X359600Y461800D01*
X359200Y462200D01*
X358800D01*
Y461800D01*
X359200Y461400D01*
X358800Y461000D01*
Y460600D01*
X356500D02*
X356900D01*
X357300Y461000D01*
X357700Y460600D01*
X358100D01*
Y461000D01*
X357700Y461400D01*
X358100Y461800D01*
Y462200D01*
X357700D01*
X357300Y461800D01*
X356900Y462200D01*
X356500D01*
Y461800D01*
X356900Y461400D01*
X356500Y461000D01*
Y460600D01*
X361000Y463150D02*
X361400D01*
X361800Y463550D01*
X362200Y463150D01*
X362600D01*
Y463550D01*
X362200Y463950D01*
X362600Y464350D01*
Y464750D01*
X362200D01*
X361800Y464350D01*
X361400Y464750D01*
X361000D01*
Y464350D01*
X361400Y463950D01*
X361000Y463550D01*
Y463150D01*
X358800D02*
X359200D01*
X359600Y463550D01*
X360000Y463150D01*
X360400D01*
Y463550D01*
X360000Y463950D01*
X360400Y464350D01*
Y464750D01*
X360000D01*
X359600Y464350D01*
X359200Y464750D01*
X358800D01*
Y464350D01*
X359200Y463950D01*
X358800Y463550D01*
Y463150D01*
X356500D02*
X356900D01*
X357300Y463550D01*
X357700Y463150D01*
X358100D01*
Y463550D01*
X357700Y463950D01*
X358100Y464350D01*
Y464750D01*
X357700D01*
X357300Y464350D01*
X356900Y464750D01*
X356500D01*
Y464350D01*
X356900Y463950D01*
X356500Y463550D01*
Y463150D01*
X280700Y355200D02*
X281100D01*
X281500Y355600D01*
X281900Y355200D01*
X282300D01*
Y355600D01*
X281900Y356000D01*
X282300Y356400D01*
Y356800D01*
X281900D01*
X281500Y356400D01*
X281100Y356800D01*
X280700D01*
Y356400D01*
X281100Y356000D01*
X280700Y355600D01*
Y355200D01*
X280520Y406300D02*
X280920D01*
X281319Y406700D01*
X281719Y406300D01*
X282119D01*
Y406700D01*
X281719Y407100D01*
X282119Y407500D01*
Y407900D01*
X281719D01*
X281319Y407500D01*
X280920Y407900D01*
X280520D01*
Y407500D01*
X280920Y407100D01*
X280520Y406700D01*
Y406300D01*
X296400Y419800D02*
X296800D01*
X297200Y420200D01*
X297600Y419800D01*
X298000D01*
Y420200D01*
X297600Y420600D01*
X298000Y421000D01*
Y421400D01*
X297600D01*
X297200Y421000D01*
X296800Y421400D01*
X296400D01*
Y421000D01*
X296800Y420600D01*
X296400Y420200D01*
Y419800D01*
X286950D02*
X287350D01*
X287750Y420200D01*
X288150Y419800D01*
X288550D01*
Y420200D01*
X288150Y420600D01*
X288550Y421000D01*
Y421400D01*
X288150D01*
X287750Y421000D01*
X287350Y421400D01*
X286950D01*
Y421000D01*
X287350Y420600D01*
X286950Y420200D01*
Y419800D01*
X398200Y425100D02*
X398600D01*
X399000Y425500D01*
X399400Y425100D01*
X399800D01*
Y425500D01*
X399400Y425900D01*
X399800Y426300D01*
Y426700D01*
X399400D01*
X399000Y426300D01*
X398600Y426700D01*
X398200D01*
Y426300D01*
X398600Y425900D01*
X398200Y425500D01*
Y425100D01*
X401800Y429500D02*
X402200D01*
X402600Y429900D01*
X403000Y429500D01*
X403400D01*
Y429900D01*
X403000Y430300D01*
X403400Y430700D01*
Y431100D01*
X403000D01*
X402600Y430700D01*
X402200Y431100D01*
X401800D01*
Y430700D01*
X402200Y430300D01*
X401800Y429900D01*
Y429500D01*
X399250Y429400D02*
X399650D01*
X400050Y429800D01*
X400450Y429400D01*
X400850D01*
Y429800D01*
X400450Y430200D01*
X400850Y430600D01*
Y431000D01*
X400450D01*
X400050Y430600D01*
X399650Y431000D01*
X399250D01*
Y430600D01*
X399650Y430200D01*
X399250Y429800D01*
Y429400D01*
X396800Y429500D02*
X397200D01*
X397600Y429900D01*
X398000Y429500D01*
X398400D01*
Y429900D01*
X398000Y430300D01*
X398400Y430700D01*
Y431100D01*
X398000D01*
X397600Y430700D01*
X397200Y431100D01*
X396800D01*
Y430700D01*
X397200Y430300D01*
X396800Y429900D01*
Y429500D01*
X394200D02*
X394600D01*
X395000Y429900D01*
X395400Y429500D01*
X395800D01*
Y429900D01*
X395400Y430300D01*
X395800Y430700D01*
Y431100D01*
X395400D01*
X395000Y430700D01*
X394600Y431100D01*
X394200D01*
Y430700D01*
X394600Y430300D01*
X394200Y429900D01*
Y429500D01*
X404800Y406900D02*
X405200D01*
X405600Y407300D01*
X406000Y406900D01*
X406400D01*
Y407300D01*
X406000Y407700D01*
X406400Y408100D01*
Y408500D01*
X406000D01*
X405600Y408100D01*
X405200Y408500D01*
X404800D01*
Y408100D01*
X405200Y407700D01*
X404800Y407300D01*
Y406900D01*
X399100D02*
X399500D01*
X399900Y407300D01*
X400300Y406900D01*
X400700D01*
Y407300D01*
X400300Y407700D01*
X400700Y408100D01*
Y408500D01*
X400300D01*
X399900Y408100D01*
X399500Y408500D01*
X399100D01*
Y408100D01*
X399500Y407700D01*
X399100Y407300D01*
Y406900D01*
X396700Y431400D02*
X397100D01*
X397500Y431800D01*
X397900Y431400D01*
X398300D01*
Y431800D01*
X397900Y432200D01*
X398300Y432600D01*
Y433000D01*
X397900D01*
X397500Y432600D01*
X397100Y433000D01*
X396700D01*
Y432600D01*
X397100Y432200D01*
X396700Y431800D01*
Y431400D01*
X401500Y431300D02*
X401900D01*
X402300Y431700D01*
X402700Y431300D01*
X403100D01*
Y431700D01*
X402700Y432100D01*
X403100Y432500D01*
Y432900D01*
X402700D01*
X402300Y432500D01*
X401900Y432900D01*
X401500D01*
Y432500D01*
X401900Y432100D01*
X401500Y431700D01*
Y431300D01*
X399000Y431400D02*
X399400D01*
X399800Y431800D01*
X400200Y431400D01*
X400600D01*
Y431800D01*
X400200Y432200D01*
X400600Y432600D01*
Y433000D01*
X400200D01*
X399800Y432600D01*
X399400Y433000D01*
X399000D01*
Y432600D01*
X399400Y432200D01*
X399000Y431800D01*
Y431400D01*
X394300Y431500D02*
X394700D01*
X395100Y431900D01*
X395500Y431500D01*
X395900D01*
Y431900D01*
X395500Y432300D01*
X395900Y432700D01*
Y433100D01*
X395500D01*
X395100Y432700D01*
X394700Y433100D01*
X394300D01*
Y432700D01*
X394700Y432300D01*
X394300Y431900D01*
Y431500D01*
X268767Y429967D02*
X269167D01*
X269567Y430367D01*
X269967Y429967D01*
X270367D01*
Y430367D01*
X269967Y430767D01*
X270367Y431167D01*
Y431567D01*
X269967D01*
X269567Y431167D01*
X269167Y431567D01*
X268767D01*
Y431167D01*
X269167Y430767D01*
X268767Y430367D01*
Y429967D01*
X248900Y370100D02*
X249300D01*
X249700Y370500D01*
X250100Y370100D01*
X250500D01*
Y370500D01*
X250100Y370900D01*
X250500Y371300D01*
Y371700D01*
X250100D01*
X249700Y371300D01*
X249300Y371700D01*
X248900D01*
Y371300D01*
X249300Y370900D01*
X248900Y370500D01*
Y370100D01*
X290000Y359700D02*
X290400D01*
X290800Y360100D01*
X291200Y359700D01*
X291600D01*
Y360100D01*
X291200Y360500D01*
X291600Y360900D01*
Y361300D01*
X291200D01*
X290800Y360900D01*
X290400Y361300D01*
X290000D01*
Y360900D01*
X290400Y360500D01*
X290000Y360100D01*
Y359700D01*
X268200Y357400D02*
X268600D01*
X269000Y357800D01*
X269400Y357400D01*
X269800D01*
Y357800D01*
X269400Y358200D01*
X269800Y358600D01*
Y359000D01*
X269400D01*
X269000Y358600D01*
X268600Y359000D01*
X268200D01*
Y358600D01*
X268600Y358200D01*
X268200Y357800D01*
Y357400D01*
X250900Y333400D02*
X251300D01*
X251700Y333800D01*
X252100Y333400D01*
X252500D01*
Y333800D01*
X252100Y334200D01*
X252500Y334600D01*
Y335000D01*
X252100D01*
X251700Y334600D01*
X251300Y335000D01*
X250900D01*
Y334600D01*
X251300Y334200D01*
X250900Y333800D01*
Y333400D01*
X264000Y331100D02*
X264400D01*
X264800Y331500D01*
X265200Y331100D01*
X265600D01*
Y331500D01*
X265200Y331900D01*
X265600Y332300D01*
Y332700D01*
X265200D01*
X264800Y332300D01*
X264400Y332700D01*
X264000D01*
Y332300D01*
X264400Y331900D01*
X264000Y331500D01*
Y331100D01*
X264685Y333684D02*
X265085D01*
X265484Y334085D01*
X265884Y333684D01*
X266284D01*
Y334085D01*
X265884Y334485D01*
X266284Y334885D01*
Y335284D01*
X265884D01*
X265484Y334885D01*
X265085Y335284D01*
X264685D01*
Y334885D01*
X265085Y334485D01*
X264685Y334085D01*
Y333684D01*
X296900Y448700D02*
X297300D01*
X297700Y449100D01*
X298100Y448700D01*
X298500D01*
Y449100D01*
X298100Y449500D01*
X298500Y449900D01*
Y450300D01*
X298100D01*
X297700Y449900D01*
X297300Y450300D01*
X296900D01*
Y449900D01*
X297300Y449500D01*
X296900Y449100D01*
Y448700D01*
X293800Y448300D02*
X294200D01*
X294600Y448700D01*
X295000Y448300D01*
X295400D01*
Y448700D01*
X295000Y449100D01*
X295400Y449500D01*
Y449900D01*
X295000D01*
X294600Y449500D01*
X294200Y449900D01*
X293800D01*
Y449500D01*
X294200Y449100D01*
X293800Y448700D01*
Y448300D01*
X281800Y445800D02*
X282200D01*
X282600Y446200D01*
X283000Y445800D01*
X283400D01*
Y446200D01*
X283000Y446600D01*
X283400Y447000D01*
Y447400D01*
X283000D01*
X282600Y447000D01*
X282200Y447400D01*
X281800D01*
Y447000D01*
X282200Y446600D01*
X281800Y446200D01*
Y445800D01*
X305900Y400800D02*
X306300D01*
X306700Y401200D01*
X307100Y400800D01*
X307500D01*
Y401200D01*
X307100Y401600D01*
X307500Y402000D01*
Y402400D01*
X307100D01*
X306700Y402000D01*
X306300Y402400D01*
X305900D01*
Y402000D01*
X306300Y401600D01*
X305900Y401200D01*
Y400800D01*
X382900Y412000D02*
X383300D01*
X383700Y412400D01*
X384100Y412000D01*
X384500D01*
Y412400D01*
X384100Y412800D01*
X384500Y413200D01*
Y413600D01*
X384100D01*
X383700Y413200D01*
X383300Y413600D01*
X382900D01*
Y413200D01*
X383300Y412800D01*
X382900Y412400D01*
Y412000D01*
X372600Y406300D02*
X373000D01*
X373400Y406700D01*
X373800Y406300D01*
X374200D01*
Y406700D01*
X373800Y407100D01*
X374200Y407500D01*
Y407900D01*
X373800D01*
X373400Y407500D01*
X373000Y407900D01*
X372600D01*
Y407500D01*
X373000Y407100D01*
X372600Y406700D01*
Y406300D01*
X321600Y476800D02*
Y478400D01*
X323200D01*
Y476800D01*
X321600D01*
X322000Y477200D02*
Y478000D01*
X322800D01*
Y477200D01*
X322000D01*
X325100Y410900D02*
Y412500D01*
X326700D01*
Y410900D01*
X325100D01*
X325500Y411300D02*
Y412100D01*
X326300D01*
Y411300D01*
X325500D01*
X320600Y411100D02*
Y412700D01*
X322200D01*
Y411100D01*
X320600D01*
X321000Y411500D02*
Y412300D01*
X321800D01*
Y411500D01*
X321000D01*
X279000Y324600D02*
X279400D01*
X279800Y325000D01*
X280200Y324600D01*
X280600D01*
Y325000D01*
X280200Y325400D01*
X280600Y325800D01*
Y326200D01*
X280200D01*
X279800Y325800D01*
X279400Y326200D01*
X279000D01*
Y325800D01*
X279400Y325400D01*
X279000Y325000D01*
Y324600D01*
X275300D02*
X275700D01*
X276100Y325000D01*
X276500Y324600D01*
X276900D01*
Y325000D01*
X276500Y325400D01*
X276900Y325800D01*
Y326200D01*
X276500D01*
X276100Y325800D01*
X275700Y326200D01*
X275300D01*
Y325800D01*
X275700Y325400D01*
X275300Y325000D01*
Y324600D01*
X271600D02*
X272000D01*
X272400Y325000D01*
X272800Y324600D01*
X273200D01*
Y325000D01*
X272800Y325400D01*
X273200Y325800D01*
Y326200D01*
X272800D01*
X272400Y325800D01*
X272000Y326200D01*
X271600D01*
Y325800D01*
X272000Y325400D01*
X271600Y325000D01*
Y324600D01*
X275300Y328300D02*
X275700D01*
X276100Y328700D01*
X276500Y328300D01*
X276900D01*
Y328700D01*
X276500Y329100D01*
X276900Y329500D01*
Y329900D01*
X276500D01*
X276100Y329500D01*
X275700Y329900D01*
X275300D01*
Y329500D01*
X275700Y329100D01*
X275300Y328700D01*
Y328300D01*
X271600D02*
X272000D01*
X272400Y328700D01*
X272800Y328300D01*
X273200D01*
Y328700D01*
X272800Y329100D01*
X273200Y329500D01*
Y329900D01*
X272800D01*
X272400Y329500D01*
X272000Y329900D01*
X271600D01*
Y329500D01*
X272000Y329100D01*
X271600Y328700D01*
Y328300D01*
Y332000D02*
X272000D01*
X272400Y332400D01*
X272800Y332000D01*
X273200D01*
Y332400D01*
X272800Y332800D01*
X273200Y333200D01*
Y333600D01*
X272800D01*
X272400Y333200D01*
X272000Y333600D01*
X271600D01*
Y333200D01*
X272000Y332800D01*
X271600Y332400D01*
Y332000D01*
X275300D02*
X275700D01*
X276100Y332400D01*
X276500Y332000D01*
X276900D01*
Y332400D01*
X276500Y332800D01*
X276900Y333200D01*
Y333600D01*
X276500D01*
X276100Y333200D01*
X275700Y333600D01*
X275300D01*
Y333200D01*
X275700Y332800D01*
X275300Y332400D01*
Y332000D01*
X271600Y335700D02*
X272000D01*
X272400Y336100D01*
X272800Y335700D01*
X273200D01*
Y336100D01*
X272800Y336500D01*
X273200Y336900D01*
Y337300D01*
X272800D01*
X272400Y336900D01*
X272000Y337300D01*
X271600D01*
Y336900D01*
X272000Y336500D01*
X271600Y336100D01*
Y335700D01*
X279000D02*
X279400D01*
X279800Y336100D01*
X280200Y335700D01*
X280600D01*
Y336100D01*
X280200Y336500D01*
X280600Y336900D01*
Y337300D01*
X280200D01*
X279800Y336900D01*
X279400Y337300D01*
X279000D01*
Y336900D01*
X279400Y336500D01*
X279000Y336100D01*
Y335700D01*
X282700D02*
X283100D01*
X283500Y336100D01*
X283900Y335700D01*
X284300D01*
Y336100D01*
X283900Y336500D01*
X284300Y336900D01*
Y337300D01*
X283900D01*
X283500Y336900D01*
X283100Y337300D01*
X282700D01*
Y336900D01*
X283100Y336500D01*
X282700Y336100D01*
Y335700D01*
X275300Y339400D02*
X275700D01*
X276100Y339800D01*
X276500Y339400D01*
X276900D01*
Y339800D01*
X276500Y340200D01*
X276900Y340600D01*
Y341000D01*
X276500D01*
X276100Y340600D01*
X275700Y341000D01*
X275300D01*
Y340600D01*
X275700Y340200D01*
X275300Y339800D01*
Y339400D01*
X279000D02*
X279400D01*
X279800Y339800D01*
X280200Y339400D01*
X280600D01*
Y339800D01*
X280200Y340200D01*
X280600Y340600D01*
Y341000D01*
X280200D01*
X279800Y340600D01*
X279400Y341000D01*
X279000D01*
Y340600D01*
X279400Y340200D01*
X279000Y339800D01*
Y339400D01*
X282700D02*
X283100D01*
X283500Y339800D01*
X283900Y339400D01*
X284300D01*
Y339800D01*
X283900Y340200D01*
X284300Y340600D01*
Y341000D01*
X283900D01*
X283500Y340600D01*
X283100Y341000D01*
X282700D01*
Y340600D01*
X283100Y340200D01*
X282700Y339800D01*
Y339400D01*
X264200Y443100D02*
X264600D01*
X265000Y443500D01*
X265400Y443100D01*
X265800D01*
Y443500D01*
X265400Y443900D01*
X265800Y444300D01*
Y444700D01*
X265400D01*
X265000Y444300D01*
X264600Y444700D01*
X264200D01*
Y444300D01*
X264600Y443900D01*
X264200Y443500D01*
Y443100D01*
X275300D02*
X275700D01*
X276100Y443500D01*
X276500Y443100D01*
X276900D01*
Y443500D01*
X276500Y443900D01*
X276900Y444300D01*
Y444700D01*
X276500D01*
X276100Y444300D01*
X275700Y444700D01*
X275300D01*
Y444300D01*
X275700Y443900D01*
X275300Y443500D01*
Y443100D01*
X271600Y446800D02*
X272000D01*
X272400Y447200D01*
X272800Y446800D01*
X273200D01*
Y447200D01*
X272800Y447600D01*
X273200Y448000D01*
Y448400D01*
X272800D01*
X272400Y448000D01*
X272000Y448400D01*
X271600D01*
Y448000D01*
X272000Y447600D01*
X271600Y447200D01*
Y446800D01*
X275300D02*
X275700D01*
X276100Y447200D01*
X276500Y446800D01*
X276900D01*
Y447200D01*
X276500Y447600D01*
X276900Y448000D01*
Y448400D01*
X276500D01*
X276100Y448000D01*
X275700Y448400D01*
X275300D01*
Y448000D01*
X275700Y447600D01*
X275300Y447200D01*
Y446800D01*
Y450500D02*
X275700D01*
X276100Y450900D01*
X276500Y450500D01*
X276900D01*
Y450900D01*
X276500Y451300D01*
X276900Y451700D01*
Y452100D01*
X276500D01*
X276100Y451700D01*
X275700Y452100D01*
X275300D01*
Y451700D01*
X275700Y451300D01*
X275300Y450900D01*
Y450500D01*
X271600D02*
X272000D01*
X272400Y450900D01*
X272800Y450500D01*
X273200D01*
Y450900D01*
X272800Y451300D01*
X273200Y451700D01*
Y452100D01*
X272800D01*
X272400Y451700D01*
X272000Y452100D01*
X271600D01*
Y451700D01*
X272000Y451300D01*
X271600Y450900D01*
Y450500D01*
Y454200D02*
X272000D01*
X272400Y454600D01*
X272800Y454200D01*
X273200D01*
Y454600D01*
X272800Y455000D01*
X273200Y455400D01*
Y455800D01*
X272800D01*
X272400Y455400D01*
X272000Y455800D01*
X271600D01*
Y455400D01*
X272000Y455000D01*
X271600Y454600D01*
Y454200D01*
X268800Y451900D02*
X269200D01*
X269600Y452300D01*
X270000Y451900D01*
X270400D01*
Y452300D01*
X270000Y452700D01*
X270400Y453100D01*
Y453500D01*
X270000D01*
X269600Y453100D01*
X269200Y453500D01*
X268800D01*
Y453100D01*
X269200Y452700D01*
X268800Y452300D01*
Y451900D01*
D108*
X404989Y475173D02*
G03*
X404989Y475173I-800J0D01*
G01*
Y446828D02*
G03*
X404989Y446828I-800J0D01*
G01*
M02*
