G04*
G04 #@! TF.GenerationSoftware,Altium Limited,Altium Designer,18.1.7 (191)*
G04*
G04 Layer_Color=32896*
%FSLAX25Y25*%
%MOIN*%
G70*
G01*
G75*
%ADD12C,0.00800*%
%ADD15C,0.00100*%
%ADD20C,0.00315*%
D12*
X287095Y449994D02*
G03*
X283316Y449995I-1890J-2236D01*
G01*
X283200Y442500D02*
G03*
X287084Y442405I1995J2142D01*
G01*
X287905Y442406D02*
G03*
X291684Y442405I1890J2236D01*
G01*
X291800Y449900D02*
G03*
X287916Y449995I-1995J-2142D01*
G01*
X258705Y330306D02*
G03*
X262484Y330305I1890J2236D01*
G01*
X262600Y337800D02*
G03*
X258716Y337895I-1995J-2142D01*
G01*
X254005Y330306D02*
G03*
X257784Y330305I1890J2236D01*
G01*
X257900Y337800D02*
G03*
X254016Y337895I-1995J-2142D01*
G01*
X283200Y447300D02*
Y449900D01*
X287100Y447300D02*
Y449994D01*
Y442405D02*
Y445100D01*
X283200Y442500D02*
Y445100D01*
X291800Y442500D02*
Y445100D01*
X287900Y442406D02*
Y445100D01*
Y447300D02*
Y449995D01*
X291800Y447300D02*
Y449900D01*
X262600Y330400D02*
Y333000D01*
X258700Y330306D02*
Y333000D01*
Y335200D02*
Y337895D01*
X262600Y335200D02*
Y337800D01*
X257900Y330400D02*
Y333000D01*
X254000Y330306D02*
Y333000D01*
Y335200D02*
Y337895D01*
X257900Y335200D02*
Y337800D01*
D15*
X321500Y311200D02*
X321800D01*
X321300Y311100D02*
X321900D01*
X321700Y311000D02*
X321900D01*
X321200D02*
X321600D01*
X320900D02*
X321100D01*
X321600Y310900D02*
X321800D01*
X320500D02*
X321100D01*
X321500Y310800D02*
X321800D01*
X321500Y310700D02*
X321700D01*
X321400Y310600D02*
X321600D01*
X320700D02*
X321000D01*
X321300Y310500D02*
X321500D01*
X321200Y310400D02*
X321400D01*
X321100Y310300D02*
X321300D01*
X321000Y310200D02*
X321200D01*
X320500D02*
X320700D01*
X320900Y310100D02*
X321200D01*
X320800Y310000D02*
X321100D01*
X320700Y309900D02*
X321000D01*
X320600Y309800D02*
X320800D01*
X320500Y309700D02*
X320700D01*
X319800Y298100D02*
X320000D01*
X316500D02*
X316800D01*
X319800Y298000D02*
X320000D01*
X316600D02*
X316800D01*
X319800Y297900D02*
X320000D01*
X316600D02*
X316800D01*
X319800Y297800D02*
X320000D01*
X316600D02*
X316800D01*
X319800Y297700D02*
X320100D01*
X316600D02*
X316800D01*
X319900Y297600D02*
X320100D01*
X316600D02*
X316800D01*
X319900Y297500D02*
X320100D01*
X316600D02*
X316800D01*
X319900Y297400D02*
X320100D01*
X316600D02*
X316800D01*
X319900Y297300D02*
X320100D01*
X316600D02*
X316800D01*
X319900Y297200D02*
X320200D01*
X316600D02*
X316800D01*
X320000Y297100D02*
X320200D01*
X316600D02*
X316800D01*
X320000Y297000D02*
X320200D01*
X316600D02*
X316800D01*
X320000Y296900D02*
X320200D01*
X316600D02*
X316800D01*
X320000Y296800D02*
X320200D01*
X316600D02*
X316800D01*
X320000Y296700D02*
X320200D01*
X316600D02*
X316800D01*
X320000Y296600D02*
X320300D01*
X316600D02*
X316800D01*
X320000Y296500D02*
X320300D01*
X316600D02*
X316800D01*
X320100Y296400D02*
X320300D01*
X316600D02*
X316800D01*
X315000D02*
X315500D01*
X318500Y306100D02*
X318700D01*
X317500D02*
X318200D01*
X316900D02*
X317400D01*
X316300D02*
X316800D01*
X315200D02*
X315600D01*
X318500Y306000D02*
X318700D01*
X317500D02*
X318200D01*
X316900D02*
X317200D01*
X315200D02*
X316600D01*
X318500Y305900D02*
X318700D01*
X317500D02*
X318200D01*
X315900D02*
X316900D01*
X315600D02*
X315800D01*
X318600Y305800D02*
X318800D01*
X317500D02*
X318200D01*
X315800D02*
X317400D01*
X318600Y305700D02*
X318800D01*
X315700D02*
X318200D01*
X318600Y305600D02*
X318800D01*
X315500D02*
X318200D01*
X318600Y305500D02*
X318900D01*
X317500D02*
X318300D01*
X315300D02*
X316500D01*
X318700Y305400D02*
X318900D01*
X317500D02*
X318300D01*
X314300D02*
X316000D01*
X318700Y305300D02*
X318900D01*
X317600D02*
X318300D01*
X313500D02*
X315600D01*
X318700Y305200D02*
X318900D01*
X317600D02*
X318200D01*
X315500D02*
X315600D01*
X313000D02*
X314900D01*
X318700Y305100D02*
X319000D01*
X317700D02*
X318200D01*
X315500D02*
X315800D01*
X315300D02*
X315400D01*
X312600D02*
X313600D01*
X318800Y305000D02*
X319000D01*
X317700D02*
X318200D01*
X315600D02*
X315900D01*
X313900D02*
X315500D01*
X318800Y304900D02*
X319000D01*
X317700D02*
X318000D01*
X315700D02*
X316000D01*
X313200D02*
X315600D01*
X318800Y304800D02*
X319000D01*
X317800D02*
X318000D01*
X315800D02*
X316000D01*
X312700D02*
X315600D01*
X318800Y304700D02*
X319000D01*
X317800D02*
X318100D01*
X315800D02*
X316100D01*
X318900Y304600D02*
X319100D01*
X317800D02*
X318100D01*
X315800D02*
X316100D01*
X318900Y304500D02*
X319100D01*
X317800D02*
X318100D01*
X315900D02*
X316100D01*
X313800D02*
X315700D01*
X313100D02*
X313300D01*
X318900Y304400D02*
X319100D01*
X317900D02*
X318100D01*
X315900D02*
X316100D01*
X318900Y304300D02*
X319200D01*
X317900D02*
X318100D01*
X315900D02*
X316100D01*
X319000Y304200D02*
X319200D01*
X317900D02*
X318100D01*
X315800D02*
X316100D01*
X319000Y304100D02*
X319200D01*
X317900D02*
X318200D01*
X315800D02*
X316100D01*
X319000Y304000D02*
X319200D01*
X318000D02*
X318300D01*
X317400D02*
X317800D01*
X315800D02*
X316000D01*
X319000Y303900D02*
X319200D01*
X317100D02*
X318400D01*
X315800D02*
X316000D01*
X319000Y303800D02*
X319300D01*
X317000D02*
X318500D01*
X315700D02*
X316000D01*
X319100Y303700D02*
X319300D01*
X318300D02*
X318500D01*
X318100D02*
X318200D01*
X316800D02*
X317900D01*
X315700D02*
X316000D01*
X319100Y303600D02*
X319300D01*
X318300D02*
X318600D01*
X316700D02*
X317200D01*
X315700D02*
X316000D01*
X319100Y303500D02*
X319300D01*
X318400D02*
X318600D01*
X316500D02*
X316900D01*
X315700D02*
X315900D01*
X319100Y303400D02*
X319300D01*
X318400D02*
X318700D01*
X316300D02*
X316700D01*
X315700D02*
X315900D01*
X319100Y303300D02*
X319400D01*
X318500D02*
X318700D01*
X316100D02*
X316600D01*
X315600D02*
X315900D01*
X319200Y303200D02*
X319400D01*
X318500D02*
X318800D01*
X315900D02*
X316400D01*
X315600D02*
X315800D01*
X319200Y303100D02*
X319400D01*
X318600D02*
X318800D01*
X315600D02*
X316200D01*
X319200Y303000D02*
X319400D01*
X318600D02*
X318800D01*
X315500D02*
X316100D01*
X319200Y302900D02*
X319400D01*
X318600D02*
X318900D01*
X315500D02*
X315900D01*
X319200Y302800D02*
X319500D01*
X318700D02*
X318900D01*
X315500D02*
X315800D01*
X319200Y302700D02*
X319500D01*
X318700D02*
X319000D01*
X315500D02*
X315800D01*
X319300Y302600D02*
X319500D01*
X318700D02*
X319000D01*
X315500D02*
X315700D01*
X319300Y302500D02*
X319500D01*
X318800D02*
X319000D01*
X315600D02*
X315800D01*
X319300Y302400D02*
X319500D01*
X318800D02*
X319000D01*
X315500D02*
X315800D01*
X319300Y302300D02*
X319500D01*
X318800D02*
X319100D01*
X315500D02*
X315800D01*
X312500D02*
X313500D01*
X319300Y302200D02*
X319500D01*
X318800D02*
X319100D01*
X315500D02*
X315800D01*
X312600D02*
X313600D01*
X319300Y302100D02*
X319600D01*
X318700D02*
X319100D01*
X315500D02*
X316600D01*
X312700D02*
X313700D01*
X319400Y302000D02*
X319600D01*
X318600D02*
X319000D01*
X315500D02*
X317200D01*
X312800D02*
X313700D01*
X319400Y301900D02*
X319600D01*
X315500D02*
X318900D01*
X313000D02*
X313700D01*
X319400Y301800D02*
X319600D01*
X315500D02*
X318900D01*
X313100D02*
X313500D01*
X319400Y301700D02*
X319600D01*
X318800D02*
X319000D01*
X315500D02*
X318700D01*
X319400Y301600D02*
X319600D01*
X318800D02*
X319000D01*
X316600D02*
X318500D01*
X315500D02*
X315700D01*
X319400Y301500D02*
X319600D01*
X318900D02*
X319100D01*
X317500D02*
X318200D01*
X316600D02*
X317300D01*
X315500D02*
X315700D01*
X319400Y301400D02*
X319700D01*
X318900D02*
X319100D01*
X317500D02*
X317700D01*
X316500D02*
X317300D01*
X315400D02*
X315700D01*
X319400Y301300D02*
X319700D01*
X318900D02*
X319200D01*
X317500D02*
X317700D01*
X316500D02*
X317300D01*
X315400D02*
X316000D01*
X319500Y301200D02*
X319700D01*
X319000D02*
X319200D01*
X317500D02*
X317700D01*
X316500D02*
X317300D01*
X315200D02*
X316200D01*
X319500Y301100D02*
X319700D01*
X319000D02*
X319200D01*
X317400D02*
X317700D01*
X319500Y301000D02*
X319700D01*
X319000D02*
X319200D01*
X317400D02*
X317600D01*
X313600D02*
X317200D01*
X319500Y300900D02*
X319700D01*
X319100D02*
X319300D01*
X317400D02*
X317600D01*
X314600D02*
X317200D01*
X319500Y300800D02*
X319700D01*
X319100D02*
X319300D01*
X317400D02*
X317600D01*
X314900D02*
X317200D01*
X313900D02*
X314400D01*
X313100D02*
X313500D01*
X319500Y300700D02*
X319800D01*
X319200D02*
X319400D01*
X317400D02*
X317600D01*
X315200D02*
X317100D01*
X313900D02*
X314600D01*
X313100D02*
X313700D01*
X319500Y300600D02*
X319800D01*
X319200D02*
X319400D01*
X317300D02*
X317500D01*
X315500D02*
X317100D01*
X313500D02*
X313700D01*
X312900D02*
X313000D01*
X319600Y300500D02*
X319800D01*
X317300D02*
X317500D01*
X315800D02*
X317100D01*
X315100D02*
X315200D01*
X312600D02*
X312700D01*
X319600Y300400D02*
X319800D01*
X319200D02*
X319400D01*
X317300D02*
X317500D01*
X316000D02*
X317000D01*
X315100D02*
X315200D01*
X312600D02*
X312700D01*
X319600Y300300D02*
X319800D01*
X319200D02*
X319500D01*
X317200D02*
X317500D01*
X316300D02*
X317000D01*
X319600Y300200D02*
X319800D01*
X319300D02*
X319500D01*
X317200D02*
X317500D01*
X316500D02*
X316900D01*
X319600Y300100D02*
X319800D01*
X319300D02*
X319500D01*
X317200D02*
X317400D01*
X319600Y300000D02*
X319800D01*
X319300D02*
X319500D01*
X317100D02*
X317400D01*
X319400Y299900D02*
X319800D01*
X317000D02*
X317300D01*
X316400D02*
X316600D01*
X319400Y299800D02*
X319800D01*
X316800D02*
X317300D01*
X316400D02*
X316700D01*
X319400Y299700D02*
X319800D01*
X316800D02*
X317100D01*
X316500D02*
X316700D01*
X319400Y299600D02*
X319900D01*
X316500D02*
X316700D01*
X319500Y299500D02*
X319900D01*
X316500D02*
X316700D01*
X319500Y299400D02*
X319900D01*
X316500D02*
X316700D01*
X314900D02*
X315400D01*
X319500Y299300D02*
X319900D01*
X316500D02*
X316700D01*
X314800D02*
X315500D01*
X319500Y299200D02*
X319900D01*
X316500D02*
X316700D01*
X314800D02*
X315500D01*
X319600Y299100D02*
X319900D01*
X316500D02*
X316700D01*
X314800D02*
X315600D01*
X319600Y299000D02*
X319900D01*
X316500D02*
X316700D01*
X314800D02*
X315600D01*
X319600Y298900D02*
X319900D01*
X316500D02*
X316700D01*
X314800D02*
X315500D01*
X319600Y298800D02*
X319900D01*
X316500D02*
X316800D01*
X314900D02*
X315400D01*
X319600Y298700D02*
X319900D01*
X316500D02*
X316800D01*
X315100D02*
X315300D01*
X319700Y298600D02*
X319900D01*
X316500D02*
X316800D01*
X319700Y298500D02*
X319900D01*
X316500D02*
X316800D01*
X319700Y298400D02*
X319900D01*
X316500D02*
X316800D01*
X319700Y298300D02*
X319900D01*
X316500D02*
X316800D01*
X315700Y314100D02*
X316000D01*
X315800Y314000D02*
X316000D01*
X315900Y313900D02*
X316100D01*
X315900Y313800D02*
X316100D01*
X315900Y313700D02*
X316100D01*
X315900Y313600D02*
X316200D01*
X316000Y313500D02*
X316300D01*
X314300D02*
X314500D01*
X316100Y313400D02*
X316400D01*
X314400D02*
X314700D01*
X316200Y313300D02*
X316400D01*
X315700D02*
X316000D01*
X314500D02*
X314800D01*
X316300Y313200D02*
X316500D01*
X315800D02*
X316000D01*
X314600D02*
X314900D01*
X315900Y313100D02*
X316200D01*
X314700D02*
X315000D01*
X316000Y313000D02*
X316300D01*
X314800D02*
X315100D01*
X316100Y312900D02*
X316400D01*
X314900D02*
X315200D01*
X316200Y312800D02*
X316400D01*
X315000D02*
X315200D01*
X316300Y312700D02*
X316500D01*
X315100D02*
X315300D01*
X316300Y312600D02*
X316600D01*
X315200D02*
X315400D01*
X316900Y312500D02*
X317100D01*
X316500D02*
X316700D01*
X315200D02*
X315500D01*
X315000D02*
X315100D01*
X316900Y312400D02*
X317100D01*
X316500D02*
X316700D01*
X315300D02*
X315500D01*
X315000D02*
X315200D01*
X317000Y312300D02*
X317200D01*
X316600D02*
X316800D01*
X315400D02*
X315600D01*
X315100D02*
X315300D01*
X317000Y312200D02*
X317200D01*
X316600D02*
X316900D01*
X315200D02*
X315600D01*
X317100Y312100D02*
X317300D01*
X316700D02*
X316900D01*
X315500D02*
X315700D01*
X315300D02*
X315400D01*
X312700D02*
X312800D01*
X317100Y312000D02*
X317300D01*
X316800D02*
X317000D01*
X315300D02*
X315800D01*
X312600D02*
X312900D01*
X317200Y311900D02*
X317400D01*
X316800D02*
X317100D01*
X315400D02*
X315800D01*
X312600D02*
X313000D01*
X317200Y311800D02*
X317500D01*
X316900D02*
X317100D01*
X315400D02*
X315900D01*
X312800D02*
X313100D01*
X317300Y311700D02*
X317500D01*
X317000D02*
X317200D01*
X315500D02*
X315900D01*
X312900D02*
X313200D01*
X312500D02*
X312700D01*
X317300Y311600D02*
X317500D01*
X317000D02*
X317200D01*
X315500D02*
X316000D01*
X313000D02*
X313200D01*
X317400Y311500D02*
X317600D01*
X317100D02*
X317300D01*
X315600D02*
X316000D01*
X313100D02*
X313300D01*
X317400Y311400D02*
X317600D01*
X317100D02*
X317300D01*
X315600D02*
X316000D01*
X313200D02*
X313400D01*
X317500Y311300D02*
X317700D01*
X317200D02*
X317400D01*
X315700D02*
X316100D01*
X313600D02*
X313800D01*
X313300D02*
X313500D01*
X317900Y311200D02*
X318000D01*
X317500D02*
X317700D01*
X317200D02*
X317400D01*
X315700D02*
X316100D01*
X313700D02*
X314400D01*
X313400D02*
X313600D01*
X317800Y311100D02*
X318000D01*
X317300D02*
X317700D01*
X315800D02*
X316100D01*
X313500D02*
X314700D01*
X317600Y311000D02*
X317900D01*
X317300D02*
X317500D01*
X315800D02*
X316200D01*
X314300D02*
X314900D01*
X313500D02*
X314200D01*
X317600Y310900D02*
X317800D01*
X317400D02*
X317500D01*
X315800D02*
X316200D01*
X314600D02*
X315000D01*
X314100D02*
X314300D01*
X313500D02*
X313900D01*
X317900Y310800D02*
X318000D01*
X317400D02*
X317800D01*
X315900D02*
X316200D01*
X314800D02*
X315100D01*
X314300D02*
X314600D01*
X313500D02*
X314100D01*
X317400Y310700D02*
X318100D01*
X315900D02*
X316300D01*
X315000D02*
X315200D01*
X314400D02*
X314700D01*
X313900D02*
X314200D01*
X313600D02*
X313800D01*
X319700Y310600D02*
X320300D01*
X317500D02*
X318100D01*
X315900D02*
X316300D01*
X315000D02*
X315200D01*
X314600D02*
X314800D01*
X314100D02*
X314400D01*
X313700D02*
X314000D01*
X319300Y310500D02*
X320000D01*
X318000D02*
X318100D01*
X317500D02*
X317900D01*
X316000D02*
X316200D01*
X314900D02*
X315200D01*
X314200D02*
X314600D01*
X313800D02*
X314100D01*
X319100Y310400D02*
X319700D01*
X317500D02*
X317900D01*
X316000D02*
X316200D01*
X314600D02*
X315100D01*
X314000D02*
X314200D01*
X318800Y310300D02*
X319400D01*
X318100D02*
X318300D01*
X317600D02*
X318000D01*
X316000D02*
X316200D01*
X315200D02*
X315300D01*
X314400D02*
X314900D01*
X319800Y310200D02*
X320300D01*
X318500D02*
X319100D01*
X317600D02*
X318200D01*
X316000D02*
X316300D01*
X314800D02*
X315200D01*
X314400D02*
X314600D01*
X319600Y310100D02*
X320100D01*
X318100D02*
X318800D01*
X317700D02*
X317900D01*
X316100D02*
X316300D01*
X315800D02*
X315900D01*
X315000D02*
X315200D01*
X319500Y310000D02*
X320100D01*
X317700D02*
X318500D01*
X315800D02*
X316300D01*
X319200Y309900D02*
X319700D01*
X317700D02*
X318200D01*
X316000D02*
X316300D01*
X315600D02*
X315700D01*
X320000Y309800D02*
X320200D01*
X319000D02*
X319600D01*
X317700D02*
X318000D01*
X316100D02*
X316300D01*
X315600D02*
X315900D01*
X319400Y309700D02*
X319600D01*
X318800D02*
X319300D01*
X317800D02*
X318000D01*
X315700D02*
X316400D01*
X319400Y309600D02*
X319600D01*
X318600D02*
X319100D01*
X317800D02*
X318000D01*
X315900D02*
X316400D01*
X319300Y309500D02*
X319600D01*
X318400D02*
X318900D01*
X317800D02*
X318000D01*
X316200D02*
X316400D01*
X319300Y309400D02*
X319500D01*
X318200D02*
X318700D01*
X317800D02*
X318100D01*
X316200D02*
X316400D01*
X320000Y309300D02*
X320300D01*
X319300D02*
X319500D01*
X317800D02*
X318500D01*
X316200D02*
X316400D01*
X319900Y309200D02*
X320200D01*
X319200D02*
X319400D01*
X317900D02*
X318300D01*
X316200D02*
X316400D01*
X319800Y309100D02*
X320100D01*
X319200D02*
X319400D01*
X317900D02*
X318100D01*
X316200D02*
X316400D01*
X314600D02*
X315100D01*
X319700Y309000D02*
X320000D01*
X319100D02*
X319300D01*
X317900D02*
X318100D01*
X316200D02*
X316400D01*
X314200D02*
X315100D01*
X319600Y308900D02*
X319900D01*
X319000D02*
X319200D01*
X317900D02*
X318100D01*
X316200D02*
X316400D01*
X315200D02*
X315500D01*
X319500Y308800D02*
X319800D01*
X318900D02*
X319200D01*
X317900D02*
X318100D01*
X316200D02*
X316400D01*
X314200D02*
X315600D01*
X319400Y308700D02*
X319600D01*
X318800D02*
X319100D01*
X317900D02*
X318100D01*
X316200D02*
X316400D01*
X314100D02*
X315600D01*
X319300Y308600D02*
X319500D01*
X318700D02*
X319000D01*
X317900D02*
X318100D01*
X316200D02*
X316400D01*
X314100D02*
X315500D01*
X319200Y308500D02*
X319400D01*
X318600D02*
X318900D01*
X317900D02*
X318200D01*
X316200D02*
X316400D01*
X314200D02*
X315600D01*
X319000Y308400D02*
X319300D01*
X318500D02*
X318800D01*
X317900D02*
X318200D01*
X316200D02*
X316400D01*
X314200D02*
X315500D01*
X318900Y308300D02*
X319200D01*
X318400D02*
X318700D01*
X317900D02*
X318200D01*
X316200D02*
X316400D01*
X314400D02*
X315400D01*
X318800Y308200D02*
X319100D01*
X318400D02*
X318600D01*
X317900D02*
X318200D01*
X316200D02*
X316400D01*
X318700Y308100D02*
X319000D01*
X317900D02*
X318200D01*
X316200D02*
X316400D01*
X318600Y308000D02*
X318900D01*
X317900D02*
X318200D01*
X316200D02*
X316400D01*
X318500Y307900D02*
X318800D01*
X317900D02*
X318200D01*
X316100D02*
X316400D01*
X318400Y307800D02*
X318600D01*
X317900D02*
X318200D01*
X316100D02*
X316300D01*
X317900Y307700D02*
X318500D01*
X316100D02*
X316300D01*
X317900Y307600D02*
X318400D01*
X316100D02*
X316300D01*
X317900Y307500D02*
X318300D01*
X316000D02*
X316200D01*
X317900Y307400D02*
X318200D01*
X316000D02*
X316200D01*
X317900Y307300D02*
X318300D01*
X316000D02*
X316200D01*
X317900Y307200D02*
X318300D01*
X315900D02*
X316100D01*
X318300Y307100D02*
X318400D01*
X317800D02*
X318200D01*
X317300D02*
X317500D01*
X315900D02*
X316100D01*
X317800Y307000D02*
X318000D01*
X317300D02*
X317500D01*
X315900D02*
X316100D01*
X317800Y306900D02*
X318000D01*
X317200D02*
X317500D01*
X315800D02*
X316000D01*
X317800Y306800D02*
X318000D01*
X317200D02*
X317500D01*
X315800D02*
X316000D01*
X313800D02*
X314000D01*
X318300Y306700D02*
X318500D01*
X317700D02*
X318000D01*
X317100D02*
X317500D01*
X315700D02*
X315900D01*
X313800D02*
X314000D01*
X318300Y306600D02*
X318500D01*
X317600D02*
X318000D01*
X317000D02*
X317500D01*
X315700D02*
X315900D01*
X312800D02*
X314000D01*
X318400Y306500D02*
X318600D01*
X317600D02*
X318100D01*
X316900D02*
X317400D01*
X315600D02*
X315800D01*
X312800D02*
X313800D01*
X318400Y306400D02*
X318600D01*
X317500D02*
X318100D01*
X317200D02*
X317400D01*
X316800D02*
X317100D01*
X315500D02*
X315700D01*
X318400Y306300D02*
X318600D01*
X317400D02*
X318100D01*
X317100D02*
X317300D01*
X316700D02*
X317000D01*
X315400D02*
X315700D01*
X313800Y315700D02*
X314000D01*
X313600Y315600D02*
X313900D01*
X313500Y315500D02*
X313800D01*
Y315400D02*
X314100D01*
X313500D02*
X313700D01*
X313800Y315300D02*
X314000D01*
X313400D02*
X313600D01*
X313700Y315200D02*
X314000D01*
X313300D02*
X313600D01*
X313700Y315100D02*
X313900D01*
X313300D02*
X313500D01*
X314700Y315000D02*
X314900D01*
X313700D02*
X313900D01*
X314700Y314900D02*
X315200D01*
X312900D02*
X313900D01*
X314900Y314800D02*
X315400D01*
X314100D02*
X314300D01*
X313600D02*
X313900D01*
X315100Y314700D02*
X315400D01*
X314100D02*
X314300D01*
X315400Y314600D02*
X315600D01*
X315400Y314500D02*
X315700D01*
X315500Y314400D02*
X315800D01*
X315600Y314300D02*
X315800D01*
X310200Y298100D02*
X310500D01*
X305000D02*
X306700D01*
X310200Y298000D02*
X310500D01*
X305100D02*
X306700D01*
X310300Y297900D02*
X310500D01*
X305100D02*
X306600D01*
X310300Y297800D02*
X310500D01*
X305100D02*
X306600D01*
X310300Y297700D02*
X310500D01*
X305200D02*
X306600D01*
X310300Y297600D02*
X310500D01*
X305200D02*
X306600D01*
X310300Y297500D02*
X310500D01*
X305200D02*
X306600D01*
X304500D02*
X304700D01*
X310300Y297400D02*
X310500D01*
X305300D02*
X306600D01*
X304500D02*
X304700D01*
X310300Y297300D02*
X310500D01*
X305300D02*
X306600D01*
X304600D02*
X304800D01*
X310300Y297200D02*
X310500D01*
X305400D02*
X306600D01*
X304600D02*
X304800D01*
X310300Y297100D02*
X310500D01*
X305400D02*
X306500D01*
X304700D02*
X304900D01*
X310300Y297000D02*
X310500D01*
X305500D02*
X306500D01*
X304700D02*
X305000D01*
X310300Y296900D02*
X310500D01*
X305500D02*
X306500D01*
X304800D02*
X305000D01*
X310300Y296800D02*
X310600D01*
X305600D02*
X306500D01*
X304900D02*
X305100D01*
X310300Y296700D02*
X310600D01*
X305600D02*
X306500D01*
X305000D02*
X305200D01*
X310300Y296600D02*
X310600D01*
X305700D02*
X306500D01*
X305100D02*
X305300D01*
X310300Y296500D02*
X310600D01*
X305700D02*
X306500D01*
X305100D02*
X305400D01*
X304500D02*
X304900D01*
X310300Y296400D02*
X310600D01*
X305800D02*
X306500D01*
X305200D02*
X305500D01*
X304700D02*
X304900D01*
X310300Y306100D02*
X310600D01*
X306600D02*
X307800D01*
X305900D02*
X306300D01*
X305000D02*
X305800D01*
X310400Y306000D02*
X310700D01*
X309800D02*
X310100D01*
X308200D02*
X308400D01*
X307600D02*
X307800D01*
X306600D02*
X307500D01*
X305800D02*
X306200D01*
X305000D02*
X305700D01*
X310500Y305900D02*
X310800D01*
X309800D02*
X310300D01*
X308200D02*
X308400D01*
X307600D02*
X307800D01*
X306600D02*
X307400D01*
X305000D02*
X306200D01*
X310100Y305800D02*
X310800D01*
X308300D02*
X308500D01*
X306700D02*
X307900D01*
X305000D02*
X306200D01*
X310200Y305700D02*
X310600D01*
X308300D02*
X308600D01*
X307000D02*
X307900D01*
X305800D02*
X306100D01*
X305000D02*
X305600D01*
X310300Y305600D02*
X310600D01*
X308300D02*
X308700D01*
X307800D02*
X308000D01*
X306900D02*
X307200D01*
X305000D02*
X306100D01*
X310400Y305500D02*
X310800D01*
X308400D02*
X308800D01*
X307800D02*
X308100D01*
X306900D02*
X307300D01*
X304900D02*
X306100D01*
X310600Y305400D02*
X310900D01*
X308400D02*
X309000D01*
X307900D02*
X308100D01*
X306900D02*
X307300D01*
X305800D02*
X306100D01*
X304900D02*
X305700D01*
X311000Y305300D02*
X311300D01*
X310800D02*
X310900D01*
X308400D02*
X309200D01*
X308000D02*
X308200D01*
X306800D02*
X307300D01*
X304900D02*
X306100D01*
X311000Y305200D02*
X311500D01*
X308500D02*
X309500D01*
X308100D02*
X308300D01*
X306800D02*
X307400D01*
X304900D02*
X306100D01*
X310900Y305100D02*
X311400D01*
X308600D02*
X310100D01*
X308200D02*
X308400D01*
X306800D02*
X307400D01*
X304900D02*
X306100D01*
X308100Y305000D02*
X311800D01*
X306700D02*
X307400D01*
X304800D02*
X306100D01*
X306700Y304900D02*
X307400D01*
X304800D02*
X306100D01*
X311600Y304800D02*
X312300D01*
X308000D02*
X309900D01*
X306700D02*
X307500D01*
X304800D02*
X306100D01*
X311500Y304700D02*
X312000D01*
X309000D02*
X309600D01*
X308000D02*
X308500D01*
X306700D02*
X307500D01*
X304800D02*
X306100D01*
X311500Y304600D02*
X311700D01*
X309000D02*
X309600D01*
X307900D02*
X308400D01*
X306700D02*
X307500D01*
X304800D02*
X306000D01*
X311500Y304500D02*
X311700D01*
X308900D02*
X309600D01*
X307900D02*
X308400D01*
X306700D02*
X307500D01*
X304800D02*
X306000D01*
X311400Y304400D02*
X311700D01*
X308800D02*
X309500D01*
X307900D02*
X308400D01*
X306700D02*
X307500D01*
X304700D02*
X306000D01*
X311400Y304300D02*
X311700D01*
X308600D02*
X309500D01*
X307800D02*
X308400D01*
X306700D02*
X307500D01*
X304700D02*
X306000D01*
X311400Y304200D02*
X311700D01*
X309200D02*
X309400D01*
X308400D02*
X308900D01*
X307800D02*
X308300D01*
X306700D02*
X307500D01*
X304700D02*
X306000D01*
X311400Y304100D02*
X311700D01*
X309100D02*
X309400D01*
X307800D02*
X308700D01*
X306700D02*
X307400D01*
X304700D02*
X306000D01*
X311400Y304000D02*
X311600D01*
X309100D02*
X309400D01*
X307700D02*
X308500D01*
X306800D02*
X307400D01*
X304700D02*
X306000D01*
X311400Y303900D02*
X311600D01*
X309100D02*
X309400D01*
X307700D02*
X308400D01*
X306900D02*
X307300D01*
X304700D02*
X306000D01*
X311400Y303800D02*
X311600D01*
X309100D02*
X309400D01*
X307700D02*
X308300D01*
X304700D02*
X306000D01*
X311400Y303700D02*
X311600D01*
X309100D02*
X309300D01*
X307700D02*
X308200D01*
X304700D02*
X306000D01*
X311400Y303600D02*
X311600D01*
X309000D02*
X309400D01*
X307600D02*
X308100D01*
X304700D02*
X306000D01*
X311400Y303500D02*
X311600D01*
X309000D02*
X309300D01*
X307600D02*
X308000D01*
X304700D02*
X306000D01*
X311400Y303400D02*
X311700D01*
X309000D02*
X309300D01*
X307500D02*
X308000D01*
X304600D02*
X306000D01*
X311400Y303300D02*
X311900D01*
X309000D02*
X309300D01*
X307500D02*
X307900D01*
X304600D02*
X306000D01*
X311400Y303200D02*
X312000D01*
X309100D02*
X309300D01*
X307400D02*
X307900D01*
X304600D02*
X306000D01*
X311800Y303100D02*
X312100D01*
X311400D02*
X311600D01*
X309100D02*
X309300D01*
X307400D02*
X307800D01*
X304600D02*
X306000D01*
X311900Y303000D02*
X312300D01*
X311400D02*
X311700D01*
X309000D02*
X309400D01*
X307300D02*
X307700D01*
X304600D02*
X306000D01*
X311400Y302900D02*
X311700D01*
X309000D02*
X309400D01*
X307300D02*
X307800D01*
X304600D02*
X306000D01*
X311400Y302800D02*
X311700D01*
X309000D02*
X309400D01*
X307300D02*
X307600D01*
X304600D02*
X306000D01*
X311400Y302700D02*
X311700D01*
X308900D02*
X309400D01*
X307200D02*
X307500D01*
X304600D02*
X306000D01*
X311400Y302600D02*
X311700D01*
X308900D02*
X309500D01*
X307100D02*
X307400D01*
X304600D02*
X306000D01*
X311400Y302500D02*
X311700D01*
X308800D02*
X309500D01*
X307500D02*
X307700D01*
X307100D02*
X307400D01*
X304600D02*
X306000D01*
X311400Y302400D02*
X311700D01*
X310000D02*
X310500D01*
X308800D02*
X309600D01*
X307100D02*
X307700D01*
X304600D02*
X306000D01*
X311400Y302300D02*
X311800D01*
X309800D02*
X310700D01*
X308800D02*
X309600D01*
X307100D02*
X307500D01*
X304600D02*
X306000D01*
X311400Y302200D02*
X311900D01*
X309700D02*
X310900D01*
X308700D02*
X309600D01*
X307100D02*
X307500D01*
X304600D02*
X306000D01*
X311500Y302100D02*
X312000D01*
X308700D02*
X311100D01*
X307900D02*
X308200D01*
X307600D02*
X307700D01*
X307100D02*
X307400D01*
X304600D02*
X306000D01*
X311500Y302000D02*
X312200D01*
X308600D02*
X311200D01*
X307900D02*
X308200D01*
X307100D02*
X307700D01*
X304600D02*
X306000D01*
X311500Y301900D02*
X312300D01*
X308600D02*
X311400D01*
X307900D02*
X308300D01*
X307100D02*
X307800D01*
X304600D02*
X306000D01*
X307100Y301800D02*
X308300D01*
X304600D02*
X306000D01*
X308000Y301700D02*
X308400D01*
X307800D02*
X307900D01*
X307100D02*
X307700D01*
X304600D02*
X306000D01*
X308000Y301600D02*
X308500D01*
X307100D02*
X307700D01*
X304600D02*
X306000D01*
X307100Y301500D02*
X307800D01*
X304600D02*
X306000D01*
X307200Y301400D02*
X307800D01*
X304500D02*
X306000D01*
X308200Y301300D02*
X312100D01*
X307900D02*
X308100D01*
X307100D02*
X307800D01*
X304500D02*
X306000D01*
X308800Y301200D02*
X310200D01*
X308400D02*
X308700D01*
X307900D02*
X308100D01*
X307400D02*
X307800D01*
X307100D02*
X307300D01*
X304600D02*
X306000D01*
X308400Y301100D02*
X309600D01*
X307500D02*
X307900D01*
X307000D02*
X307200D01*
X304600D02*
X306000D01*
X308400Y301000D02*
X309700D01*
X307500D02*
X307900D01*
X307000D02*
X307200D01*
X304600D02*
X306000D01*
X309000Y300900D02*
X309700D01*
X308500D02*
X308900D01*
X307500D02*
X308000D01*
X306900D02*
X307200D01*
X304600D02*
X306000D01*
X308400Y300800D02*
X309800D01*
X307600D02*
X308200D01*
X306900D02*
X307200D01*
X304600D02*
X306100D01*
X309000Y300700D02*
X309800D01*
X308400D02*
X308800D01*
X308200D02*
X308300D01*
X307600D02*
X308100D01*
X306900D02*
X307100D01*
X304600D02*
X306100D01*
X309000Y300600D02*
X309900D01*
X308600D02*
X308900D01*
X307700D02*
X308200D01*
X306900D02*
X307100D01*
X304600D02*
X306100D01*
X310700Y300500D02*
X312200D01*
X308800D02*
X310000D01*
X307700D02*
X308300D01*
X306800D02*
X307100D01*
X304600D02*
X306100D01*
X310500Y300400D02*
X312000D01*
X308900D02*
X310100D01*
X307800D02*
X308300D01*
X306800D02*
X307000D01*
X304600D02*
X306100D01*
X310300Y300300D02*
X311800D01*
X309300D02*
X310100D01*
X308900D02*
X309100D01*
X307900D02*
X308400D01*
X306800D02*
X307000D01*
X304600D02*
X306100D01*
X309300Y300200D02*
X311700D01*
X308800D02*
X309100D01*
X307900D02*
X308500D01*
X306800D02*
X307000D01*
X304600D02*
X306100D01*
X311900Y300100D02*
X312000D01*
X309400D02*
X311500D01*
X308800D02*
X309200D01*
X308000D02*
X308600D01*
X306700D02*
X307000D01*
X304600D02*
X306100D01*
X311800Y300000D02*
X312000D01*
X309400D02*
X311300D01*
X308800D02*
X309300D01*
X308100D02*
X308700D01*
X306700D02*
X307000D01*
X304600D02*
X306100D01*
X311600Y299900D02*
X311800D01*
X309500D02*
X311100D01*
X308200D02*
X309300D01*
X306700D02*
X306900D01*
X304600D02*
X306100D01*
X311300Y299800D02*
X311600D01*
X309600D02*
X310900D01*
X309100D02*
X309400D01*
X308300D02*
X309000D01*
X306700D02*
X306900D01*
X304700D02*
X306100D01*
X311300Y299700D02*
X311500D01*
X309700D02*
X310800D01*
X309200D02*
X309400D01*
X308500D02*
X309000D01*
X306700D02*
X306900D01*
X304700D02*
X306100D01*
X309800Y299600D02*
X310600D01*
X309200D02*
X309500D01*
X308600D02*
X308900D01*
X306600D02*
X306900D01*
X304700D02*
X306200D01*
X309900Y299500D02*
X310400D01*
X309300D02*
X309600D01*
X306600D02*
X306900D01*
X304700D02*
X306200D01*
X310600Y299400D02*
X310800D01*
X310000D02*
X310200D01*
X309400D02*
X309700D01*
X306600D02*
X306800D01*
X304700D02*
X306200D01*
X310600Y299300D02*
X310800D01*
X309500D02*
X309800D01*
X306600D02*
X306800D01*
X304700D02*
X306200D01*
X311700Y299200D02*
X312200D01*
X309600D02*
X309900D01*
X306600D02*
X306800D01*
X304800D02*
X306200D01*
X311600Y299100D02*
X312300D01*
X309700D02*
X310200D01*
X306600D02*
X306800D01*
X304800D02*
X306200D01*
X311600Y299000D02*
X312300D01*
X309800D02*
X310400D01*
X306600D02*
X306800D01*
X304800D02*
X306300D01*
X310200Y298900D02*
X310400D01*
X306500D02*
X306800D01*
X304800D02*
X306300D01*
X310200Y298800D02*
X310400D01*
X306500D02*
X306800D01*
X304900D02*
X306300D01*
X311600Y298700D02*
X312300D01*
X310200D02*
X310400D01*
X306500D02*
X306700D01*
X304900D02*
X306300D01*
X311700Y298600D02*
X312200D01*
X310200D02*
X310400D01*
X306500D02*
X306700D01*
X304900D02*
X306300D01*
X311900Y298500D02*
X312000D01*
X310200D02*
X310400D01*
X306500D02*
X306700D01*
X304900D02*
X306300D01*
X310200Y298400D02*
X310400D01*
X306500D02*
X306700D01*
X304900D02*
X306400D01*
X310200Y298300D02*
X310400D01*
X306500D02*
X306700D01*
X305000D02*
X306400D01*
X309000Y314100D02*
X309400D01*
X308700D02*
X308900D01*
X308000D02*
X308300D01*
X306600D02*
X306800D01*
X308800Y314000D02*
X309200D01*
X308100D02*
X308400D01*
X306500D02*
X306700D01*
X308700Y313900D02*
X309000D01*
X308300D02*
X308500D01*
X306400D02*
X306600D01*
X307900Y313800D02*
X308900D01*
X306300D02*
X306600D01*
X307900Y313700D02*
X308800D01*
X306300D02*
X306500D01*
X308300Y313600D02*
X308700D01*
X308400Y313500D02*
X308600D01*
X310100Y313400D02*
X310200D01*
X310000Y313300D02*
X310200D01*
X308100D02*
X308400D01*
X306100D02*
X306300D01*
X309900Y313200D02*
X310200D01*
X308000D02*
X308400D01*
X306100D02*
X306300D01*
X309800Y313100D02*
X310100D01*
X307900D02*
X308300D01*
X306000D02*
X306200D01*
X309800Y313000D02*
X310000D01*
X307800D02*
X308200D01*
X306200D02*
X306400D01*
X306000D02*
X306100D01*
X309700Y312900D02*
X309900D01*
X307700D02*
X308100D01*
X305900D02*
X306300D01*
X309700Y312800D02*
X309900D01*
X307700D02*
X308000D01*
X305800D02*
X306200D01*
X309600Y312700D02*
X309800D01*
X307600D02*
X308000D01*
X305800D02*
X306100D01*
X309600Y312600D02*
X309800D01*
X307500D02*
X307900D01*
X305800D02*
X306000D01*
X309500Y312500D02*
X309800D01*
X307500D02*
X307800D01*
X305700D02*
X305900D01*
X309500Y312400D02*
X309700D01*
X307400D02*
X307800D01*
X305700D02*
X305900D01*
X309500Y312300D02*
X309700D01*
X307400D02*
X307700D01*
X305600D02*
X305800D01*
X309400Y312200D02*
X309600D01*
X307300D02*
X307700D01*
X305600D02*
X305800D01*
X309400Y312100D02*
X309600D01*
X307300D02*
X307600D01*
X305500D02*
X305700D01*
X309400Y312000D02*
X309600D01*
X307200D02*
X307600D01*
X305500D02*
X305700D01*
X309300Y311900D02*
X309500D01*
X307200D02*
X307500D01*
X305400D02*
X305600D01*
X309300Y311800D02*
X309500D01*
X307100D02*
X307500D01*
X305400D02*
X305600D01*
X309300Y311700D02*
X309500D01*
X307100D02*
X307400D01*
X305400D02*
X305600D01*
X309300Y311600D02*
X309500D01*
X307100D02*
X307400D01*
X305300D02*
X305500D01*
X312100Y311500D02*
X312300D01*
X309200D02*
X309500D01*
X307000D02*
X307400D01*
X305300D02*
X305500D01*
X312000Y311400D02*
X312200D01*
X309200D02*
X309400D01*
X307000D02*
X307400D01*
X305200D02*
X305500D01*
X311900Y311300D02*
X312200D01*
X309200D02*
X309400D01*
X307000D02*
X307300D01*
X305200D02*
X305400D01*
X311900Y311200D02*
X312100D01*
X309200D02*
X309400D01*
X306900D02*
X307300D01*
X305200D02*
X305400D01*
X312100Y311100D02*
X312300D01*
X311800D02*
X312000D01*
X309200D02*
X309400D01*
X306900D02*
X307200D01*
X305100D02*
X305400D01*
X312100Y311000D02*
X312300D01*
X311700D02*
X312000D01*
X309200D02*
X309400D01*
X307300D02*
X307500D01*
X306900D02*
X307200D01*
X305100D02*
X305300D01*
X312000Y310900D02*
X312200D01*
X311600D02*
X311900D01*
X309100D02*
X309400D01*
X307300D02*
X307500D01*
X306900D02*
X307200D01*
X305100D02*
X305300D01*
X311900Y310800D02*
X312100D01*
X311300D02*
X311800D01*
X309100D02*
X309300D01*
X306800D02*
X307500D01*
X305000D02*
X305200D01*
X311800Y310700D02*
X312100D01*
X311100D02*
X311700D01*
X309100D02*
X309300D01*
X307200D02*
X307500D01*
X306800D02*
X307100D01*
X305000D02*
X305200D01*
X311800Y310600D02*
X312000D01*
X311400D02*
X311700D01*
X310900D02*
X311300D01*
X309100D02*
X309300D01*
X307200D02*
X307400D01*
X306800D02*
X307100D01*
X305000D02*
X305200D01*
X311300Y310500D02*
X311900D01*
X310700D02*
X311100D01*
X308900D02*
X309300D01*
X307200D02*
X307400D01*
X306800D02*
X307100D01*
X304900D02*
X305200D01*
X311500Y310400D02*
X311800D01*
X311200D02*
X311400D01*
X310600D02*
X310900D01*
X308900D02*
X309300D01*
X307100D02*
X307400D01*
X306700D02*
X307000D01*
X304900D02*
X305100D01*
X311500Y310300D02*
X311700D01*
X311100D02*
X311300D01*
X310500D02*
X310800D01*
X308900D02*
X309300D01*
X307100D02*
X307400D01*
X306700D02*
X307000D01*
X304900D02*
X305100D01*
X311400Y310200D02*
X311600D01*
X311000D02*
X311200D01*
X310400D02*
X310600D01*
X308900D02*
X309300D01*
X307100D02*
X307400D01*
X306700D02*
X307000D01*
X304800D02*
X305000D01*
X311300Y310100D02*
X311600D01*
X310900D02*
X311100D01*
X310300D02*
X310600D01*
X308900D02*
X309300D01*
X307100D02*
X307400D01*
X306700D02*
X307000D01*
X304800D02*
X305000D01*
X311100Y310000D02*
X311500D01*
X310800D02*
X311000D01*
X310200D02*
X310500D01*
X308900D02*
X309300D01*
X307100D02*
X307400D01*
X306700D02*
X307000D01*
X304800D02*
X305000D01*
X311100Y309900D02*
X311500D01*
X310600D02*
X310900D01*
X310200D02*
X310400D01*
X308900D02*
X309300D01*
X307100D02*
X307400D01*
X306600D02*
X307000D01*
X304700D02*
X305000D01*
X310900Y309800D02*
X311400D01*
X310500D02*
X310800D01*
X310200D02*
X310400D01*
X308900D02*
X309300D01*
X307100D02*
X307300D01*
X306700D02*
X307000D01*
X304700D02*
X304900D01*
X310200Y309700D02*
X311200D01*
X308900D02*
X309300D01*
X307100D02*
X307300D01*
X306600D02*
X307000D01*
X304700D02*
X304900D01*
X310300Y309600D02*
X311000D01*
X308900D02*
X309300D01*
X307000D02*
X307300D01*
X306600D02*
X306900D01*
X304600D02*
X304800D01*
X310600Y309500D02*
X310800D01*
X310100D02*
X310400D01*
X308900D02*
X309400D01*
X307000D02*
X307300D01*
X306500D02*
X306900D01*
X304600D02*
X304800D01*
X310400Y309400D02*
X310700D01*
X309900D02*
X310300D01*
X309200D02*
X309400D01*
X308900D02*
X309100D01*
X307000D02*
X307300D01*
X306500D02*
X306900D01*
X304600D02*
X304800D01*
X310300Y309300D02*
X310600D01*
X309800D02*
X310100D01*
X309200D02*
X309400D01*
X308900D02*
X309100D01*
X307000D02*
X307300D01*
X306500D02*
X306900D01*
X304500D02*
X304800D01*
X310100Y309200D02*
X310500D01*
X308900D02*
X309400D01*
X307000D02*
X307300D01*
X306500D02*
X306900D01*
X304500D02*
X304700D01*
X310000Y309100D02*
X310300D01*
X309000D02*
X309200D01*
X307000D02*
X307300D01*
X306500D02*
X306900D01*
X304500D02*
X304700D01*
X309800Y309000D02*
X310200D01*
X309000D02*
X309200D01*
X307000D02*
X307300D01*
X306500D02*
X306900D01*
X309600Y308900D02*
X310000D01*
X309000D02*
X309200D01*
X307000D02*
X307300D01*
X306500D02*
X306900D01*
X309400Y308800D02*
X309800D01*
X309000D02*
X309200D01*
X307000D02*
X307300D01*
X306400D02*
X306900D01*
X309000Y308700D02*
X309600D01*
X307000D02*
X307300D01*
X306400D02*
X306900D01*
X309000Y308600D02*
X309500D01*
X307000D02*
X307300D01*
X306400D02*
X306900D01*
X305700D02*
X305900D01*
X311400Y308500D02*
X311800D01*
X309100D02*
X309300D01*
X307000D02*
X307300D01*
X306700D02*
X306900D01*
X306400D02*
X306600D01*
X305600D02*
X305900D01*
X311000Y308400D02*
X311700D01*
X309100D02*
X309300D01*
X307000D02*
X307300D01*
X306700D02*
X306900D01*
X306300D02*
X306600D01*
X305600D02*
X305700D01*
X311600Y308300D02*
X311900D01*
X310800D02*
X311400D01*
X309100D02*
X309300D01*
X307000D02*
X307300D01*
X306700D02*
X306900D01*
X306300D02*
X306600D01*
X305600D02*
X305700D01*
X311300Y308200D02*
X311900D01*
X310900D02*
X311000D01*
X309100D02*
X309300D01*
X304600D02*
X307300D01*
X310900Y308100D02*
X312000D01*
X309100D02*
X309300D01*
X310500Y308000D02*
X312000D01*
X309200D02*
X309400D01*
X307100D02*
X307300D01*
X310500Y307900D02*
X311900D01*
X309200D02*
X309400D01*
X307100D02*
X307300D01*
X310500Y307800D02*
X311800D01*
X309200D02*
X309500D01*
X307100D02*
X307400D01*
X310500Y307700D02*
X311600D01*
X309300D02*
X309500D01*
X307100D02*
X307400D01*
X310500Y307600D02*
X311500D01*
X309300D02*
X309500D01*
X310600Y307500D02*
X311200D01*
X309400D02*
X309600D01*
X306600D02*
X307400D01*
X304600D02*
X304800D01*
X309400Y307400D02*
X309600D01*
X307200D02*
X307400D01*
X304700D02*
X304900D01*
X309500Y307300D02*
X309700D01*
X307200D02*
X307400D01*
X304700D02*
X304900D01*
X309500Y307200D02*
X309700D01*
X307200D02*
X307500D01*
X304800D02*
X305000D01*
X309600Y307100D02*
X309800D01*
X307200D02*
X307500D01*
X304900D02*
X305200D01*
X309600Y307000D02*
X309800D01*
X305000D02*
X305400D01*
X309700Y306900D02*
X309900D01*
X307300D02*
X307500D01*
X305100D02*
X305600D01*
X309700Y306800D02*
X310000D01*
X307300D02*
X307500D01*
X305300D02*
X305900D01*
X309800Y306700D02*
X310000D01*
X307300D02*
X307600D01*
X305500D02*
X306100D01*
X309900Y306600D02*
X310100D01*
X307300D02*
X307600D01*
X305800D02*
X306500D01*
X304700D02*
X305300D01*
X309900Y306500D02*
X310200D01*
X307400D02*
X307600D01*
X306100D02*
X307000D01*
X305000D02*
X305600D01*
X310000Y306400D02*
X310200D01*
X307400D02*
X307600D01*
X306500D02*
X307000D01*
X305100D02*
X305800D01*
X310100Y306300D02*
X310300D01*
X307500D02*
X307700D01*
X306900D02*
X307100D01*
X305100D02*
X306200D01*
X311300Y315000D02*
X311500D01*
X311100Y314900D02*
X311500D01*
X311200Y314800D02*
X311400D01*
X307400D02*
X307900D01*
X307200Y314700D02*
X307900D01*
X308300Y314600D02*
X308500D01*
X307000D02*
X307400D01*
X308300Y314500D02*
X308600D01*
X306900D02*
X307200D01*
X308400Y314400D02*
X308700D01*
X307200D02*
X307700D01*
X306800D02*
X307100D01*
X308600Y314300D02*
X308800D01*
X307200D02*
X307600D01*
X306700D02*
X307000D01*
X303300Y298100D02*
X303500D01*
X302900D02*
X303200D01*
X302600D02*
X302800D01*
X303400Y298000D02*
X303600D01*
X302900D02*
X303200D01*
X302600D02*
X302800D01*
X303400Y297900D02*
X303700D01*
X303000D02*
X303200D01*
X302600D02*
X302800D01*
X303500Y297800D02*
X303700D01*
X303000D02*
X303200D01*
X302600D02*
X302800D01*
X303500Y297700D02*
X303800D01*
X303000D02*
X303200D01*
X302700D02*
X302900D01*
X303600Y297600D02*
X303800D01*
X303000D02*
X303200D01*
X302700D02*
X302900D01*
X303700Y297500D02*
X303900D01*
X303100D02*
X303300D01*
X302700D02*
X302900D01*
X303700Y297400D02*
X304000D01*
X303100D02*
X303300D01*
X302800D02*
X303000D01*
X303800Y297300D02*
X304000D01*
X303100D02*
X303300D01*
X302800D02*
X303000D01*
X303900Y297200D02*
X304100D01*
X303100D02*
X303300D01*
X302800D02*
X303000D01*
X304000Y297100D02*
X304200D01*
X303200D02*
X303400D01*
X302900D02*
X303100D01*
X304100Y297000D02*
X304300D01*
X303200D02*
X303400D01*
X302900D02*
X303100D01*
X302900Y296900D02*
X303400D01*
X303300Y296800D02*
X303500D01*
X303000D02*
X303200D01*
X303000Y296700D02*
X303500D01*
X303100Y296600D02*
X303600D01*
X303200Y296500D02*
X303600D01*
X303500Y296400D02*
X303700D01*
X303200D02*
X303400D01*
X303700Y306100D02*
X303900D01*
X303700Y306000D02*
X303900D01*
X303600Y305900D02*
X303800D01*
X303600Y305800D02*
X303800D01*
X303600Y305700D02*
X303800D01*
X303500Y305600D02*
X303700D01*
X303500Y305500D02*
X303700D01*
X303500Y305400D02*
X303700D01*
X303500Y305300D02*
X303700D01*
X303400Y305200D02*
X303700D01*
X303400Y305100D02*
X303600D01*
X303400Y305000D02*
X303600D01*
X303400Y304900D02*
X303600D01*
X303300Y304800D02*
X303600D01*
X303300Y304700D02*
X303500D01*
X303300Y304600D02*
X303500D01*
X303300Y304500D02*
X303500D01*
X303300Y304400D02*
X303500D01*
X303200Y304300D02*
X303400D01*
X303200Y304200D02*
X303400D01*
X303200Y304100D02*
X303400D01*
X303200Y304000D02*
X303400D01*
X303100Y303900D02*
X303300D01*
X303100Y303800D02*
X303300D01*
X303100Y303700D02*
X303300D01*
X303100Y303600D02*
X303300D01*
X303000Y303500D02*
X303300D01*
X303000Y303400D02*
X303200D01*
X303000Y303300D02*
X303200D01*
X303000Y303200D02*
X303200D01*
X303000Y303100D02*
X303200D01*
X302900Y303000D02*
X303100D01*
X302900Y302900D02*
X303100D01*
X303700Y302800D02*
X303900D01*
X302900D02*
X303100D01*
X303600Y302700D02*
X303900D01*
X302900D02*
X303100D01*
X303600Y302600D02*
X303900D01*
X302800D02*
X303100D01*
X303600Y302500D02*
X303800D01*
X302800D02*
X303000D01*
X303600Y302400D02*
X303800D01*
X302800D02*
X303000D01*
X303600Y302300D02*
X303800D01*
X302800D02*
X303000D01*
X303600Y302200D02*
X303800D01*
X302800D02*
X303000D01*
X303600Y302100D02*
X303800D01*
X302700D02*
X302900D01*
X303600Y302000D02*
X303800D01*
X302700D02*
X302900D01*
X303600Y301900D02*
X303800D01*
X302700D02*
X302900D01*
X303600Y301800D02*
X303800D01*
X302700D02*
X302900D01*
X303600Y301700D02*
X303800D01*
X302700D02*
X302900D01*
X303600Y301600D02*
X303800D01*
X302600D02*
X302800D01*
X303600Y301500D02*
X303800D01*
X302600D02*
X302800D01*
X303600Y301400D02*
X303800D01*
X303600Y301300D02*
X303800D01*
X302600D02*
X302800D01*
X303600Y301200D02*
X303800D01*
X302600D02*
X302800D01*
X303600Y301100D02*
X303900D01*
X302500D02*
X302800D01*
X303600Y301000D02*
X303900D01*
X302500D02*
X302700D01*
X303600Y300900D02*
X303900D01*
X302500D02*
X302700D01*
X303700Y300800D02*
X303900D01*
X302500D02*
X302700D01*
X303700Y300700D02*
X303900D01*
X302500D02*
X302700D01*
X303700Y300600D02*
X303900D01*
X302500D02*
X302700D01*
X303700Y300500D02*
X303900D01*
X302400D02*
X302700D01*
X303700Y300400D02*
X303900D01*
X302400D02*
X302700D01*
X303700Y300300D02*
X303900D01*
X302400D02*
X302700D01*
X303700Y300200D02*
X303900D01*
X302400D02*
X302600D01*
X303700Y300100D02*
X303900D01*
X302400D02*
X302600D01*
X303700Y300000D02*
X304000D01*
X302900D02*
X303100D01*
X302400D02*
X302600D01*
X303800Y299900D02*
X304000D01*
X302900D02*
X303100D01*
X302400D02*
X302600D01*
X303800Y299800D02*
X304000D01*
X302900D02*
X303100D01*
X302400D02*
X302600D01*
X303800Y299700D02*
X304000D01*
X302900D02*
X303100D01*
X302400D02*
X302600D01*
X303800Y299600D02*
X304000D01*
X302900D02*
X303100D01*
X302400D02*
X302600D01*
X303800Y299500D02*
X304100D01*
X302800D02*
X303100D01*
X302400D02*
X302600D01*
X303900Y299400D02*
X304100D01*
X302800D02*
X303300D01*
X302400D02*
X302600D01*
X303900Y299300D02*
X304100D01*
X302800D02*
X303300D01*
X302400D02*
X302600D01*
X303900Y299200D02*
X304100D01*
X302800D02*
X303300D01*
X302400D02*
X302600D01*
X303900Y299100D02*
X304100D01*
X302800D02*
X303300D01*
X302400D02*
X302600D01*
X304000Y299000D02*
X304200D01*
X302800D02*
X303300D01*
X302400D02*
X302600D01*
X304000Y298900D02*
X304200D01*
X302900D02*
X303300D01*
X302400D02*
X302600D01*
X304000Y298800D02*
X304200D01*
X302900D02*
X303300D01*
X302400D02*
X302700D01*
X304000Y298700D02*
X304200D01*
X302900D02*
X303300D01*
X302500D02*
X302700D01*
X304100Y298600D02*
X304300D01*
X302900D02*
X303300D01*
X302500D02*
X302700D01*
X304100Y298500D02*
X304300D01*
X302900D02*
X303400D01*
X302500D02*
X302700D01*
X304100Y298400D02*
X304300D01*
X302900D02*
X303400D01*
X302500D02*
X302700D01*
X303200Y298300D02*
X303500D01*
X302900D02*
X303100D01*
X302500D02*
X302700D01*
X302400Y307900D02*
X303000D01*
Y307800D02*
X304100D01*
X302400Y307600D02*
X302600D01*
X304000Y307500D02*
X304300D01*
X303200D02*
X303500D01*
X302700D02*
X302800D01*
X302400D02*
X302600D01*
X303800Y307400D02*
X304300D01*
X302700D02*
X303100D01*
X303800Y307300D02*
X304200D01*
X302800D02*
X303300D01*
X303100Y307200D02*
X303600D01*
X303300Y307100D02*
X303900D01*
X303600Y307000D02*
X304100D01*
X303800Y306700D02*
X304000D01*
X303800Y306600D02*
X304000D01*
X303800Y306500D02*
X304000D01*
X303700Y306400D02*
X304000D01*
X303700Y306300D02*
X303900D01*
X315700Y314200D02*
X315900D01*
X318400Y306200D02*
X318700D01*
X317100D02*
X318100D01*
X316500D02*
X316900D01*
X315400D02*
X315600D01*
X319700Y298200D02*
X320000D01*
X316500D02*
X316800D01*
X309200Y314200D02*
X309400D01*
X308600D02*
X308900D01*
X308000D02*
X308200D01*
X306600D02*
X306900D01*
X310200Y306200D02*
X310400D01*
X307500D02*
X307700D01*
X306700D02*
X307400D01*
X305100D02*
X306300D01*
X310200Y298200D02*
X310500D01*
X306500D02*
X306700D01*
X305000D02*
X306400D01*
X303700Y306200D02*
X303900D01*
X303300Y298200D02*
X303500D01*
X302900D02*
X303200D01*
X302500D02*
X302700D01*
X304200Y298100D02*
X304400D01*
X304300Y298000D02*
X304500D01*
X304300Y297900D02*
X304500D01*
X304300Y297800D02*
X304500D01*
X304400Y297700D02*
X304600D01*
X304400Y297600D02*
X304600D01*
X304200Y296900D02*
X304400D01*
X304200Y296800D02*
X304500D01*
X304400Y296700D02*
X304600D01*
X304400Y296600D02*
X304700D01*
X312300Y305000D02*
X313100D01*
X308100Y304900D02*
X312700D01*
X312100Y304700D02*
X315700D01*
X312100Y304600D02*
X315700D01*
X312100Y302900D02*
X312500D01*
X312200Y302800D02*
X312700D01*
X312200Y302700D02*
X312900D01*
X312300Y302600D02*
X313100D01*
X312400Y302500D02*
X313300D01*
X312400Y302400D02*
X313400D01*
X308600Y301800D02*
X312500D01*
X308600Y301700D02*
X312600D01*
X308700Y301600D02*
X312800D01*
X308100Y301500D02*
X313000D01*
X308000Y301400D02*
X313200D01*
X312200Y301300D02*
X313600D01*
X311900Y301200D02*
X314400D01*
X311700Y301100D02*
X317300D01*
X311500Y301000D02*
X313300D01*
X311300Y300900D02*
X313100D01*
X311200Y300800D02*
X312900D01*
X311000Y300700D02*
X312700D01*
X310800Y300600D02*
X312400D01*
X312300Y300300D02*
X312400D01*
X311500Y298900D02*
X312400D01*
X311500Y298800D02*
X312400D01*
X304100Y298300D02*
X304400D01*
X312300Y311900D02*
X312500D01*
X312200Y311800D02*
X312700D01*
X312200Y311700D02*
X312400D01*
X312100Y311600D02*
X312700D01*
X312400Y311500D02*
X312600D01*
X312300Y311400D02*
X312500D01*
X312300Y311300D02*
X312500D01*
X312200Y311200D02*
X312400D01*
X320300Y310800D02*
X320900D01*
X319900Y310700D02*
X320600D01*
X320400Y310500D02*
X321000D01*
X320200Y310400D02*
X320700D01*
X320000Y310300D02*
X320500D01*
X320400Y310100D02*
X320700D01*
X320200Y310000D02*
X320500D01*
X319900Y309900D02*
X320400D01*
Y309600D02*
X320600D01*
X320300Y309500D02*
X320500D01*
X320200Y309400D02*
X320400D01*
X304400Y309000D02*
X304700D01*
X304400Y308900D02*
X304600D01*
X304400Y308800D02*
X304600D01*
X304400Y308700D02*
X304600D01*
X304300Y308600D02*
X304600D01*
X304300Y308500D02*
X304500D01*
X304300Y308400D02*
X304500D01*
X304300Y308300D02*
X304500D01*
X304200Y308200D02*
X304400D01*
X302800Y308100D02*
X307300D01*
X302400Y308000D02*
X305000D01*
X303000Y307700D02*
X306800D01*
X303000Y307600D02*
X307400D01*
X303900Y306900D02*
X304500D01*
X303900Y306800D02*
X304800D01*
X304400Y306700D02*
X305100D01*
X312300Y315100D02*
X313000D01*
X312300Y315000D02*
X313600D01*
X304200Y298200D02*
X304400D01*
D20*
X290326Y455368D02*
X290719Y455761D01*
X291506D01*
X291900Y455368D01*
Y453794D01*
X291506Y453400D01*
X290719D01*
X290326Y453794D01*
X287964Y453400D02*
X289539D01*
X287964Y454974D01*
Y455368D01*
X288358Y455761D01*
X289145D01*
X289539Y455368D01*
X287177Y455761D02*
X285603D01*
Y455368D01*
X287177Y453794D01*
Y453400D01*
X285626Y455368D02*
X286019Y455761D01*
X286806D01*
X287200Y455368D01*
Y453794D01*
X286806Y453400D01*
X286019D01*
X285626Y453794D01*
X283264Y453400D02*
X284839D01*
X283264Y454974D01*
Y455368D01*
X283658Y455761D01*
X284445D01*
X284839Y455368D01*
X280903Y455761D02*
X281690Y455368D01*
X282477Y454581D01*
Y453794D01*
X282084Y453400D01*
X281296D01*
X280903Y453794D01*
Y454187D01*
X281296Y454581D01*
X282477D01*
X256426Y343268D02*
X256819Y343661D01*
X257606D01*
X258000Y343268D01*
Y341694D01*
X257606Y341300D01*
X256819D01*
X256426Y341694D01*
X254064Y341300D02*
X255639D01*
X254064Y342874D01*
Y343268D01*
X254458Y343661D01*
X255245D01*
X255639Y343268D01*
X261126D02*
X261519Y343661D01*
X262306D01*
X262700Y343268D01*
Y341694D01*
X262306Y341300D01*
X261519D01*
X261126Y341694D01*
X260339Y341300D02*
X259551D01*
X259945D01*
Y343661D01*
X260339Y343268D01*
M02*
