G04*
G04 #@! TF.GenerationSoftware,Altium Limited,Altium Designer,18.1.7 (191)*
G04*
G04 Layer_Color=8388736*
%FSLAX25Y25*%
%MOIN*%
G70*
G01*
G75*
%ADD10C,0.01000*%
%ADD13C,0.01181*%
G36*
X310390Y478106D02*
X309610D01*
Y481224D01*
X310390D01*
Y478106D01*
D02*
G37*
G36*
X354390Y477594D02*
X353610D01*
Y480713D01*
X354390D01*
Y477594D01*
D02*
G37*
G36*
X310390Y458748D02*
X312598D01*
Y457969D01*
X310390D01*
Y456799D01*
X309610D01*
Y457969D01*
X307402D01*
Y458748D01*
X309610D01*
Y459917D01*
X310390D01*
Y458748D01*
D02*
G37*
G36*
X354390Y458236D02*
X356598D01*
Y457457D01*
X354390D01*
Y456287D01*
X353610D01*
Y457457D01*
X351402D01*
Y458236D01*
X353610D01*
Y459405D01*
X354390D01*
Y458236D01*
D02*
G37*
G36*
X421457Y345657D02*
X401772D01*
Y347626D01*
X419488D01*
Y383059D01*
X401772D01*
Y385028D01*
X421457D01*
Y345657D01*
D02*
G37*
G36*
X240890Y321531D02*
X243098D01*
Y320752D01*
X240890D01*
Y319583D01*
X240110D01*
Y320752D01*
X237901D01*
Y321531D01*
X240110D01*
Y322701D01*
X240890D01*
Y321531D01*
D02*
G37*
G36*
X421457Y302815D02*
X401772D01*
Y304784D01*
X419488D01*
Y340216D01*
X401772D01*
Y342185D01*
X421457D01*
Y302815D01*
D02*
G37*
G36*
X240890Y298275D02*
X240110D01*
Y301394D01*
X240890D01*
Y298275D01*
D02*
G37*
D10*
X281052Y435953D02*
G03*
X281052Y435953I-500J0D01*
G01*
X268499Y344499D02*
G03*
X268499Y344499I-500J0D01*
G01*
D13*
X345091Y328300D02*
G03*
X345091Y328300I-591J0D01*
G01*
X267856Y404303D02*
G03*
X267856Y404303I-591J0D01*
G01*
X348591Y362986D02*
G03*
X348591Y362986I-591J0D01*
G01*
X374591Y420386D02*
G03*
X374591Y420386I-591J0D01*
G01*
M02*
