G04*
G04 #@! TF.GenerationSoftware,Altium Limited,Altium Designer,18.1.7 (191)*
G04*
G04 Layer_Color=65535*
%FSLAX25Y25*%
%MOIN*%
G70*
G01*
G75*
%ADD10C,0.01000*%
%ADD11C,0.00984*%
%ADD12C,0.00800*%
%ADD13C,0.01181*%
%ADD14C,0.02362*%
%ADD15C,0.00100*%
%ADD16C,0.00600*%
%ADD17C,0.00787*%
%ADD18C,0.00472*%
%ADD19C,0.00598*%
%ADD20C,0.00315*%
%ADD21C,0.00500*%
%ADD22C,0.00300*%
%ADD23C,0.00394*%
G36*
X316366Y478106D02*
X315587D01*
Y481224D01*
X316366D01*
Y478106D01*
D02*
G37*
G36*
X360366Y477594D02*
X359587D01*
Y480713D01*
X360366D01*
Y477594D01*
D02*
G37*
G36*
X316366Y458748D02*
X318575D01*
Y457969D01*
X316366D01*
Y456799D01*
X315587D01*
Y457969D01*
X313378D01*
Y458748D01*
X315587D01*
Y459917D01*
X316366D01*
Y458748D01*
D02*
G37*
G36*
X360366Y458236D02*
X362575D01*
Y457457D01*
X360366D01*
Y456287D01*
X359587D01*
Y457457D01*
X357378D01*
Y458236D01*
X359587D01*
Y459405D01*
X360366D01*
Y458236D01*
D02*
G37*
G36*
X272462Y405765D02*
Y409185D01*
X275882D01*
X272462Y405765D01*
D02*
G37*
G36*
X234913Y321531D02*
X237122D01*
Y320752D01*
X234913D01*
Y319583D01*
X234134D01*
Y320752D01*
X231925D01*
Y321531D01*
X234134D01*
Y322701D01*
X234913D01*
Y321531D01*
D02*
G37*
G36*
Y298275D02*
X234134D01*
Y301394D01*
X234913D01*
Y298275D01*
D02*
G37*
G36*
X249898Y480374D02*
X249046D01*
Y480649D01*
X249898D01*
Y480374D01*
D02*
G37*
G36*
X246765D02*
X245913D01*
Y480649D01*
X246765D01*
Y480374D01*
D02*
G37*
G36*
X252298Y479700D02*
X252007D01*
X251537Y481407D01*
Y481411D01*
X251534Y481417D01*
X251531Y481427D01*
X251527Y481443D01*
X251518Y481479D01*
X251508Y481521D01*
X251495Y481566D01*
X251482Y481608D01*
X251472Y481644D01*
X251469Y481660D01*
X251466Y481670D01*
Y481667D01*
X251463Y481663D01*
X251459Y481644D01*
X251453Y481615D01*
X251443Y481579D01*
X251433Y481540D01*
X251420Y481495D01*
X251411Y481450D01*
X251398Y481407D01*
X250925Y479700D01*
X250614D01*
X250027Y481942D01*
X250335D01*
X250669Y480471D01*
Y480468D01*
X250672Y480461D01*
X250675Y480448D01*
X250678Y480432D01*
X250682Y480410D01*
X250688Y480387D01*
X250695Y480358D01*
X250701Y480325D01*
X250717Y480257D01*
X250734Y480180D01*
X250750Y480095D01*
X250766Y480011D01*
Y480014D01*
X250769Y480027D01*
X250776Y480043D01*
X250779Y480069D01*
X250785Y480095D01*
X250795Y480128D01*
X250811Y480199D01*
X250831Y480270D01*
X250837Y480306D01*
X250847Y480338D01*
X250853Y480367D01*
X250860Y480393D01*
X250866Y480413D01*
X250870Y480426D01*
X251294Y481942D01*
X251654D01*
X251971Y480805D01*
Y480802D01*
X251978Y480785D01*
X251984Y480763D01*
X251991Y480734D01*
X252000Y480695D01*
X252013Y480653D01*
X252026Y480604D01*
X252039Y480549D01*
X252056Y480487D01*
X252068Y480426D01*
X252098Y480293D01*
X252127Y480154D01*
X252150Y480011D01*
Y480014D01*
X252153Y480021D01*
Y480034D01*
X252159Y480050D01*
X252162Y480069D01*
X252169Y480092D01*
X252172Y480121D01*
X252182Y480154D01*
X252198Y480225D01*
X252218Y480309D01*
X252237Y480400D01*
X252263Y480500D01*
X252613Y481942D01*
X252914D01*
X252298Y479700D01*
D02*
G37*
G36*
X248044D02*
X247737D01*
X246868Y481942D01*
X247192D01*
X247776Y480312D01*
Y480309D01*
X247779Y480303D01*
X247782Y480293D01*
X247788Y480280D01*
X247792Y480261D01*
X247798Y480241D01*
X247814Y480193D01*
X247834Y480137D01*
X247853Y480076D01*
X247892Y479946D01*
Y479950D01*
X247895Y479956D01*
X247899Y479966D01*
X247902Y479979D01*
X247912Y480014D01*
X247928Y480063D01*
X247944Y480118D01*
X247963Y480180D01*
X247986Y480244D01*
X248012Y480312D01*
X248621Y481942D01*
X248922D01*
X248044Y479700D01*
D02*
G37*
G36*
X245563Y480646D02*
Y480643D01*
Y480630D01*
Y480614D01*
Y480591D01*
X245559Y480562D01*
Y480529D01*
X245556Y480491D01*
X245553Y480452D01*
X245543Y480364D01*
X245530Y480273D01*
X245511Y480186D01*
X245498Y480144D01*
X245485Y480105D01*
Y480102D01*
X245482Y480095D01*
X245475Y480086D01*
X245469Y480073D01*
X245449Y480037D01*
X245420Y479992D01*
X245381Y479940D01*
X245336Y479888D01*
X245277Y479833D01*
X245206Y479784D01*
X245203D01*
X245196Y479778D01*
X245187Y479775D01*
X245170Y479765D01*
X245151Y479755D01*
X245125Y479745D01*
X245099Y479736D01*
X245067Y479723D01*
X245031Y479710D01*
X244992Y479700D01*
X244950Y479690D01*
X244902Y479681D01*
X244853Y479674D01*
X244801Y479668D01*
X244685Y479661D01*
X244655D01*
X244633Y479664D01*
X244607D01*
X244574Y479668D01*
X244539Y479671D01*
X244503Y479674D01*
X244422Y479687D01*
X244335Y479706D01*
X244250Y479732D01*
X244169Y479768D01*
X244166D01*
X244160Y479775D01*
X244150Y479781D01*
X244137Y479787D01*
X244101Y479813D01*
X244059Y479849D01*
X244011Y479894D01*
X243965Y479946D01*
X243920Y480011D01*
X243884Y480082D01*
Y480086D01*
X243881Y480092D01*
X243878Y480105D01*
X243871Y480121D01*
X243865Y480141D01*
X243858Y480167D01*
X243849Y480196D01*
X243842Y480231D01*
X243836Y480270D01*
X243826Y480312D01*
X243819Y480358D01*
X243813Y480406D01*
X243807Y480461D01*
X243803Y480520D01*
X243800Y480581D01*
Y480646D01*
Y481942D01*
X244098D01*
Y480646D01*
Y480643D01*
Y480633D01*
Y480617D01*
Y480597D01*
X244101Y480575D01*
Y480546D01*
X244105Y480484D01*
X244111Y480413D01*
X244121Y480341D01*
X244134Y480273D01*
X244140Y480244D01*
X244150Y480215D01*
X244153Y480209D01*
X244160Y480193D01*
X244176Y480170D01*
X244195Y480137D01*
X244218Y480105D01*
X244250Y480069D01*
X244289Y480034D01*
X244335Y480005D01*
X244341Y480001D01*
X244357Y479992D01*
X244386Y479982D01*
X244425Y479969D01*
X244471Y479953D01*
X244529Y479943D01*
X244591Y479933D01*
X244659Y479930D01*
X244691D01*
X244710Y479933D01*
X244740D01*
X244769Y479937D01*
X244840Y479950D01*
X244918Y479966D01*
X244992Y479992D01*
X245064Y480027D01*
X245096Y480050D01*
X245125Y480076D01*
X245128Y480079D01*
X245132Y480082D01*
X245138Y480092D01*
X245148Y480105D01*
X245158Y480124D01*
X245170Y480144D01*
X245183Y480173D01*
X245196Y480202D01*
X245209Y480238D01*
X245219Y480280D01*
X245232Y480329D01*
X245242Y480380D01*
X245251Y480439D01*
X245258Y480500D01*
X245265Y480572D01*
Y480646D01*
Y481942D01*
X245563D01*
Y480646D01*
D02*
G37*
G36*
X303698Y302774D02*
X302846D01*
Y303049D01*
X303698D01*
Y302774D01*
D02*
G37*
G36*
X300565D02*
X299712D01*
Y303049D01*
X300565D01*
Y302774D01*
D02*
G37*
G36*
X306099Y302100D02*
X305807D01*
X305337Y303807D01*
Y303811D01*
X305334Y303817D01*
X305331Y303827D01*
X305327Y303843D01*
X305318Y303879D01*
X305308Y303921D01*
X305295Y303966D01*
X305282Y304008D01*
X305272Y304044D01*
X305269Y304060D01*
X305266Y304070D01*
Y304067D01*
X305263Y304063D01*
X305259Y304044D01*
X305253Y304015D01*
X305243Y303979D01*
X305233Y303940D01*
X305221Y303895D01*
X305211Y303850D01*
X305198Y303807D01*
X304725Y302100D01*
X304414D01*
X303827Y304342D01*
X304135D01*
X304469Y302871D01*
Y302868D01*
X304472Y302861D01*
X304475Y302848D01*
X304479Y302832D01*
X304482Y302810D01*
X304488Y302787D01*
X304495Y302758D01*
X304501Y302725D01*
X304517Y302657D01*
X304534Y302579D01*
X304550Y302495D01*
X304566Y302411D01*
Y302414D01*
X304569Y302427D01*
X304576Y302443D01*
X304579Y302469D01*
X304585Y302495D01*
X304595Y302528D01*
X304611Y302599D01*
X304631Y302670D01*
X304637Y302706D01*
X304647Y302738D01*
X304654Y302767D01*
X304660Y302793D01*
X304666Y302813D01*
X304670Y302826D01*
X305094Y304342D01*
X305454D01*
X305771Y303205D01*
Y303202D01*
X305778Y303185D01*
X305784Y303163D01*
X305791Y303134D01*
X305800Y303095D01*
X305813Y303053D01*
X305826Y303004D01*
X305839Y302949D01*
X305855Y302887D01*
X305869Y302826D01*
X305898Y302693D01*
X305927Y302554D01*
X305949Y302411D01*
Y302414D01*
X305953Y302421D01*
Y302434D01*
X305959Y302450D01*
X305962Y302469D01*
X305969Y302492D01*
X305972Y302521D01*
X305982Y302554D01*
X305998Y302625D01*
X306017Y302709D01*
X306037Y302800D01*
X306063Y302900D01*
X306413Y304342D01*
X306714D01*
X306099Y302100D01*
D02*
G37*
G36*
X301844D02*
X301537D01*
X300668Y304342D01*
X300992D01*
X301575Y302712D01*
Y302709D01*
X301579Y302703D01*
X301582Y302693D01*
X301588Y302680D01*
X301592Y302660D01*
X301598Y302641D01*
X301614Y302592D01*
X301634Y302537D01*
X301653Y302476D01*
X301692Y302346D01*
Y302349D01*
X301695Y302356D01*
X301699Y302366D01*
X301702Y302379D01*
X301712Y302414D01*
X301728Y302463D01*
X301744Y302518D01*
X301763Y302579D01*
X301786Y302644D01*
X301812Y302712D01*
X302421Y304342D01*
X302722D01*
X301844Y302100D01*
D02*
G37*
G36*
X299363Y303046D02*
Y303043D01*
Y303030D01*
Y303014D01*
Y302991D01*
X299359Y302962D01*
Y302929D01*
X299356Y302891D01*
X299353Y302852D01*
X299343Y302764D01*
X299330Y302674D01*
X299311Y302586D01*
X299298Y302544D01*
X299285Y302505D01*
Y302502D01*
X299282Y302495D01*
X299275Y302486D01*
X299269Y302473D01*
X299249Y302437D01*
X299220Y302392D01*
X299181Y302340D01*
X299136Y302288D01*
X299077Y302233D01*
X299006Y302184D01*
X299003D01*
X298996Y302178D01*
X298987Y302174D01*
X298971Y302165D01*
X298951Y302155D01*
X298925Y302145D01*
X298899Y302136D01*
X298867Y302123D01*
X298831Y302110D01*
X298792Y302100D01*
X298750Y302090D01*
X298702Y302081D01*
X298653Y302074D01*
X298601Y302068D01*
X298484Y302061D01*
X298455D01*
X298433Y302064D01*
X298407D01*
X298374Y302068D01*
X298339Y302071D01*
X298303Y302074D01*
X298222Y302087D01*
X298135Y302106D01*
X298050Y302132D01*
X297969Y302168D01*
X297966D01*
X297960Y302174D01*
X297950Y302181D01*
X297937Y302187D01*
X297901Y302213D01*
X297859Y302249D01*
X297811Y302294D01*
X297765Y302346D01*
X297720Y302411D01*
X297684Y302482D01*
Y302486D01*
X297681Y302492D01*
X297678Y302505D01*
X297671Y302521D01*
X297665Y302541D01*
X297658Y302567D01*
X297649Y302596D01*
X297642Y302631D01*
X297636Y302670D01*
X297626Y302712D01*
X297619Y302758D01*
X297613Y302806D01*
X297606Y302861D01*
X297603Y302920D01*
X297600Y302981D01*
Y303046D01*
Y304342D01*
X297898D01*
Y303046D01*
Y303043D01*
Y303033D01*
Y303017D01*
Y302997D01*
X297901Y302975D01*
Y302946D01*
X297905Y302884D01*
X297911Y302813D01*
X297921Y302742D01*
X297934Y302674D01*
X297940Y302644D01*
X297950Y302615D01*
X297953Y302609D01*
X297960Y302592D01*
X297976Y302570D01*
X297995Y302537D01*
X298018Y302505D01*
X298050Y302469D01*
X298089Y302434D01*
X298135Y302405D01*
X298141Y302401D01*
X298157Y302392D01*
X298186Y302382D01*
X298225Y302369D01*
X298271Y302353D01*
X298329Y302343D01*
X298391Y302333D01*
X298459Y302330D01*
X298491D01*
X298510Y302333D01*
X298540D01*
X298569Y302337D01*
X298640Y302349D01*
X298718Y302366D01*
X298792Y302392D01*
X298864Y302427D01*
X298896Y302450D01*
X298925Y302476D01*
X298928Y302479D01*
X298932Y302482D01*
X298938Y302492D01*
X298948Y302505D01*
X298958Y302524D01*
X298971Y302544D01*
X298984Y302573D01*
X298996Y302602D01*
X299009Y302638D01*
X299019Y302680D01*
X299032Y302729D01*
X299042Y302780D01*
X299051Y302839D01*
X299058Y302900D01*
X299064Y302972D01*
Y303046D01*
Y304342D01*
X299363D01*
Y303046D01*
D02*
G37*
G36*
X324300Y306966D02*
X322058D01*
Y307264D01*
X324034D01*
Y308368D01*
X324300D01*
Y306966D01*
D02*
G37*
G36*
X323626Y305789D02*
X323351D01*
Y306642D01*
X323626D01*
Y305789D01*
D02*
G37*
G36*
X324300Y305200D02*
X323315D01*
X323312D01*
X323309D01*
X323286D01*
X323257D01*
X323221Y305196D01*
X323179Y305193D01*
X323137Y305187D01*
X323098Y305177D01*
X323062Y305167D01*
X323059D01*
X323049Y305161D01*
X323033Y305151D01*
X323014Y305141D01*
X322994Y305125D01*
X322972Y305106D01*
X322949Y305080D01*
X322930Y305051D01*
X322926Y305047D01*
X322920Y305038D01*
X322913Y305018D01*
X322904Y304996D01*
X322894Y304970D01*
X322884Y304937D01*
X322881Y304898D01*
X322878Y304860D01*
Y304843D01*
X322881Y304830D01*
X322884Y304798D01*
X322891Y304756D01*
X322907Y304711D01*
X322926Y304659D01*
X322952Y304607D01*
X322991Y304558D01*
X322997Y304552D01*
X323014Y304539D01*
X323027Y304529D01*
X323043Y304519D01*
X323062Y304506D01*
X323085Y304497D01*
X323111Y304484D01*
X323143Y304471D01*
X323179Y304461D01*
X323218Y304451D01*
X323260Y304445D01*
X323305Y304438D01*
X323360Y304432D01*
X323415D01*
X324300D01*
Y304156D01*
X322674D01*
Y304403D01*
X322907D01*
X322904Y304406D01*
X322894Y304412D01*
X322881Y304422D01*
X322865Y304435D01*
X322845Y304455D01*
X322823Y304477D01*
X322797Y304503D01*
X322771Y304536D01*
X322748Y304568D01*
X322722Y304607D01*
X322699Y304649D01*
X322680Y304694D01*
X322664Y304746D01*
X322651Y304798D01*
X322641Y304856D01*
X322638Y304918D01*
Y304944D01*
X322641Y304970D01*
X322644Y305005D01*
X322651Y305047D01*
X322661Y305093D01*
X322674Y305141D01*
X322693Y305187D01*
X322696Y305193D01*
X322703Y305206D01*
X322712Y305229D01*
X322729Y305255D01*
X322748Y305287D01*
X322774Y305316D01*
X322800Y305346D01*
X322832Y305371D01*
X322835Y305375D01*
X322849Y305381D01*
X322865Y305391D01*
X322887Y305407D01*
X322920Y305420D01*
X322952Y305433D01*
X322991Y305449D01*
X323033Y305459D01*
X323036D01*
X323049Y305462D01*
X323069Y305465D01*
X323095Y305469D01*
X323134D01*
X323179Y305472D01*
X323234Y305475D01*
X323302D01*
X324300D01*
Y305200D01*
D02*
G37*
G36*
Y303528D02*
X324297Y303525D01*
X324284Y303521D01*
X324268Y303515D01*
X324242Y303505D01*
X324213Y303496D01*
X324177Y303489D01*
X324138Y303483D01*
X324096Y303476D01*
Y303473D01*
X324102Y303470D01*
X324119Y303450D01*
X324141Y303421D01*
X324170Y303382D01*
X324200Y303333D01*
X324232Y303285D01*
X324261Y303233D01*
X324284Y303178D01*
X324287Y303171D01*
X324290Y303152D01*
X324300Y303123D01*
X324310Y303087D01*
X324319Y303042D01*
X324326Y302990D01*
X324332Y302932D01*
X324336Y302873D01*
Y302848D01*
X324332Y302828D01*
Y302805D01*
X324329Y302780D01*
X324319Y302721D01*
X324303Y302656D01*
X324281Y302585D01*
X324248Y302520D01*
X324206Y302462D01*
X324200Y302455D01*
X324183Y302439D01*
X324154Y302417D01*
X324115Y302391D01*
X324067Y302365D01*
X324012Y302342D01*
X323944Y302326D01*
X323911Y302323D01*
X323872Y302319D01*
X323866D01*
X323853D01*
X323830Y302323D01*
X323801Y302326D01*
X323765Y302332D01*
X323730Y302342D01*
X323691Y302355D01*
X323655Y302371D01*
X323652Y302375D01*
X323639Y302381D01*
X323620Y302394D01*
X323597Y302410D01*
X323571Y302430D01*
X323545Y302455D01*
X323519Y302481D01*
X323497Y302514D01*
X323493Y302517D01*
X323487Y302530D01*
X323474Y302546D01*
X323461Y302572D01*
X323448Y302601D01*
X323432Y302637D01*
X323419Y302673D01*
X323406Y302715D01*
Y302718D01*
X323403Y302731D01*
X323396Y302750D01*
X323393Y302776D01*
X323386Y302809D01*
X323380Y302851D01*
X323370Y302899D01*
X323364Y302958D01*
Y302961D01*
X323360Y302974D01*
Y302990D01*
X323357Y303013D01*
X323354Y303039D01*
X323347Y303071D01*
X323344Y303107D01*
X323338Y303146D01*
X323322Y303223D01*
X323305Y303308D01*
X323286Y303382D01*
X323276Y303418D01*
X323266Y303450D01*
X323263D01*
X323257D01*
X323237Y303453D01*
X323215D01*
X323202D01*
X323195D01*
X323192D01*
X323189D01*
X323169D01*
X323137Y303450D01*
X323101Y303444D01*
X323062Y303434D01*
X323023Y303418D01*
X322988Y303398D01*
X322959Y303372D01*
X322955Y303369D01*
X322942Y303353D01*
X322930Y303327D01*
X322910Y303295D01*
X322894Y303249D01*
X322878Y303197D01*
X322868Y303133D01*
X322865Y303058D01*
Y303026D01*
X322868Y302993D01*
X322874Y302948D01*
X322881Y302903D01*
X322894Y302854D01*
X322910Y302809D01*
X322933Y302770D01*
X322936Y302766D01*
X322946Y302754D01*
X322962Y302737D01*
X322988Y302718D01*
X323020Y302698D01*
X323062Y302676D01*
X323114Y302656D01*
X323172Y302637D01*
X323137Y302368D01*
X323134D01*
X323130Y302371D01*
X323121D01*
X323108Y302375D01*
X323078Y302384D01*
X323036Y302397D01*
X322994Y302413D01*
X322949Y302433D01*
X322904Y302459D01*
X322861Y302488D01*
X322858Y302491D01*
X322845Y302504D01*
X322826Y302523D01*
X322800Y302549D01*
X322774Y302585D01*
X322748Y302627D01*
X322719Y302676D01*
X322696Y302731D01*
Y302734D01*
X322693Y302737D01*
X322690Y302747D01*
X322687Y302760D01*
X322677Y302792D01*
X322667Y302838D01*
X322657Y302890D01*
X322648Y302954D01*
X322641Y303023D01*
X322638Y303100D01*
Y303136D01*
X322641Y303171D01*
X322644Y303220D01*
X322651Y303275D01*
X322661Y303330D01*
X322674Y303385D01*
X322690Y303437D01*
X322693Y303444D01*
X322699Y303460D01*
X322709Y303483D01*
X322722Y303512D01*
X322742Y303544D01*
X322761Y303576D01*
X322787Y303606D01*
X322813Y303632D01*
X322816Y303635D01*
X322826Y303641D01*
X322842Y303651D01*
X322861Y303664D01*
X322891Y303680D01*
X322920Y303693D01*
X322955Y303706D01*
X322997Y303716D01*
X323001D01*
X323010Y303719D01*
X323030Y303722D01*
X323056Y303726D01*
X323092D01*
X323134Y303729D01*
X323189Y303732D01*
X323250D01*
X323620D01*
X323623D01*
X323636D01*
X323655D01*
X323681D01*
X323710D01*
X323746D01*
X323824Y303735D01*
X323905D01*
X323986Y303738D01*
X324021Y303742D01*
X324054D01*
X324083Y303745D01*
X324106Y303748D01*
X324109D01*
X324122Y303751D01*
X324141Y303755D01*
X324167Y303764D01*
X324196Y303771D01*
X324229Y303784D01*
X324264Y303800D01*
X324300Y303816D01*
Y303528D01*
D02*
G37*
G36*
X323607Y302080D02*
X323626Y302073D01*
X323652Y302063D01*
X323681Y302054D01*
X323717Y302041D01*
X323756Y302025D01*
X323798Y302005D01*
X323888Y301960D01*
X323979Y301901D01*
X324025Y301866D01*
X324070Y301830D01*
X324109Y301791D01*
X324148Y301746D01*
X324151Y301743D01*
X324157Y301736D01*
X324164Y301720D01*
X324177Y301704D01*
X324193Y301678D01*
X324209Y301652D01*
X324225Y301616D01*
X324242Y301581D01*
X324261Y301539D01*
X324277Y301493D01*
X324293Y301445D01*
X324310Y301393D01*
X324323Y301338D01*
X324329Y301279D01*
X324336Y301218D01*
X324339Y301153D01*
Y301117D01*
X324336Y301091D01*
Y301062D01*
X324332Y301027D01*
X324326Y300988D01*
X324319Y300942D01*
X324303Y300848D01*
X324277Y300751D01*
X324242Y300654D01*
X324219Y300609D01*
X324193Y300563D01*
X324190Y300560D01*
X324187Y300554D01*
X324177Y300541D01*
X324164Y300528D01*
X324151Y300508D01*
X324131Y300486D01*
X324109Y300460D01*
X324083Y300434D01*
X324054Y300408D01*
X324025Y300379D01*
X323950Y300320D01*
X323863Y300265D01*
X323765Y300217D01*
X323762D01*
X323752Y300210D01*
X323736Y300207D01*
X323717Y300197D01*
X323691Y300191D01*
X323658Y300181D01*
X323623Y300168D01*
X323584Y300158D01*
X323542Y300149D01*
X323493Y300136D01*
X323393Y300119D01*
X323279Y300107D01*
X323163Y300100D01*
X323160D01*
X323147D01*
X323127D01*
X323104Y300103D01*
X323072D01*
X323040Y300107D01*
X322997Y300110D01*
X322955Y300116D01*
X322861Y300132D01*
X322758Y300155D01*
X322654Y300187D01*
X322554Y300233D01*
X322550Y300236D01*
X322541Y300239D01*
X322528Y300246D01*
X322512Y300259D01*
X322489Y300272D01*
X322463Y300288D01*
X322405Y300330D01*
X322340Y300385D01*
X322275Y300450D01*
X322210Y300524D01*
X322155Y300612D01*
X322152Y300615D01*
X322149Y300625D01*
X322142Y300638D01*
X322132Y300654D01*
X322123Y300680D01*
X322113Y300706D01*
X322100Y300738D01*
X322087Y300774D01*
X322074Y300813D01*
X322061Y300855D01*
X322042Y300946D01*
X322025Y301049D01*
X322019Y301156D01*
Y301189D01*
X322022Y301211D01*
X322025Y301240D01*
X322029Y301276D01*
X322032Y301312D01*
X322042Y301354D01*
X322061Y301441D01*
X322090Y301539D01*
X322110Y301587D01*
X322132Y301632D01*
X322162Y301678D01*
X322191Y301723D01*
X322194Y301727D01*
X322197Y301733D01*
X322207Y301746D01*
X322223Y301762D01*
X322239Y301778D01*
X322262Y301801D01*
X322288Y301824D01*
X322314Y301850D01*
X322346Y301875D01*
X322385Y301901D01*
X322424Y301931D01*
X322466Y301957D01*
X322515Y301979D01*
X322563Y302005D01*
X322615Y302025D01*
X322674Y302044D01*
X322742Y301752D01*
X322738D01*
X322732Y301749D01*
X322719Y301743D01*
X322703Y301736D01*
X322683Y301730D01*
X322657Y301720D01*
X322605Y301694D01*
X322547Y301662D01*
X322489Y301623D01*
X322434Y301574D01*
X322385Y301522D01*
X322379Y301516D01*
X322366Y301496D01*
X322350Y301464D01*
X322327Y301422D01*
X322307Y301367D01*
X322288Y301305D01*
X322275Y301231D01*
X322272Y301150D01*
Y301124D01*
X322275Y301108D01*
Y301085D01*
X322278Y301059D01*
X322288Y300997D01*
X322301Y300929D01*
X322324Y300858D01*
X322356Y300784D01*
X322398Y300716D01*
Y300712D01*
X322405Y300709D01*
X322421Y300686D01*
X322447Y300657D01*
X322486Y300622D01*
X322534Y300580D01*
X322589Y300541D01*
X322657Y300505D01*
X322732Y300473D01*
X322735D01*
X322742Y300469D01*
X322751Y300466D01*
X322767Y300463D01*
X322787Y300456D01*
X322810Y300450D01*
X322865Y300440D01*
X322930Y300427D01*
X323001Y300414D01*
X323078Y300408D01*
X323163Y300405D01*
X323166D01*
X323176D01*
X323192D01*
X323211D01*
X323234Y300408D01*
X323263D01*
X323296Y300411D01*
X323331Y300414D01*
X323409Y300424D01*
X323493Y300440D01*
X323577Y300460D01*
X323662Y300486D01*
X323665D01*
X323671Y300489D01*
X323681Y300495D01*
X323697Y300502D01*
X323736Y300521D01*
X323782Y300550D01*
X323833Y300586D01*
X323888Y300631D01*
X323937Y300683D01*
X323983Y300745D01*
Y300748D01*
X323986Y300754D01*
X323992Y300764D01*
X323999Y300777D01*
X324005Y300793D01*
X324015Y300813D01*
X324034Y300858D01*
X324054Y300917D01*
X324070Y300981D01*
X324083Y301053D01*
X324086Y301127D01*
Y301150D01*
X324083Y301169D01*
Y301192D01*
X324080Y301215D01*
X324067Y301273D01*
X324050Y301341D01*
X324025Y301409D01*
X323989Y301480D01*
X323970Y301516D01*
X323944Y301548D01*
X323940Y301552D01*
X323937Y301555D01*
X323927Y301565D01*
X323918Y301577D01*
X323902Y301590D01*
X323882Y301607D01*
X323863Y301626D01*
X323837Y301642D01*
X323808Y301662D01*
X323775Y301684D01*
X323743Y301704D01*
X323704Y301723D01*
X323662Y301739D01*
X323616Y301756D01*
X323568Y301772D01*
X323516Y301785D01*
X323590Y302083D01*
X323594D01*
X323607Y302080D01*
D02*
G37*
%LPC*%
G36*
X323483Y303453D02*
Y303450D01*
X323487Y303447D01*
X323490Y303437D01*
X323493Y303424D01*
X323500Y303408D01*
X323506Y303389D01*
X323513Y303366D01*
X323519Y303340D01*
X323529Y303311D01*
X323535Y303275D01*
X323545Y303240D01*
X323555Y303197D01*
X323565Y303152D01*
X323574Y303107D01*
X323581Y303055D01*
X323590Y303000D01*
Y302993D01*
X323594Y302974D01*
X323600Y302941D01*
X323607Y302906D01*
X323613Y302867D01*
X323623Y302828D01*
X323633Y302792D01*
X323645Y302760D01*
Y302757D01*
X323652Y302747D01*
X323658Y302734D01*
X323668Y302721D01*
X323694Y302682D01*
X323733Y302650D01*
X323736D01*
X323743Y302643D01*
X323756Y302640D01*
X323772Y302634D01*
X323791Y302627D01*
X323811Y302621D01*
X323837Y302618D01*
X323863Y302614D01*
X323866D01*
X323882D01*
X323902Y302618D01*
X323927Y302624D01*
X323957Y302634D01*
X323986Y302650D01*
X324018Y302669D01*
X324047Y302695D01*
X324050Y302698D01*
X324057Y302711D01*
X324070Y302731D01*
X324083Y302757D01*
X324096Y302792D01*
X324109Y302835D01*
X324115Y302883D01*
X324119Y302941D01*
Y302967D01*
X324115Y303000D01*
X324109Y303035D01*
X324102Y303081D01*
X324089Y303126D01*
X324073Y303175D01*
X324050Y303223D01*
X324047Y303230D01*
X324038Y303243D01*
X324021Y303266D01*
X323999Y303291D01*
X323973Y303321D01*
X323940Y303353D01*
X323902Y303379D01*
X323859Y303405D01*
X323856Y303408D01*
X323843Y303411D01*
X323820Y303418D01*
X323791Y303428D01*
X323752Y303437D01*
X323707Y303444D01*
X323652Y303447D01*
X323587Y303450D01*
X323483Y303453D01*
D02*
G37*
%LPD*%
D10*
X396453Y437134D02*
G03*
X412311Y430500I16420J16981D01*
G01*
X412500Y491500D02*
G03*
X396642Y484866I562J-23615D01*
G01*
X390901Y342618D02*
G03*
X389720Y343799I-1181J0D01*
G01*
X385981Y343796D02*
G03*
X384800Y342615I0J-1181D01*
G01*
X384894Y332083D02*
G03*
X386075Y330901I1181J0D01*
G01*
X389712Y330902D02*
G03*
X390893Y332083I0J1181D01*
G01*
X383518Y358689D02*
G03*
X384699Y359870I0J1181D01*
G01*
X384696Y363608D02*
G03*
X383515Y364789I-1181J0D01*
G01*
X372983Y364695D02*
G03*
X371801Y363514I0J-1181D01*
G01*
X371802Y359878D02*
G03*
X372983Y358697I1181J0D01*
G01*
X283175Y436559D02*
G03*
X283175Y436559I-459J0D01*
G01*
X350342Y352461D02*
G03*
X350323Y346741I157J-2860D01*
G01*
X266295Y343894D02*
G03*
X266295Y343894I-459J0D01*
G01*
X399602Y424188D02*
G03*
X400783Y423007I1181J0D01*
G01*
X400782Y429006D02*
G03*
X399601Y427825I0J-1181D01*
G01*
X412496Y427919D02*
G03*
X411315Y429100I-1181J0D01*
G01*
X411318Y422999D02*
G03*
X412499Y424180I0J1181D01*
G01*
X398498Y427812D02*
G03*
X397317Y428993I-1181J0D01*
G01*
X397318Y422994D02*
G03*
X398499Y424175I0J1181D01*
G01*
X385604Y424081D02*
G03*
X386785Y422900I1181J0D01*
G01*
X386782Y429001D02*
G03*
X385601Y427820I0J-1181D01*
G01*
X367208Y442304D02*
G03*
X367100Y433500I4494J-4458D01*
G01*
X380270Y433550D02*
G03*
X380366Y442368I-4494J4458D01*
G01*
X367308Y431804D02*
G03*
X367200Y423000I4494J-4458D01*
G01*
X380370Y423050D02*
G03*
X380466Y431868I-4494J4458D01*
G01*
X376343Y409861D02*
G03*
X376323Y404141I157J-2860D01*
G01*
X412063Y491512D02*
X467833D01*
X412063Y430489D02*
X467833D01*
Y491512D01*
X396673Y478889D02*
X396703Y484597D01*
X396522Y450220D02*
X396634Y471537D01*
X396453Y437134D02*
X396486Y443515D01*
X337190Y313100D02*
X345140D01*
X353020Y315630D02*
X356100D01*
X345140D02*
X353020D01*
X337190Y313100D02*
Y315630D01*
X326400D02*
X337190D01*
X345140Y313100D02*
Y315630D01*
X326400Y292500D02*
X356100D01*
Y315630D01*
X326400Y292500D02*
Y315630D01*
X338500Y474800D02*
Y484000D01*
X325300D02*
X338500D01*
Y459720D02*
Y469100D01*
X325300Y459600D02*
X338500D01*
X325300Y475100D02*
Y484000D01*
Y459600D02*
Y469200D01*
X338500Y449700D02*
Y458900D01*
X325300D02*
X338500D01*
Y434620D02*
Y444000D01*
X325300Y434500D02*
X338500D01*
X325300Y450000D02*
Y458900D01*
Y434500D02*
Y444100D01*
X362100Y299580D02*
Y308600D01*
Y299580D02*
X368600D01*
X362100Y308600D02*
X368600D01*
X378280Y299600D02*
Y308600D01*
X371700D02*
X378280D01*
X371800Y299600D02*
X378280D01*
X390900Y339100D02*
Y342618D01*
X384800Y339100D02*
Y342615D01*
X385981Y343800D02*
X389720D01*
X390900Y332083D02*
Y335600D01*
X384900Y332083D02*
Y335600D01*
X386075Y330900D02*
X389712D01*
X334895Y318644D02*
X338296D01*
X334895D02*
Y322581D01*
X339564Y324156D02*
X342036D01*
X343304Y318644D02*
X346706D01*
Y322581D01*
X380000Y358689D02*
X383518D01*
X380000Y364790D02*
X383515D01*
X384700Y359870D02*
Y363608D01*
X372983Y358689D02*
X376500D01*
X372983Y364689D02*
X376500D01*
X371800Y359878D02*
Y363514D01*
X359400Y314480D02*
Y323500D01*
Y314480D02*
X365900D01*
X359400Y323500D02*
X365900D01*
X375580Y314500D02*
Y323500D01*
X369000D02*
X375580D01*
X369100Y314500D02*
X375580D01*
X260709Y433173D02*
X262260D01*
X280394D02*
Y434354D01*
X278844Y433173D02*
X280394D01*
X260709D02*
Y434354D01*
X260709Y459551D02*
Y460732D01*
X262260D01*
X278843D02*
X280394D01*
Y459551D02*
Y460732D01*
X222500Y423500D02*
X234500D01*
X222500Y413500D02*
X234500D01*
X222500Y413500D02*
Y453500D01*
X234500Y413500D02*
Y453500D01*
X222500D02*
X234500D01*
X272462Y369815D02*
Y373236D01*
Y369815D02*
X275882D01*
X272462Y409185D02*
X275882D01*
X272462Y405764D02*
Y409185D01*
X311831Y405764D02*
Y409185D01*
X308411D02*
X311831D01*
X308411Y369815D02*
X311831D01*
Y373235D01*
X272462Y405764D02*
X275882Y409185D01*
Y409185D01*
X330658Y343694D02*
Y355505D01*
X350342Y343694D02*
Y346741D01*
Y352461D02*
Y355505D01*
X330658Y343694D02*
X350342D01*
X330658Y355505D02*
X350342D01*
X286292Y347280D02*
X287842D01*
X268158Y346098D02*
Y347280D01*
X269708D01*
X287842Y346098D02*
Y347280D01*
X287842Y319721D02*
Y320902D01*
X286292Y319721D02*
X287842D01*
X268158D02*
X269708D01*
X268158D02*
Y320902D01*
X269015Y311906D02*
Y315400D01*
X283615Y311906D02*
Y315400D01*
X269015D02*
X283615D01*
X288915D02*
X296215D01*
X257315D02*
X264015D01*
X257315Y292700D02*
X296215D01*
X257315D02*
Y315400D01*
X296215Y292700D02*
Y315400D01*
X264015Y311906D02*
Y315400D01*
Y311906D02*
X269015D01*
X288915D02*
Y315400D01*
X283615Y311906D02*
X288915D01*
X424016Y345657D02*
Y385028D01*
X392520Y345657D02*
X424016D01*
X392520D02*
Y353860D01*
X393302D01*
X400394D02*
X400399D01*
X400394Y345657D02*
Y353860D01*
X392520Y357140D02*
Y363703D01*
Y366982D02*
Y373545D01*
Y376825D02*
Y385028D01*
X424016D01*
X392520Y373545D02*
X393302D01*
X400394D02*
X400399D01*
X392520Y357140D02*
X393302D01*
X400394D02*
X400399D01*
X392520Y363703D02*
X393302D01*
X400394Y363703D02*
X400399D01*
X392520Y366982D02*
X393302D01*
X400394D02*
X400399D01*
X392520Y376825D02*
X393302D01*
X400394D02*
X400399D01*
X400394D02*
Y385028D01*
Y366982D02*
Y373545D01*
Y357140D02*
Y363703D01*
X424016Y302815D02*
Y342185D01*
X392520Y302815D02*
X424016D01*
X392520D02*
Y311018D01*
X393302D01*
X400394D02*
X400399D01*
X400394Y302815D02*
Y311018D01*
X392520Y314297D02*
Y320860D01*
Y324140D02*
Y330703D01*
Y333982D02*
Y342185D01*
X424016D01*
X392520Y330703D02*
X393302D01*
X400394D02*
X400399D01*
X392520Y314297D02*
X393302D01*
X400394D02*
X400399D01*
X392520Y320860D02*
X393302D01*
X400394Y320860D02*
X400399D01*
X392520Y324140D02*
X393302D01*
X400394D02*
X400399D01*
X392520Y333982D02*
X393302D01*
X400394D02*
X400399D01*
X400394D02*
Y342185D01*
Y324140D02*
Y330703D01*
Y314297D02*
Y320860D01*
X399600Y424188D02*
Y427825D01*
X400782Y429000D02*
X404300D01*
X400783Y423000D02*
X404300D01*
X412500Y424180D02*
Y427919D01*
X407800Y429100D02*
X411315D01*
X407800Y423000D02*
X411318D01*
X398500Y424175D02*
Y427812D01*
X393800Y423000D02*
X397318D01*
X393800Y429000D02*
X397317D01*
X385600Y424081D02*
Y427820D01*
X386785Y422900D02*
X390300D01*
X386782Y429000D02*
X390300D01*
X361100Y377900D02*
X376100D01*
X371600Y369400D02*
Y386400D01*
X365100Y384400D02*
X371600Y377900D01*
X365100Y371400D02*
X371600Y377900D01*
X365100Y371400D02*
Y384400D01*
X388700Y366100D02*
Y390600D01*
X348400Y366100D02*
Y390600D01*
Y366100D02*
X388700D01*
X348400Y390600D02*
X388700D01*
X380400Y457400D02*
Y472400D01*
X371900Y461900D02*
X388900D01*
X380400D02*
X386900Y468400D01*
X373900D02*
X380400Y461900D01*
X373900Y468400D02*
X386900D01*
X368600Y444800D02*
X393100D01*
X368600Y485100D02*
X393100D01*
X368600Y444800D02*
Y485100D01*
X393100Y444800D02*
Y485100D01*
X282643Y464100D02*
Y467594D01*
X268042Y464100D02*
Y467594D01*
Y464100D02*
X282643D01*
X255443D02*
X262742D01*
X287643D02*
X294342D01*
X255443Y486800D02*
X294342D01*
Y464100D02*
Y486800D01*
X255443Y464100D02*
Y486800D01*
X287643Y464100D02*
Y467594D01*
X282643D02*
X287643D01*
X262742Y464100D02*
Y467594D01*
X268042D01*
X375400Y442500D02*
X380220D01*
X375400Y433500D02*
X380130D01*
X367400Y442500D02*
X372100D01*
X367190Y433500D02*
X372100D01*
X375500Y432000D02*
X380320D01*
X375500Y423000D02*
X380230D01*
X367500Y432000D02*
X372200D01*
X367290Y423000D02*
X372200D01*
X356658Y412906D02*
X376343D01*
X356658Y401094D02*
X376343D01*
Y409861D02*
Y412906D01*
Y401094D02*
Y404141D01*
X356658Y401094D02*
Y412906D01*
X329500Y390200D02*
X341500D01*
X329500D02*
Y430200D01*
X341500Y390200D02*
Y430200D01*
X329500Y430200D02*
X341500D01*
X329500Y420200D02*
X341500D01*
X222500Y339500D02*
X234500D01*
X222500D02*
Y379500D01*
X234500Y339500D02*
Y379500D01*
X222500Y379500D02*
X234500D01*
X222500Y369500D02*
X234500D01*
X353500Y364298D02*
Y359300D01*
X354500Y358300D01*
X356499D01*
X357499Y359300D01*
Y364298D01*
X363497D02*
X361497Y363298D01*
X359498Y361299D01*
Y359300D01*
X360498Y358300D01*
X362497D01*
X363497Y359300D01*
Y360299D01*
X362497Y361299D01*
X359498D01*
D11*
X380113Y328508D02*
G03*
X380113Y328508I-492J0D01*
G01*
D12*
X318184Y442980D02*
G03*
X314405Y442979I-1888J-2237D01*
G01*
X314416Y435390D02*
G03*
X318300Y435485I1888J2237D01*
G01*
X313484Y442980D02*
G03*
X309705Y442979I-1888J-2237D01*
G01*
X309716Y435390D02*
G03*
X313600Y435485I1888J2237D01*
G01*
X287884Y461595D02*
G03*
X284105Y461594I-1888J-2237D01*
G01*
X284116Y454005D02*
G03*
X288000Y454100I1888J2237D01*
G01*
X292884Y461595D02*
G03*
X289105Y461594I-1888J-2237D01*
G01*
X289116Y454005D02*
G03*
X293000Y454100I1888J2237D01*
G01*
X247505Y460584D02*
G03*
X247506Y456805I2237J-1888D01*
G01*
X255095Y456816D02*
G03*
X255000Y460700I-2237J1888D01*
G01*
X296784Y426695D02*
G03*
X293005Y426694I-1888J-2237D01*
G01*
X293016Y419105D02*
G03*
X296900Y419200I1888J2237D01*
G01*
X291984Y426695D02*
G03*
X288205Y426694I-1888J-2237D01*
G01*
X288216Y419105D02*
G03*
X292100Y419200I1888J2237D01*
G01*
X277884Y426695D02*
G03*
X274105Y426694I-1888J-2237D01*
G01*
X274116Y419105D02*
G03*
X278000Y419200I1888J2237D01*
G01*
X269216Y419005D02*
G03*
X272995Y419006I1888J2237D01*
G01*
X272984Y426595D02*
G03*
X269100Y426500I-1888J-2237D01*
G01*
X268384Y416695D02*
G03*
X264605Y416694I-1888J-2237D01*
G01*
X264616Y409105D02*
G03*
X268500Y409200I1888J2237D01*
G01*
X257095Y404616D02*
G03*
X257094Y408395I-2237J1888D01*
G01*
X249505Y408384D02*
G03*
X249600Y404500I2237J-1888D01*
G01*
X232395Y402316D02*
G03*
X232394Y406095I-2237J1888D01*
G01*
X224805Y406084D02*
G03*
X224900Y402200I2237J-1888D01*
G01*
X232395Y397416D02*
G03*
X232394Y401195I-2237J1888D01*
G01*
X224805Y401184D02*
G03*
X224900Y397300I2237J-1888D01*
G01*
X249905Y385384D02*
G03*
X249906Y381605I2237J-1888D01*
G01*
X257495Y381616D02*
G03*
X257400Y385500I-2237J1888D01*
G01*
X336905Y370484D02*
G03*
X336906Y366705I2237J-1888D01*
G01*
X344495Y366716D02*
G03*
X344400Y370600I-2237J1888D01*
G01*
X312816Y363105D02*
G03*
X316595Y363106I1888J2237D01*
G01*
X316584Y370695D02*
G03*
X312700Y370600I-1888J-2237D01*
G01*
X306795Y356716D02*
G03*
X306794Y360495I-2237J1888D01*
G01*
X299205Y360484D02*
G03*
X299300Y356600I2237J-1888D01*
G01*
X306895Y351316D02*
G03*
X306894Y355095I-2237J1888D01*
G01*
X299305Y355084D02*
G03*
X299400Y351200I2237J-1888D01*
G01*
X268216Y363805D02*
G03*
X271995Y363806I1888J2237D01*
G01*
X271984Y371395D02*
G03*
X268100Y371300I-1888J-2237D01*
G01*
X278584Y359795D02*
G03*
X274805Y359794I-1888J-2237D01*
G01*
X274816Y352205D02*
G03*
X278700Y352300I1888J2237D01*
G01*
X269516Y352105D02*
G03*
X273295Y352106I1888J2237D01*
G01*
X273284Y359695D02*
G03*
X269400Y359600I-1888J-2237D01*
G01*
X252095Y355116D02*
G03*
X252094Y358895I-2237J1888D01*
G01*
X244505Y358884D02*
G03*
X244600Y355000I2237J-1888D01*
G01*
X252195Y350216D02*
G03*
X252194Y353995I-2237J1888D01*
G01*
X244605Y353984D02*
G03*
X244700Y350100I2237J-1888D01*
G01*
X261316Y319005D02*
G03*
X265095Y319006I1888J2237D01*
G01*
X265084Y326595D02*
G03*
X261200Y326500I-1888J-2237D01*
G01*
X256616Y319005D02*
G03*
X260395Y319006I1888J2237D01*
G01*
X260384Y326595D02*
G03*
X256500Y326500I-1888J-2237D01*
G01*
X292116Y323005D02*
G03*
X295895Y323006I1888J2237D01*
G01*
X295884Y330595D02*
G03*
X292000Y330500I-1888J-2237D01*
G01*
X377616Y403405D02*
G03*
X381395Y403406I1888J2237D01*
G01*
X381384Y410995D02*
G03*
X377500Y410900I-1888J-2237D01*
G01*
X346905Y402384D02*
G03*
X346906Y398605I2237J-1888D01*
G01*
X354495Y398616D02*
G03*
X354400Y402500I-2237J1888D01*
G01*
X360616Y426005D02*
G03*
X364500Y426100I1888J2237D01*
G01*
X364384Y433595D02*
G03*
X360605Y433594I-1888J-2237D01*
G01*
X354495Y403616D02*
G03*
X354400Y407500I-2237J1888D01*
G01*
X346905Y407384D02*
G03*
X346906Y403605I2237J-1888D01*
G01*
X351616Y412005D02*
G03*
X355500Y412100I1888J2237D01*
G01*
X355384Y419595D02*
G03*
X351605Y419594I-1888J-2237D01*
G01*
X255016Y362105D02*
G03*
X258900Y362200I1888J2237D01*
G01*
X258784Y369695D02*
G03*
X255005Y369694I-1888J-2237D01*
G01*
X259916Y362105D02*
G03*
X263800Y362200I1888J2237D01*
G01*
X263684Y369695D02*
G03*
X259905Y369694I-1888J-2237D01*
G01*
X321995Y406016D02*
G03*
X321900Y409900I-2237J1888D01*
G01*
X314405Y409784D02*
G03*
X314406Y406005I2237J-1888D01*
G01*
X381000Y301000D02*
Y304400D01*
X385000Y301000D02*
Y304500D01*
Y306800D02*
Y310200D01*
X381000Y306700D02*
Y310200D01*
Y301000D02*
X385000D01*
X381000Y310200D02*
X385000D01*
X379700Y315900D02*
Y319300D01*
X383700Y315900D02*
Y319400D01*
Y321700D02*
Y325100D01*
X379700Y321600D02*
Y325100D01*
Y315900D02*
X383700D01*
X379700Y325100D02*
X383700D01*
X346300Y398000D02*
X349700D01*
X346300Y394000D02*
X349800D01*
X352100D02*
X355500D01*
X352000Y398000D02*
X355500D01*
X346300Y394000D02*
Y398000D01*
X355500Y394000D02*
Y398000D01*
X386000Y408200D02*
Y411600D01*
X382000Y408100D02*
Y411600D01*
Y402400D02*
Y405800D01*
X386000Y402400D02*
Y405900D01*
X382000Y411600D02*
X386000D01*
X382000Y402400D02*
X386000D01*
X355800Y422500D02*
X359200D01*
X355700Y426500D02*
X359200D01*
X350000D02*
X353400D01*
X350000Y422500D02*
X353500D01*
X359200D02*
Y426500D01*
X350000Y422500D02*
Y426500D01*
X383000Y418800D02*
Y422200D01*
X379000Y418700D02*
Y422200D01*
Y413000D02*
Y416400D01*
X383000Y413000D02*
Y416500D01*
X379000Y422200D02*
X383000D01*
X379000Y413000D02*
X383000D01*
X355700Y427500D02*
X359100D01*
X355600Y431500D02*
X359100D01*
X349900D02*
X353300D01*
X349900Y427500D02*
X353400D01*
X359100D02*
Y431500D01*
X349900Y427500D02*
Y431500D01*
X229600Y392300D02*
X233000D01*
X229500Y396300D02*
X233000D01*
X223800D02*
X227200D01*
X223800Y392300D02*
X227300D01*
X233000D02*
Y396300D01*
X223800Y392300D02*
Y396300D01*
X245000Y395800D02*
Y399200D01*
X241000Y395700D02*
Y399200D01*
Y390000D02*
Y393400D01*
X245000Y390000D02*
Y393500D01*
X241000Y399200D02*
X245000D01*
X241000Y390000D02*
X245000D01*
X242300Y458000D02*
X245700D01*
X242200Y462000D02*
X245700D01*
X236500D02*
X239900D01*
X236500Y458000D02*
X240000D01*
X245700D02*
Y462000D01*
X236500Y458000D02*
Y462000D01*
X236800Y440200D02*
X240200D01*
X236800Y436200D02*
X240300D01*
X242600D02*
X246000D01*
X242500Y440200D02*
X246000D01*
X236800Y436200D02*
Y440200D01*
X246000Y436200D02*
Y440200D01*
X246900Y439100D02*
X250300D01*
X246900Y435100D02*
X250400D01*
X252700D02*
X256100D01*
X252600Y439100D02*
X256100D01*
X246900Y435100D02*
Y439100D01*
X256100Y435100D02*
Y439100D01*
X236800Y445767D02*
X240200D01*
X236800Y441767D02*
X240300D01*
X242600D02*
X246000D01*
X242500Y445767D02*
X246000D01*
X236800Y441767D02*
Y445767D01*
X246000Y441767D02*
Y445767D01*
X246900Y444667D02*
X250300D01*
X246900Y440667D02*
X250400D01*
X252700D02*
X256100D01*
X252600Y444667D02*
X256100D01*
X246900Y440667D02*
Y444667D01*
X256100Y440667D02*
Y444667D01*
X282800Y423900D02*
Y427300D01*
X278800Y423800D02*
Y427300D01*
Y418100D02*
Y421500D01*
X282800Y418100D02*
Y421600D01*
X278800Y427300D02*
X282800D01*
X278800Y418100D02*
X282800D01*
X390600Y306820D02*
Y310220D01*
X386600Y306720D02*
Y310220D01*
Y301020D02*
Y304420D01*
X390600Y301020D02*
Y304520D01*
X386600Y310220D02*
X390600D01*
X386600Y301020D02*
X390600D01*
X336180Y333306D02*
X339580D01*
X336180Y329306D02*
X339680D01*
X341980D02*
X345380D01*
X341880Y333306D02*
X345380D01*
X336180Y329306D02*
Y333306D01*
X345380Y329306D02*
Y333306D01*
X246900Y450233D02*
X250300D01*
X246900Y446233D02*
X250400D01*
X252700D02*
X256100D01*
X252600Y450233D02*
X256100D01*
X246900Y446233D02*
Y450233D01*
X256100Y446233D02*
Y450233D01*
X287400Y423900D02*
Y427300D01*
X283400Y423800D02*
Y427300D01*
Y418100D02*
Y421500D01*
X287400Y418100D02*
Y421600D01*
X283400Y427300D02*
X287400D01*
X283400Y418100D02*
X287400D01*
X236800Y451333D02*
X240200D01*
X236800Y447333D02*
X240300D01*
X242600D02*
X246000D01*
X242500Y451333D02*
X246000D01*
X236800Y447333D02*
Y451333D01*
X246000Y447333D02*
Y451333D01*
X301600Y423800D02*
Y427200D01*
X297600Y423700D02*
Y427200D01*
Y418000D02*
Y421400D01*
X301600Y418000D02*
Y421500D01*
X297600Y427200D02*
X301600D01*
X297600Y418000D02*
X301600D01*
X236800Y456900D02*
X240200D01*
X236800Y452900D02*
X240300D01*
X242600D02*
X246000D01*
X242500Y456900D02*
X246000D01*
X236800Y452900D02*
Y456900D01*
X246000Y452900D02*
Y456900D01*
X246900Y455800D02*
X250300D01*
X246900Y451800D02*
X250400D01*
X252700D02*
X256100D01*
X252600Y455800D02*
X256100D01*
X246900Y451800D02*
Y455800D01*
X256100Y451800D02*
Y455800D01*
X308900Y351000D02*
Y354400D01*
X312900Y351000D02*
Y354500D01*
Y356800D02*
Y360200D01*
X308900Y356700D02*
Y360200D01*
Y351000D02*
X312900D01*
X308900Y360200D02*
X312900D01*
X313300Y338600D02*
X316700D01*
X313200Y342600D02*
X316700D01*
X307500D02*
X310900D01*
X307500Y338600D02*
X311000D01*
X316700D02*
Y342600D01*
X307500Y338600D02*
Y342600D01*
X303100Y338600D02*
X306500D01*
X303000Y342600D02*
X306500D01*
X297300D02*
X300700D01*
X297300Y338600D02*
X300800D01*
X306500D02*
Y342600D01*
X297300Y338600D02*
Y342600D01*
X313300Y332900D02*
X316700D01*
X313200Y336900D02*
X316700D01*
X307500D02*
X310900D01*
X307500Y332900D02*
X311000D01*
X316700D02*
Y336900D01*
X307500Y332900D02*
Y336900D01*
X303100Y333000D02*
X306500D01*
X303000Y337000D02*
X306500D01*
X297300D02*
X300700D01*
X297300Y333000D02*
X300800D01*
X306500D02*
Y337000D01*
X297300Y333000D02*
Y337000D01*
X303100Y327600D02*
X306500D01*
X303000Y331600D02*
X306500D01*
X297300D02*
X300700D01*
X297300Y327600D02*
X300800D01*
X306500D02*
Y331600D01*
X297300Y327600D02*
Y331600D01*
X313300Y327600D02*
X316700D01*
X313200Y331600D02*
X316700D01*
X307500D02*
X310900D01*
X307500Y327600D02*
X311000D01*
X316700D02*
Y331600D01*
X307500Y327600D02*
Y331600D01*
X313300Y322000D02*
X316700D01*
X313200Y326000D02*
X316700D01*
X307500D02*
X310900D01*
X307500Y322000D02*
X311000D01*
X316700D02*
Y326000D01*
X307500Y322000D02*
Y326000D01*
X303100Y322100D02*
X306500D01*
X303000Y326100D02*
X306500D01*
X297300D02*
X300700D01*
X297300Y322100D02*
X300800D01*
X306500D02*
Y326100D01*
X297300Y322100D02*
Y326100D01*
X264600Y351500D02*
Y354900D01*
X268600Y351500D02*
Y355000D01*
Y357300D02*
Y360700D01*
X264600Y357200D02*
Y360700D01*
Y351500D02*
X268600D01*
X264600Y360700D02*
X268600D01*
X259800Y351500D02*
Y354900D01*
X263800Y351500D02*
Y355000D01*
Y357300D02*
Y360700D01*
X259800Y357200D02*
Y360700D01*
Y351500D02*
X263800D01*
X259800Y360700D02*
X263800D01*
X255000Y351500D02*
Y354900D01*
X259000Y351500D02*
Y355000D01*
Y357300D02*
Y360700D01*
X255000Y357200D02*
Y360700D01*
Y351500D02*
X259000D01*
X255000Y360700D02*
X259000D01*
X236000Y360900D02*
Y364300D01*
X240000Y360900D02*
Y364400D01*
Y366700D02*
Y370100D01*
X236000Y366600D02*
Y370100D01*
Y360900D02*
X240000D01*
X236000Y370100D02*
X240000D01*
X239800Y376400D02*
Y379800D01*
X235800Y376300D02*
Y379800D01*
Y370600D02*
Y374000D01*
X239800Y370600D02*
Y374100D01*
X235800Y379800D02*
X239800D01*
X235800Y370600D02*
X239800D01*
X240100Y427300D02*
Y430700D01*
X236100Y427200D02*
Y430700D01*
Y421500D02*
Y424900D01*
X240100Y421500D02*
Y425000D01*
X236100Y430700D02*
X240100D01*
X236100Y421500D02*
X240100D01*
X263900Y413900D02*
Y417300D01*
X259900Y413800D02*
Y417300D01*
Y408100D02*
Y411500D01*
X263900Y408100D02*
Y411600D01*
X259900Y417300D02*
X263900D01*
X259900Y408100D02*
X263900D01*
X236200Y411700D02*
Y415100D01*
X240200Y411700D02*
Y415200D01*
Y417500D02*
Y420900D01*
X236200Y417400D02*
Y420900D01*
Y411700D02*
X240200D01*
X236200Y420900D02*
X240200D01*
X297900Y320600D02*
X301300D01*
X297900Y316600D02*
X301400D01*
X303700D02*
X307100D01*
X303600Y320600D02*
X307100D01*
X297900Y316600D02*
Y320600D01*
X307100Y316600D02*
Y320600D01*
X318300Y440285D02*
Y442885D01*
X314400Y440285D02*
Y442979D01*
Y435390D02*
Y438085D01*
X318300Y435485D02*
Y438085D01*
X313600Y440285D02*
Y442885D01*
X309700Y440285D02*
Y442979D01*
Y435390D02*
Y438085D01*
X313600Y435485D02*
Y438085D01*
X288526Y447568D02*
X304274Y447568D01*
X288526Y431032D02*
X304274Y431032D01*
X288000Y458900D02*
Y461500D01*
X284100Y458900D02*
Y461594D01*
Y454005D02*
Y456700D01*
X288000Y454100D02*
Y456700D01*
X293000Y458900D02*
Y461500D01*
X289100Y458900D02*
Y461594D01*
Y454005D02*
Y456700D01*
X293000Y454100D02*
Y456700D01*
X247600Y460700D02*
X250200D01*
X247506Y456800D02*
X250200D01*
X252400D02*
X255095D01*
X252400Y460700D02*
X255000D01*
X296900Y424000D02*
Y426600D01*
X293000Y424000D02*
Y426694D01*
Y419105D02*
Y421800D01*
X296900Y419200D02*
Y421800D01*
X292100Y424000D02*
Y426600D01*
X288200Y424000D02*
Y426694D01*
Y419105D02*
Y421800D01*
X292100Y419200D02*
Y421800D01*
X278000Y424000D02*
Y426600D01*
X274100Y424000D02*
Y426694D01*
Y419105D02*
Y421800D01*
X278000Y419200D02*
Y421800D01*
X269100Y419100D02*
Y421700D01*
X273000Y419006D02*
Y421700D01*
Y423900D02*
Y426595D01*
X269100Y423900D02*
Y426500D01*
X268500Y414000D02*
Y416600D01*
X264600Y414000D02*
Y416694D01*
Y409105D02*
Y411800D01*
X268500Y409200D02*
Y411800D01*
X254400Y404500D02*
X257000D01*
X254400Y408400D02*
X257094D01*
X249505D02*
X252200D01*
X249600Y404500D02*
X252200D01*
X229700Y402200D02*
X232300D01*
X229700Y406100D02*
X232394D01*
X224805D02*
X227500D01*
X224900Y402200D02*
X227500D01*
X229700Y397300D02*
X232300D01*
X229700Y401200D02*
X232394D01*
X224805D02*
X227500D01*
X224900Y397300D02*
X227500D01*
X250000Y385500D02*
X252600D01*
X249906Y381600D02*
X252600D01*
X254800D02*
X257495D01*
X254800Y385500D02*
X257400D01*
X337000Y370600D02*
X339600D01*
X336906Y366700D02*
X339600D01*
X341800D02*
X344495D01*
X341800Y370600D02*
X344400D01*
X312700Y363200D02*
Y365800D01*
X316600Y363106D02*
Y365800D01*
Y368000D02*
Y370695D01*
X312700Y368000D02*
Y370600D01*
X304100Y356600D02*
X306700D01*
X304100Y360500D02*
X306794D01*
X299205D02*
X301900D01*
X299300Y356600D02*
X301900D01*
X304200Y351200D02*
X306800D01*
X304200Y355100D02*
X306894D01*
X299305D02*
X302000D01*
X299400Y351200D02*
X302000D01*
X268100Y363900D02*
Y366500D01*
X272000Y363806D02*
Y366500D01*
Y368700D02*
Y371395D01*
X268100Y368700D02*
Y371300D01*
X278700Y357100D02*
Y359700D01*
X274800Y357100D02*
Y359794D01*
Y352205D02*
Y354900D01*
X278700Y352300D02*
Y354900D01*
X269400Y352200D02*
Y354800D01*
X273300Y352106D02*
Y354800D01*
Y357000D02*
Y359695D01*
X269400Y357000D02*
Y359600D01*
X249400Y355000D02*
X252000D01*
X249400Y358900D02*
X252094D01*
X244505D02*
X247200D01*
X244600Y355000D02*
X247200D01*
X249500Y350100D02*
X252100D01*
X249500Y354000D02*
X252194D01*
X244605D02*
X247300D01*
X244700Y350100D02*
X247300D01*
X244226Y332632D02*
X259974Y332632D01*
X244226Y349168D02*
X259974Y349168D01*
X261200Y319100D02*
Y321700D01*
X265100Y319006D02*
Y321700D01*
Y323900D02*
Y326595D01*
X261200Y323900D02*
Y326500D01*
X256500Y319100D02*
Y321700D01*
X260400Y319006D02*
Y321700D01*
Y323900D02*
Y326595D01*
X256500Y323900D02*
Y326500D01*
X292000Y323100D02*
Y325700D01*
X295900Y323006D02*
Y325700D01*
Y327900D02*
Y330595D01*
X292000Y327900D02*
Y330500D01*
X377500Y403500D02*
Y406100D01*
X381400Y403406D02*
Y406100D01*
Y408300D02*
Y410995D01*
X377500Y408300D02*
Y410900D01*
X347000Y402500D02*
X349600D01*
X346906Y398600D02*
X349600D01*
X351800D02*
X354495D01*
X351800Y402500D02*
X354400D01*
X364500Y426100D02*
Y428700D01*
X360600Y426005D02*
Y428700D01*
Y430900D02*
Y433594D01*
X364500Y430900D02*
Y433500D01*
X351800Y407500D02*
X354400D01*
X351800Y403600D02*
X354495D01*
X346906D02*
X349600D01*
X347000Y407500D02*
X349600D01*
X355500Y412100D02*
Y414700D01*
X351600Y412005D02*
Y414700D01*
Y416900D02*
Y419594D01*
X355500Y416900D02*
Y419500D01*
X258900Y362200D02*
Y364800D01*
X255000Y362105D02*
Y364800D01*
Y367000D02*
Y369694D01*
X258900Y367000D02*
Y369600D01*
X263800Y362200D02*
Y364800D01*
X259900Y362105D02*
Y364800D01*
Y367000D02*
Y369694D01*
X263800Y367000D02*
Y369600D01*
X319300Y409900D02*
X321900D01*
X319300Y406000D02*
X321995D01*
X314406D02*
X317100D01*
X314500Y409900D02*
X317100D01*
D13*
X270532Y406670D02*
G03*
X270532Y406660I-591J-5D01*
G01*
X348091Y353600D02*
G03*
X348091Y353600I-591J0D01*
G01*
X374091Y411000D02*
G03*
X374091Y411000I-591J0D01*
G01*
D14*
X280237Y402490D02*
G03*
X280237Y402470I-1181J-10D01*
G01*
D15*
X224300Y480242D02*
X224600D01*
X224200Y480142D02*
X224800D01*
X224200Y480042D02*
X224400D01*
X224500D02*
X224900D01*
X225000D02*
X225200D01*
X224300Y479942D02*
X224500D01*
X225000D02*
X225600D01*
X224300Y479842D02*
X224600D01*
X224400Y479742D02*
X224600D01*
X224500Y479642D02*
X224700D01*
X225100D02*
X225400D01*
X224600Y479542D02*
X224800D01*
X224700Y479442D02*
X224900D01*
X224800Y479342D02*
X225000D01*
X224900Y479242D02*
X225100D01*
X225400D02*
X225600D01*
X224900Y479142D02*
X225200D01*
X225000Y479042D02*
X225300D01*
X225100Y478942D02*
X225400D01*
X225300Y478842D02*
X225500D01*
X225400Y478742D02*
X225600D01*
X226100Y467142D02*
X226300D01*
X229300D02*
X229600D01*
X226100Y467042D02*
X226300D01*
X229300D02*
X229500D01*
X226100Y466942D02*
X226300D01*
X229300D02*
X229500D01*
X226100Y466842D02*
X226300D01*
X229300D02*
X229500D01*
X226000Y466742D02*
X226300D01*
X229300D02*
X229500D01*
X226000Y466642D02*
X226200D01*
X229300D02*
X229500D01*
X226000Y466542D02*
X226200D01*
X229300D02*
X229500D01*
X226000Y466442D02*
X226200D01*
X229300D02*
X229500D01*
X226000Y466342D02*
X226200D01*
X229300D02*
X229500D01*
X225900Y466242D02*
X226200D01*
X229300D02*
X229500D01*
X225900Y466142D02*
X226100D01*
X229300D02*
X229500D01*
X225900Y466042D02*
X226100D01*
X229300D02*
X229500D01*
X225900Y465942D02*
X226100D01*
X229300D02*
X229500D01*
X225900Y465842D02*
X226100D01*
X229300D02*
X229500D01*
X225900Y465742D02*
X226100D01*
X229300D02*
X229500D01*
X225800Y465642D02*
X226100D01*
X229300D02*
X229500D01*
X225800Y465542D02*
X226100D01*
X229300D02*
X229500D01*
X225800Y465442D02*
X226000D01*
X229300D02*
X229500D01*
X230600D02*
X231100D01*
X227400Y475142D02*
X227600D01*
X227900D02*
X228600D01*
X228700D02*
X229200D01*
X229300D02*
X229800D01*
X230500D02*
X230900D01*
X227400Y475042D02*
X227600D01*
X227900D02*
X228600D01*
X228900D02*
X229200D01*
X229500D02*
X230900D01*
X227400Y474942D02*
X227600D01*
X227900D02*
X228600D01*
X229200D02*
X230200D01*
X230300D02*
X230500D01*
X227300Y474842D02*
X227500D01*
X227900D02*
X228600D01*
X228700D02*
X230300D01*
X227300Y474742D02*
X227500D01*
X227900D02*
X230400D01*
X227300Y474642D02*
X227500D01*
X227900D02*
X230600D01*
X227200Y474542D02*
X227500D01*
X227800D02*
X228600D01*
X229600D02*
X230800D01*
X227200Y474442D02*
X227400D01*
X227800D02*
X228600D01*
X230100D02*
X231800D01*
X227200Y474342D02*
X227400D01*
X227800D02*
X228500D01*
X230500D02*
X232600D01*
X227200Y474242D02*
X227400D01*
X227900D02*
X228500D01*
X230500D02*
X230600D01*
X231200D02*
X233100D01*
X227100Y474142D02*
X227400D01*
X227900D02*
X228400D01*
X230300D02*
X230600D01*
X230700D02*
X230800D01*
X232500D02*
X233500D01*
X227100Y474042D02*
X227300D01*
X227900D02*
X228400D01*
X230200D02*
X230500D01*
X230600D02*
X232200D01*
X227100Y473942D02*
X227300D01*
X228100D02*
X228400D01*
X230100D02*
X230400D01*
X230500D02*
X232900D01*
X227100Y473842D02*
X227300D01*
X228100D02*
X228300D01*
X230100D02*
X230300D01*
X230500D02*
X233400D01*
X227100Y473742D02*
X227300D01*
X228000D02*
X228300D01*
X230000D02*
X230300D01*
X227000Y473642D02*
X227200D01*
X228000D02*
X228300D01*
X230000D02*
X230300D01*
X227000Y473542D02*
X227200D01*
X228000D02*
X228300D01*
X230000D02*
X230200D01*
X230400D02*
X232300D01*
X232800D02*
X233000D01*
X227000Y473442D02*
X227200D01*
X228000D02*
X228200D01*
X230000D02*
X230200D01*
X226900Y473342D02*
X227200D01*
X228000D02*
X228200D01*
X230000D02*
X230200D01*
X226900Y473242D02*
X227100D01*
X228000D02*
X228200D01*
X230000D02*
X230300D01*
X226900Y473142D02*
X227100D01*
X227900D02*
X228200D01*
X230000D02*
X230300D01*
X226900Y473042D02*
X227100D01*
X227800D02*
X228100D01*
X228300D02*
X228700D01*
X230100D02*
X230300D01*
X226900Y472942D02*
X227100D01*
X227700D02*
X229000D01*
X230100D02*
X230300D01*
X226800Y472842D02*
X227100D01*
X227600D02*
X229100D01*
X230100D02*
X230400D01*
X226800Y472742D02*
X227000D01*
X227600D02*
X227800D01*
X227900D02*
X228000D01*
X228200D02*
X229300D01*
X230100D02*
X230400D01*
X226800Y472642D02*
X227000D01*
X227500D02*
X227800D01*
X228900D02*
X229400D01*
X230100D02*
X230400D01*
X226800Y472542D02*
X227000D01*
X227500D02*
X227700D01*
X229200D02*
X229600D01*
X230200D02*
X230400D01*
X226800Y472442D02*
X227000D01*
X227400D02*
X227700D01*
X229400D02*
X229800D01*
X230200D02*
X230400D01*
X226700Y472342D02*
X227000D01*
X227400D02*
X227600D01*
X229500D02*
X230000D01*
X230200D02*
X230500D01*
X226700Y472242D02*
X226900D01*
X227300D02*
X227600D01*
X229700D02*
X230200D01*
X230300D02*
X230500D01*
X226700Y472142D02*
X226900D01*
X227300D02*
X227500D01*
X229900D02*
X230500D01*
X226700Y472042D02*
X226900D01*
X227300D02*
X227500D01*
X230000D02*
X230600D01*
X226700Y471942D02*
X226900D01*
X227200D02*
X227500D01*
X230200D02*
X230600D01*
X226600Y471842D02*
X226900D01*
X227200D02*
X227400D01*
X230300D02*
X230600D01*
X226600Y471742D02*
X226900D01*
X227100D02*
X227400D01*
X230300D02*
X230600D01*
X226600Y471642D02*
X226800D01*
X227100D02*
X227400D01*
X230400D02*
X230600D01*
X226600Y471542D02*
X226800D01*
X227100D02*
X227300D01*
X230300D02*
X230500D01*
X226600Y471442D02*
X226800D01*
X227100D02*
X227300D01*
X230300D02*
X230600D01*
X226600Y471342D02*
X226800D01*
X227000D02*
X227300D01*
X230300D02*
X230600D01*
X232600D02*
X233600D01*
X226600Y471242D02*
X226800D01*
X227000D02*
X227300D01*
X230300D02*
X230600D01*
X232500D02*
X233500D01*
X226500Y471142D02*
X226800D01*
X227000D02*
X227400D01*
X229500D02*
X230600D01*
X232400D02*
X233400D01*
X226500Y471042D02*
X226700D01*
X227100D02*
X227500D01*
X228900D02*
X230600D01*
X232400D02*
X233300D01*
X226500Y470942D02*
X226700D01*
X227200D02*
X230600D01*
X232400D02*
X233100D01*
X226500Y470842D02*
X226700D01*
X227200D02*
X230600D01*
X232600D02*
X233000D01*
X226500Y470742D02*
X226700D01*
X227100D02*
X227300D01*
X227400D02*
X230600D01*
X226500Y470642D02*
X226700D01*
X227100D02*
X227300D01*
X227600D02*
X229500D01*
X230400D02*
X230600D01*
X226500Y470542D02*
X226700D01*
X227000D02*
X227200D01*
X227900D02*
X228600D01*
X228800D02*
X229500D01*
X230400D02*
X230600D01*
X226400Y470442D02*
X226700D01*
X227000D02*
X227200D01*
X228400D02*
X228600D01*
X228800D02*
X229600D01*
X230400D02*
X230700D01*
X226400Y470342D02*
X226700D01*
X226900D02*
X227200D01*
X228400D02*
X228600D01*
X228800D02*
X229600D01*
X230100D02*
X230700D01*
X226400Y470242D02*
X226600D01*
X226900D02*
X227100D01*
X228400D02*
X228600D01*
X228800D02*
X229600D01*
X229900D02*
X230900D01*
X226400Y470142D02*
X226600D01*
X226900D02*
X227100D01*
X228400D02*
X228700D01*
X226400Y470042D02*
X226600D01*
X226900D02*
X227100D01*
X228500D02*
X228700D01*
X228900D02*
X232500D01*
X226400Y469942D02*
X226600D01*
X226800D02*
X227000D01*
X228500D02*
X228700D01*
X228900D02*
X231500D01*
X226400Y469842D02*
X226600D01*
X226800D02*
X227000D01*
X228500D02*
X228700D01*
X228900D02*
X231200D01*
X231700D02*
X232200D01*
X232600D02*
X233000D01*
X226300Y469742D02*
X226600D01*
X226700D02*
X226900D01*
X228500D02*
X228700D01*
X229000D02*
X230900D01*
X231500D02*
X232200D01*
X232400D02*
X233000D01*
X226300Y469642D02*
X226600D01*
X226700D02*
X226900D01*
X228600D02*
X228800D01*
X229000D02*
X230600D01*
X232400D02*
X232600D01*
X233100D02*
X233200D01*
X226300Y469542D02*
X226500D01*
X228600D02*
X228800D01*
X229000D02*
X230300D01*
X230900D02*
X231000D01*
X233400D02*
X233500D01*
X226300Y469442D02*
X226500D01*
X226700D02*
X226900D01*
X228600D02*
X228800D01*
X229100D02*
X230100D01*
X230900D02*
X231000D01*
X233400D02*
X233500D01*
X226300Y469342D02*
X226500D01*
X226600D02*
X226900D01*
X228600D02*
X228900D01*
X229100D02*
X229800D01*
X226300Y469242D02*
X226500D01*
X226600D02*
X226800D01*
X228600D02*
X228900D01*
X229200D02*
X229600D01*
X226300Y469142D02*
X226500D01*
X226600D02*
X226800D01*
X228700D02*
X228900D01*
X226300Y469042D02*
X226500D01*
X226600D02*
X226800D01*
X228700D02*
X229000D01*
X226300Y468942D02*
X226700D01*
X228800D02*
X229100D01*
X229500D02*
X229700D01*
X226300Y468842D02*
X226700D01*
X228800D02*
X229300D01*
X229400D02*
X229700D01*
X226300Y468742D02*
X226700D01*
X229000D02*
X229300D01*
X229400D02*
X229600D01*
X226200Y468642D02*
X226700D01*
X229400D02*
X229600D01*
X226200Y468542D02*
X226600D01*
X229400D02*
X229600D01*
X226200Y468442D02*
X226600D01*
X229400D02*
X229600D01*
X230700D02*
X231200D01*
X226200Y468342D02*
X226600D01*
X229400D02*
X229600D01*
X230600D02*
X231300D01*
X226200Y468242D02*
X226600D01*
X229400D02*
X229600D01*
X230600D02*
X231300D01*
X226200Y468142D02*
X226500D01*
X229400D02*
X229600D01*
X230500D02*
X231300D01*
X226200Y468042D02*
X226500D01*
X229400D02*
X229600D01*
X230500D02*
X231300D01*
X226200Y467942D02*
X226500D01*
X229400D02*
X229600D01*
X230600D02*
X231300D01*
X226200Y467842D02*
X226500D01*
X229300D02*
X229600D01*
X230700D02*
X231200D01*
X226200Y467742D02*
X226500D01*
X229300D02*
X229600D01*
X230800D02*
X231000D01*
X226200Y467642D02*
X226400D01*
X229300D02*
X229600D01*
X226200Y467542D02*
X226400D01*
X229300D02*
X229600D01*
X226200Y467442D02*
X226400D01*
X229300D02*
X229600D01*
X226200Y467342D02*
X226400D01*
X229300D02*
X229600D01*
X230100Y483142D02*
X230400D01*
X230100Y483042D02*
X230300D01*
X230000Y482942D02*
X230200D01*
X230000Y482842D02*
X230200D01*
X230000Y482742D02*
X230200D01*
X229900Y482642D02*
X230200D01*
X229800Y482542D02*
X230100D01*
X231600D02*
X231800D01*
X229700Y482442D02*
X230000D01*
X231400D02*
X231700D01*
X229700Y482342D02*
X229900D01*
X230100D02*
X230400D01*
X231300D02*
X231600D01*
X229600Y482242D02*
X229800D01*
X230100D02*
X230300D01*
X231200D02*
X231500D01*
X229900Y482142D02*
X230200D01*
X231100D02*
X231400D01*
X229800Y482042D02*
X230100D01*
X231000D02*
X231300D01*
X229700Y481942D02*
X230000D01*
X230900D02*
X231200D01*
X229700Y481842D02*
X229900D01*
X230900D02*
X231100D01*
X229600Y481742D02*
X229800D01*
X230800D02*
X231000D01*
X229500Y481642D02*
X229800D01*
X230700D02*
X230900D01*
X229000Y481542D02*
X229200D01*
X229400D02*
X229600D01*
X230600D02*
X230900D01*
X231000D02*
X231100D01*
X229000Y481442D02*
X229200D01*
X229400D02*
X229600D01*
X230600D02*
X230800D01*
X230900D02*
X231100D01*
X228900Y481342D02*
X229100D01*
X229300D02*
X229500D01*
X230500D02*
X230700D01*
X230800D02*
X231000D01*
X228900Y481242D02*
X229100D01*
X229200D02*
X229500D01*
X230500D02*
X230900D01*
X228800Y481142D02*
X229000D01*
X229200D02*
X229400D01*
X230400D02*
X230600D01*
X230700D02*
X230800D01*
X233300D02*
X233400D01*
X228800Y481042D02*
X229000D01*
X229100D02*
X229300D01*
X230300D02*
X230800D01*
X233200D02*
X233500D01*
X228700Y480942D02*
X228900D01*
X229000D02*
X229300D01*
X230300D02*
X230700D01*
X233100D02*
X233500D01*
X228600Y480842D02*
X228900D01*
X229000D02*
X229200D01*
X230200D02*
X230700D01*
X233000D02*
X233300D01*
X228600Y480742D02*
X228800D01*
X228900D02*
X229100D01*
X230200D02*
X230600D01*
X232900D02*
X233200D01*
X233400D02*
X233600D01*
X228600Y480642D02*
X228800D01*
X228900D02*
X229100D01*
X230100D02*
X230600D01*
X232900D02*
X233100D01*
X228500Y480542D02*
X228700D01*
X228800D02*
X229000D01*
X230100D02*
X230500D01*
X232800D02*
X233000D01*
X228500Y480442D02*
X228700D01*
X228800D02*
X229000D01*
X230100D02*
X230500D01*
X232700D02*
X232900D01*
X228400Y480342D02*
X228600D01*
X228700D02*
X228900D01*
X230000D02*
X230400D01*
X232300D02*
X232500D01*
X232600D02*
X232800D01*
X228100Y480242D02*
X228200D01*
X228400D02*
X228600D01*
X228700D02*
X228900D01*
X230000D02*
X230400D01*
X231700D02*
X232400D01*
X232500D02*
X232700D01*
X228100Y480142D02*
X228300D01*
X228400D02*
X228800D01*
X230000D02*
X230300D01*
X231400D02*
X232600D01*
X228200Y480042D02*
X228500D01*
X228600D02*
X228800D01*
X229900D02*
X230300D01*
X231200D02*
X231800D01*
X231900D02*
X232600D01*
X228300Y479942D02*
X228500D01*
X228600D02*
X228700D01*
X229900D02*
X230300D01*
X231100D02*
X231500D01*
X231800D02*
X232000D01*
X232200D02*
X232600D01*
X228100Y479842D02*
X228200D01*
X228300D02*
X228700D01*
X229900D02*
X230200D01*
X231000D02*
X231300D01*
X231500D02*
X231800D01*
X232000D02*
X232600D01*
X228000Y479742D02*
X228700D01*
X229800D02*
X230200D01*
X230900D02*
X231100D01*
X231400D02*
X231700D01*
X231900D02*
X232200D01*
X232300D02*
X232500D01*
X225800Y479642D02*
X226400D01*
X228000D02*
X228600D01*
X229800D02*
X230200D01*
X230900D02*
X231100D01*
X231300D02*
X231500D01*
X231700D02*
X232000D01*
X232100D02*
X232400D01*
X226100Y479542D02*
X226800D01*
X228000D02*
X228100D01*
X228200D02*
X228600D01*
X229900D02*
X230100D01*
X230900D02*
X231200D01*
X231500D02*
X231900D01*
X232000D02*
X232300D01*
X226400Y479442D02*
X227000D01*
X228200D02*
X228600D01*
X229900D02*
X230100D01*
X231000D02*
X231500D01*
X231900D02*
X232100D01*
X226700Y479342D02*
X227300D01*
X227800D02*
X228000D01*
X228100D02*
X228500D01*
X229900D02*
X230100D01*
X230800D02*
X230900D01*
X231200D02*
X231700D01*
X225800Y479242D02*
X226300D01*
X227000D02*
X227600D01*
X227900D02*
X228500D01*
X229800D02*
X230100D01*
X230900D02*
X231300D01*
X231500D02*
X231700D01*
X226000Y479142D02*
X226500D01*
X227300D02*
X228000D01*
X228200D02*
X228400D01*
X229800D02*
X230000D01*
X230200D02*
X230300D01*
X230900D02*
X231100D01*
X226000Y479042D02*
X226600D01*
X227600D02*
X228400D01*
X229800D02*
X230300D01*
X226400Y478942D02*
X226900D01*
X227900D02*
X228400D01*
X229800D02*
X230100D01*
X230400D02*
X230500D01*
X225900Y478842D02*
X226100D01*
X226500D02*
X227100D01*
X228100D02*
X228400D01*
X229800D02*
X230000D01*
X230200D02*
X230500D01*
X226500Y478742D02*
X226700D01*
X226800D02*
X227300D01*
X228100D02*
X228300D01*
X229700D02*
X230400D01*
X226500Y478642D02*
X226700D01*
X227000D02*
X227500D01*
X228100D02*
X228300D01*
X229700D02*
X230200D01*
X226500Y478542D02*
X226800D01*
X227200D02*
X227700D01*
X228100D02*
X228300D01*
X229700D02*
X229900D01*
X226600Y478442D02*
X226800D01*
X227400D02*
X227900D01*
X228000D02*
X228300D01*
X229700D02*
X229900D01*
X225800Y478342D02*
X226100D01*
X226600D02*
X226800D01*
X227600D02*
X228300D01*
X229700D02*
X229900D01*
X225900Y478242D02*
X226200D01*
X226700D02*
X226900D01*
X227800D02*
X228200D01*
X229700D02*
X229900D01*
X226000Y478142D02*
X226300D01*
X226700D02*
X226900D01*
X228000D02*
X228200D01*
X229700D02*
X229900D01*
X231000D02*
X231500D01*
X226100Y478042D02*
X226400D01*
X226800D02*
X227000D01*
X228000D02*
X228200D01*
X229700D02*
X229900D01*
X231000D02*
X231900D01*
X226200Y477942D02*
X226500D01*
X226900D02*
X227100D01*
X228000D02*
X228200D01*
X229700D02*
X229900D01*
X230600D02*
X230900D01*
X226300Y477842D02*
X226600D01*
X226900D02*
X227200D01*
X228000D02*
X228200D01*
X229700D02*
X229900D01*
X230500D02*
X231900D01*
X226500Y477742D02*
X226700D01*
X227000D02*
X227300D01*
X228000D02*
X228200D01*
X229700D02*
X229900D01*
X230500D02*
X232000D01*
X226600Y477642D02*
X226800D01*
X227100D02*
X227400D01*
X228000D02*
X228200D01*
X229700D02*
X229900D01*
X230600D02*
X232000D01*
X226700Y477542D02*
X226900D01*
X227200D02*
X227500D01*
X227900D02*
X228200D01*
X229700D02*
X229900D01*
X230500D02*
X231900D01*
X226800Y477442D02*
X227100D01*
X227300D02*
X227600D01*
X227900D02*
X228200D01*
X229700D02*
X229900D01*
X230600D02*
X231900D01*
X226900Y477342D02*
X227200D01*
X227400D02*
X227700D01*
X227900D02*
X228200D01*
X229700D02*
X229900D01*
X230700D02*
X231700D01*
X227000Y477242D02*
X227300D01*
X227500D02*
X227700D01*
X227900D02*
X228200D01*
X229700D02*
X229900D01*
X227100Y477142D02*
X227400D01*
X227900D02*
X228200D01*
X229700D02*
X229900D01*
X227200Y477042D02*
X227500D01*
X227900D02*
X228200D01*
X229700D02*
X229900D01*
X227300Y476942D02*
X227600D01*
X227900D02*
X228200D01*
X229700D02*
X230000D01*
X227500Y476842D02*
X227700D01*
X227900D02*
X228200D01*
X229800D02*
X230000D01*
X227600Y476742D02*
X228200D01*
X229800D02*
X230000D01*
X227700Y476642D02*
X228200D01*
X229800D02*
X230000D01*
X227800Y476542D02*
X228200D01*
X229900D02*
X230100D01*
X227900Y476442D02*
X228200D01*
X229900D02*
X230100D01*
X227800Y476342D02*
X228200D01*
X229900D02*
X230100D01*
X227800Y476242D02*
X228200D01*
X230000D02*
X230200D01*
X227700Y476142D02*
X227800D01*
X227900D02*
X228300D01*
X228600D02*
X228800D01*
X230000D02*
X230200D01*
X228100Y476042D02*
X228300D01*
X228600D02*
X228800D01*
X230000D02*
X230200D01*
X228100Y475942D02*
X228300D01*
X228600D02*
X228900D01*
X230100D02*
X230300D01*
X228100Y475842D02*
X228300D01*
X228600D02*
X228900D01*
X230100D02*
X230300D01*
X232100D02*
X232300D01*
X227600Y475742D02*
X227800D01*
X228100D02*
X228400D01*
X228600D02*
X229000D01*
X230200D02*
X230400D01*
X232100D02*
X232300D01*
X227600Y475642D02*
X227800D01*
X228100D02*
X228500D01*
X228600D02*
X229100D01*
X230200D02*
X230400D01*
X232100D02*
X233300D01*
X227500Y475542D02*
X227700D01*
X228000D02*
X228500D01*
X228700D02*
X229200D01*
X230300D02*
X230500D01*
X232300D02*
X233300D01*
X227500Y475442D02*
X227700D01*
X228000D02*
X228600D01*
X228700D02*
X228900D01*
X229000D02*
X229300D01*
X230400D02*
X230600D01*
X227500Y475342D02*
X227700D01*
X228000D02*
X228700D01*
X228800D02*
X229000D01*
X229100D02*
X229400D01*
X230400D02*
X230700D01*
X232100Y484742D02*
X232300D01*
X232200Y484642D02*
X232500D01*
X232300Y484542D02*
X232600D01*
X232000Y484442D02*
X232300D01*
X232400D02*
X232600D01*
X232100Y484342D02*
X232300D01*
X232500D02*
X232700D01*
X232100Y484242D02*
X232400D01*
X232500D02*
X232800D01*
X232200Y484142D02*
X232400D01*
X232600D02*
X232800D01*
X231200Y484042D02*
X231400D01*
X232200D02*
X232400D01*
X230900Y483942D02*
X231400D01*
X232200D02*
X233200D01*
X230700Y483842D02*
X231200D01*
X231800D02*
X232000D01*
X232200D02*
X232500D01*
X230700Y483742D02*
X231000D01*
X231800D02*
X232000D01*
X230500Y483642D02*
X230700D01*
X230400Y483542D02*
X230700D01*
X230300Y483442D02*
X230600D01*
X230300Y483342D02*
X230500D01*
X235600Y467142D02*
X235900D01*
X239400D02*
X241100D01*
X235600Y467042D02*
X235900D01*
X239400D02*
X241000D01*
X235600Y466942D02*
X235800D01*
X239500D02*
X241000D01*
X235600Y466842D02*
X235800D01*
X239500D02*
X241000D01*
X235600Y466742D02*
X235800D01*
X239500D02*
X240900D01*
X235600Y466642D02*
X235800D01*
X239500D02*
X240900D01*
X235600Y466542D02*
X235800D01*
X239500D02*
X240900D01*
X241400D02*
X241600D01*
X235600Y466442D02*
X235800D01*
X239500D02*
X240800D01*
X241400D02*
X241600D01*
X235600Y466342D02*
X235800D01*
X239500D02*
X240800D01*
X241300D02*
X241500D01*
X235600Y466242D02*
X235800D01*
X239500D02*
X240700D01*
X241300D02*
X241500D01*
X235600Y466142D02*
X235800D01*
X239600D02*
X240700D01*
X241200D02*
X241400D01*
X235600Y466042D02*
X235800D01*
X239600D02*
X240600D01*
X241100D02*
X241400D01*
X235600Y465942D02*
X235800D01*
X239600D02*
X240600D01*
X241100D02*
X241300D01*
X235500Y465842D02*
X235800D01*
X239600D02*
X240500D01*
X241000D02*
X241200D01*
X235500Y465742D02*
X235800D01*
X239600D02*
X240500D01*
X240900D02*
X241100D01*
X235500Y465642D02*
X235800D01*
X239600D02*
X240400D01*
X240800D02*
X241000D01*
X235500Y465542D02*
X235800D01*
X239600D02*
X240400D01*
X240700D02*
X241000D01*
X241200D02*
X241600D01*
X235500Y465442D02*
X235800D01*
X239600D02*
X240300D01*
X240600D02*
X240900D01*
X241200D02*
X241400D01*
X235500Y475142D02*
X235800D01*
X238300D02*
X239500D01*
X239800D02*
X240200D01*
X240300D02*
X241100D01*
X235400Y475042D02*
X235700D01*
X236000D02*
X236300D01*
X237700D02*
X237900D01*
X238300D02*
X238500D01*
X238600D02*
X239500D01*
X239900D02*
X240300D01*
X240400D02*
X241100D01*
X235300Y474942D02*
X235600D01*
X235800D02*
X236300D01*
X237700D02*
X237900D01*
X238300D02*
X238500D01*
X238700D02*
X239500D01*
X239900D02*
X241100D01*
X235300Y474842D02*
X236000D01*
X237600D02*
X237800D01*
X238200D02*
X239400D01*
X239900D02*
X241100D01*
X235500Y474742D02*
X235900D01*
X237500D02*
X237800D01*
X238200D02*
X239100D01*
X240000D02*
X240300D01*
X240500D02*
X241100D01*
X235500Y474642D02*
X235800D01*
X237400D02*
X237800D01*
X238100D02*
X238300D01*
X238900D02*
X239200D01*
X240000D02*
X241100D01*
X235300Y474542D02*
X235700D01*
X237300D02*
X237700D01*
X238000D02*
X238300D01*
X238800D02*
X239200D01*
X240000D02*
X241200D01*
X235200Y474442D02*
X235500D01*
X237100D02*
X237700D01*
X238000D02*
X238200D01*
X238800D02*
X239200D01*
X240000D02*
X240300D01*
X240400D02*
X241200D01*
X234800Y474342D02*
X235100D01*
X235200D02*
X235300D01*
X236900D02*
X237700D01*
X237900D02*
X238100D01*
X238800D02*
X239300D01*
X240000D02*
X241200D01*
X234600Y474242D02*
X235100D01*
X236600D02*
X237600D01*
X237800D02*
X238000D01*
X238700D02*
X239300D01*
X240000D02*
X241200D01*
X234700Y474142D02*
X235200D01*
X236000D02*
X237500D01*
X237700D02*
X237900D01*
X238700D02*
X239300D01*
X240000D02*
X241200D01*
X234300Y474042D02*
X238000D01*
X238700D02*
X239400D01*
X240000D02*
X241300D01*
X238700Y473942D02*
X239400D01*
X240000D02*
X241300D01*
X233800Y473842D02*
X234500D01*
X236200D02*
X238100D01*
X238600D02*
X239400D01*
X240000D02*
X241300D01*
X234100Y473742D02*
X234600D01*
X236500D02*
X237100D01*
X237600D02*
X238100D01*
X238600D02*
X239400D01*
X240000D02*
X241300D01*
X234400Y473642D02*
X234600D01*
X236500D02*
X237100D01*
X237700D02*
X238200D01*
X238600D02*
X239400D01*
X240100D02*
X241300D01*
X234400Y473542D02*
X234600D01*
X236500D02*
X237200D01*
X237700D02*
X238200D01*
X238600D02*
X239400D01*
X240100D02*
X241300D01*
X234400Y473442D02*
X234700D01*
X236600D02*
X237300D01*
X237700D02*
X238200D01*
X238600D02*
X239400D01*
X240100D02*
X241400D01*
X234400Y473342D02*
X234700D01*
X236600D02*
X237500D01*
X237700D02*
X238300D01*
X238600D02*
X239400D01*
X240100D02*
X241400D01*
X234400Y473242D02*
X234700D01*
X236700D02*
X236900D01*
X237200D02*
X237700D01*
X237800D02*
X238300D01*
X238600D02*
X239400D01*
X240100D02*
X241400D01*
X234400Y473142D02*
X234700D01*
X236700D02*
X237000D01*
X237400D02*
X238300D01*
X238700D02*
X239400D01*
X240100D02*
X241400D01*
X234500Y473042D02*
X234700D01*
X236700D02*
X237000D01*
X237600D02*
X238400D01*
X238700D02*
X239300D01*
X240100D02*
X241400D01*
X234500Y472942D02*
X234700D01*
X236700D02*
X237000D01*
X237700D02*
X238400D01*
X238800D02*
X239200D01*
X240100D02*
X241400D01*
X234500Y472842D02*
X234700D01*
X236700D02*
X237000D01*
X237800D02*
X238400D01*
X240100D02*
X241400D01*
X234500Y472742D02*
X234700D01*
X236800D02*
X237000D01*
X237900D02*
X238400D01*
X240100D02*
X241400D01*
X234500Y472642D02*
X234700D01*
X236700D02*
X237100D01*
X238000D02*
X238500D01*
X240100D02*
X241400D01*
X234500Y472542D02*
X234700D01*
X236800D02*
X237100D01*
X238100D02*
X238500D01*
X240100D02*
X241400D01*
X234400Y472442D02*
X234700D01*
X236800D02*
X237100D01*
X238100D02*
X238600D01*
X240100D02*
X241500D01*
X234200Y472342D02*
X234700D01*
X236800D02*
X237100D01*
X238200D02*
X238600D01*
X240100D02*
X241500D01*
X234100Y472242D02*
X234700D01*
X236800D02*
X237000D01*
X238200D02*
X238700D01*
X240100D02*
X241500D01*
X234000Y472142D02*
X234300D01*
X234500D02*
X234700D01*
X236800D02*
X237000D01*
X238300D02*
X238700D01*
X240100D02*
X241500D01*
X233800Y472042D02*
X234200D01*
X234400D02*
X234700D01*
X236700D02*
X237100D01*
X238400D02*
X238800D01*
X240100D02*
X241500D01*
X234400Y471942D02*
X234700D01*
X236700D02*
X237100D01*
X238300D02*
X238800D01*
X240100D02*
X241500D01*
X234400Y471842D02*
X234700D01*
X236700D02*
X237100D01*
X238500D02*
X238800D01*
X240100D02*
X241500D01*
X234400Y471742D02*
X234700D01*
X236700D02*
X237200D01*
X238600D02*
X238900D01*
X240100D02*
X241500D01*
X234400Y471642D02*
X234700D01*
X236600D02*
X237200D01*
X238700D02*
X239000D01*
X240100D02*
X241500D01*
X234400Y471542D02*
X234700D01*
X236600D02*
X237300D01*
X238400D02*
X238600D01*
X238700D02*
X239000D01*
X240100D02*
X241500D01*
X234400Y471442D02*
X234700D01*
X235600D02*
X236100D01*
X236500D02*
X237300D01*
X238400D02*
X239000D01*
X240100D02*
X241500D01*
X234300Y471342D02*
X234700D01*
X235400D02*
X236300D01*
X236500D02*
X237300D01*
X238600D02*
X239000D01*
X240100D02*
X241500D01*
X234200Y471242D02*
X234700D01*
X235200D02*
X236400D01*
X236500D02*
X237400D01*
X238600D02*
X239000D01*
X240100D02*
X241500D01*
X234100Y471142D02*
X234600D01*
X235000D02*
X237400D01*
X237900D02*
X238200D01*
X238400D02*
X238500D01*
X238700D02*
X239000D01*
X240100D02*
X241500D01*
X233900Y471042D02*
X234600D01*
X234900D02*
X237500D01*
X237900D02*
X238200D01*
X238400D02*
X239000D01*
X240100D02*
X241500D01*
X233800Y470942D02*
X234600D01*
X234700D02*
X237500D01*
X237800D02*
X238200D01*
X238300D02*
X239000D01*
X240100D02*
X241500D01*
X237800Y470842D02*
X239000D01*
X240100D02*
X241500D01*
X237700Y470742D02*
X238100D01*
X238200D02*
X238300D01*
X238400D02*
X239000D01*
X240100D02*
X241500D01*
X237600Y470642D02*
X238100D01*
X238400D02*
X239000D01*
X240100D02*
X241500D01*
X238300Y470542D02*
X239000D01*
X240100D02*
X241500D01*
X238300Y470442D02*
X238900D01*
X240100D02*
X241600D01*
X234000Y470342D02*
X237900D01*
X238000D02*
X238200D01*
X238300D02*
X239000D01*
X240100D02*
X241600D01*
X235900Y470242D02*
X237300D01*
X237400D02*
X237700D01*
X238000D02*
X238200D01*
X238300D02*
X238700D01*
X238800D02*
X239000D01*
X240100D02*
X241500D01*
X236500Y470142D02*
X237700D01*
X238200D02*
X238600D01*
X238900D02*
X239100D01*
X240100D02*
X241500D01*
X236400Y470042D02*
X237700D01*
X238200D02*
X238600D01*
X238900D02*
X239100D01*
X240100D02*
X241500D01*
X236400Y469942D02*
X237100D01*
X237200D02*
X237600D01*
X238100D02*
X238600D01*
X238900D02*
X239200D01*
X240100D02*
X241500D01*
X236300Y469842D02*
X237700D01*
X237900D02*
X238500D01*
X238900D02*
X239200D01*
X240000D02*
X241500D01*
X236300Y469742D02*
X237100D01*
X237300D02*
X237700D01*
X237800D02*
X237900D01*
X238000D02*
X238500D01*
X239000D02*
X239200D01*
X240000D02*
X241500D01*
X236200Y469642D02*
X237100D01*
X237200D02*
X237500D01*
X237900D02*
X238400D01*
X239000D02*
X239200D01*
X240000D02*
X241500D01*
X233900Y469542D02*
X235400D01*
X236100D02*
X237300D01*
X237800D02*
X238400D01*
X239000D02*
X239300D01*
X240000D02*
X241500D01*
X234100Y469442D02*
X235600D01*
X236000D02*
X237200D01*
X237800D02*
X238300D01*
X239100D02*
X239300D01*
X240000D02*
X241500D01*
X234300Y469342D02*
X235800D01*
X236000D02*
X236800D01*
X237000D02*
X237200D01*
X237700D02*
X238200D01*
X239100D02*
X239300D01*
X240000D02*
X241500D01*
X234400Y469242D02*
X236800D01*
X237000D02*
X237300D01*
X237600D02*
X238200D01*
X239100D02*
X239300D01*
X240000D02*
X241500D01*
X234100Y469142D02*
X234200D01*
X234600D02*
X236700D01*
X236900D02*
X237300D01*
X237500D02*
X238100D01*
X239100D02*
X239400D01*
X240000D02*
X241500D01*
X234100Y469042D02*
X234300D01*
X234800D02*
X236700D01*
X236800D02*
X237300D01*
X237400D02*
X238000D01*
X239100D02*
X239400D01*
X240000D02*
X241500D01*
X234300Y468942D02*
X234500D01*
X235000D02*
X236600D01*
X236800D02*
X237900D01*
X239200D02*
X239400D01*
X240000D02*
X241500D01*
X234500Y468842D02*
X234800D01*
X235200D02*
X236500D01*
X236700D02*
X237000D01*
X237100D02*
X237800D01*
X239200D02*
X239400D01*
X240000D02*
X241400D01*
X234600Y468742D02*
X234800D01*
X235300D02*
X236400D01*
X236700D02*
X236900D01*
X237100D02*
X237600D01*
X239200D02*
X239400D01*
X240000D02*
X241400D01*
X235500Y468642D02*
X236300D01*
X236600D02*
X236900D01*
X237200D02*
X237500D01*
X239200D02*
X239500D01*
X239900D02*
X241400D01*
X235700Y468542D02*
X236200D01*
X236500D02*
X236800D01*
X239200D02*
X239500D01*
X239900D02*
X241400D01*
X235300Y468442D02*
X235500D01*
X235900D02*
X236100D01*
X236400D02*
X236700D01*
X239300D02*
X239500D01*
X239900D02*
X241400D01*
X235300Y468342D02*
X235500D01*
X236300D02*
X236600D01*
X239300D02*
X239500D01*
X239900D02*
X241400D01*
X233900Y468242D02*
X234400D01*
X236200D02*
X236500D01*
X239300D02*
X239500D01*
X239900D02*
X241300D01*
X233800Y468142D02*
X234500D01*
X235900D02*
X236400D01*
X239300D02*
X239500D01*
X239900D02*
X241300D01*
X233800Y468042D02*
X234500D01*
X235700D02*
X236300D01*
X239300D02*
X239500D01*
X239800D02*
X241300D01*
X235700Y467942D02*
X235900D01*
X239300D02*
X239600D01*
X239800D02*
X241300D01*
X235700Y467842D02*
X235900D01*
X239300D02*
X239600D01*
X239800D02*
X241200D01*
X233800Y467742D02*
X234500D01*
X235700D02*
X235900D01*
X239400D02*
X239600D01*
X239800D02*
X241200D01*
X233900Y467642D02*
X234400D01*
X235700D02*
X235900D01*
X239400D02*
X239600D01*
X239800D02*
X241200D01*
X234100Y467542D02*
X234200D01*
X235700D02*
X235900D01*
X239400D02*
X239600D01*
X239800D02*
X241200D01*
X235700Y467442D02*
X235900D01*
X239400D02*
X239600D01*
X239700D02*
X241200D01*
X235700Y467342D02*
X235900D01*
X239400D02*
X239600D01*
X239700D02*
X241100D01*
X236700Y483142D02*
X237100D01*
X237200D02*
X237400D01*
X237800D02*
X238100D01*
X239300D02*
X239500D01*
X236900Y483042D02*
X237300D01*
X237700D02*
X238000D01*
X239400D02*
X239600D01*
X237100Y482942D02*
X237400D01*
X237600D02*
X237800D01*
X239500D02*
X239700D01*
X237200Y482842D02*
X238200D01*
X239500D02*
X239800D01*
X237300Y482742D02*
X238200D01*
X239600D02*
X239800D01*
X237400Y482642D02*
X237800D01*
X237500Y482542D02*
X237700D01*
X235900Y482442D02*
X236000D01*
X235900Y482342D02*
X236100D01*
X237700D02*
X238000D01*
X239800D02*
X240000D01*
X235900Y482242D02*
X236200D01*
X237700D02*
X238100D01*
X239800D02*
X240000D01*
X236000Y482142D02*
X236300D01*
X237800D02*
X238200D01*
X239900D02*
X240100D01*
X236100Y482042D02*
X236300D01*
X237900D02*
X238300D01*
X239700D02*
X239900D01*
X240000D02*
X240100D01*
X236200Y481942D02*
X236400D01*
X238000D02*
X238400D01*
X239800D02*
X240200D01*
X236200Y481842D02*
X236400D01*
X238100D02*
X238400D01*
X239900D02*
X240300D01*
X236300Y481742D02*
X236500D01*
X238100D02*
X238500D01*
X240000D02*
X240300D01*
X236300Y481642D02*
X236500D01*
X238200D02*
X238600D01*
X240100D02*
X240300D01*
X236300Y481542D02*
X236600D01*
X238300D02*
X238600D01*
X240200D02*
X240400D01*
X236400Y481442D02*
X236600D01*
X238300D02*
X238700D01*
X240200D02*
X240400D01*
X236400Y481342D02*
X236600D01*
X238400D02*
X238700D01*
X240300D02*
X240500D01*
X236500Y481242D02*
X236700D01*
X238400D02*
X238800D01*
X240300D02*
X240500D01*
X236500Y481142D02*
X236700D01*
X238500D02*
X238800D01*
X240400D02*
X240600D01*
X236500Y481042D02*
X236700D01*
X238500D02*
X238900D01*
X240400D02*
X240600D01*
X236600Y480942D02*
X236800D01*
X238600D02*
X238900D01*
X240500D02*
X240700D01*
X236600Y480842D02*
X236800D01*
X238600D02*
X239000D01*
X240500D02*
X240700D01*
X236600Y480742D02*
X236800D01*
X238700D02*
X239000D01*
X240500D02*
X240700D01*
X236600Y480642D02*
X236800D01*
X238700D02*
X239000D01*
X240600D02*
X240800D01*
X233800Y480542D02*
X234000D01*
X236600D02*
X236900D01*
X238700D02*
X239100D01*
X240600D02*
X240800D01*
X233900Y480442D02*
X234100D01*
X236700D02*
X236900D01*
X238700D02*
X239100D01*
X240600D02*
X240900D01*
X233900Y480342D02*
X234200D01*
X236700D02*
X236900D01*
X238800D02*
X239100D01*
X240700D02*
X240900D01*
X234000Y480242D02*
X234200D01*
X236700D02*
X236900D01*
X238800D02*
X239200D01*
X240700D02*
X240900D01*
X233800Y480142D02*
X234000D01*
X234100D02*
X234300D01*
X236700D02*
X236900D01*
X238900D02*
X239200D01*
X240700D02*
X241000D01*
X233800Y480042D02*
X234000D01*
X234100D02*
X234400D01*
X236700D02*
X236900D01*
X238600D02*
X238800D01*
X238900D02*
X239200D01*
X240800D02*
X241000D01*
X233900Y479942D02*
X234100D01*
X234200D02*
X234500D01*
X236700D02*
X237000D01*
X238600D02*
X238800D01*
X238900D02*
X239200D01*
X240800D02*
X241000D01*
X234000Y479842D02*
X234200D01*
X234300D02*
X234800D01*
X236800D02*
X237000D01*
X238600D02*
X239300D01*
X240900D02*
X241100D01*
X234000Y479742D02*
X234300D01*
X234400D02*
X235000D01*
X236800D02*
X237000D01*
X238600D02*
X238900D01*
X239000D02*
X239300D01*
X240900D02*
X241100D01*
X234100Y479642D02*
X234300D01*
X234400D02*
X234700D01*
X234800D02*
X235200D01*
X236800D02*
X237000D01*
X238700D02*
X238900D01*
X239000D02*
X239300D01*
X240900D02*
X241100D01*
X234200Y479542D02*
X234800D01*
X235000D02*
X235400D01*
X236800D02*
X237200D01*
X238700D02*
X238900D01*
X239000D02*
X239300D01*
X240900D02*
X241200D01*
X234300Y479442D02*
X234600D01*
X234700D02*
X234900D01*
X235200D02*
X235500D01*
X236800D02*
X237200D01*
X238700D02*
X239000D01*
X239100D02*
X239400D01*
X241000D02*
X241200D01*
X234400Y479342D02*
X234600D01*
X234800D02*
X235000D01*
X235300D02*
X235600D01*
X236800D02*
X237200D01*
X238700D02*
X239000D01*
X239100D02*
X239400D01*
X241000D02*
X241200D01*
X234500Y479242D02*
X234700D01*
X234900D02*
X235100D01*
X235500D02*
X235700D01*
X236800D02*
X237200D01*
X238700D02*
X239000D01*
X239100D02*
X239400D01*
X241100D02*
X241300D01*
X234500Y479142D02*
X234800D01*
X235000D02*
X235200D01*
X235500D02*
X235800D01*
X236800D02*
X237200D01*
X238700D02*
X239000D01*
X239100D02*
X239400D01*
X241100D02*
X241300D01*
X234600Y479042D02*
X235000D01*
X235100D02*
X235300D01*
X235600D02*
X235900D01*
X236800D02*
X237200D01*
X238700D02*
X239000D01*
X239100D02*
X239400D01*
X241100D02*
X241300D01*
X234600Y478942D02*
X235000D01*
X235200D02*
X235500D01*
X235700D02*
X235900D01*
X236800D02*
X237200D01*
X238700D02*
X239000D01*
X239100D02*
X239500D01*
X241100D02*
X241400D01*
X234700Y478842D02*
X235200D01*
X235300D02*
X235600D01*
X235700D02*
X235900D01*
X236800D02*
X237200D01*
X238800D02*
X239000D01*
X239100D02*
X239400D01*
X241200D02*
X241400D01*
X234900Y478742D02*
X235900D01*
X236800D02*
X237200D01*
X238800D02*
X239000D01*
X239100D02*
X239500D01*
X241200D02*
X241400D01*
X235100Y478642D02*
X235800D01*
X236800D02*
X237200D01*
X238800D02*
X239100D01*
X239200D02*
X239500D01*
X241300D02*
X241500D01*
X235300Y478542D02*
X235500D01*
X235700D02*
X236000D01*
X236700D02*
X237200D01*
X238800D02*
X239100D01*
X239200D02*
X239600D01*
X241300D02*
X241500D01*
X235400Y478442D02*
X235700D01*
X235800D02*
X236200D01*
X236700D02*
X236900D01*
X237000D02*
X237200D01*
X238800D02*
X239100D01*
X239200D02*
X239600D01*
X241300D02*
X241500D01*
X235500Y478342D02*
X235800D01*
X236000D02*
X236300D01*
X236700D02*
X236900D01*
X237000D02*
X237200D01*
X238800D02*
X239100D01*
X239200D02*
X239600D01*
X241300D02*
X241600D01*
X235600Y478242D02*
X236000D01*
X236700D02*
X237200D01*
X238800D02*
X239100D01*
X239200D02*
X239600D01*
X241400D02*
X241600D01*
X235800Y478142D02*
X236100D01*
X236900D02*
X237100D01*
X238800D02*
X239100D01*
X239200D02*
X239600D01*
X241400D02*
X241600D01*
X235900Y478042D02*
X236300D01*
X236900D02*
X237100D01*
X238800D02*
X239100D01*
X239200D02*
X239600D01*
X236100Y477942D02*
X236500D01*
X236900D02*
X237100D01*
X238800D02*
X239100D01*
X239200D02*
X239600D01*
X236300Y477842D02*
X236700D01*
X236900D02*
X237100D01*
X238800D02*
X239100D01*
X239200D02*
X239700D01*
X236500Y477742D02*
X237100D01*
X238800D02*
X239100D01*
X239200D02*
X239700D01*
X236600Y477642D02*
X237100D01*
X238800D02*
X239100D01*
X239200D02*
X239700D01*
X240200D02*
X240400D01*
X234300Y477542D02*
X234700D01*
X236800D02*
X237000D01*
X238800D02*
X239100D01*
X239200D02*
X239400D01*
X239500D02*
X239700D01*
X240200D02*
X240500D01*
X234400Y477442D02*
X235100D01*
X236800D02*
X237000D01*
X238800D02*
X239100D01*
X239200D02*
X239400D01*
X239500D02*
X239800D01*
X240400D02*
X240500D01*
X234200Y477342D02*
X234500D01*
X234700D02*
X235300D01*
X236800D02*
X237000D01*
X238800D02*
X239100D01*
X239200D02*
X239400D01*
X239500D02*
X239800D01*
X240400D02*
X240500D01*
X234200Y477242D02*
X234800D01*
X235100D02*
X235200D01*
X236800D02*
X237000D01*
X238800D02*
X241500D01*
X234100Y477142D02*
X235200D01*
X236800D02*
X237000D01*
X234100Y477042D02*
X235600D01*
X236700D02*
X236900D01*
X238800D02*
X239000D01*
X234200Y476942D02*
X235600D01*
X236700D02*
X236900D01*
X238800D02*
X239000D01*
X234300Y476842D02*
X235600D01*
X236600D02*
X236900D01*
X238700D02*
X239000D01*
X234500Y476742D02*
X235600D01*
X236600D02*
X236800D01*
X238700D02*
X239000D01*
X234600Y476642D02*
X235600D01*
X236600D02*
X236800D01*
X234900Y476542D02*
X235500D01*
X236500D02*
X236700D01*
X238700D02*
X239500D01*
X241300D02*
X241500D01*
X236500Y476442D02*
X236700D01*
X238700D02*
X238900D01*
X241200D02*
X241400D01*
X236400Y476342D02*
X236600D01*
X238700D02*
X238900D01*
X241200D02*
X241400D01*
X236400Y476242D02*
X236600D01*
X238600D02*
X238900D01*
X241100D02*
X241300D01*
X236300Y476142D02*
X236500D01*
X238600D02*
X238900D01*
X240900D02*
X241200D01*
X236300Y476042D02*
X236500D01*
X240700D02*
X241100D01*
X236200Y475942D02*
X236400D01*
X238600D02*
X238800D01*
X240500D02*
X241000D01*
X236100Y475842D02*
X236400D01*
X238600D02*
X238800D01*
X240200D02*
X240800D01*
X236100Y475742D02*
X236300D01*
X238500D02*
X238800D01*
X240000D02*
X240600D01*
X236000Y475642D02*
X236200D01*
X238500D02*
X238800D01*
X239600D02*
X240300D01*
X240800D02*
X241400D01*
X235900Y475542D02*
X236200D01*
X238500D02*
X238700D01*
X239100D02*
X240000D01*
X240500D02*
X241100D01*
X235900Y475442D02*
X236100D01*
X238500D02*
X238700D01*
X239100D02*
X239600D01*
X240300D02*
X241000D01*
X235800Y475342D02*
X236000D01*
X238400D02*
X238600D01*
X239000D02*
X239200D01*
X239900D02*
X241000D01*
X234600Y484042D02*
X234800D01*
X234600Y483942D02*
X235000D01*
X234700Y483842D02*
X234900D01*
X238200D02*
X238700D01*
X238200Y483742D02*
X238900D01*
X237600Y483642D02*
X237800D01*
X238700D02*
X239100D01*
X237500Y483542D02*
X237800D01*
X238900D02*
X239200D01*
X237400Y483442D02*
X237700D01*
X238400D02*
X238900D01*
X239000D02*
X239300D01*
X237300Y483342D02*
X237500D01*
X238500D02*
X238900D01*
X239100D02*
X239400D01*
X242600Y467142D02*
X242800D01*
X242900D02*
X243200D01*
X243300D02*
X243500D01*
X242500Y467042D02*
X242700D01*
X242900D02*
X243200D01*
X243300D02*
X243500D01*
X242400Y466942D02*
X242700D01*
X242900D02*
X243100D01*
X243300D02*
X243500D01*
X242400Y466842D02*
X242600D01*
X242900D02*
X243100D01*
X243300D02*
X243500D01*
X242300Y466742D02*
X242600D01*
X242900D02*
X243100D01*
X243200D02*
X243400D01*
X242300Y466642D02*
X242500D01*
X242900D02*
X243100D01*
X243200D02*
X243400D01*
X242200Y466542D02*
X242400D01*
X242800D02*
X243000D01*
X243200D02*
X243400D01*
X242100Y466442D02*
X242400D01*
X242800D02*
X243000D01*
X243100D02*
X243300D01*
X242100Y466342D02*
X242300D01*
X242800D02*
X243000D01*
X243100D02*
X243300D01*
X242000Y466242D02*
X242200D01*
X242800D02*
X243000D01*
X243100D02*
X243300D01*
X241900Y466142D02*
X242100D01*
X242700D02*
X242900D01*
X243000D02*
X243200D01*
X241800Y466042D02*
X242000D01*
X242700D02*
X242900D01*
X243000D02*
X243200D01*
X242700Y465942D02*
X243200D01*
X242600Y465842D02*
X242800D01*
X242900D02*
X243100D01*
X242600Y465742D02*
X243100D01*
X242500Y465642D02*
X243000D01*
X242500Y465542D02*
X242900D01*
X242400Y465442D02*
X242600D01*
X242700D02*
X242900D01*
X242200Y475142D02*
X242400D01*
X242200Y475042D02*
X242400D01*
X242300Y474942D02*
X242500D01*
X242300Y474842D02*
X242500D01*
X242300Y474742D02*
X242500D01*
X242400Y474642D02*
X242600D01*
X242400Y474542D02*
X242600D01*
X242400Y474442D02*
X242600D01*
X242400Y474342D02*
X242600D01*
X242400Y474242D02*
X242700D01*
X242500Y474142D02*
X242700D01*
X242500Y474042D02*
X242700D01*
X242500Y473942D02*
X242700D01*
X242500Y473842D02*
X242800D01*
X242600Y473742D02*
X242800D01*
X242600Y473642D02*
X242800D01*
X242600Y473542D02*
X242800D01*
X242600Y473442D02*
X242800D01*
X242700Y473342D02*
X242900D01*
X242700Y473242D02*
X242900D01*
X242700Y473142D02*
X242900D01*
X242700Y473042D02*
X242900D01*
X242800Y472942D02*
X243000D01*
X242800Y472842D02*
X243000D01*
X242800Y472742D02*
X243000D01*
X242800Y472642D02*
X243000D01*
X242800Y472542D02*
X243100D01*
X242900Y472442D02*
X243100D01*
X242900Y472342D02*
X243100D01*
X242900Y472242D02*
X243100D01*
X242900Y472142D02*
X243100D01*
X243000Y472042D02*
X243200D01*
X243000Y471942D02*
X243200D01*
X242200Y471842D02*
X242400D01*
X243000D02*
X243200D01*
X242200Y471742D02*
X242500D01*
X243000D02*
X243200D01*
X242200Y471642D02*
X242500D01*
X243000D02*
X243300D01*
X242300Y471542D02*
X242500D01*
X243100D02*
X243300D01*
X242300Y471442D02*
X242500D01*
X243100D02*
X243300D01*
X242300Y471342D02*
X242500D01*
X243100D02*
X243300D01*
X242300Y471242D02*
X242500D01*
X243100D02*
X243300D01*
X242300Y471142D02*
X242500D01*
X243200D02*
X243400D01*
X242300Y471042D02*
X242500D01*
X243200D02*
X243400D01*
X242300Y470942D02*
X242500D01*
X243200D02*
X243400D01*
X242300Y470842D02*
X242500D01*
X243200D02*
X243400D01*
X242300Y470742D02*
X242500D01*
X243200D02*
X243400D01*
X242300Y470642D02*
X242500D01*
X243300D02*
X243500D01*
X242300Y470542D02*
X242500D01*
X243300D02*
X243500D01*
X242300Y470442D02*
X242500D01*
X242300Y470342D02*
X242500D01*
X243300D02*
X243500D01*
X242300Y470242D02*
X242500D01*
X243300D02*
X243500D01*
X242200Y470142D02*
X242500D01*
X243300D02*
X243600D01*
X242200Y470042D02*
X242500D01*
X243400D02*
X243600D01*
X242200Y469942D02*
X242500D01*
X243400D02*
X243600D01*
X242200Y469842D02*
X242400D01*
X243400D02*
X243600D01*
X242200Y469742D02*
X242400D01*
X243400D02*
X243600D01*
X242200Y469642D02*
X242400D01*
X243400D02*
X243600D01*
X242200Y469542D02*
X242400D01*
X243400D02*
X243700D01*
X242200Y469442D02*
X242400D01*
X243400D02*
X243700D01*
X242200Y469342D02*
X242400D01*
X243400D02*
X243700D01*
X242200Y469242D02*
X242400D01*
X243500D02*
X243700D01*
X242200Y469142D02*
X242400D01*
X243500D02*
X243700D01*
X242100Y469042D02*
X242400D01*
X243000D02*
X243200D01*
X243500D02*
X243700D01*
X242100Y468942D02*
X242300D01*
X243000D02*
X243200D01*
X243500D02*
X243700D01*
X242100Y468842D02*
X242300D01*
X243000D02*
X243200D01*
X243500D02*
X243700D01*
X242100Y468742D02*
X242300D01*
X243000D02*
X243200D01*
X243500D02*
X243700D01*
X242100Y468642D02*
X242300D01*
X243000D02*
X243200D01*
X243500D02*
X243700D01*
X242000Y468542D02*
X242300D01*
X243000D02*
X243300D01*
X243500D02*
X243700D01*
X242000Y468442D02*
X242200D01*
X242800D02*
X243300D01*
X243500D02*
X243700D01*
X242000Y468342D02*
X242200D01*
X242800D02*
X243300D01*
X243500D02*
X243700D01*
X242000Y468242D02*
X242200D01*
X242800D02*
X243300D01*
X243500D02*
X243700D01*
X242000Y468142D02*
X242200D01*
X242800D02*
X243300D01*
X243500D02*
X243700D01*
X241900Y468042D02*
X242100D01*
X242800D02*
X243300D01*
X243500D02*
X243700D01*
X241900Y467942D02*
X242100D01*
X242800D02*
X243200D01*
X243500D02*
X243700D01*
X241900Y467842D02*
X242100D01*
X242800D02*
X243200D01*
X243400D02*
X243700D01*
X241900Y467742D02*
X242100D01*
X242800D02*
X243200D01*
X243400D02*
X243600D01*
X241800Y467642D02*
X242000D01*
X242800D02*
X243200D01*
X243400D02*
X243600D01*
X241800Y467542D02*
X242000D01*
X242700D02*
X243200D01*
X243400D02*
X243600D01*
X241800Y467442D02*
X242000D01*
X242700D02*
X243200D01*
X243400D02*
X243600D01*
X242600Y467342D02*
X242900D01*
X243000D02*
X243200D01*
X243400D02*
X243600D01*
X243100Y476942D02*
X243700D01*
X242000Y476842D02*
X243100D01*
X243500Y476642D02*
X243700D01*
X241800Y476542D02*
X242100D01*
X242600D02*
X242900D01*
X243300D02*
X243400D01*
X243500D02*
X243700D01*
X241800Y476442D02*
X242300D01*
X243000D02*
X243400D01*
X241900Y476342D02*
X242300D01*
X242800D02*
X243300D01*
X242500Y476242D02*
X243000D01*
X242200Y476142D02*
X242800D01*
X242000Y476042D02*
X242500D01*
X242100Y475742D02*
X242300D01*
X242100Y475642D02*
X242300D01*
X242100Y475542D02*
X242300D01*
X242100Y475442D02*
X242400D01*
X242200Y475342D02*
X242400D01*
X230200Y483242D02*
X230400D01*
X227400Y475242D02*
X227700D01*
X228000D02*
X229000D01*
X229200D02*
X229600D01*
X230500D02*
X230700D01*
X226100Y467242D02*
X226400D01*
X229300D02*
X229600D01*
X236700Y483242D02*
X236900D01*
X237200D02*
X237500D01*
X237900D02*
X238100D01*
X239200D02*
X239500D01*
X235700Y475242D02*
X235900D01*
X238400D02*
X238600D01*
X238700D02*
X239400D01*
X239800D02*
X241000D01*
X235600Y467242D02*
X235900D01*
X239400D02*
X239600D01*
X239700D02*
X241100D01*
X242200Y475242D02*
X242400D01*
X242600Y467242D02*
X242800D01*
X242900D02*
X243200D01*
X243400D02*
X243600D01*
X241700Y467142D02*
X241900D01*
X241600Y467042D02*
X241800D01*
X241600Y466942D02*
X241800D01*
X241600Y466842D02*
X241800D01*
X241500Y466742D02*
X241700D01*
X241500Y466642D02*
X241700D01*
Y465942D02*
X241900D01*
X241600Y465842D02*
X241900D01*
X241500Y465742D02*
X241700D01*
X241400Y465642D02*
X241700D01*
X233000Y474042D02*
X233800D01*
X233400Y473942D02*
X238000D01*
X230400Y473742D02*
X234000D01*
X230400Y473642D02*
X234000D01*
X233600Y471942D02*
X234000D01*
X233400Y471842D02*
X233900D01*
X233200Y471742D02*
X233900D01*
X233000Y471642D02*
X233800D01*
X232800Y471542D02*
X233700D01*
X232700Y471442D02*
X233700D01*
X233600Y470842D02*
X237500D01*
X233500Y470742D02*
X237500D01*
X233300Y470642D02*
X237400D01*
X233100Y470542D02*
X238000D01*
X232900Y470442D02*
X238100D01*
X232500Y470342D02*
X233900D01*
X231700Y470242D02*
X234200D01*
X228800Y470142D02*
X234400D01*
X232800Y470042D02*
X234600D01*
X233000Y469942D02*
X234800D01*
X233200Y469842D02*
X234900D01*
X233400Y469742D02*
X235100D01*
X233700Y469642D02*
X235300D01*
X233700Y469342D02*
X233800D01*
X233700Y467942D02*
X234600D01*
X233700Y467842D02*
X234600D01*
X241700Y467342D02*
X242000D01*
X233600Y480942D02*
X233800D01*
X233400Y480842D02*
X233900D01*
X233700Y480742D02*
X233900D01*
X233400Y480642D02*
X234000D01*
X233500Y480542D02*
X233700D01*
X233600Y480442D02*
X233800D01*
X233600Y480342D02*
X233800D01*
X233700Y480242D02*
X233900D01*
X225200Y479842D02*
X225800D01*
X225500Y479742D02*
X226200D01*
X225100Y479542D02*
X225700D01*
X225400Y479442D02*
X225900D01*
X225600Y479342D02*
X226100D01*
X225400Y479142D02*
X225700D01*
X225600Y479042D02*
X225900D01*
X225700Y478942D02*
X226200D01*
X225500Y478642D02*
X225700D01*
X225600Y478542D02*
X225800D01*
X225700Y478442D02*
X225900D01*
X241400Y478042D02*
X241700D01*
X241500Y477942D02*
X241700D01*
X241500Y477842D02*
X241700D01*
X241500Y477742D02*
X241700D01*
X241500Y477642D02*
X241800D01*
X241600Y477542D02*
X241800D01*
X241600Y477442D02*
X241800D01*
X241600Y477342D02*
X241800D01*
X241700Y477242D02*
X241900D01*
X238800Y477142D02*
X243300D01*
X241100Y477042D02*
X243700D01*
X239300Y476742D02*
X243100D01*
X238700Y476642D02*
X243100D01*
X241600Y475942D02*
X242200D01*
X241300Y475842D02*
X242200D01*
X241000Y475742D02*
X241700D01*
X233100Y484142D02*
X233800D01*
X232500Y484042D02*
X233800D01*
X241700Y467242D02*
X241900D01*
D16*
X371000Y302300D02*
Y305800D01*
X369400Y304100D02*
X371000Y305800D01*
X369400Y302000D02*
Y306000D01*
Y303900D02*
X371000Y302300D01*
X368300Y317200D02*
Y320700D01*
X366700Y319000D02*
X368300Y320700D01*
X366700Y316900D02*
Y320900D01*
Y318800D02*
X368300Y317200D01*
X243200Y323780D02*
X248295D01*
X253792Y318284D01*
Y297196D02*
Y318284D01*
X243286Y297222D02*
X253792Y297196D01*
X232700Y323778D02*
X237800Y323726D01*
X227210Y318288D02*
X232700Y323778D01*
X227210Y297198D02*
Y318288D01*
Y297198D02*
X237589Y297277D01*
X302205Y455720D02*
X307300D01*
X296708Y461216D02*
X302205Y455720D01*
X296708Y461216D02*
Y482304D01*
X307214Y482278D01*
X312700Y455774D02*
X317800Y455722D01*
X323290Y461212D01*
Y482302D01*
X312911Y482223D02*
X323290Y482302D01*
X356911Y481711D02*
X367290Y481790D01*
Y460700D02*
Y481790D01*
X361800Y455210D02*
X367290Y460700D01*
X356700Y455262D02*
X361800Y455210D01*
X340708Y481792D02*
X351214Y481766D01*
X340708Y460705D02*
Y481792D01*
Y460705D02*
X346205Y455208D01*
X351300D01*
X365600Y298216D02*
X366183Y298799D01*
X367349D01*
X367933Y298216D01*
Y297633D01*
X367349Y297049D01*
X366766D01*
X367349D01*
X367933Y296466D01*
Y295883D01*
X367349Y295300D01*
X366183D01*
X365600Y295883D01*
X369099Y298799D02*
Y296466D01*
X370265Y295300D01*
X371431Y296466D01*
Y298799D01*
X372598Y298216D02*
X373181Y298799D01*
X374347D01*
X374930Y298216D01*
Y297633D01*
X374347Y297049D01*
X373764D01*
X374347D01*
X374930Y296466D01*
Y295883D01*
X374347Y295300D01*
X373181D01*
X372598Y295883D01*
X354333Y321199D02*
X353166Y320616D01*
X352000Y319449D01*
Y318283D01*
X352583Y317700D01*
X353749D01*
X354333Y318283D01*
Y318866D01*
X353749Y319449D01*
X352000D01*
X355499Y321199D02*
Y318866D01*
X356665Y317700D01*
X357831Y318866D01*
Y321199D01*
X319533Y425957D02*
X318949Y426541D01*
X317783D01*
X317200Y425957D01*
Y423625D01*
X317783Y423042D01*
X318949D01*
X319533Y423625D01*
Y424791D01*
X318366D01*
X320699Y423042D02*
Y426541D01*
X323031Y423042D01*
Y426541D01*
X324198D02*
Y423042D01*
X325947D01*
X326530Y423625D01*
Y425957D01*
X325947Y426541D01*
X324198D01*
X224633Y458816D02*
X224049Y459399D01*
X222883D01*
X222300Y458816D01*
Y456483D01*
X222883Y455900D01*
X224049D01*
X224633Y456483D01*
Y457649D01*
X223466D01*
X225799Y455900D02*
Y459399D01*
X228131Y455900D01*
Y459399D01*
X229298D02*
Y455900D01*
X231047D01*
X231630Y456483D01*
Y458816D01*
X231047Y459399D01*
X229298D01*
X227833Y337016D02*
X227249Y337599D01*
X226083D01*
X225500Y337016D01*
Y334683D01*
X226083Y334100D01*
X227249D01*
X227833Y334683D01*
Y335849D01*
X226666D01*
X228999Y334100D02*
Y337599D01*
X231331Y334100D01*
Y337599D01*
X232498D02*
Y334100D01*
X234247D01*
X234830Y334683D01*
Y337016D01*
X234247Y337599D01*
X232498D01*
X383200Y441584D02*
Y439252D01*
X384366Y438085D01*
X385533Y439252D01*
Y441584D01*
X389031Y441001D02*
X388448Y441584D01*
X387282D01*
X386699Y441001D01*
Y438668D01*
X387282Y438085D01*
X388448D01*
X389031Y438668D01*
X392530Y441001D02*
X391947Y441584D01*
X390781D01*
X390198Y441001D01*
Y438668D01*
X390781Y438085D01*
X391947D01*
X392530Y438668D01*
X393697Y439835D02*
X396029D01*
X394863Y441001D02*
Y438668D01*
D17*
X362494Y354689D02*
X374306D01*
X362494Y328311D02*
X374306D01*
X362494D02*
Y354689D01*
X374306Y328311D02*
Y354689D01*
X308879Y372768D02*
Y406232D01*
X275414Y372768D02*
X308879D01*
X275414D02*
Y406232D01*
X308879D01*
D18*
X251512Y388486D02*
X254662D01*
X247969Y393013D02*
Y396950D01*
X257811Y392620D02*
Y397344D01*
X251512Y401084D02*
X254662D01*
D19*
X387000Y418032D02*
X392755D01*
X387000Y392032D02*
Y418032D01*
X407245Y392032D02*
X413000D01*
Y418032D01*
X407245D02*
X413000D01*
X387000Y392032D02*
X392755D01*
D20*
X414992Y485000D02*
Y483426D01*
X413992Y441500D02*
Y439926D01*
X414779Y440713D02*
X413205D01*
X401774Y462461D02*
X400987D01*
X401381D01*
Y460494D01*
X400987Y460100D01*
X400594D01*
X400200Y460494D01*
X402561Y462068D02*
X402955Y462461D01*
X403742D01*
X404136Y462068D01*
Y461674D01*
X403742Y461281D01*
X403349D01*
X403742D01*
X404136Y460887D01*
Y460494D01*
X403742Y460100D01*
X402955D01*
X402561Y460494D01*
X359774Y437568D02*
X359381Y437961D01*
X358594D01*
X358200Y437568D01*
Y435994D01*
X358594Y435600D01*
X359381D01*
X359774Y435994D01*
X360561Y437568D02*
X360955Y437961D01*
X361742D01*
X362136Y437568D01*
Y437174D01*
X361742Y436781D01*
X361349D01*
X361742D01*
X362136Y436387D01*
Y435994D01*
X361742Y435600D01*
X360955D01*
X360561Y435994D01*
X362923Y437568D02*
X363316Y437961D01*
X364104D01*
X364497Y437568D01*
Y437174D01*
X364104Y436781D01*
X364497Y436387D01*
Y435994D01*
X364104Y435600D01*
X363316D01*
X362923Y435994D01*
Y436387D01*
X363316Y436781D01*
X362923Y437174D01*
Y437568D01*
X363316Y436781D02*
X364104D01*
X351500Y432200D02*
Y434561D01*
X352681D01*
X353074Y434168D01*
Y433381D01*
X352681Y432987D01*
X351500D01*
X352287D02*
X353074Y432200D01*
X353861Y434168D02*
X354255Y434561D01*
X355042D01*
X355436Y434168D01*
Y433774D01*
X355042Y433381D01*
X354649D01*
X355042D01*
X355436Y432987D01*
Y432594D01*
X355042Y432200D01*
X354255D01*
X353861Y432594D01*
X357797Y434561D02*
X356223D01*
Y433381D01*
X357010Y433774D01*
X357404D01*
X357797Y433381D01*
Y432594D01*
X357404Y432200D01*
X356616D01*
X356223Y432594D01*
X262000Y396761D02*
Y396368D01*
X262787Y395581D01*
X263574Y396368D01*
Y396761D01*
X262787Y395581D02*
Y394400D01*
X264361D02*
X265149D01*
X264755D01*
Y396761D01*
X264361Y396368D01*
X369161Y408800D02*
X367194D01*
X366800Y408406D01*
Y407619D01*
X367194Y407226D01*
X369161D01*
Y404864D02*
Y406439D01*
X367981D01*
X368374Y405651D01*
Y405258D01*
X367981Y404864D01*
X367194D01*
X366800Y405258D01*
Y406045D01*
X367194Y406439D01*
X286600Y446061D02*
Y444094D01*
X286994Y443700D01*
X287781D01*
X288174Y444094D01*
Y446061D01*
X290142Y443700D02*
Y446061D01*
X288961Y444881D01*
X290536D01*
X290500Y348961D02*
Y346994D01*
X290894Y346600D01*
X291681D01*
X292074Y346994D01*
Y348961D01*
X292861Y348568D02*
X293255Y348961D01*
X294042D01*
X294436Y348568D01*
Y348174D01*
X294042Y347781D01*
X293649D01*
X294042D01*
X294436Y347387D01*
Y346994D01*
X294042Y346600D01*
X293255D01*
X292861Y346994D01*
X292500Y394561D02*
Y392594D01*
X292894Y392200D01*
X293681D01*
X294074Y392594D01*
Y394561D01*
X296436Y392200D02*
X294861D01*
X296436Y393774D01*
Y394168D01*
X296042Y394561D01*
X295255D01*
X294861Y394168D01*
X342061Y351606D02*
X340094D01*
X339700Y351213D01*
Y350426D01*
X340094Y350032D01*
X342061D01*
X339700Y349245D02*
Y348458D01*
Y348851D01*
X342061D01*
X341668Y349245D01*
X227274Y400468D02*
X226881Y400861D01*
X226094D01*
X225700Y400468D01*
Y400074D01*
X226094Y399681D01*
X226881D01*
X227274Y399287D01*
Y398894D01*
X226881Y398500D01*
X226094D01*
X225700Y398894D01*
X228061Y400861D02*
Y398500D01*
X228849Y399287D01*
X229636Y398500D01*
Y400861D01*
X230423Y398500D02*
X231210D01*
X230816D01*
Y400861D01*
X230423Y400468D01*
X328000Y471400D02*
Y473761D01*
X329181D01*
X329574Y473368D01*
Y472581D01*
X329181Y472187D01*
X328000D01*
X328787D02*
X329574Y471400D01*
X331542D02*
Y473761D01*
X330361Y472581D01*
X331936D01*
X332723Y471400D02*
X333510D01*
X333116D01*
Y473761D01*
X332723Y473368D01*
X328300Y445900D02*
Y448261D01*
X329481D01*
X329874Y447868D01*
Y447081D01*
X329481Y446687D01*
X328300D01*
X329087D02*
X329874Y445900D01*
X331842D02*
Y448261D01*
X330661Y447081D01*
X332236D01*
X333023Y447868D02*
X333416Y448261D01*
X334204D01*
X334597Y447868D01*
Y446294D01*
X334204Y445900D01*
X333416D01*
X333023Y446294D01*
Y447868D01*
X345400Y390700D02*
X343039D01*
Y391881D01*
X343432Y392274D01*
X344219D01*
X344613Y391881D01*
Y390700D01*
Y391487D02*
X345400Y392274D01*
X343432Y393061D02*
X343039Y393455D01*
Y394242D01*
X343432Y394636D01*
X343826D01*
X344219Y394242D01*
Y393849D01*
Y394242D01*
X344613Y394636D01*
X345006D01*
X345400Y394242D01*
Y393455D01*
X345006Y393061D01*
Y395423D02*
X345400Y395816D01*
Y396604D01*
X345006Y396997D01*
X343432D01*
X343039Y396604D01*
Y395816D01*
X343432Y395423D01*
X343826D01*
X344219Y395816D01*
Y396997D01*
X385500Y394800D02*
X383139D01*
Y395981D01*
X383532Y396374D01*
X384319D01*
X384713Y395981D01*
Y394800D01*
Y395587D02*
X385500Y396374D01*
X383532Y397161D02*
X383139Y397555D01*
Y398342D01*
X383532Y398736D01*
X383926D01*
X384319Y398342D01*
Y397949D01*
Y398342D01*
X384713Y398736D01*
X385106D01*
X385500Y398342D01*
Y397555D01*
X385106Y397161D01*
X383532Y399523D02*
X383139Y399916D01*
Y400704D01*
X383532Y401097D01*
X383926D01*
X384319Y400704D01*
X384713Y401097D01*
X385106D01*
X385500Y400704D01*
Y399916D01*
X385106Y399523D01*
X384713D01*
X384319Y399916D01*
X383926Y399523D01*
X383532D01*
X384319Y399916D02*
Y400704D01*
X343900Y422800D02*
Y425161D01*
X345081D01*
X345474Y424768D01*
Y423981D01*
X345081Y423587D01*
X343900D01*
X344687D02*
X345474Y422800D01*
X346261Y424768D02*
X346655Y425161D01*
X347442D01*
X347836Y424768D01*
Y424374D01*
X347442Y423981D01*
X347049D01*
X347442D01*
X347836Y423587D01*
Y423194D01*
X347442Y422800D01*
X346655D01*
X346261Y423194D01*
X348623Y425161D02*
X350197D01*
Y424768D01*
X348623Y423194D01*
Y422800D01*
X377700Y414800D02*
X375339D01*
Y415981D01*
X375732Y416374D01*
X376519D01*
X376913Y415981D01*
Y414800D01*
Y415587D02*
X377700Y416374D01*
X375732Y417161D02*
X375339Y417555D01*
Y418342D01*
X375732Y418736D01*
X376126D01*
X376519Y418342D01*
Y417949D01*
Y418342D01*
X376913Y418736D01*
X377306D01*
X377700Y418342D01*
Y417555D01*
X377306Y417161D01*
X375339Y421097D02*
X375732Y420310D01*
X376519Y419523D01*
X377306D01*
X377700Y419916D01*
Y420704D01*
X377306Y421097D01*
X376913D01*
X376519Y420704D01*
Y419523D01*
X225700Y393400D02*
Y395761D01*
X226881D01*
X227274Y395368D01*
Y394581D01*
X226881Y394187D01*
X225700D01*
X226487D02*
X227274Y393400D01*
X228061Y395368D02*
X228455Y395761D01*
X229242D01*
X229636Y395368D01*
Y394974D01*
X229242Y394581D01*
X228849D01*
X229242D01*
X229636Y394187D01*
Y393794D01*
X229242Y393400D01*
X228455D01*
X228061Y393794D01*
X231604Y393400D02*
Y395761D01*
X230423Y394581D01*
X231997D01*
X244400Y392200D02*
X242039D01*
Y393381D01*
X242432Y393774D01*
X243219D01*
X243613Y393381D01*
Y392200D01*
Y392987D02*
X244400Y393774D01*
X242432Y394561D02*
X242039Y394955D01*
Y395742D01*
X242432Y396136D01*
X242826D01*
X243219Y395742D01*
Y395349D01*
Y395742D01*
X243613Y396136D01*
X244006D01*
X244400Y395742D01*
Y394955D01*
X244006Y394561D01*
X242432Y396923D02*
X242039Y397316D01*
Y398104D01*
X242432Y398497D01*
X242826D01*
X243219Y398104D01*
Y397710D01*
Y398104D01*
X243613Y398497D01*
X244006D01*
X244400Y398104D01*
Y397316D01*
X244006Y396923D01*
X238300Y458900D02*
Y461261D01*
X239481D01*
X239874Y460868D01*
Y460081D01*
X239481Y459687D01*
X238300D01*
X239087D02*
X239874Y458900D01*
X240661Y460868D02*
X241055Y461261D01*
X241842D01*
X242236Y460868D01*
Y460474D01*
X241842Y460081D01*
X241449D01*
X241842D01*
X242236Y459687D01*
Y459294D01*
X241842Y458900D01*
X241055D01*
X240661Y459294D01*
X244597Y458900D02*
X243023D01*
X244597Y460474D01*
Y460868D01*
X244204Y461261D01*
X243416D01*
X243023Y460868D01*
X237800Y437200D02*
Y439561D01*
X238981D01*
X239374Y439168D01*
Y438381D01*
X238981Y437987D01*
X237800D01*
X238587D02*
X239374Y437200D01*
X240161Y439168D02*
X240555Y439561D01*
X241342D01*
X241736Y439168D01*
Y438774D01*
X241342Y438381D01*
X240949D01*
X241342D01*
X241736Y437987D01*
Y437594D01*
X241342Y437200D01*
X240555D01*
X240161Y437594D01*
X242523Y437200D02*
X243310D01*
X242916D01*
Y439561D01*
X242523Y439168D01*
X248500Y436100D02*
Y438461D01*
X249681D01*
X250074Y438068D01*
Y437281D01*
X249681Y436887D01*
X248500D01*
X249287D02*
X250074Y436100D01*
X250861Y438068D02*
X251255Y438461D01*
X252042D01*
X252436Y438068D01*
Y437674D01*
X252042Y437281D01*
X251649D01*
X252042D01*
X252436Y436887D01*
Y436494D01*
X252042Y436100D01*
X251255D01*
X250861Y436494D01*
X253223Y438068D02*
X253616Y438461D01*
X254404D01*
X254797Y438068D01*
Y436494D01*
X254404Y436100D01*
X253616D01*
X253223Y436494D01*
Y438068D01*
X237800Y442800D02*
Y445161D01*
X238981D01*
X239374Y444768D01*
Y443981D01*
X238981Y443587D01*
X237800D01*
X238587D02*
X239374Y442800D01*
X241736D02*
X240161D01*
X241736Y444374D01*
Y444768D01*
X241342Y445161D01*
X240555D01*
X240161Y444768D01*
X242523Y443194D02*
X242916Y442800D01*
X243704D01*
X244097Y443194D01*
Y444768D01*
X243704Y445161D01*
X242916D01*
X242523Y444768D01*
Y444374D01*
X242916Y443981D01*
X244097D01*
X248500Y441700D02*
Y444061D01*
X249681D01*
X250074Y443668D01*
Y442881D01*
X249681Y442487D01*
X248500D01*
X249287D02*
X250074Y441700D01*
X252436D02*
X250861D01*
X252436Y443274D01*
Y443668D01*
X252042Y444061D01*
X251255D01*
X250861Y443668D01*
X253223D02*
X253616Y444061D01*
X254404D01*
X254797Y443668D01*
Y443274D01*
X254404Y442881D01*
X254797Y442487D01*
Y442094D01*
X254404Y441700D01*
X253616D01*
X253223Y442094D01*
Y442487D01*
X253616Y442881D01*
X253223Y443274D01*
Y443668D01*
X253616Y442881D02*
X254404D01*
X282000Y420200D02*
X279639D01*
Y421381D01*
X280032Y421774D01*
X280819D01*
X281213Y421381D01*
Y420200D01*
Y420987D02*
X282000Y421774D01*
Y424136D02*
Y422561D01*
X280426Y424136D01*
X280032D01*
X279639Y423742D01*
Y422955D01*
X280032Y422561D01*
X279639Y424923D02*
Y426497D01*
X280032D01*
X281606Y424923D01*
X282000D01*
X386800Y297500D02*
Y299861D01*
X387981D01*
X388374Y299468D01*
Y298681D01*
X387981Y298287D01*
X386800D01*
X387587D02*
X388374Y297500D01*
X390736D02*
X389161D01*
X390736Y299074D01*
Y299468D01*
X390342Y299861D01*
X389555D01*
X389161Y299468D01*
X393097Y299861D02*
X392310Y299468D01*
X391523Y298681D01*
Y297894D01*
X391916Y297500D01*
X392704D01*
X393097Y297894D01*
Y298287D01*
X392704Y298681D01*
X391523D01*
X336080Y336006D02*
Y338368D01*
X337261D01*
X337654Y337974D01*
Y337187D01*
X337261Y336793D01*
X336080D01*
X336867D02*
X337654Y336006D01*
X340016D02*
X338441D01*
X340016Y337580D01*
Y337974D01*
X339622Y338368D01*
X338835D01*
X338441Y337974D01*
X342377Y338368D02*
X340803D01*
Y337187D01*
X341590Y337580D01*
X341984D01*
X342377Y337187D01*
Y336400D01*
X341984Y336006D01*
X341196D01*
X340803Y336400D01*
X248500Y447200D02*
Y449561D01*
X249681D01*
X250074Y449168D01*
Y448381D01*
X249681Y447987D01*
X248500D01*
X249287D02*
X250074Y447200D01*
X252436D02*
X250861D01*
X252436Y448774D01*
Y449168D01*
X252042Y449561D01*
X251255D01*
X250861Y449168D01*
X254404Y447200D02*
Y449561D01*
X253223Y448381D01*
X254797D01*
X286500Y419900D02*
X284139D01*
Y421081D01*
X284532Y421474D01*
X285319D01*
X285713Y421081D01*
Y419900D01*
Y420687D02*
X286500Y421474D01*
Y423836D02*
Y422261D01*
X284926Y423836D01*
X284532D01*
X284139Y423442D01*
Y422655D01*
X284532Y422261D01*
Y424623D02*
X284139Y425016D01*
Y425804D01*
X284532Y426197D01*
X284926D01*
X285319Y425804D01*
Y425410D01*
Y425804D01*
X285713Y426197D01*
X286106D01*
X286500Y425804D01*
Y425016D01*
X286106Y424623D01*
X237800Y448300D02*
Y450661D01*
X238981D01*
X239374Y450268D01*
Y449481D01*
X238981Y449087D01*
X237800D01*
X238587D02*
X239374Y448300D01*
X241736D02*
X240161D01*
X241736Y449874D01*
Y450268D01*
X241342Y450661D01*
X240555D01*
X240161Y450268D01*
X244097Y448300D02*
X242523D01*
X244097Y449874D01*
Y450268D01*
X243704Y450661D01*
X242916D01*
X242523Y450268D01*
X300900Y420400D02*
X298539D01*
Y421581D01*
X298932Y421974D01*
X299719D01*
X300113Y421581D01*
Y420400D01*
Y421187D02*
X300900Y421974D01*
Y424336D02*
Y422761D01*
X299326Y424336D01*
X298932D01*
X298539Y423942D01*
Y423155D01*
X298932Y422761D01*
X300900Y425123D02*
Y425910D01*
Y425516D01*
X298539D01*
X298932Y425123D01*
X237800Y453900D02*
Y456261D01*
X238981D01*
X239374Y455868D01*
Y455081D01*
X238981Y454687D01*
X237800D01*
X238587D02*
X239374Y453900D01*
X241736D02*
X240161D01*
X241736Y455474D01*
Y455868D01*
X241342Y456261D01*
X240555D01*
X240161Y455868D01*
X242523D02*
X242916Y456261D01*
X243704D01*
X244097Y455868D01*
Y454294D01*
X243704Y453900D01*
X242916D01*
X242523Y454294D01*
Y455868D01*
X248500Y452800D02*
Y455161D01*
X249681D01*
X250074Y454768D01*
Y453981D01*
X249681Y453587D01*
X248500D01*
X249287D02*
X250074Y452800D01*
X250861D02*
X251649D01*
X251255D01*
Y455161D01*
X250861Y454768D01*
X252829Y453194D02*
X253223Y452800D01*
X254010D01*
X254404Y453194D01*
Y454768D01*
X254010Y455161D01*
X253223D01*
X252829Y454768D01*
Y454374D01*
X253223Y453981D01*
X254404D01*
X312200Y352600D02*
X309839D01*
Y353781D01*
X310232Y354174D01*
X311019D01*
X311413Y353781D01*
Y352600D01*
Y353387D02*
X312200Y354174D01*
Y354961D02*
Y355749D01*
Y355355D01*
X309839D01*
X310232Y354961D01*
Y356929D02*
X309839Y357323D01*
Y358110D01*
X310232Y358504D01*
X310626D01*
X311019Y358110D01*
X311413Y358504D01*
X311806D01*
X312200Y358110D01*
Y357323D01*
X311806Y356929D01*
X311413D01*
X311019Y357323D01*
X310626Y356929D01*
X310232D01*
X311019Y357323D02*
Y358110D01*
X325900Y339295D02*
Y341657D01*
X327081D01*
X327474Y341263D01*
Y340476D01*
X327081Y340082D01*
X325900D01*
X326687D02*
X327474Y339295D01*
X328261D02*
X329049D01*
X328655D01*
Y341657D01*
X328261Y341263D01*
X330229Y341657D02*
X331804D01*
Y341263D01*
X330229Y339689D01*
Y339295D01*
X318200Y339200D02*
Y341561D01*
X319381D01*
X319774Y341168D01*
Y340381D01*
X319381Y339987D01*
X318200D01*
X318987D02*
X319774Y339200D01*
X320561D02*
X321349D01*
X320955D01*
Y341561D01*
X320561Y341168D01*
X324104Y341561D02*
X323316Y341168D01*
X322529Y340381D01*
Y339594D01*
X322923Y339200D01*
X323710D01*
X324104Y339594D01*
Y339987D01*
X323710Y340381D01*
X322529D01*
X325900Y333595D02*
Y335957D01*
X327081D01*
X327474Y335563D01*
Y334776D01*
X327081Y334382D01*
X325900D01*
X326687D02*
X327474Y333595D01*
X328261D02*
X329049D01*
X328655D01*
Y335957D01*
X328261Y335563D01*
X331804Y335957D02*
X330229D01*
Y334776D01*
X331016Y335170D01*
X331410D01*
X331804Y334776D01*
Y333989D01*
X331410Y333595D01*
X330623D01*
X330229Y333989D01*
X318200Y333600D02*
Y335961D01*
X319381D01*
X319774Y335568D01*
Y334781D01*
X319381Y334387D01*
X318200D01*
X318987D02*
X319774Y333600D01*
X320561D02*
X321349D01*
X320955D01*
Y335961D01*
X320561Y335568D01*
X323710Y333600D02*
Y335961D01*
X322529Y334781D01*
X324104D01*
X318200Y328200D02*
Y330561D01*
X319381D01*
X319774Y330168D01*
Y329381D01*
X319381Y328987D01*
X318200D01*
X318987D02*
X319774Y328200D01*
X320561D02*
X321349D01*
X320955D01*
Y330561D01*
X320561Y330168D01*
X322529D02*
X322923Y330561D01*
X323710D01*
X324104Y330168D01*
Y329774D01*
X323710Y329381D01*
X323316D01*
X323710D01*
X324104Y328987D01*
Y328594D01*
X323710Y328200D01*
X322923D01*
X322529Y328594D01*
X325900Y328295D02*
Y330657D01*
X327081D01*
X327474Y330263D01*
Y329476D01*
X327081Y329082D01*
X325900D01*
X326687D02*
X327474Y328295D01*
X328261D02*
X329049D01*
X328655D01*
Y330657D01*
X328261Y330263D01*
X331804Y328295D02*
X330229D01*
X331804Y329870D01*
Y330263D01*
X331410Y330657D01*
X330623D01*
X330229Y330263D01*
X325900Y322695D02*
Y325057D01*
X327081D01*
X327474Y324663D01*
Y323876D01*
X327081Y323482D01*
X325900D01*
X326687D02*
X327474Y322695D01*
X328261D02*
X329049D01*
X328655D01*
Y325057D01*
X328261Y324663D01*
X330229Y322695D02*
X331016D01*
X330623D01*
Y325057D01*
X330229Y324663D01*
X318200Y322700D02*
Y325061D01*
X319381D01*
X319774Y324668D01*
Y323881D01*
X319381Y323487D01*
X318200D01*
X318987D02*
X319774Y322700D01*
X320561D02*
X321349D01*
X320955D01*
Y325061D01*
X320561Y324668D01*
X322529D02*
X322923Y325061D01*
X323710D01*
X324104Y324668D01*
Y323094D01*
X323710Y322700D01*
X322923D01*
X322529Y323094D01*
Y324668D01*
X264500Y354900D02*
Y357261D01*
X265681D01*
X266074Y356868D01*
Y356081D01*
X265681Y355687D01*
X264500D01*
X265287D02*
X266074Y354900D01*
X266861Y355294D02*
X267255Y354900D01*
X268042D01*
X268436Y355294D01*
Y356868D01*
X268042Y357261D01*
X267255D01*
X266861Y356868D01*
Y356474D01*
X267255Y356081D01*
X268436D01*
X259700Y354900D02*
Y357261D01*
X260881D01*
X261274Y356868D01*
Y356081D01*
X260881Y355687D01*
X259700D01*
X260487D02*
X261274Y354900D01*
X262061Y356868D02*
X262455Y357261D01*
X263242D01*
X263636Y356868D01*
Y356474D01*
X263242Y356081D01*
X263636Y355687D01*
Y355294D01*
X263242Y354900D01*
X262455D01*
X262061Y355294D01*
Y355687D01*
X262455Y356081D01*
X262061Y356474D01*
Y356868D01*
X262455Y356081D02*
X263242D01*
X255000Y354800D02*
Y357161D01*
X256181D01*
X256574Y356768D01*
Y355981D01*
X256181Y355587D01*
X255000D01*
X255787D02*
X256574Y354800D01*
X257361Y357161D02*
X258936D01*
Y356768D01*
X257361Y355194D01*
Y354800D01*
X241600Y364400D02*
Y366761D01*
X242781D01*
X243174Y366368D01*
Y365581D01*
X242781Y365187D01*
X241600D01*
X242387D02*
X243174Y364400D01*
X245536Y366761D02*
X244749Y366368D01*
X243961Y365581D01*
Y364794D01*
X244355Y364400D01*
X245142D01*
X245536Y364794D01*
Y365187D01*
X245142Y365581D01*
X243961D01*
X241200Y374800D02*
Y377161D01*
X242381D01*
X242774Y376768D01*
Y375981D01*
X242381Y375587D01*
X241200D01*
X241987D02*
X242774Y374800D01*
X245136Y377161D02*
X243561D01*
Y375981D01*
X244349Y376374D01*
X244742D01*
X245136Y375981D01*
Y375194D01*
X244742Y374800D01*
X243955D01*
X243561Y375194D01*
X236900Y428100D02*
X239261D01*
Y426919D01*
X238868Y426526D01*
X238081D01*
X237687Y426919D01*
Y428100D01*
Y427313D02*
X236900Y426526D01*
Y424558D02*
X239261D01*
X238081Y425739D01*
Y424164D01*
X263100Y411000D02*
X260739D01*
Y412181D01*
X261132Y412574D01*
X261919D01*
X262313Y412181D01*
Y411000D01*
Y411787D02*
X263100Y412574D01*
X261132Y413361D02*
X260739Y413755D01*
Y414542D01*
X261132Y414936D01*
X261526D01*
X261919Y414542D01*
Y414149D01*
Y414542D01*
X262313Y414936D01*
X262706D01*
X263100Y414542D01*
Y413755D01*
X262706Y413361D01*
X237200Y417300D02*
X239561D01*
Y416119D01*
X239168Y415726D01*
X238381D01*
X237987Y416119D01*
Y417300D01*
Y416513D02*
X237200Y415726D01*
Y413364D02*
Y414939D01*
X238774Y413364D01*
X239168D01*
X239561Y413758D01*
Y414545D01*
X239168Y414939D01*
X318400Y317300D02*
Y319661D01*
X319581D01*
X319974Y319268D01*
Y318481D01*
X319581Y318087D01*
X318400D01*
X319187D02*
X319974Y317300D01*
X320761D02*
X321549D01*
X321155D01*
Y319661D01*
X320761Y319268D01*
X399800Y406661D02*
Y404300D01*
X401374D01*
X402161Y406268D02*
X402555Y406661D01*
X403342D01*
X403736Y406268D01*
Y405874D01*
X403342Y405481D01*
X402949D01*
X403342D01*
X403736Y405087D01*
Y404694D01*
X403342Y404300D01*
X402555D01*
X402161Y404694D01*
X294800Y440566D02*
Y438205D01*
X296374D01*
X298736D02*
X297161D01*
X298736Y439779D01*
Y440173D01*
X298342Y440566D01*
X297555D01*
X297161Y440173D01*
X250439Y339100D02*
X252800D01*
Y340674D01*
Y341461D02*
Y342249D01*
Y341855D01*
X250439D01*
X250832Y341461D01*
X228074Y439961D02*
X227287D01*
X227681D01*
Y437994D01*
X227287Y437600D01*
X226894D01*
X226500Y437994D01*
X230436Y439961D02*
X228861D01*
Y438781D01*
X229649Y439174D01*
X230042D01*
X230436Y438781D01*
Y437994D01*
X230042Y437600D01*
X229255D01*
X228861Y437994D01*
X223874Y384661D02*
X223087D01*
X223481D01*
Y382694D01*
X223087Y382300D01*
X222694D01*
X222300Y382694D01*
X225842Y382300D02*
Y384661D01*
X224661Y383481D01*
X226236D01*
X330274Y320961D02*
X329487D01*
X329881D01*
Y318994D01*
X329487Y318600D01*
X329094D01*
X328700Y318994D01*
X332636Y318600D02*
X331061D01*
X332636Y320174D01*
Y320568D01*
X332242Y320961D01*
X331455D01*
X331061Y320568D01*
X330874Y435361D02*
X330087D01*
X330481D01*
Y433394D01*
X330087Y433000D01*
X329694D01*
X329300Y433394D01*
X331661Y433000D02*
X332449D01*
X332055D01*
Y435361D01*
X331661Y434968D01*
X371400Y472561D02*
Y470200D01*
X372581D01*
X372974Y470594D01*
Y472168D01*
X372581Y472561D01*
X371400D01*
X373761Y472168D02*
X374155Y472561D01*
X374942D01*
X375336Y472168D01*
Y471774D01*
X374942Y471381D01*
X374549D01*
X374942D01*
X375336Y470987D01*
Y470594D01*
X374942Y470200D01*
X374155D01*
X373761Y470594D01*
X361000Y389261D02*
Y386900D01*
X362181D01*
X362574Y387294D01*
Y388868D01*
X362181Y389261D01*
X361000D01*
X364936Y386900D02*
X363361D01*
X364936Y388474D01*
Y388868D01*
X364542Y389261D01*
X363755D01*
X363361Y388868D01*
X349040Y325089D02*
Y322727D01*
X350221D01*
X350614Y323121D01*
Y324695D01*
X350221Y325089D01*
X349040D01*
X351401Y322727D02*
X352189D01*
X351795D01*
Y325089D01*
X351401Y324695D01*
X406932Y365074D02*
X406539Y364681D01*
Y363894D01*
X406932Y363500D01*
X408506D01*
X408900Y363894D01*
Y364681D01*
X408506Y365074D01*
X406539Y367042D02*
Y366255D01*
X406932Y365861D01*
X408506D01*
X408900Y366255D01*
Y367042D01*
X408506Y367436D01*
X406932D01*
X406539Y367042D01*
X408900Y368223D02*
X406539D01*
X408900Y369797D01*
X406539D01*
X408900Y371765D02*
X406539D01*
X407719Y370584D01*
Y372159D01*
X405932Y327674D02*
X405539Y327281D01*
Y326494D01*
X405932Y326100D01*
X407506D01*
X407900Y326494D01*
Y327281D01*
X407506Y327674D01*
X405539Y329642D02*
Y328855D01*
X405932Y328461D01*
X407506D01*
X407900Y328855D01*
Y329642D01*
X407506Y330036D01*
X405932D01*
X405539Y329642D01*
X407900Y330823D02*
X405539D01*
X407900Y332397D01*
X405539D01*
X405932Y333184D02*
X405539Y333578D01*
Y334365D01*
X405932Y334759D01*
X406326D01*
X406719Y334365D01*
Y333972D01*
Y334365D01*
X407113Y334759D01*
X407506D01*
X407900Y334365D01*
Y333578D01*
X407506Y333184D01*
X270674Y483968D02*
X270281Y484361D01*
X269494D01*
X269100Y483968D01*
Y482394D01*
X269494Y482000D01*
X270281D01*
X270674Y482394D01*
X272642Y484361D02*
X271855D01*
X271461Y483968D01*
Y482394D01*
X271855Y482000D01*
X272642D01*
X273036Y482394D01*
Y483968D01*
X272642Y484361D01*
X273823Y482000D02*
Y484361D01*
X275397Y482000D01*
Y484361D01*
X277759Y482000D02*
X276184D01*
X277759Y483574D01*
Y483968D01*
X277365Y484361D01*
X276578D01*
X276184Y483968D01*
X274174Y298768D02*
X273781Y299161D01*
X272994D01*
X272600Y298768D01*
Y297194D01*
X272994Y296800D01*
X273781D01*
X274174Y297194D01*
X276142Y299161D02*
X275355D01*
X274961Y298768D01*
Y297194D01*
X275355Y296800D01*
X276142D01*
X276536Y297194D01*
Y298768D01*
X276142Y299161D01*
X277323Y296800D02*
Y299161D01*
X278897Y296800D01*
Y299161D01*
X279684Y296800D02*
X280471D01*
X280078D01*
Y299161D01*
X279684Y298768D01*
X238874Y312068D02*
X238481Y312461D01*
X237694D01*
X237300Y312068D01*
Y310494D01*
X237694Y310100D01*
X238481D01*
X238874Y310494D01*
X240842Y310100D02*
Y312461D01*
X239661Y311281D01*
X241236D01*
X243204Y310100D02*
Y312461D01*
X242023Y311281D01*
X243597D01*
X343432Y407174D02*
X343039Y406781D01*
Y405994D01*
X343432Y405600D01*
X345006D01*
X345400Y405994D01*
Y406781D01*
X345006Y407174D01*
X345400Y409142D02*
X343039D01*
X344219Y407961D01*
Y409536D01*
X343432Y410323D02*
X343039Y410716D01*
Y411504D01*
X343432Y411897D01*
X343826D01*
X344219Y411504D01*
Y411110D01*
Y411504D01*
X344613Y411897D01*
X345006D01*
X345400Y411504D01*
Y410716D01*
X345006Y410323D01*
X343232Y400191D02*
X342839Y399797D01*
Y399010D01*
X343232Y398616D01*
X344806D01*
X345200Y399010D01*
Y399797D01*
X344806Y400191D01*
X345200Y402159D02*
X342839D01*
X344019Y400978D01*
Y402552D01*
X345200Y404914D02*
Y403339D01*
X343626Y404914D01*
X343232D01*
X342839Y404520D01*
Y403733D01*
X343232Y403339D01*
X347032Y414324D02*
X346639Y413931D01*
Y413144D01*
X347032Y412750D01*
X348606D01*
X349000Y413144D01*
Y413931D01*
X348606Y414324D01*
X349000Y416292D02*
X346639D01*
X347819Y415111D01*
Y416686D01*
X349000Y417473D02*
Y418260D01*
Y417866D01*
X346639D01*
X347032Y417473D01*
X398574Y432168D02*
X398181Y432561D01*
X397394D01*
X397000Y432168D01*
Y430594D01*
X397394Y430200D01*
X398181D01*
X398574Y430594D01*
X400542Y430200D02*
Y432561D01*
X399361Y431381D01*
X400936D01*
X401723Y432168D02*
X402116Y432561D01*
X402904D01*
X403297Y432168D01*
Y430594D01*
X402904Y430200D01*
X402116D01*
X401723Y430594D01*
Y432168D01*
X390074Y432368D02*
X389681Y432761D01*
X388894D01*
X388500Y432368D01*
Y430794D01*
X388894Y430400D01*
X389681D01*
X390074Y430794D01*
X390861Y432368D02*
X391255Y432761D01*
X392042D01*
X392436Y432368D01*
Y431974D01*
X392042Y431581D01*
X391649D01*
X392042D01*
X392436Y431187D01*
Y430794D01*
X392042Y430400D01*
X391255D01*
X390861Y430794D01*
X393223D02*
X393616Y430400D01*
X394404D01*
X394797Y430794D01*
Y432368D01*
X394404Y432761D01*
X393616D01*
X393223Y432368D01*
Y431974D01*
X393616Y431581D01*
X394797D01*
X373232Y436674D02*
X372839Y436281D01*
Y435494D01*
X373232Y435100D01*
X374806D01*
X375200Y435494D01*
Y436281D01*
X374806Y436674D01*
X373232Y437461D02*
X372839Y437855D01*
Y438642D01*
X373232Y439036D01*
X373626D01*
X374019Y438642D01*
Y438249D01*
Y438642D01*
X374413Y439036D01*
X374806D01*
X375200Y438642D01*
Y437855D01*
X374806Y437461D01*
X372839Y439823D02*
Y441397D01*
X373232D01*
X374806Y439823D01*
X375200D01*
X373232Y425874D02*
X372839Y425481D01*
Y424694D01*
X373232Y424300D01*
X374806D01*
X375200Y424694D01*
Y425481D01*
X374806Y425874D01*
X373232Y426661D02*
X372839Y427055D01*
Y427842D01*
X373232Y428236D01*
X373626D01*
X374019Y427842D01*
Y427449D01*
Y427842D01*
X374413Y428236D01*
X374806D01*
X375200Y427842D01*
Y427055D01*
X374806Y426661D01*
X372839Y430597D02*
X373232Y429810D01*
X374019Y429023D01*
X374806D01*
X375200Y429416D01*
Y430204D01*
X374806Y430597D01*
X374413D01*
X374019Y430204D01*
Y429023D01*
X378832Y396274D02*
X378439Y395881D01*
Y395094D01*
X378832Y394700D01*
X380406D01*
X380800Y395094D01*
Y395881D01*
X380406Y396274D01*
X378832Y397061D02*
X378439Y397455D01*
Y398242D01*
X378832Y398636D01*
X379226D01*
X379619Y398242D01*
Y397849D01*
Y398242D01*
X380013Y398636D01*
X380406D01*
X380800Y398242D01*
Y397455D01*
X380406Y397061D01*
X378439Y400997D02*
Y399423D01*
X379619D01*
X379226Y400210D01*
Y400604D01*
X379619Y400997D01*
X380406D01*
X380800Y400604D01*
Y399816D01*
X380406Y399423D01*
X227074Y405068D02*
X226681Y405461D01*
X225894D01*
X225500Y405068D01*
Y403494D01*
X225894Y403100D01*
X226681D01*
X227074Y403494D01*
X227861Y405068D02*
X228255Y405461D01*
X229042D01*
X229436Y405068D01*
Y404674D01*
X229042Y404281D01*
X228649D01*
X229042D01*
X229436Y403887D01*
Y403494D01*
X229042Y403100D01*
X228255D01*
X227861Y403494D01*
X231404Y403100D02*
Y405461D01*
X230223Y404281D01*
X231797D01*
X251374Y407368D02*
X250981Y407761D01*
X250194D01*
X249800Y407368D01*
Y405794D01*
X250194Y405400D01*
X250981D01*
X251374Y405794D01*
X252161Y407368D02*
X252555Y407761D01*
X253342D01*
X253736Y407368D01*
Y406974D01*
X253342Y406581D01*
X252949D01*
X253342D01*
X253736Y406187D01*
Y405794D01*
X253342Y405400D01*
X252555D01*
X252161Y405794D01*
X254523Y407368D02*
X254916Y407761D01*
X255704D01*
X256097Y407368D01*
Y406974D01*
X255704Y406581D01*
X255310D01*
X255704D01*
X256097Y406187D01*
Y405794D01*
X255704Y405400D01*
X254916D01*
X254523Y405794D01*
X252374Y384568D02*
X251981Y384961D01*
X251194D01*
X250800Y384568D01*
Y382994D01*
X251194Y382600D01*
X251981D01*
X252374Y382994D01*
X253161Y384568D02*
X253555Y384961D01*
X254342D01*
X254736Y384568D01*
Y384174D01*
X254342Y383781D01*
X253949D01*
X254342D01*
X254736Y383387D01*
Y382994D01*
X254342Y382600D01*
X253555D01*
X253161Y382994D01*
X257097Y382600D02*
X255523D01*
X257097Y384174D01*
Y384568D01*
X256704Y384961D01*
X255916D01*
X255523Y384568D01*
X250074Y459668D02*
X249681Y460061D01*
X248894D01*
X248500Y459668D01*
Y458094D01*
X248894Y457700D01*
X249681D01*
X250074Y458094D01*
X250861Y459668D02*
X251255Y460061D01*
X252042D01*
X252436Y459668D01*
Y459274D01*
X252042Y458881D01*
X251649D01*
X252042D01*
X252436Y458487D01*
Y458094D01*
X252042Y457700D01*
X251255D01*
X250861Y458094D01*
X253223Y457700D02*
X254010D01*
X253616D01*
Y460061D01*
X253223Y459668D01*
X343274Y479568D02*
X342881Y479961D01*
X342094D01*
X341700Y479568D01*
Y477994D01*
X342094Y477600D01*
X342881D01*
X343274Y477994D01*
X344061Y479568D02*
X344455Y479961D01*
X345242D01*
X345636Y479568D01*
Y479174D01*
X345242Y478781D01*
X344849D01*
X345242D01*
X345636Y478387D01*
Y477994D01*
X345242Y477600D01*
X344455D01*
X344061Y477994D01*
X346423Y479568D02*
X346816Y479961D01*
X347604D01*
X347997Y479568D01*
Y477994D01*
X347604Y477600D01*
X346816D01*
X346423Y477994D01*
Y479568D01*
X290132Y456274D02*
X289739Y455881D01*
Y455094D01*
X290132Y454700D01*
X291706D01*
X292100Y455094D01*
Y455881D01*
X291706Y456274D01*
X292100Y458636D02*
Y457061D01*
X290526Y458636D01*
X290132D01*
X289739Y458242D01*
Y457455D01*
X290132Y457061D01*
X291706Y459423D02*
X292100Y459816D01*
Y460604D01*
X291706Y460997D01*
X290132D01*
X289739Y460604D01*
Y459816D01*
X290132Y459423D01*
X290526D01*
X290919Y459816D01*
Y460997D01*
X285132Y456174D02*
X284739Y455781D01*
Y454994D01*
X285132Y454600D01*
X286706D01*
X287100Y454994D01*
Y455781D01*
X286706Y456174D01*
X287100Y458536D02*
Y456961D01*
X285526Y458536D01*
X285132D01*
X284739Y458142D01*
Y457355D01*
X285132Y456961D01*
Y459323D02*
X284739Y459716D01*
Y460504D01*
X285132Y460897D01*
X285526D01*
X285919Y460504D01*
X286313Y460897D01*
X286706D01*
X287100Y460504D01*
Y459716D01*
X286706Y459323D01*
X286313D01*
X285919Y459716D01*
X285526Y459323D01*
X285132D01*
X285919Y459716D02*
Y460504D01*
X269932Y421274D02*
X269539Y420881D01*
Y420094D01*
X269932Y419700D01*
X271506D01*
X271900Y420094D01*
Y420881D01*
X271506Y421274D01*
X271900Y423636D02*
Y422061D01*
X270326Y423636D01*
X269932D01*
X269539Y423242D01*
Y422455D01*
X269932Y422061D01*
X269539Y425997D02*
Y424423D01*
X270719D01*
X270326Y425210D01*
Y425604D01*
X270719Y425997D01*
X271506D01*
X271900Y425604D01*
Y424816D01*
X271506Y424423D01*
X315432Y437874D02*
X315039Y437481D01*
Y436694D01*
X315432Y436300D01*
X317006D01*
X317400Y436694D01*
Y437481D01*
X317006Y437874D01*
X317400Y440236D02*
Y438661D01*
X315826Y440236D01*
X315432D01*
X315039Y439842D01*
Y439055D01*
X315432Y438661D01*
X317400Y442204D02*
X315039D01*
X316219Y441023D01*
Y442597D01*
X310732Y437674D02*
X310339Y437281D01*
Y436494D01*
X310732Y436100D01*
X312306D01*
X312700Y436494D01*
Y437281D01*
X312306Y437674D01*
X312700Y440036D02*
Y438461D01*
X311126Y440036D01*
X310732D01*
X310339Y439642D01*
Y438855D01*
X310732Y438461D01*
Y440823D02*
X310339Y441216D01*
Y442004D01*
X310732Y442397D01*
X311126D01*
X311519Y442004D01*
Y441610D01*
Y442004D01*
X311913Y442397D01*
X312306D01*
X312700Y442004D01*
Y441216D01*
X312306Y440823D01*
X275232Y421574D02*
X274839Y421181D01*
Y420394D01*
X275232Y420000D01*
X276806D01*
X277200Y420394D01*
Y421181D01*
X276806Y421574D01*
X277200Y423936D02*
Y422361D01*
X275626Y423936D01*
X275232D01*
X274839Y423542D01*
Y422755D01*
X275232Y422361D01*
X277200Y426297D02*
Y424723D01*
X275626Y426297D01*
X275232D01*
X274839Y425904D01*
Y425116D01*
X275232Y424723D01*
X289132Y421874D02*
X288739Y421481D01*
Y420694D01*
X289132Y420300D01*
X290706D01*
X291100Y420694D01*
Y421481D01*
X290706Y421874D01*
X291100Y424236D02*
Y422661D01*
X289526Y424236D01*
X289132D01*
X288739Y423842D01*
Y423055D01*
X289132Y422661D01*
X291100Y425023D02*
Y425810D01*
Y425416D01*
X288739D01*
X289132Y425023D01*
X294332Y421274D02*
X293939Y420881D01*
Y420094D01*
X294332Y419700D01*
X295906D01*
X296300Y420094D01*
Y420881D01*
X295906Y421274D01*
X296300Y423636D02*
Y422061D01*
X294726Y423636D01*
X294332D01*
X293939Y423242D01*
Y422455D01*
X294332Y422061D01*
Y424423D02*
X293939Y424816D01*
Y425604D01*
X294332Y425997D01*
X295906D01*
X296300Y425604D01*
Y424816D01*
X295906Y424423D01*
X294332D01*
X339574Y369368D02*
X339181Y369761D01*
X338394D01*
X338000Y369368D01*
Y367794D01*
X338394Y367400D01*
X339181D01*
X339574Y367794D01*
X340361Y367400D02*
X341149D01*
X340755D01*
Y369761D01*
X340361Y369368D01*
X342329Y367794D02*
X342723Y367400D01*
X343510D01*
X343904Y367794D01*
Y369368D01*
X343510Y369761D01*
X342723D01*
X342329Y369368D01*
Y368974D01*
X342723Y368581D01*
X343904D01*
X262374Y331268D02*
X261981Y331661D01*
X261194D01*
X260800Y331268D01*
Y329694D01*
X261194Y329300D01*
X261981D01*
X262374Y329694D01*
X263161Y329300D02*
X263949D01*
X263555D01*
Y331661D01*
X263161Y331268D01*
X265129D02*
X265523Y331661D01*
X266310D01*
X266704Y331268D01*
Y330874D01*
X266310Y330481D01*
X266704Y330087D01*
Y329694D01*
X266310Y329300D01*
X265523D01*
X265129Y329694D01*
Y330087D01*
X265523Y330481D01*
X265129Y330874D01*
Y331268D01*
X265523Y330481D02*
X266310D01*
X240232Y350374D02*
X239839Y349981D01*
Y349194D01*
X240232Y348800D01*
X241806D01*
X242200Y349194D01*
Y349981D01*
X241806Y350374D01*
X242200Y351161D02*
Y351949D01*
Y351555D01*
X239839D01*
X240232Y351161D01*
X239839Y353129D02*
Y354704D01*
X240232D01*
X241806Y353129D01*
X242200D01*
X240132Y356658D02*
X239739Y356264D01*
Y355477D01*
X240132Y355084D01*
X241706D01*
X242100Y355477D01*
Y356264D01*
X241706Y356658D01*
X242100Y357445D02*
Y358232D01*
Y357839D01*
X239739D01*
X240132Y357445D01*
X239739Y360987D02*
X240132Y360200D01*
X240919Y359413D01*
X241706D01*
X242100Y359806D01*
Y360594D01*
X241706Y360987D01*
X241313D01*
X240919Y360594D01*
Y359413D01*
X268574Y376668D02*
X268181Y377061D01*
X267394D01*
X267000Y376668D01*
Y375094D01*
X267394Y374700D01*
X268181D01*
X268574Y375094D01*
X269361Y374700D02*
X270149D01*
X269755D01*
Y377061D01*
X269361Y376668D01*
X272904Y377061D02*
X271329D01*
Y375881D01*
X272116Y376274D01*
X272510D01*
X272904Y375881D01*
Y375094D01*
X272510Y374700D01*
X271723D01*
X271329Y375094D01*
X265532Y411974D02*
X265139Y411581D01*
Y410794D01*
X265532Y410400D01*
X267106D01*
X267500Y410794D01*
Y411581D01*
X267106Y411974D01*
X267500Y412761D02*
Y413549D01*
Y413155D01*
X265139D01*
X265532Y412761D01*
X267500Y415910D02*
X265139D01*
X266319Y414729D01*
Y416304D01*
X315174Y414568D02*
X314781Y414961D01*
X313994D01*
X313600Y414568D01*
Y412994D01*
X313994Y412600D01*
X314781D01*
X315174Y412994D01*
X315961Y412600D02*
X316749D01*
X316355D01*
Y414961D01*
X315961Y414568D01*
X317929D02*
X318323Y414961D01*
X319110D01*
X319504Y414568D01*
Y414174D01*
X319110Y413781D01*
X318716D01*
X319110D01*
X319504Y413387D01*
Y412994D01*
X319110Y412600D01*
X318323D01*
X317929Y412994D01*
X315668Y367826D02*
X316061Y368219D01*
Y369006D01*
X315668Y369400D01*
X314094D01*
X313700Y369006D01*
Y368219D01*
X314094Y367826D01*
X313700Y367039D02*
Y366251D01*
Y366645D01*
X316061D01*
X315668Y367039D01*
X313700Y363496D02*
Y365071D01*
X315274Y363496D01*
X315668D01*
X316061Y363890D01*
Y364677D01*
X315668Y365071D01*
X270874Y356868D02*
X270481Y357261D01*
X269694D01*
X269300Y356868D01*
Y355294D01*
X269694Y354900D01*
X270481D01*
X270874Y355294D01*
X271661Y354900D02*
X272449D01*
X272055D01*
Y357261D01*
X271661Y356868D01*
X273629Y354900D02*
X274416D01*
X274023D01*
Y357261D01*
X273629Y356868D01*
X261374Y375068D02*
X260981Y375461D01*
X260194D01*
X259800Y375068D01*
Y373494D01*
X260194Y373100D01*
X260981D01*
X261374Y373494D01*
X262161Y373100D02*
X262949D01*
X262555D01*
Y375461D01*
X262161Y375068D01*
X264129D02*
X264523Y375461D01*
X265310D01*
X265704Y375068D01*
Y373494D01*
X265310Y373100D01*
X264523D01*
X264129Y373494D01*
Y375068D01*
X256474D02*
X256081Y375461D01*
X255294D01*
X254900Y375068D01*
Y373494D01*
X255294Y373100D01*
X256081D01*
X256474Y373494D01*
X257261D02*
X257655Y373100D01*
X258442D01*
X258836Y373494D01*
Y375068D01*
X258442Y375461D01*
X257655D01*
X257261Y375068D01*
Y374674D01*
X257655Y374281D01*
X258836D01*
X276274Y356968D02*
X275881Y357361D01*
X275094D01*
X274700Y356968D01*
Y355394D01*
X275094Y355000D01*
X275881D01*
X276274Y355394D01*
X277061Y356968D02*
X277455Y357361D01*
X278242D01*
X278636Y356968D01*
Y356574D01*
X278242Y356181D01*
X278636Y355787D01*
Y355394D01*
X278242Y355000D01*
X277455D01*
X277061Y355394D01*
Y355787D01*
X277455Y356181D01*
X277061Y356574D01*
Y356968D01*
X277455Y356181D02*
X278242D01*
X302874Y353768D02*
X302481Y354161D01*
X301694D01*
X301300Y353768D01*
Y352194D01*
X301694Y351800D01*
X302481D01*
X302874Y352194D01*
X303661Y354161D02*
X305236D01*
Y353768D01*
X303661Y352194D01*
Y351800D01*
X302774Y359468D02*
X302381Y359861D01*
X301594D01*
X301200Y359468D01*
Y357894D01*
X301594Y357500D01*
X302381D01*
X302774Y357894D01*
X305136Y359861D02*
X304349Y359468D01*
X303561Y358681D01*
Y357894D01*
X303955Y357500D01*
X304742D01*
X305136Y357894D01*
Y358287D01*
X304742Y358681D01*
X303561D01*
X293574Y335268D02*
X293181Y335661D01*
X292394D01*
X292000Y335268D01*
Y333694D01*
X292394Y333300D01*
X293181D01*
X293574Y333694D01*
X295936Y335661D02*
X294361D01*
Y334481D01*
X295149Y334874D01*
X295542D01*
X295936Y334481D01*
Y333694D01*
X295542Y333300D01*
X294755D01*
X294361Y333694D01*
X300374Y479468D02*
X299981Y479861D01*
X299194D01*
X298800Y479468D01*
Y477894D01*
X299194Y477500D01*
X299981D01*
X300374Y477894D01*
X302342Y477500D02*
Y479861D01*
X301161Y478681D01*
X302736D01*
X256074Y331268D02*
X255681Y331661D01*
X254894D01*
X254500Y331268D01*
Y329694D01*
X254894Y329300D01*
X255681D01*
X256074Y329694D01*
X256861Y331268D02*
X257255Y331661D01*
X258042D01*
X258436Y331268D01*
Y330874D01*
X258042Y330481D01*
X257649D01*
X258042D01*
X258436Y330087D01*
Y329694D01*
X258042Y329300D01*
X257255D01*
X256861Y329694D01*
D21*
X379200Y304501D02*
X381199D01*
X380200Y303501D02*
Y305500D01*
X376500Y319401D02*
X378499D01*
X377500Y318401D02*
Y320400D01*
D22*
X379600Y327800D02*
Y329299D01*
X380350D01*
X380600Y329050D01*
Y328550D01*
X380350Y328300D01*
X379600D01*
X380100D02*
X380600Y327800D01*
X381849D02*
Y329299D01*
X381100Y328550D01*
X382099D01*
X382599Y329050D02*
X382849Y329299D01*
X383349D01*
X383599Y329050D01*
Y328800D01*
X383349Y328550D01*
X383099D01*
X383349D01*
X383599Y328300D01*
Y328050D01*
X383349Y327800D01*
X382849D01*
X382599Y328050D01*
X383500Y295520D02*
X382000D01*
Y296270D01*
X382250Y296520D01*
X382750D01*
X383000Y296270D01*
Y295520D01*
Y296020D02*
X383500Y296520D01*
Y297769D02*
X382000D01*
X382750Y297020D01*
Y298019D01*
X383500Y299519D02*
Y298519D01*
X382500Y299519D01*
X382250D01*
X382000Y299269D01*
Y298769D01*
X382250Y298519D01*
D23*
X368760Y361301D02*
X368432Y360973D01*
Y360317D01*
X368760Y359990D01*
X370072D01*
X370400Y360317D01*
Y360973D01*
X370072Y361301D01*
X370400Y362941D02*
X368432D01*
X369416Y361957D01*
Y363269D01*
X368432Y363925D02*
Y365237D01*
X368760D01*
X370072Y363925D01*
X370400D01*
X387012Y347340D02*
X386684Y347668D01*
X386028D01*
X385700Y347340D01*
Y346028D01*
X386028Y345700D01*
X386684D01*
X387012Y346028D01*
X388652Y345700D02*
Y347668D01*
X387668Y346684D01*
X388980D01*
X390948Y347668D02*
X390292Y347340D01*
X389636Y346684D01*
Y346028D01*
X389964Y345700D01*
X390620D01*
X390948Y346028D01*
Y346356D01*
X390620Y346684D01*
X389636D01*
M02*
