G04*
G04 #@! TF.GenerationSoftware,Altium Limited,Altium Designer,18.1.7 (191)*
G04*
G04 Layer_Color=10275833*
%FSLAX25Y25*%
%MOIN*%
G70*
G01*
G75*
%ADD45R,0.10300X0.26900*%
%ADD46O,0.32296X0.12217*%
%ADD47R,0.10800X0.06800*%
%ADD48R,0.02800X0.03300*%
%ADD49R,0.05800X0.05800*%
%ADD50R,0.04300X0.04600*%
%ADD51R,0.03950X0.04737*%
%ADD52R,0.09068X0.13398*%
%ADD53R,0.04600X0.04300*%
%ADD54R,0.09068X0.04343*%
%ADD55R,0.03300X0.02800*%
%ADD56R,0.02756X0.01378*%
%ADD57R,0.01378X0.02756*%
%ADD58R,0.14961X0.22835*%
%ADD59R,0.08280X0.15367*%
%ADD60O,0.01981X0.06706*%
%ADD61O,0.06706X0.01981*%
%ADD62R,0.05524X0.06706*%
%ADD63O,0.03038X0.08478*%
%ADD64R,0.05524X0.14580*%
%ADD65R,0.13871X0.09265*%
%ADD66R,0.09800X0.15763*%
%ADD67R,0.09800X0.15784*%
%ADD68R,0.15763X0.09800*%
%ADD69R,0.15784X0.09800*%
%ADD70O,0.09055X0.05118*%
%ADD71C,0.15354*%
%ADD72O,0.06800X0.07300*%
%ADD73R,0.08674X0.07887*%
%ADD74O,0.08674X0.07887*%
%ADD75C,0.06706*%
%ADD76R,0.06706X0.06706*%
%ADD77C,0.06394*%
%ADD78C,0.09068*%
D45*
X331750Y459350D02*
D03*
D46*
X417900Y446300D02*
D03*
X419000Y474800D02*
D03*
D47*
X331900Y465100D02*
D03*
Y478600D02*
D03*
Y440000D02*
D03*
Y453500D02*
D03*
D48*
X383000Y303200D02*
D03*
Y308020D02*
D03*
X381700Y318100D02*
D03*
Y322920D02*
D03*
X384000Y409400D02*
D03*
Y404580D02*
D03*
X381000Y420000D02*
D03*
Y415180D02*
D03*
X243000Y397000D02*
D03*
Y392180D02*
D03*
X280800Y425100D02*
D03*
Y420280D02*
D03*
X388600Y308020D02*
D03*
Y303200D02*
D03*
X285400Y425100D02*
D03*
Y420280D02*
D03*
X299600Y425000D02*
D03*
Y420180D02*
D03*
X310900Y353200D02*
D03*
Y358020D02*
D03*
X266600Y353700D02*
D03*
Y358520D02*
D03*
X261800Y353700D02*
D03*
Y358520D02*
D03*
X257000Y353700D02*
D03*
Y358520D02*
D03*
X238000Y363100D02*
D03*
Y367920D02*
D03*
X237800Y377600D02*
D03*
Y372780D02*
D03*
X238100Y428500D02*
D03*
Y423680D02*
D03*
X261900Y415100D02*
D03*
Y410280D02*
D03*
X238200Y413900D02*
D03*
Y418720D02*
D03*
X316300Y441485D02*
D03*
Y436885D02*
D03*
X311600Y441485D02*
D03*
Y436885D02*
D03*
X286000Y460100D02*
D03*
Y455500D02*
D03*
X291000Y460100D02*
D03*
Y455500D02*
D03*
X294900Y425200D02*
D03*
Y420600D02*
D03*
X290100Y425200D02*
D03*
Y420600D02*
D03*
X276000Y425200D02*
D03*
Y420600D02*
D03*
X271100Y420500D02*
D03*
Y425100D02*
D03*
X266500Y415200D02*
D03*
Y410600D02*
D03*
X314700Y364600D02*
D03*
Y369200D02*
D03*
X270100Y365300D02*
D03*
Y369900D02*
D03*
X276700Y358300D02*
D03*
Y353700D02*
D03*
X271400Y353600D02*
D03*
Y358200D02*
D03*
X263200Y320500D02*
D03*
Y325100D02*
D03*
X258500Y320500D02*
D03*
Y325100D02*
D03*
X294000Y324500D02*
D03*
Y329100D02*
D03*
X379500Y404900D02*
D03*
Y409500D02*
D03*
X362500Y427500D02*
D03*
Y432100D02*
D03*
X353500Y413500D02*
D03*
Y418100D02*
D03*
X256900Y363600D02*
D03*
Y368200D02*
D03*
X261800Y363600D02*
D03*
Y368200D02*
D03*
D49*
X374300Y304100D02*
D03*
X366070Y304080D02*
D03*
X371600Y319000D02*
D03*
X363370Y318980D02*
D03*
X377900Y438000D02*
D03*
X369630Y438010D02*
D03*
X378000Y427500D02*
D03*
X369730Y427510D02*
D03*
D50*
X387900Y333900D02*
D03*
Y340800D02*
D03*
D51*
X337060Y325927D02*
D03*
X340800Y316873D02*
D03*
X344540Y325927D02*
D03*
D52*
X357179Y341500D02*
D03*
D53*
X374800Y361689D02*
D03*
X381700D02*
D03*
X409500Y426000D02*
D03*
X402600D02*
D03*
X388600D02*
D03*
X395500D02*
D03*
D54*
X379621Y350555D02*
D03*
Y341500D02*
D03*
Y332445D02*
D03*
D55*
X348500Y396000D02*
D03*
X353320D02*
D03*
X357000Y424500D02*
D03*
X352180D02*
D03*
X356900Y429500D02*
D03*
X352080D02*
D03*
X230800Y394300D02*
D03*
X225980D02*
D03*
X243500Y460000D02*
D03*
X238680D02*
D03*
X239000Y438200D02*
D03*
X243820D02*
D03*
X249100Y437100D02*
D03*
X253920D02*
D03*
X239000Y443767D02*
D03*
X243820D02*
D03*
X249100Y442667D02*
D03*
X253920D02*
D03*
X338380Y331306D02*
D03*
X343200D02*
D03*
X249100Y448233D02*
D03*
X253920D02*
D03*
X239000Y449333D02*
D03*
X243820D02*
D03*
X239000Y454900D02*
D03*
X243820D02*
D03*
X249100Y453800D02*
D03*
X253920D02*
D03*
X314500Y340600D02*
D03*
X309680D02*
D03*
X304300D02*
D03*
X299480D02*
D03*
X314500Y334900D02*
D03*
X309680D02*
D03*
X304300Y335000D02*
D03*
X299480D02*
D03*
X304300Y329600D02*
D03*
X299480D02*
D03*
X314500D02*
D03*
X309680D02*
D03*
X314500Y324000D02*
D03*
X309680D02*
D03*
X304300Y324100D02*
D03*
X299480D02*
D03*
X300100Y318600D02*
D03*
X304920D02*
D03*
X249000Y458700D02*
D03*
X253600D02*
D03*
X255600Y406500D02*
D03*
X251000D02*
D03*
X230900Y404200D02*
D03*
X226300D02*
D03*
X230900Y399300D02*
D03*
X226300D02*
D03*
X251400Y383500D02*
D03*
X256000D02*
D03*
X338400Y368600D02*
D03*
X343000D02*
D03*
X305300Y358600D02*
D03*
X300700D02*
D03*
X305400Y353200D02*
D03*
X300800D02*
D03*
X250600Y357000D02*
D03*
X246000D02*
D03*
X250700Y352100D02*
D03*
X246100D02*
D03*
X348400Y400500D02*
D03*
X353000D02*
D03*
Y405500D02*
D03*
X348400D02*
D03*
X320500Y407900D02*
D03*
X315900D02*
D03*
D56*
X280000Y436126D02*
D03*
Y438094D02*
D03*
Y440063D02*
D03*
Y442031D02*
D03*
Y444000D02*
D03*
Y445968D02*
D03*
Y447937D02*
D03*
Y449905D02*
D03*
Y451874D02*
D03*
Y453842D02*
D03*
Y455811D02*
D03*
Y457779D02*
D03*
X261103D02*
D03*
Y455811D02*
D03*
Y453842D02*
D03*
Y451874D02*
D03*
Y449905D02*
D03*
Y447937D02*
D03*
Y445968D02*
D03*
Y444000D02*
D03*
Y442031D02*
D03*
Y440063D02*
D03*
Y438094D02*
D03*
Y436126D02*
D03*
X268551Y344326D02*
D03*
Y342358D02*
D03*
Y340389D02*
D03*
Y338422D02*
D03*
Y336453D02*
D03*
Y334485D02*
D03*
Y332516D02*
D03*
Y330547D02*
D03*
Y328578D02*
D03*
Y326610D02*
D03*
Y324641D02*
D03*
Y322674D02*
D03*
X287449D02*
D03*
Y324641D02*
D03*
Y326610D02*
D03*
Y328578D02*
D03*
Y330547D02*
D03*
Y332516D02*
D03*
Y334485D02*
D03*
Y336453D02*
D03*
Y338422D02*
D03*
Y340389D02*
D03*
Y342358D02*
D03*
Y344326D02*
D03*
D57*
X277441Y460338D02*
D03*
X275473D02*
D03*
X273504D02*
D03*
X271536D02*
D03*
X269567D02*
D03*
X267599D02*
D03*
X265630D02*
D03*
X263662D02*
D03*
Y433567D02*
D03*
X265630D02*
D03*
X267599D02*
D03*
X269567D02*
D03*
X271536D02*
D03*
X273504D02*
D03*
X275473D02*
D03*
X277441D02*
D03*
X271111Y320114D02*
D03*
X273078D02*
D03*
X275047D02*
D03*
X277015D02*
D03*
X278984D02*
D03*
X280953D02*
D03*
X282922D02*
D03*
X284890D02*
D03*
Y346885D02*
D03*
X282922D02*
D03*
X280953D02*
D03*
X278984D02*
D03*
X277015D02*
D03*
X275047D02*
D03*
X273078D02*
D03*
X271111D02*
D03*
D58*
X270551Y446952D02*
D03*
X278000Y333501D02*
D03*
D59*
X289313Y439300D02*
D03*
X303487D02*
D03*
X259187Y340900D02*
D03*
X245013D02*
D03*
D60*
X277382Y411941D02*
D03*
X279351D02*
D03*
X281319D02*
D03*
X283289D02*
D03*
X285257D02*
D03*
X287226D02*
D03*
X289194D02*
D03*
X291162D02*
D03*
X293130D02*
D03*
X295099D02*
D03*
X297067D02*
D03*
X299037D02*
D03*
X301005D02*
D03*
X302974D02*
D03*
X304942D02*
D03*
X306910D02*
D03*
Y367059D02*
D03*
X304942D02*
D03*
X302974D02*
D03*
X301005D02*
D03*
X299037D02*
D03*
X297067D02*
D03*
X295099D02*
D03*
X293130D02*
D03*
X291162D02*
D03*
X289194D02*
D03*
X287226D02*
D03*
X285257D02*
D03*
X283289D02*
D03*
X281319D02*
D03*
X279351D02*
D03*
X277382D02*
D03*
D61*
X314494Y404264D02*
D03*
Y402295D02*
D03*
Y400327D02*
D03*
Y398358D02*
D03*
Y396390D02*
D03*
Y394421D02*
D03*
Y392453D02*
D03*
Y390484D02*
D03*
Y388516D02*
D03*
Y386547D02*
D03*
Y384579D02*
D03*
Y382610D02*
D03*
Y380642D02*
D03*
Y378673D02*
D03*
Y376705D02*
D03*
Y374736D02*
D03*
X269706D02*
D03*
Y376705D02*
D03*
Y378673D02*
D03*
Y380642D02*
D03*
Y382610D02*
D03*
Y384579D02*
D03*
Y386547D02*
D03*
Y388516D02*
D03*
Y390484D02*
D03*
Y392453D02*
D03*
Y394421D02*
D03*
Y396390D02*
D03*
Y398358D02*
D03*
Y400327D02*
D03*
Y402295D02*
D03*
Y404264D02*
D03*
D62*
X256950Y389800D02*
D03*
X249150Y400100D02*
D03*
X256850Y400200D02*
D03*
X249050Y389800D02*
D03*
D63*
X333000Y338950D02*
D03*
X338000D02*
D03*
X343000D02*
D03*
X348000D02*
D03*
X333000Y360250D02*
D03*
X338000D02*
D03*
X343000D02*
D03*
X348000D02*
D03*
X374000Y417650D02*
D03*
X369000D02*
D03*
X364000D02*
D03*
X359000D02*
D03*
X374000Y396350D02*
D03*
X369000D02*
D03*
X364000D02*
D03*
X359000D02*
D03*
D64*
X240500Y299976D02*
D03*
Y321000D02*
D03*
X310000Y479524D02*
D03*
Y458500D02*
D03*
X354000Y457988D02*
D03*
Y479012D02*
D03*
D65*
X400000Y416500D02*
D03*
Y393564D02*
D03*
D66*
X383000Y378000D02*
D03*
D67*
X354000Y378100D02*
D03*
D68*
X380500Y450500D02*
D03*
D69*
X380600Y479500D02*
D03*
D70*
X427811Y487575D02*
D03*
Y434425D02*
D03*
D71*
X404189Y475173D02*
D03*
Y446827D02*
D03*
D72*
X346400Y306300D02*
D03*
X336390D02*
D03*
D73*
X228500Y418500D02*
D03*
X335500Y425200D02*
D03*
X228500Y374500D02*
D03*
D74*
Y428500D02*
D03*
X228500Y438500D02*
D03*
Y448500D02*
D03*
X335500Y395200D02*
D03*
Y405200D02*
D03*
X335500Y415200D02*
D03*
X228500Y344500D02*
D03*
Y354500D02*
D03*
X228500Y364500D02*
D03*
D75*
X286500Y306000D02*
D03*
X276658D02*
D03*
X265158Y473500D02*
D03*
X275000D02*
D03*
D76*
X266815Y306000D02*
D03*
X284842Y473500D02*
D03*
D77*
X396850Y375185D02*
D03*
Y365342D02*
D03*
Y355500D02*
D03*
Y332343D02*
D03*
Y322499D02*
D03*
Y312657D02*
D03*
D78*
X354500Y327600D02*
D03*
Y443962D02*
D03*
X225700Y327600D02*
D03*
M02*
