G04*
G04 #@! TF.GenerationSoftware,Altium Limited,Altium Designer,18.1.7 (191)*
G04*
G04 Layer_Color=128*
%FSLAX25Y25*%
%MOIN*%
G70*
G01*
G75*
%ADD107C,0.00200*%
D107*
X426630Y487575D02*
X428992D01*
X427811Y486394D02*
Y488756D01*
X426630Y434425D02*
X428992D01*
X427811Y433244D02*
Y435606D01*
X398481Y475173D02*
X409898D01*
X404189Y469465D02*
Y480882D01*
X398481Y446828D02*
X409898D01*
X404189Y441119D02*
Y452536D01*
X344431Y306300D02*
X348369D01*
X346400Y304331D02*
Y308268D01*
X334421Y306300D02*
X338358D01*
X336390Y304331D02*
Y308268D01*
X226925Y418500D02*
X230075D01*
X228500Y416925D02*
Y420075D01*
X226925Y428500D02*
X230075D01*
X228500Y426925D02*
Y430075D01*
X226925Y438500D02*
X230075D01*
X228500Y436925D02*
Y440075D01*
X226925Y448500D02*
X230075D01*
X228500Y446925D02*
Y450075D01*
X284728Y306000D02*
X288272D01*
X286500Y304228D02*
Y307772D01*
X274886Y306000D02*
X278429D01*
X276658Y304228D02*
Y307772D01*
X265043Y306000D02*
X268587D01*
X266815Y304228D02*
Y307772D01*
X395050Y375185D02*
X398650D01*
X396850Y373385D02*
Y376985D01*
X395050Y365342D02*
X398650D01*
X396850Y363543D02*
Y367143D01*
X395050Y355500D02*
X398650D01*
X396850Y353700D02*
Y357300D01*
X395050Y332343D02*
X398650D01*
X396850Y330542D02*
Y334142D01*
X395050Y322500D02*
X398650D01*
X396850Y320700D02*
Y324300D01*
X395050Y312657D02*
X398650D01*
X396850Y310858D02*
Y314458D01*
X263386Y473500D02*
X266929D01*
X265158Y471728D02*
Y475272D01*
X273228Y473500D02*
X276772D01*
X275000Y471728D02*
Y475272D01*
X283071Y473500D02*
X286614D01*
X284842Y471728D02*
Y475272D01*
X333925Y395200D02*
X337075D01*
X335500Y393625D02*
Y396775D01*
X333925Y405200D02*
X337075D01*
X335500Y403625D02*
Y406775D01*
X333925Y415200D02*
X337075D01*
X335500Y413625D02*
Y416775D01*
X333925Y425200D02*
X337075D01*
X335500Y423625D02*
Y426775D01*
X226925Y344500D02*
X230075D01*
X228500Y342925D02*
Y346075D01*
X226925Y354500D02*
X230075D01*
X228500Y352925D02*
Y356075D01*
X226925Y364500D02*
X230075D01*
X228500Y362925D02*
Y366075D01*
X226925Y374500D02*
X230075D01*
X228500Y372925D02*
Y376075D01*
X263610Y412900D02*
X264791D01*
X264200Y412310D02*
Y413490D01*
X299110Y417300D02*
X300290D01*
X299700Y416710D02*
Y417891D01*
X350563Y327600D02*
X358437D01*
X354500Y323663D02*
Y331537D01*
X350563Y443962D02*
X358437D01*
X354500Y440025D02*
Y447899D01*
X340210Y350000D02*
X341390D01*
X340800Y349410D02*
Y350590D01*
X221763Y327600D02*
X229637D01*
X225700Y323663D02*
Y331537D01*
X403809Y485020D02*
X404990D01*
X404400Y484429D02*
Y485610D01*
X388809Y485020D02*
X389990D01*
X389400Y484429D02*
Y485610D01*
X373810Y485020D02*
X374991D01*
X374400Y484429D02*
Y485610D01*
X398392Y296700D02*
X399573D01*
X398983Y296110D02*
Y297290D01*
X383392Y296700D02*
X384574D01*
X383983Y296110D02*
Y297290D01*
X368392Y296700D02*
X369573D01*
X368983Y296110D02*
Y297290D01*
X353392Y296700D02*
X354573D01*
X353983Y296110D02*
Y297290D01*
X338392Y296700D02*
X339574D01*
X338983Y296110D02*
Y297290D01*
X323392Y296700D02*
X324573D01*
X323983Y296110D02*
Y297290D01*
X308392Y296700D02*
X309574D01*
X308983Y296110D02*
Y297290D01*
X293392Y296700D02*
X294573D01*
X293983Y296110D02*
Y297290D01*
X278392Y296700D02*
X279573D01*
X278983Y296110D02*
Y297290D01*
X263392Y296700D02*
X264574D01*
X263983Y296110D02*
Y297290D01*
X248392Y296700D02*
X249573D01*
X248983Y296110D02*
Y297290D01*
X409309Y305900D02*
X410491D01*
X409900Y305310D02*
Y306490D01*
X410409Y315400D02*
X411590D01*
X411000Y314809D02*
Y315990D01*
X410310Y322100D02*
X411490D01*
X410900Y321510D02*
Y322691D01*
X410110Y331400D02*
X411291D01*
X410700Y330809D02*
Y331991D01*
X410009Y339200D02*
X411191D01*
X410600Y338610D02*
Y339791D01*
X410009Y349400D02*
X411191D01*
X410600Y348810D02*
Y349991D01*
X410210Y359800D02*
X411390D01*
X410800Y359209D02*
Y360390D01*
X410036Y368849D02*
X411217D01*
X410626Y368259D02*
Y369440D01*
X410210Y380200D02*
X411390D01*
X410800Y379609D02*
Y380790D01*
X410494Y396000D02*
X411675D01*
X411085Y395409D02*
Y396590D01*
X410509Y406300D02*
X411691D01*
X411100Y405710D02*
Y406890D01*
X410494Y417500D02*
X411675D01*
X411085Y416910D02*
Y418090D01*
X358809Y485020D02*
X359991D01*
X359400Y484429D02*
Y485610D01*
X343409Y485020D02*
X344590D01*
X344000Y484429D02*
Y485610D01*
X329710Y485400D02*
X330890D01*
X330300Y484809D02*
Y485990D01*
X316910Y485200D02*
X318091D01*
X317500Y484610D02*
Y485790D01*
X294309Y484800D02*
X295491D01*
X294900Y484209D02*
Y485391D01*
X279237Y484700D02*
X280418D01*
X279827Y484109D02*
Y485290D01*
X260310Y484400D02*
X261491D01*
X260900Y483810D02*
Y484991D01*
X252509Y484500D02*
X253691D01*
X253100Y483910D02*
Y485090D01*
X243391Y484200D02*
X244572D01*
X243982Y483609D02*
Y484791D01*
X235067Y484400D02*
X236248D01*
X235658Y483810D02*
Y484991D01*
X228710Y484200D02*
X229890D01*
X229300Y483609D02*
Y484791D01*
X224273Y481700D02*
X225454D01*
X224863Y481110D02*
Y482291D01*
X220910Y476100D02*
X222091D01*
X221500Y475510D02*
Y476690D01*
X220709Y471300D02*
X221890D01*
X221300Y470710D02*
Y471890D01*
X220709Y467200D02*
X221890D01*
X221300Y466609D02*
Y467791D01*
X222110Y342140D02*
X223290D01*
X222700Y341549D02*
Y342730D01*
X222110Y336316D02*
X223290D01*
X222700Y335725D02*
Y336906D01*
X221510Y314678D02*
X222691D01*
X222100Y314088D02*
Y315269D01*
X233710Y296600D02*
X234891D01*
X234300Y296009D02*
Y297190D01*
X221309Y309900D02*
X222491D01*
X221900Y309310D02*
Y310490D01*
X221309Y301951D02*
X222491D01*
X221900Y301360D02*
Y302541D01*
X227710Y296600D02*
X228890D01*
X228300Y296009D02*
Y297190D01*
X407610Y298600D02*
X408790D01*
X408200Y298009D02*
Y299190D01*
X272810Y463400D02*
X273991D01*
X273400Y462810D02*
Y463990D01*
X266810Y462500D02*
X267990D01*
X267400Y461909D02*
Y463091D01*
X262283Y368473D02*
X263464D01*
X262873Y367883D02*
Y369064D01*
X245609Y416900D02*
X246791D01*
X246200Y416309D02*
Y417490D01*
X284666Y372157D02*
X285847D01*
X285257Y371566D02*
Y372747D01*
X266210Y370900D02*
X267390D01*
X266800Y370309D02*
Y371491D01*
X255002Y368173D02*
X256183D01*
X255592Y367583D02*
Y368764D01*
X250110Y359300D02*
X251290D01*
X250700Y358710D02*
Y359891D01*
X277010Y359100D02*
X278190D01*
X277600Y358509D02*
Y359690D01*
X250209Y375800D02*
X251391D01*
X250800Y375209D02*
Y376391D01*
X252309Y375900D02*
X253490D01*
X252900Y375309D02*
Y376490D01*
X277391Y316600D02*
X278572D01*
X277982Y316009D02*
Y317191D01*
X277509Y312500D02*
X278691D01*
X278100Y311910D02*
Y313090D01*
X268976Y314900D02*
X270158D01*
X269567Y314310D02*
Y315491D01*
X278509Y464900D02*
X279691D01*
X279100Y464310D02*
Y465490D01*
X269910Y463950D02*
X271091D01*
X270500Y463359D02*
Y464540D01*
X263709Y466100D02*
X264891D01*
X264300Y465510D02*
Y466690D01*
X277410Y320400D02*
X278590D01*
X278000Y319810D02*
Y320990D01*
X270110Y317100D02*
X271290D01*
X270700Y316510D02*
Y317690D01*
X276309Y462700D02*
X277490D01*
X276900Y462110D02*
Y463291D01*
X263709Y463300D02*
X264891D01*
X264300Y462710D02*
Y463891D01*
X272914Y462283D02*
X274095D01*
X273504Y461693D02*
Y462874D01*
X270009Y460200D02*
X271191D01*
X270600Y459610D02*
Y460790D01*
X281806Y458800D02*
X282987D01*
X282397Y458210D02*
Y459390D01*
X283502Y462800D02*
X284683D01*
X284092Y462210D02*
Y463390D01*
X281659Y460900D02*
X282840D01*
X282250Y460310D02*
Y461490D01*
X279710Y459900D02*
X280890D01*
X280300Y459309D02*
Y460491D01*
X259591Y317000D02*
X260772D01*
X260182Y316409D02*
Y317590D01*
X262610Y317148D02*
X263790D01*
X263200Y316557D02*
Y317739D01*
X265310Y318000D02*
X266491D01*
X265900Y317409D02*
Y318590D01*
X267001Y320394D02*
X268182D01*
X267592Y319804D02*
Y320985D01*
X274562Y317600D02*
X275744D01*
X275153Y317009D02*
Y318191D01*
X274457Y314832D02*
X275638D01*
X275047Y314242D02*
Y315423D01*
X280490Y313893D02*
X281671D01*
X281081Y313302D02*
Y314483D01*
X280490Y317470D02*
X281671D01*
X281081Y316879D02*
Y318060D01*
X342409Y374461D02*
X343590D01*
X343000Y373870D02*
Y375051D01*
X235409Y443200D02*
X236591D01*
X236000Y442610D02*
Y443790D01*
X235330Y449333D02*
X236511D01*
X235921Y448743D02*
Y449924D01*
X236560Y438200D02*
X237740D01*
X237150Y437609D02*
Y438791D01*
X311010Y444700D02*
X312191D01*
X311600Y444109D02*
Y445291D01*
X277810Y420700D02*
X278991D01*
X278400Y420110D02*
Y421290D01*
X302178Y422750D02*
X303359D01*
X302768Y422159D02*
Y423341D01*
X308809Y372521D02*
X309991D01*
X309400Y371930D02*
Y373112D01*
X256360Y404500D02*
X257540D01*
X256950Y403909D02*
Y405091D01*
X249909Y384079D02*
X251091D01*
X250500Y383488D02*
Y384670D01*
X248609Y459000D02*
X249791D01*
X249200Y458410D02*
Y459590D01*
X232410Y455900D02*
X233591D01*
X233000Y455309D02*
Y456491D01*
X265129Y340389D02*
X266310D01*
X265720Y339799D02*
Y340980D01*
X300009Y356542D02*
X301190D01*
X300600Y355952D02*
Y357133D01*
X272709Y368500D02*
X273890D01*
X273300Y367910D02*
Y369091D01*
X352410Y393900D02*
X353590D01*
X353000Y393309D02*
Y394491D01*
X347810Y408400D02*
X348991D01*
X348400Y407809D02*
Y408990D01*
X311210Y321300D02*
X312390D01*
X311800Y320709D02*
Y321890D01*
X321510Y330200D02*
X322691D01*
X322100Y329609D02*
Y330790D01*
X248110Y470500D02*
X249290D01*
X248700Y469909D02*
Y471091D01*
X246009Y470700D02*
X247190D01*
X246600Y470110D02*
Y471290D01*
X247709Y472700D02*
X248890D01*
X248300Y472110D02*
Y473290D01*
X245510Y472800D02*
X246691D01*
X246100Y472210D02*
Y473390D01*
X243510Y470900D02*
X244690D01*
X244100Y470309D02*
Y471490D01*
X257868Y453842D02*
X259049D01*
X258458Y453252D02*
Y454432D01*
X278761Y372249D02*
X279942D01*
X279351Y371658D02*
Y372839D01*
X250309Y470600D02*
X251490D01*
X250900Y470010D02*
Y471191D01*
X250209Y472700D02*
X251391D01*
X250800Y472110D02*
Y473290D01*
X252810Y470300D02*
X253991D01*
X253400Y469709D02*
Y470891D01*
X252509Y472600D02*
X253691D01*
X253100Y472010D02*
Y473190D01*
X257610Y459100D02*
X258790D01*
X258200Y458509D02*
Y459691D01*
X244110Y418400D02*
X245290D01*
X244700Y417809D02*
Y418991D01*
X246309Y418800D02*
X247491D01*
X246900Y418210D02*
Y419390D01*
X247609Y416800D02*
X248791D01*
X248200Y416210D02*
Y417390D01*
X248909Y418700D02*
X250091D01*
X249500Y418110D02*
Y419290D01*
X250009Y416800D02*
X251190D01*
X250600Y416210D02*
Y417390D01*
X251009Y418500D02*
X252190D01*
X251600Y417909D02*
Y419091D01*
X252110Y416700D02*
X253291D01*
X252700Y416110D02*
Y417290D01*
X246609Y420800D02*
X247791D01*
X247200Y420210D02*
Y421390D01*
X244009Y420700D02*
X245191D01*
X244600Y420110D02*
Y421290D01*
X249110Y420906D02*
X250290D01*
X249700Y420316D02*
Y421497D01*
X251509Y421000D02*
X252691D01*
X252100Y420409D02*
Y421591D01*
X253010Y419100D02*
X254190D01*
X253600Y418509D02*
Y419691D01*
X241210Y471000D02*
X242390D01*
X241800Y470409D02*
Y471591D01*
X238509Y470700D02*
X239690D01*
X239100Y470110D02*
Y471290D01*
X236509Y470700D02*
X237690D01*
X237100Y470110D02*
Y471290D01*
X243210Y472900D02*
X244391D01*
X243800Y472309D02*
Y473490D01*
X240910Y473041D02*
X242091D01*
X241500Y472451D02*
Y473632D01*
X238910Y473041D02*
X240090D01*
X239500Y472451D02*
Y473632D01*
X236509Y473100D02*
X237690D01*
X237100Y472509D02*
Y473691D01*
X256259Y444000D02*
X257440D01*
X256850Y443409D02*
Y444591D01*
X258109Y441900D02*
X259291D01*
X258700Y441309D02*
Y442490D01*
X256172Y440063D02*
X257353D01*
X256763Y439472D02*
Y440654D01*
X258209Y437900D02*
X259390D01*
X258800Y437310D02*
Y438490D01*
X287910Y355400D02*
X289090D01*
X288500Y354809D02*
Y355991D01*
X286610Y358400D02*
X287790D01*
X287200Y357809D02*
Y358991D01*
X280410Y391500D02*
X281591D01*
X281000Y390910D02*
Y392091D01*
X292540Y374500D02*
X293721D01*
X293130Y373909D02*
Y375091D01*
X274609Y386500D02*
X275791D01*
X275200Y385910D02*
Y387090D01*
X278010Y388100D02*
X279190D01*
X278600Y387509D02*
Y388690D01*
X264409Y440200D02*
X265591D01*
X265000Y439609D02*
Y440791D01*
X268109Y440200D02*
X269290D01*
X268700Y439609D02*
Y440791D01*
X271810Y440200D02*
X272990D01*
X272400Y439609D02*
Y440791D01*
X268109Y443900D02*
X269290D01*
X268700Y443309D02*
Y444490D01*
X282698Y374788D02*
X283879D01*
X283289Y374198D02*
Y375379D01*
X256335Y436126D02*
X257517D01*
X256926Y435535D02*
Y436717D01*
X257923Y445968D02*
X259104D01*
X258514Y445377D02*
Y446559D01*
X308910Y386547D02*
X310090D01*
X309500Y385956D02*
Y387138D01*
X306909Y388516D02*
X308090D01*
X307500Y387926D02*
Y389107D01*
X306909Y384579D02*
X308090D01*
X307500Y383988D02*
Y385170D01*
X290572Y372400D02*
X291753D01*
X291162Y371810D02*
Y372990D01*
X312709Y357700D02*
X313891D01*
X313300Y357109D02*
Y358291D01*
X245910Y454600D02*
X247091D01*
X246500Y454009D02*
Y455191D01*
X230710Y463700D02*
X231891D01*
X231300Y463109D02*
Y464291D01*
X296059Y326650D02*
X297240D01*
X296650Y326060D02*
Y327240D01*
X290510Y326600D02*
X291690D01*
X291100Y326009D02*
Y327190D01*
X289709Y429000D02*
X290891D01*
X290300Y428409D02*
Y429591D01*
X318709Y382500D02*
X319890D01*
X319300Y381909D02*
Y383090D01*
X309509Y396200D02*
X310690D01*
X310100Y395609D02*
Y396791D01*
X324110Y389400D02*
X325290D01*
X324700Y388809D02*
Y389990D01*
X322510Y380200D02*
X323691D01*
X323100Y379609D02*
Y380790D01*
X327509Y385600D02*
X328691D01*
X328100Y385010D02*
Y386191D01*
X325510Y367400D02*
X326691D01*
X326100Y366810D02*
Y367990D01*
X291709Y336453D02*
X292891D01*
X292300Y335862D02*
Y337043D01*
X289809Y338300D02*
X290990D01*
X290400Y337709D02*
Y338891D01*
X289968Y342484D02*
X291149D01*
X290559Y341894D02*
Y343075D01*
X291810Y340500D02*
X292990D01*
X292400Y339910D02*
Y341090D01*
X291610Y344500D02*
X292791D01*
X292200Y343910D02*
Y345091D01*
X289910Y334300D02*
X291090D01*
X290500Y333710D02*
Y334891D01*
X327309Y331000D02*
X328490D01*
X327900Y330410D02*
Y331591D01*
X282809Y437711D02*
X283991D01*
X283400Y437121D02*
Y438302D01*
X318910Y431600D02*
X320091D01*
X319500Y431009D02*
Y432191D01*
X316210Y431600D02*
X317390D01*
X316800Y431009D02*
Y432191D01*
X313509Y431600D02*
X314690D01*
X314100Y431009D02*
Y432191D01*
X311010Y431600D02*
X312191D01*
X311600Y431009D02*
Y432191D01*
X308310Y431600D02*
X309490D01*
X308900Y431009D02*
Y432191D01*
X299410Y456000D02*
X300590D01*
X300000Y455409D02*
Y456591D01*
X299609Y453500D02*
X300791D01*
X300200Y452910D02*
Y454090D01*
X302010Y453000D02*
X303190D01*
X302600Y452410D02*
Y453590D01*
X304809Y453500D02*
X305991D01*
X305400Y452910D02*
Y454090D01*
X303710Y455600D02*
X304890D01*
X304300Y455010D02*
Y456190D01*
X301410Y455300D02*
X302590D01*
X302000Y454709D02*
Y455891D01*
X305310Y459400D02*
X306490D01*
X305900Y458810D02*
Y459991D01*
X304110Y457600D02*
X305291D01*
X304700Y457010D02*
Y458190D01*
X301410Y457900D02*
X302590D01*
X302000Y457309D02*
Y458491D01*
X303209Y460300D02*
X304391D01*
X303800Y459710D02*
Y460890D01*
X305209Y462000D02*
X306391D01*
X305800Y461410D02*
Y462591D01*
X239610Y325000D02*
X240791D01*
X240200Y324410D02*
Y325590D01*
X239709Y327500D02*
X240891D01*
X240300Y326909D02*
Y328091D01*
X242409Y325100D02*
X243590D01*
X243000Y324510D02*
Y325691D01*
X242510Y327600D02*
X243690D01*
X243100Y327010D02*
Y328190D01*
X251909Y327100D02*
X253091D01*
X252500Y326509D02*
Y327691D01*
X251710Y324900D02*
X252890D01*
X252300Y324309D02*
Y325490D01*
X249209Y325100D02*
X250391D01*
X249800Y324510D02*
Y325691D01*
X247210Y325300D02*
X248391D01*
X247800Y324710D02*
Y325890D01*
X244709Y325300D02*
X245890D01*
X245300Y324710D02*
Y325890D01*
X249710Y327300D02*
X250890D01*
X250300Y326710D02*
Y327890D01*
X247210Y327500D02*
X248391D01*
X247800Y326909D02*
Y328091D01*
X244910Y327600D02*
X246091D01*
X245500Y327010D02*
Y328190D01*
X361310Y456600D02*
X362491D01*
X361900Y456009D02*
Y457191D01*
X359010Y456600D02*
X360191D01*
X359600Y456009D02*
Y457191D01*
X356710Y456600D02*
X357891D01*
X357300Y456009D02*
Y457191D01*
X361210Y459000D02*
X362390D01*
X361800Y458410D02*
Y459590D01*
X359010Y459000D02*
X360191D01*
X359600Y458410D02*
Y459590D01*
X356710Y459000D02*
X357891D01*
X357300Y458410D02*
Y459590D01*
X361210Y461400D02*
X362390D01*
X361800Y460810D02*
Y461990D01*
X359010Y461400D02*
X360191D01*
X359600Y460810D02*
Y461990D01*
X356710Y461400D02*
X357891D01*
X357300Y460810D02*
Y461990D01*
X361210Y463950D02*
X362390D01*
X361800Y463359D02*
Y464540D01*
X359010Y463950D02*
X360191D01*
X359600Y463359D02*
Y464540D01*
X356710Y463950D02*
X357891D01*
X357300Y463359D02*
Y464540D01*
X280909Y356000D02*
X282090D01*
X281500Y355410D02*
Y356591D01*
X280729Y407100D02*
X281910D01*
X281319Y406509D02*
Y407690D01*
X296609Y420600D02*
X297791D01*
X297200Y420010D02*
Y421191D01*
X287159Y420600D02*
X288340D01*
X287750Y420010D02*
Y421191D01*
X398410Y425900D02*
X399590D01*
X399000Y425310D02*
Y426490D01*
X402009Y430300D02*
X403191D01*
X402600Y429709D02*
Y430891D01*
X399460Y430200D02*
X400640D01*
X400050Y429609D02*
Y430791D01*
X397009Y430300D02*
X398190D01*
X397600Y429709D02*
Y430891D01*
X394409Y430300D02*
X395590D01*
X395000Y429709D02*
Y430891D01*
X405010Y407700D02*
X406190D01*
X405600Y407109D02*
Y408290D01*
X399309Y407700D02*
X400491D01*
X399900Y407109D02*
Y408290D01*
X396909Y432200D02*
X398091D01*
X397500Y431609D02*
Y432791D01*
X401710Y432100D02*
X402890D01*
X402300Y431509D02*
Y432690D01*
X399209Y432200D02*
X400390D01*
X399800Y431609D02*
Y432791D01*
X394510Y432300D02*
X395690D01*
X395100Y431709D02*
Y432891D01*
X268976Y430767D02*
X270158D01*
X269567Y430176D02*
Y431357D01*
X249110Y370900D02*
X250290D01*
X249700Y370309D02*
Y371491D01*
X290210Y360500D02*
X291390D01*
X290800Y359910D02*
Y361090D01*
X268409Y358200D02*
X269590D01*
X269000Y357610D02*
Y358790D01*
X251110Y334200D02*
X252291D01*
X251700Y333610D02*
Y334790D01*
X264210Y331900D02*
X265390D01*
X264800Y331310D02*
Y332490D01*
X264894Y334485D02*
X266075D01*
X265484Y333894D02*
Y335075D01*
X297110Y449500D02*
X298290D01*
X297700Y448910D02*
Y450091D01*
X294009Y449100D02*
X295191D01*
X294600Y448510D02*
Y449690D01*
X282010Y446600D02*
X283190D01*
X282600Y446009D02*
Y447191D01*
X306109Y401600D02*
X307291D01*
X306700Y401010D02*
Y402190D01*
X383109Y412800D02*
X384291D01*
X383700Y412210D02*
Y413390D01*
X372810Y407100D02*
X373991D01*
X373400Y406509D02*
Y407690D01*
X321416Y477600D02*
X323384D01*
X322400Y476616D02*
Y478584D01*
X324916Y411700D02*
X326884D01*
X325900Y410716D02*
Y412684D01*
X320416Y411900D02*
X322384D01*
X321400Y410916D02*
Y412884D01*
X279209Y325400D02*
X280391D01*
X279800Y324810D02*
Y325991D01*
X275510Y325400D02*
X276691D01*
X276100Y324810D02*
Y325991D01*
X271810Y325400D02*
X272990D01*
X272400Y324810D02*
Y325991D01*
X275510Y329100D02*
X276691D01*
X276100Y328509D02*
Y329691D01*
X271810Y329100D02*
X272990D01*
X272400Y328509D02*
Y329691D01*
X271810Y332800D02*
X272990D01*
X272400Y332209D02*
Y333390D01*
X275510Y332800D02*
X276691D01*
X276100Y332209D02*
Y333390D01*
X271810Y336500D02*
X272990D01*
X272400Y335910D02*
Y337090D01*
X279209Y336500D02*
X280391D01*
X279800Y335910D02*
Y337090D01*
X282909Y336500D02*
X284090D01*
X283500Y335910D02*
Y337090D01*
X275510Y340200D02*
X276691D01*
X276100Y339610D02*
Y340791D01*
X279209Y340200D02*
X280391D01*
X279800Y339610D02*
Y340791D01*
X282909Y340200D02*
X284090D01*
X283500Y339610D02*
Y340791D01*
X264409Y443900D02*
X265591D01*
X265000Y443309D02*
Y444490D01*
X275510Y443900D02*
X276691D01*
X276100Y443309D02*
Y444490D01*
X271810Y447600D02*
X272990D01*
X272400Y447010D02*
Y448190D01*
X275510Y447600D02*
X276691D01*
X276100Y447010D02*
Y448190D01*
X275510Y451300D02*
X276691D01*
X276100Y450709D02*
Y451891D01*
X271810Y451300D02*
X272990D01*
X272400Y450709D02*
Y451891D01*
X271810Y455000D02*
X272990D01*
X272400Y454410D02*
Y455590D01*
X269009Y452700D02*
X270191D01*
X269600Y452109D02*
Y453291D01*
M02*
