M48
;Layer_Color=9474304
;FILE_FORMAT=2:5
INCH,LZ
;TYPE=PLATED
T1F00S00C0.01181
T2F00S00C0.01968
T4F00S00C0.03150
T5F00S00C0.03543
T6F00S00C0.03600
T7F00S00C0.03937
T8F00S00C0.07874
T9F00S00C0.11417
%
T01
X0323983Y02967
X0338983
X0353983
X0368983
X0383983
X0398983
X04082Y02986
X04099Y03059
X0308983Y02967
X0293983
X0278983
X0263983
X0248983
X02343Y02966
X02283
X02219Y0301951
Y03099
X02221Y0314678
X02227Y0336316
Y034214
X02403Y03275
X02402Y0325
X0243Y03251
X02453Y03253
X02478
X02498Y03251
X02523Y03249
X02525Y03271
X02503Y03273
X02478Y03275
X02455Y03276
X02431
X02517Y03342
X0265484Y0334485
X02648Y03319
X02724Y03328
Y03291
Y03254
X02761
X02798
X0278Y03204
X0277982Y03166
X0275153Y03176
X0275047Y0314832
X02781Y03125
X0281081Y0313893
Y031747
X02707Y03171
X0269567Y03149
X02659Y0318
X02632Y0317148
X0260182Y0317
X0267592Y0320394
X02761Y03291
Y03328
X02724Y03365
X02798
X02835
Y03402
X02798
X02761
X026572Y0340389
X0269Y03582
X02776Y03591
X02815Y0356
X02885Y03554
X02872Y03584
X02908Y03605
X0291162Y03724
X029313Y03745
X0283289Y0374788
X0285257Y0372157
X0279351Y0372249
X02733Y03685
X02668Y03709
X0262873Y0368473
X0255592Y0368173
X02497Y03709
X02508Y03758
X02529Y03759
X02505Y0384079
X02507Y03593
X025695Y04045
X02642Y04129
X02527Y04167
X02506Y04168
X02482
X02462Y04169
X02469Y04188
X02472Y04208
X02497Y0420906
X02495Y04187
X02516Y04185
X02536Y04191
X02521Y0421
X02446Y04207
X02447Y04184
X023715Y04382
X0236Y04432
X0235921Y0449333
X0233Y04559
X02313Y04637
X02213Y04672
X02492Y0459
X02465Y04546
X0258458Y0453842
X02582Y04591
X02643Y04633
Y04661
X02674Y04625
X02705Y046395
X02734Y04634
X0273504Y0462283
X02769Y04627
X02791Y04649
X02803Y04599
X028225Y04609
X0282397Y04588
X0284092Y04628
X02706Y04602
X02724Y0455
Y04513
Y04476
X02761
Y04439
X02724Y04402
X02687
X0265
Y04439
X02687
X02696Y04527
X02761Y04513
X02826Y04466
X02834Y0437711
X02903Y0429
X028775Y04206
X02784Y04207
X0281319Y04071
X0281Y03915
X02786Y03881
X02752Y03865
X03075Y0384579
Y0388516
X03095Y0386547
X03101Y03962
X03067Y04016
X02997Y04173
X02972Y04206
X0302768Y042275
X03089Y04316
X03116
Y04447
X03054Y04535
X03043Y04556
X03047Y04576
X03059Y04594
X03058Y0462
X03038Y04603
X0302Y04579
Y04553
X03Y0456
X03002Y04535
X03026Y0453
X02977Y04495
X02946Y04491
X0258514Y0445968
X025685Y0444
X02587Y04419
X0256763Y0440063
X0256926Y0436126
X02588Y04379
X0269567Y0430767
X03094Y0372521
X03006Y0356542
X02922Y03445
X0290559Y0342484
X02924Y03405
X02923Y0336453
X02904Y03383
X02905Y03343
X02911Y03266
X029665Y032665
X03118Y03213
X03221Y03302
X03279Y0331
X03408Y035
X0343Y0374461
X03261Y03674
X03231Y03802
X03193Y03825
X03281Y03856
X03247Y03894
X0353Y03939
X03484Y04084
X03734Y04071
X03837Y04128
X03999Y04077
X04056
X04111Y04063
X0411085Y0396
X04108Y03802
X0410626Y0368849
X04108Y03598
X04106Y03494
Y03392
X04107Y03314
X04109Y03221
X0411Y03154
X0411085Y04175
X0399Y04259
X040005Y04302
X03998Y04322
X03975
X03976Y04303
X0395
X03951Y04323
X04023Y04321
X04026Y04303
X03619Y04566
X03596
X03573
Y0459
X03596
X03618
Y04614
X03596
X03573
Y046395
X03596
X03618
X03195Y04316
X03168
X03141
X03133Y03577
X03175Y04852
X03303Y04854
X0344Y048502
X03594
X03744
X03894
X04044
X02949Y04848
X0279827Y04847
X02609Y04844
X02531Y04845
X0243982Y04842
X0235658Y04844
X02293Y04842
X0224863Y04817
X02215Y04761
X02213Y04713
X02371Y04707
X02391
X02395Y0473041
X02415
X02418Y0471
X02441Y04709
X02438Y04729
X02461Y04728
X02483Y04727
X02508
X02509Y04706
X02487Y04705
X02466Y04707
X02534Y04703
X02531Y04726
X02371Y04731
T02
X03214Y04119
X03259Y04117
X03224Y04776
T04
X02285Y03445
Y03545
X02285Y03645
Y03745
Y04185
Y04285
X02285Y04385
Y04485
X03355Y04252
Y04152
X03355Y04052
Y03952
T05
X0266815Y0306
X0276658
X02865
X0284842Y04735
X0275
X0265158
T06
X039685Y0312657
Y03225
Y0332343
Y03555
Y0365342
Y0375185
T07
X033639Y03063
X03464
T08
X02257Y03276
X03545
Y0443962
T09
X0404189Y0446828
Y0475173
M30
