G04*
G04 #@! TF.GenerationSoftware,Altium Limited,Altium Designer,18.1.7 (191)*
G04*
G04 Layer_Color=16711935*
%FSLAX25Y25*%
%MOIN*%
G70*
G01*
G75*
G36*
X311378Y472943D02*
X308622D01*
Y483376D01*
X311378D01*
Y472943D01*
D02*
G37*
G36*
X355378Y472431D02*
X352622D01*
Y482864D01*
X355378D01*
Y472431D01*
D02*
G37*
G36*
X277933Y459157D02*
X276949D01*
Y460732D01*
X277933D01*
Y459157D01*
D02*
G37*
G36*
X275965D02*
X274981D01*
Y460732D01*
X275965D01*
Y459157D01*
D02*
G37*
G36*
X273996D02*
X273012D01*
Y460732D01*
X273996D01*
Y459157D01*
D02*
G37*
G36*
X272028D02*
X271044D01*
Y460732D01*
X272028D01*
Y459157D01*
D02*
G37*
G36*
X270059D02*
X269075D01*
Y460732D01*
X270059D01*
Y459157D01*
D02*
G37*
G36*
X268091D02*
X267107D01*
Y460732D01*
X268091D01*
Y459157D01*
D02*
G37*
G36*
X266122D02*
X265138D01*
Y460732D01*
X266122D01*
Y459157D01*
D02*
G37*
G36*
X264154D02*
X263170D01*
Y460732D01*
X264154D01*
Y459157D01*
D02*
G37*
G36*
X280394Y457287D02*
X278819D01*
Y458271D01*
X280394D01*
Y457287D01*
D02*
G37*
G36*
X262284D02*
X260709D01*
Y458271D01*
X262284D01*
Y457287D01*
D02*
G37*
G36*
X280394Y455319D02*
X278819D01*
Y456303D01*
X280394D01*
Y455319D01*
D02*
G37*
G36*
X262284D02*
X260709D01*
Y456303D01*
X262284D01*
Y455319D01*
D02*
G37*
G36*
X311378Y454635D02*
X308622D01*
Y465068D01*
X311378D01*
Y454635D01*
D02*
G37*
G36*
X355378Y454123D02*
X352622D01*
Y464557D01*
X355378D01*
Y454123D01*
D02*
G37*
G36*
X280394Y453350D02*
X278819D01*
Y454334D01*
X280394D01*
Y453350D01*
D02*
G37*
G36*
X262284D02*
X260709D01*
Y454334D01*
X262284D01*
Y453350D01*
D02*
G37*
G36*
X280394Y451382D02*
X278819D01*
Y452366D01*
X280394D01*
Y451382D01*
D02*
G37*
G36*
X262284D02*
X260709D01*
Y452366D01*
X262284D01*
Y451382D01*
D02*
G37*
G36*
X280394Y449413D02*
X278819D01*
Y450397D01*
X280394D01*
Y449413D01*
D02*
G37*
G36*
X262284D02*
X260709D01*
Y450397D01*
X262284D01*
Y449413D01*
D02*
G37*
G36*
X280394Y447445D02*
X278819D01*
Y448429D01*
X280394D01*
Y447445D01*
D02*
G37*
G36*
X262284D02*
X260709D01*
Y448429D01*
X262284D01*
Y447445D01*
D02*
G37*
G36*
X280394Y445476D02*
X278819D01*
Y446460D01*
X280394D01*
Y445476D01*
D02*
G37*
G36*
X262284D02*
X260709D01*
Y446460D01*
X262284D01*
Y445476D01*
D02*
G37*
G36*
X280394Y443508D02*
X278819D01*
Y444492D01*
X280394D01*
Y443508D01*
D02*
G37*
G36*
X262284D02*
X260709D01*
Y444492D01*
X262284D01*
Y443508D01*
D02*
G37*
G36*
X280394Y441539D02*
X278819D01*
Y442523D01*
X280394D01*
Y441539D01*
D02*
G37*
G36*
X262284D02*
X260709D01*
Y442523D01*
X262284D01*
Y441539D01*
D02*
G37*
G36*
X280394Y439571D02*
X278819D01*
Y440555D01*
X280394D01*
Y439571D01*
D02*
G37*
G36*
X262284D02*
X260709D01*
Y440555D01*
X262284D01*
Y439571D01*
D02*
G37*
G36*
X280394Y437602D02*
X278819D01*
Y438586D01*
X280394D01*
Y437602D01*
D02*
G37*
G36*
X262284D02*
X260709D01*
Y438586D01*
X262284D01*
Y437602D01*
D02*
G37*
G36*
X277835Y435732D02*
X263268D01*
Y458173D01*
X277835D01*
Y435732D01*
D02*
G37*
G36*
X280394Y435634D02*
X278819D01*
Y436618D01*
X280394D01*
Y435634D01*
D02*
G37*
G36*
X262284D02*
X260709D01*
Y436618D01*
X262284D01*
Y435634D01*
D02*
G37*
G36*
X277933Y433173D02*
X276949D01*
Y434748D01*
X277933D01*
Y433173D01*
D02*
G37*
G36*
X275965D02*
X274981D01*
Y434748D01*
X275965D01*
Y433173D01*
D02*
G37*
G36*
X273996D02*
X273012D01*
Y434748D01*
X273996D01*
Y433173D01*
D02*
G37*
G36*
X272028D02*
X271044D01*
Y434748D01*
X272028D01*
Y433173D01*
D02*
G37*
G36*
X270059D02*
X269075D01*
Y434748D01*
X270059D01*
Y433173D01*
D02*
G37*
G36*
X268091D02*
X267107D01*
Y434748D01*
X268091D01*
Y433173D01*
D02*
G37*
G36*
X266122D02*
X265138D01*
Y434748D01*
X266122D01*
Y433173D01*
D02*
G37*
G36*
X264154D02*
X263170D01*
Y434748D01*
X264154D01*
Y433173D01*
D02*
G37*
G36*
X304274Y432804D02*
X300534D01*
Y445796D01*
X304274D01*
Y432804D01*
D02*
G37*
G36*
X292266D02*
X288526D01*
Y445796D01*
X292266D01*
Y432804D01*
D02*
G37*
G36*
X374807Y415524D02*
X373193D01*
Y418811D01*
X374807D01*
Y415524D01*
D02*
G37*
G36*
X369807D02*
X368193D01*
Y418811D01*
X369807D01*
Y415524D01*
D02*
G37*
G36*
X364807D02*
X363193D01*
Y418811D01*
X364807D01*
Y415524D01*
D02*
G37*
G36*
X359807D02*
X358193D01*
Y418811D01*
X359807D01*
Y415524D01*
D02*
G37*
G36*
X405905Y412709D02*
X394094D01*
Y419008D01*
X405905D01*
Y412709D01*
D02*
G37*
G36*
X307344Y410760D02*
X306477D01*
Y413122D01*
X307344D01*
Y410760D01*
D02*
G37*
G36*
X305375D02*
X304508D01*
Y413122D01*
X305375D01*
Y410760D01*
D02*
G37*
G36*
X303407D02*
X302540D01*
Y413122D01*
X303407D01*
Y410760D01*
D02*
G37*
G36*
X301438D02*
X300571D01*
Y413122D01*
X301438D01*
Y410760D01*
D02*
G37*
G36*
X299470D02*
X298603D01*
Y413122D01*
X299470D01*
Y410760D01*
D02*
G37*
G36*
X297501D02*
X296634D01*
Y413122D01*
X297501D01*
Y410760D01*
D02*
G37*
G36*
X295533D02*
X294666D01*
Y413122D01*
X295533D01*
Y410760D01*
D02*
G37*
G36*
X293564D02*
X292697D01*
Y413122D01*
X293564D01*
Y410760D01*
D02*
G37*
G36*
X291596D02*
X290729D01*
Y413122D01*
X291596D01*
Y410760D01*
D02*
G37*
G36*
X289627D02*
X288760D01*
Y413122D01*
X289627D01*
Y410760D01*
D02*
G37*
G36*
X287659D02*
X286792D01*
Y413122D01*
X287659D01*
Y410760D01*
D02*
G37*
G36*
X285690D02*
X284823D01*
Y413122D01*
X285690D01*
Y410760D01*
D02*
G37*
G36*
X283722D02*
X282855D01*
Y413122D01*
X283722D01*
Y410760D01*
D02*
G37*
G36*
X281753D02*
X280886D01*
Y413122D01*
X281753D01*
Y410760D01*
D02*
G37*
G36*
X279785D02*
X278918D01*
Y413122D01*
X279785D01*
Y410760D01*
D02*
G37*
G36*
X277816D02*
X276949D01*
Y413122D01*
X277816D01*
Y410760D01*
D02*
G37*
G36*
X315769Y403831D02*
X313406D01*
Y404697D01*
X315769D01*
Y403831D01*
D02*
G37*
G36*
X270887D02*
X268525D01*
Y404697D01*
X270887D01*
Y403831D01*
D02*
G37*
G36*
X315769Y401862D02*
X313406D01*
Y402728D01*
X315769D01*
Y401862D01*
D02*
G37*
G36*
X270887D02*
X268525D01*
Y402728D01*
X270887D01*
Y401862D01*
D02*
G37*
G36*
X315769Y399894D02*
X313406D01*
Y400760D01*
X315769D01*
Y399894D01*
D02*
G37*
G36*
X270887D02*
X268525D01*
Y400760D01*
X270887D01*
Y399894D01*
D02*
G37*
G36*
X315769Y397925D02*
X313406D01*
Y398791D01*
X315769D01*
Y397925D01*
D02*
G37*
G36*
X270887D02*
X268525D01*
Y398791D01*
X270887D01*
Y397925D01*
D02*
G37*
G36*
X315769Y395957D02*
X313406D01*
Y396823D01*
X315769D01*
Y395957D01*
D02*
G37*
G36*
X270887D02*
X268525D01*
Y396823D01*
X270887D01*
Y395957D01*
D02*
G37*
G36*
X374807Y395189D02*
X373193D01*
Y398476D01*
X374807D01*
Y395189D01*
D02*
G37*
G36*
X369807D02*
X368193D01*
Y398476D01*
X369807D01*
Y395189D01*
D02*
G37*
G36*
X364807D02*
X363193D01*
Y398476D01*
X364807D01*
Y395189D01*
D02*
G37*
G36*
X359807D02*
X358193D01*
Y398476D01*
X359807D01*
Y395189D01*
D02*
G37*
G36*
X315769Y393988D02*
X313406D01*
Y394854D01*
X315769D01*
Y393988D01*
D02*
G37*
G36*
X270887D02*
X268525D01*
Y394854D01*
X270887D01*
Y393988D01*
D02*
G37*
G36*
X315769Y392020D02*
X313406D01*
Y392886D01*
X315769D01*
Y392020D01*
D02*
G37*
G36*
X270887D02*
X268525D01*
Y392886D01*
X270887D01*
Y392020D01*
D02*
G37*
G36*
X405905Y391056D02*
X394094D01*
Y397355D01*
X405905D01*
Y391056D01*
D02*
G37*
G36*
X315769Y390051D02*
X313406D01*
Y390917D01*
X315769D01*
Y390051D01*
D02*
G37*
G36*
X270887D02*
X268525D01*
Y390917D01*
X270887D01*
Y390051D01*
D02*
G37*
G36*
X315769Y388083D02*
X313406D01*
Y388949D01*
X315769D01*
Y388083D01*
D02*
G37*
G36*
X270887D02*
X268525D01*
Y388949D01*
X270887D01*
Y388083D01*
D02*
G37*
G36*
X315769Y386114D02*
X313406D01*
Y386980D01*
X315769D01*
Y386114D01*
D02*
G37*
G36*
X270887D02*
X268525D01*
Y386980D01*
X270887D01*
Y386114D01*
D02*
G37*
G36*
X315769Y384146D02*
X313406D01*
Y385012D01*
X315769D01*
Y384146D01*
D02*
G37*
G36*
X270887D02*
X268525D01*
Y385012D01*
X270887D01*
Y384146D01*
D02*
G37*
G36*
X315769Y382177D02*
X313406D01*
Y383043D01*
X315769D01*
Y382177D01*
D02*
G37*
G36*
X270887D02*
X268525D01*
Y383043D01*
X270887D01*
Y382177D01*
D02*
G37*
G36*
X315769Y380209D02*
X313406D01*
Y381075D01*
X315769D01*
Y380209D01*
D02*
G37*
G36*
X270887D02*
X268525D01*
Y381075D01*
X270887D01*
Y380209D01*
D02*
G37*
G36*
X315769Y378240D02*
X313406D01*
Y379106D01*
X315769D01*
Y378240D01*
D02*
G37*
G36*
X270887D02*
X268525D01*
Y379106D01*
X270887D01*
Y378240D01*
D02*
G37*
G36*
X315769Y376272D02*
X313406D01*
Y377138D01*
X315769D01*
Y376272D01*
D02*
G37*
G36*
X270887D02*
X268525D01*
Y377138D01*
X270887D01*
Y376272D01*
D02*
G37*
G36*
X315769Y374303D02*
X313406D01*
Y375169D01*
X315769D01*
Y374303D01*
D02*
G37*
G36*
X270887D02*
X268525D01*
Y375169D01*
X270887D01*
Y374303D01*
D02*
G37*
G36*
X397631Y376353D02*
X398019Y375966D01*
X398228Y375459D01*
Y374911D01*
X398019Y374404D01*
X397631Y374017D01*
X397125Y373807D01*
X396576D01*
X396070Y374017D01*
X395682Y374404D01*
X395472Y374911D01*
Y375459D01*
X395682Y375966D01*
X396070Y376353D01*
X396576Y376563D01*
X397125D01*
X397631Y376353D01*
D02*
G37*
G36*
X307344Y365878D02*
X306477D01*
Y368240D01*
X307344D01*
Y365878D01*
D02*
G37*
G36*
X305375D02*
X304508D01*
Y368240D01*
X305375D01*
Y365878D01*
D02*
G37*
G36*
X303407D02*
X302540D01*
Y368240D01*
X303407D01*
Y365878D01*
D02*
G37*
G36*
X301438D02*
X300571D01*
Y368240D01*
X301438D01*
Y365878D01*
D02*
G37*
G36*
X299470D02*
X298603D01*
Y368240D01*
X299470D01*
Y365878D01*
D02*
G37*
G36*
X297501D02*
X296634D01*
Y368240D01*
X297501D01*
Y365878D01*
D02*
G37*
G36*
X295533D02*
X294666D01*
Y368240D01*
X295533D01*
Y365878D01*
D02*
G37*
G36*
X293564D02*
X292697D01*
Y368240D01*
X293564D01*
Y365878D01*
D02*
G37*
G36*
X291596D02*
X290729D01*
Y368240D01*
X291596D01*
Y365878D01*
D02*
G37*
G36*
X289627D02*
X288760D01*
Y368240D01*
X289627D01*
Y365878D01*
D02*
G37*
G36*
X287659D02*
X286792D01*
Y368240D01*
X287659D01*
Y365878D01*
D02*
G37*
G36*
X285690D02*
X284823D01*
Y368240D01*
X285690D01*
Y365878D01*
D02*
G37*
G36*
X283722D02*
X282855D01*
Y368240D01*
X283722D01*
Y365878D01*
D02*
G37*
G36*
X281753D02*
X280886D01*
Y368240D01*
X281753D01*
Y365878D01*
D02*
G37*
G36*
X279785D02*
X278918D01*
Y368240D01*
X279785D01*
Y365878D01*
D02*
G37*
G36*
X277816D02*
X276949D01*
Y368240D01*
X277816D01*
Y365878D01*
D02*
G37*
G36*
X397631Y366510D02*
X398019Y366123D01*
X398228Y365616D01*
Y365068D01*
X398019Y364561D01*
X397631Y364174D01*
X397125Y363964D01*
X396576D01*
X396070Y364174D01*
X395682Y364561D01*
X395472Y365068D01*
Y365616D01*
X395682Y366123D01*
X396070Y366510D01*
X396576Y366720D01*
X397125D01*
X397631Y366510D01*
D02*
G37*
G36*
X348807Y358124D02*
X347193D01*
Y361411D01*
X348807D01*
Y358124D01*
D02*
G37*
G36*
X343807D02*
X342193D01*
Y361411D01*
X343807D01*
Y358124D01*
D02*
G37*
G36*
X338807D02*
X337193D01*
Y361411D01*
X338807D01*
Y358124D01*
D02*
G37*
G36*
X333807D02*
X332193D01*
Y361411D01*
X333807D01*
Y358124D01*
D02*
G37*
G36*
X397631Y356668D02*
X398019Y356281D01*
X398228Y355774D01*
Y355226D01*
X398019Y354719D01*
X397631Y354332D01*
X397125Y354122D01*
X396576D01*
X396070Y354332D01*
X395682Y354719D01*
X395472Y355226D01*
Y355774D01*
X395682Y356281D01*
X396070Y356668D01*
X396576Y356878D01*
X397125D01*
X397631Y356668D01*
D02*
G37*
G36*
X285382Y345705D02*
X284397D01*
Y347280D01*
X285382D01*
Y345705D01*
D02*
G37*
G36*
X283414D02*
X282429D01*
Y347280D01*
X283414D01*
Y345705D01*
D02*
G37*
G36*
X281445D02*
X280460D01*
Y347280D01*
X281445D01*
Y345705D01*
D02*
G37*
G36*
X279477D02*
X278492D01*
Y347280D01*
X279477D01*
Y345705D01*
D02*
G37*
G36*
X277508D02*
X276523D01*
Y347280D01*
X277508D01*
Y345705D01*
D02*
G37*
G36*
X275540D02*
X274555D01*
Y347280D01*
X275540D01*
Y345705D01*
D02*
G37*
G36*
X273571D02*
X272586D01*
Y347280D01*
X273571D01*
Y345705D01*
D02*
G37*
G36*
X271603D02*
X270618D01*
Y347280D01*
X271603D01*
Y345705D01*
D02*
G37*
G36*
X287843Y343834D02*
X286268D01*
Y344819D01*
X287843D01*
Y343834D01*
D02*
G37*
G36*
X269732D02*
X268157D01*
Y344819D01*
X269732D01*
Y343834D01*
D02*
G37*
G36*
X287843Y341866D02*
X286268D01*
Y342851D01*
X287843D01*
Y341866D01*
D02*
G37*
G36*
X269732D02*
X268157D01*
Y342851D01*
X269732D01*
Y341866D01*
D02*
G37*
G36*
X287843Y339897D02*
X286268D01*
Y340882D01*
X287843D01*
Y339897D01*
D02*
G37*
G36*
X269732D02*
X268157D01*
Y340882D01*
X269732D01*
Y339897D01*
D02*
G37*
G36*
X287843Y337929D02*
X286268D01*
Y338914D01*
X287843D01*
Y337929D01*
D02*
G37*
G36*
X269732D02*
X268157D01*
Y338914D01*
X269732D01*
Y337929D01*
D02*
G37*
G36*
X348807Y337789D02*
X347193D01*
Y341076D01*
X348807D01*
Y337789D01*
D02*
G37*
G36*
X343807D02*
X342193D01*
Y341076D01*
X343807D01*
Y337789D01*
D02*
G37*
G36*
X338807D02*
X337193D01*
Y341076D01*
X338807D01*
Y337789D01*
D02*
G37*
G36*
X333807D02*
X332193D01*
Y341076D01*
X333807D01*
Y337789D01*
D02*
G37*
G36*
X287843Y335960D02*
X286268D01*
Y336945D01*
X287843D01*
Y335960D01*
D02*
G37*
G36*
X269732D02*
X268157D01*
Y336945D01*
X269732D01*
Y335960D01*
D02*
G37*
G36*
X259974Y334404D02*
X256234D01*
Y347396D01*
X259974D01*
Y334404D01*
D02*
G37*
G36*
X247966D02*
X244226D01*
Y347396D01*
X247966D01*
Y334404D01*
D02*
G37*
G36*
X287843Y333992D02*
X286268D01*
Y334977D01*
X287843D01*
Y333992D01*
D02*
G37*
G36*
X269732D02*
X268157D01*
Y334977D01*
X269732D01*
Y333992D01*
D02*
G37*
G36*
X287843Y332023D02*
X286268D01*
Y333008D01*
X287843D01*
Y332023D01*
D02*
G37*
G36*
X269732D02*
X268157D01*
Y333008D01*
X269732D01*
Y332023D01*
D02*
G37*
G36*
X397631Y333511D02*
X398019Y333123D01*
X398228Y332617D01*
Y332068D01*
X398019Y331562D01*
X397631Y331174D01*
X397125Y330964D01*
X396576D01*
X396070Y331174D01*
X395682Y331562D01*
X395472Y332068D01*
Y332617D01*
X395682Y333123D01*
X396070Y333511D01*
X396576Y333720D01*
X397125D01*
X397631Y333511D01*
D02*
G37*
G36*
X287843Y330055D02*
X286268D01*
Y331040D01*
X287843D01*
Y330055D01*
D02*
G37*
G36*
X269732D02*
X268157D01*
Y331040D01*
X269732D01*
Y330055D01*
D02*
G37*
G36*
X287843Y328086D02*
X286268D01*
Y329071D01*
X287843D01*
Y328086D01*
D02*
G37*
G36*
X269732D02*
X268157D01*
Y329071D01*
X269732D01*
Y328086D01*
D02*
G37*
G36*
X287843Y326118D02*
X286268D01*
Y327103D01*
X287843D01*
Y326118D01*
D02*
G37*
G36*
X269732D02*
X268157D01*
Y327103D01*
X269732D01*
Y326118D01*
D02*
G37*
G36*
X345327Y324550D02*
X343753D01*
Y326125D01*
X345327D01*
Y324550D01*
D02*
G37*
G36*
X337847D02*
X336273D01*
Y326125D01*
X337847D01*
Y324550D01*
D02*
G37*
G36*
X287843Y324149D02*
X286268D01*
Y325134D01*
X287843D01*
Y324149D01*
D02*
G37*
G36*
X269732D02*
X268157D01*
Y325134D01*
X269732D01*
Y324149D01*
D02*
G37*
G36*
X285284Y322280D02*
X270717D01*
Y344721D01*
X285284D01*
Y322280D01*
D02*
G37*
G36*
X287843Y322181D02*
X286268D01*
Y323166D01*
X287843D01*
Y322181D01*
D02*
G37*
G36*
X269732D02*
X268157D01*
Y323166D01*
X269732D01*
Y322181D01*
D02*
G37*
G36*
X397631Y323668D02*
X398019Y323280D01*
X398228Y322774D01*
Y322225D01*
X398019Y321719D01*
X397631Y321331D01*
X397125Y321122D01*
X396576D01*
X396070Y321331D01*
X395682Y321719D01*
X395472Y322225D01*
Y322774D01*
X395682Y323280D01*
X396070Y323668D01*
X396576Y323878D01*
X397125D01*
X397631Y323668D01*
D02*
G37*
G36*
X285382Y319720D02*
X284397D01*
Y321295D01*
X285382D01*
Y319720D01*
D02*
G37*
G36*
X283414D02*
X282429D01*
Y321295D01*
X283414D01*
Y319720D01*
D02*
G37*
G36*
X281445D02*
X280460D01*
Y321295D01*
X281445D01*
Y319720D01*
D02*
G37*
G36*
X279477D02*
X278492D01*
Y321295D01*
X279477D01*
Y319720D01*
D02*
G37*
G36*
X277508D02*
X276523D01*
Y321295D01*
X277508D01*
Y319720D01*
D02*
G37*
G36*
X275540D02*
X274555D01*
Y321295D01*
X275540D01*
Y319720D01*
D02*
G37*
G36*
X273571D02*
X272586D01*
Y321295D01*
X273571D01*
Y319720D01*
D02*
G37*
G36*
X271603D02*
X270618D01*
Y321295D01*
X271603D01*
Y319720D01*
D02*
G37*
G36*
X341587Y316676D02*
X340013D01*
Y318250D01*
X341587D01*
Y316676D01*
D02*
G37*
G36*
X241878Y314432D02*
X239122D01*
Y324865D01*
X241878D01*
Y314432D01*
D02*
G37*
G36*
X397631Y313826D02*
X398019Y313438D01*
X398228Y312932D01*
Y312383D01*
X398019Y311877D01*
X397631Y311489D01*
X397125Y311280D01*
X396576D01*
X396070Y311489D01*
X395682Y311877D01*
X395472Y312383D01*
Y312932D01*
X395682Y313438D01*
X396070Y313826D01*
X396576Y314036D01*
X397125D01*
X397631Y313826D01*
D02*
G37*
G36*
X241878Y296124D02*
X239122D01*
Y306557D01*
X241878D01*
Y296124D01*
D02*
G37*
M02*
