G04*
G04 #@! TF.GenerationSoftware,Altium Limited,Altium Designer,18.1.7 (191)*
G04*
G04 Layer_Physical_Order=4*
G04 Layer_Color=13093282*
%FSLAX25Y25*%
%MOIN*%
G70*
G01*
G75*
%ADD12C,0.00800*%
%ADD26R,0.02000X0.02500*%
%ADD90C,0.01200*%
%ADD91C,0.03000*%
%ADD92C,0.01500*%
%ADD95O,0.08661X0.04724*%
%ADD96C,0.14961*%
%ADD97O,0.06000X0.06500*%
%ADD98R,0.07874X0.07087*%
%ADD99O,0.07874X0.07087*%
%ADD100C,0.05906*%
%ADD101R,0.05906X0.05906*%
%ADD102C,0.06000*%
%ADD103C,0.01968*%
%ADD104C,0.08268*%
%ADD105C,0.03150*%
%ADD106C,0.02500*%
G36*
X266523Y470882D02*
X266338Y470770D01*
X266173Y470636D01*
X266027Y470482D01*
X265900Y470305D01*
X265793Y470108D01*
X265706Y469889D01*
X265638Y469650D01*
X265589Y469388D01*
X265560Y469106D01*
X265550Y468802D01*
X263050Y469660D01*
X263045Y469962D01*
X263007Y470525D01*
X262973Y470787D01*
X262876Y471272D01*
X262813Y471494D01*
X262741Y471703D01*
X262659Y471899D01*
X262567Y472082D01*
X266523Y470882D01*
D02*
G37*
G36*
X257180Y474678D02*
Y460675D01*
X257151Y460609D01*
X257149Y460531D01*
X257144Y460479D01*
X257137Y460434D01*
X257128Y460397D01*
X257118Y460366D01*
X257107Y460340D01*
X257096Y460319D01*
X257084Y460300D01*
X257071Y460283D01*
X257036Y460246D01*
X257005Y460164D01*
X256708Y459718D01*
X256585Y459100D01*
X256708Y458482D01*
X257058Y457958D01*
X257582Y457608D01*
X258200Y457485D01*
X258665Y457577D01*
X259165Y457284D01*
Y455796D01*
X258997Y455568D01*
X258751Y455399D01*
X258458Y455457D01*
X257840Y455334D01*
X257316Y454984D01*
X256812Y455130D01*
X253921Y458021D01*
X253590Y458242D01*
X253200Y458320D01*
X251190D01*
X250779Y458820D01*
X250815Y459000D01*
X250692Y459618D01*
X250342Y460142D01*
X249818Y460492D01*
X249200Y460615D01*
X248582Y460492D01*
X248058Y460142D01*
X247708Y459618D01*
X247585Y459000D01*
X247621Y458820D01*
X247210Y458320D01*
X234400D01*
X234010Y458242D01*
X233679Y458021D01*
X233393Y457734D01*
X233325Y457709D01*
X233268Y457655D01*
X233228Y457622D01*
X233191Y457595D01*
X233159Y457575D01*
X233130Y457560D01*
X233104Y457550D01*
X233081Y457542D01*
X233060Y457538D01*
X233038Y457535D01*
X232987Y457533D01*
X232908Y457497D01*
X232382Y457392D01*
X231858Y457042D01*
X231508Y456518D01*
X231385Y455900D01*
X231508Y455282D01*
X231858Y454758D01*
X232382Y454408D01*
X232908Y454303D01*
X232987Y454267D01*
X233038Y454265D01*
X233060Y454262D01*
X233081Y454258D01*
X233104Y454250D01*
X233130Y454240D01*
X233159Y454225D01*
X233191Y454205D01*
X233228Y454178D01*
X233268Y454145D01*
X233325Y454091D01*
X233393Y454066D01*
X234901Y452557D01*
Y450908D01*
X234872Y450842D01*
X234870Y450764D01*
X234865Y450712D01*
X234858Y450667D01*
X234849Y450630D01*
X234839Y450599D01*
X234828Y450573D01*
X234817Y450552D01*
X234805Y450533D01*
X234792Y450517D01*
X234757Y450479D01*
X234726Y450397D01*
X234429Y449952D01*
X234306Y449333D01*
X234429Y448715D01*
X234726Y448270D01*
X234757Y448187D01*
X234792Y448150D01*
X234805Y448133D01*
X234817Y448115D01*
X234828Y448093D01*
X234839Y448068D01*
X234849Y448037D01*
X234858Y447999D01*
X234865Y447955D01*
X234870Y447903D01*
X234872Y447824D01*
X234901Y447759D01*
Y444734D01*
X234872Y444668D01*
X234870Y444588D01*
X234865Y444532D01*
X234858Y444483D01*
X234848Y444439D01*
X234838Y444402D01*
X234825Y444369D01*
X234812Y444341D01*
X234798Y444315D01*
X234783Y444293D01*
X234749Y444251D01*
X234713Y444126D01*
X234508Y443818D01*
X234385Y443200D01*
X234508Y442582D01*
X234858Y442058D01*
X235382Y441708D01*
X235908Y441603D01*
X235987Y441567D01*
X236038Y441565D01*
X236059Y441562D01*
X236081Y441558D01*
X236104Y441550D01*
X236130Y441540D01*
X236130Y441539D01*
Y439775D01*
X236101Y439709D01*
X236099Y439631D01*
X236094Y439579D01*
X236087Y439534D01*
X236078Y439497D01*
X236068Y439466D01*
X236057Y439440D01*
X236046Y439419D01*
X236034Y439400D01*
X236021Y439383D01*
X235986Y439346D01*
X235955Y439264D01*
X235658Y438818D01*
X235535Y438200D01*
X235658Y437582D01*
X236008Y437058D01*
X236532Y436708D01*
X237150Y436585D01*
X237768Y436708D01*
X238292Y437058D01*
X238642Y437582D01*
X238765Y438200D01*
X238642Y438818D01*
X238345Y439264D01*
X238314Y439346D01*
X238279Y439383D01*
X238266Y439400D01*
X238254Y439419D01*
X238243Y439440D01*
X238232Y439466D01*
X238222Y439497D01*
X238213Y439534D01*
X238206Y439579D01*
X238201Y439631D01*
X238199Y439709D01*
X238170Y439775D01*
Y442050D01*
X238092Y442440D01*
X237871Y442771D01*
X237835Y442807D01*
X237809Y442875D01*
X237755Y442932D01*
X237722Y442972D01*
X237695Y443009D01*
X237675Y443041D01*
X237660Y443070D01*
X237650Y443096D01*
X237642Y443119D01*
X237638Y443141D01*
X237635Y443162D01*
X237633Y443213D01*
X237597Y443293D01*
X237492Y443818D01*
X237142Y444342D01*
X237099Y444371D01*
X237070Y444434D01*
X237035Y444466D01*
X237026Y444477D01*
X237017Y444488D01*
X237009Y444502D01*
X237001Y444520D01*
X236992Y444545D01*
X236984Y444576D01*
X236977Y444616D01*
X236972Y444664D01*
X236970Y444741D01*
X236962Y444759D01*
X236968Y444778D01*
X236941Y444831D01*
Y447759D01*
X236970Y447824D01*
X236972Y447903D01*
X236977Y447955D01*
X236984Y447999D01*
X236993Y448037D01*
X237003Y448068D01*
X237014Y448093D01*
X237025Y448115D01*
X237037Y448133D01*
X237050Y448150D01*
X237085Y448187D01*
X237116Y448270D01*
X237413Y448715D01*
X237536Y449333D01*
X237413Y449952D01*
X237116Y450397D01*
X237085Y450479D01*
X237050Y450517D01*
X237037Y450533D01*
X237025Y450552D01*
X237014Y450573D01*
X237003Y450599D01*
X236993Y450630D01*
X236984Y450668D01*
X236977Y450712D01*
X236972Y450764D01*
X236970Y450842D01*
X236941Y450908D01*
Y452979D01*
X236863Y453369D01*
X236642Y453700D01*
X234835Y455507D01*
X234809Y455575D01*
X234755Y455632D01*
X234722Y455672D01*
X234695Y455709D01*
X234675Y455741D01*
X234660Y455770D01*
X234650Y455796D01*
X234642Y455819D01*
X234638Y455840D01*
X234635Y455861D01*
X234636Y455863D01*
X234935Y456280D01*
X245263D01*
X245415Y455780D01*
X245358Y455742D01*
X245008Y455218D01*
X244885Y454600D01*
X245008Y453982D01*
X245358Y453458D01*
X245882Y453108D01*
X246500Y452985D01*
X247118Y453108D01*
X247564Y453405D01*
X247646Y453436D01*
X247683Y453471D01*
X247700Y453484D01*
X247719Y453496D01*
X247740Y453507D01*
X247766Y453518D01*
X247797Y453528D01*
X247834Y453537D01*
X247879Y453544D01*
X247931Y453548D01*
X248009Y453551D01*
X248075Y453580D01*
X252859D01*
X253280Y453160D01*
Y433500D01*
X253358Y433110D01*
X253579Y432779D01*
X256312Y430046D01*
X256643Y429825D01*
X257033Y429747D01*
X267992D01*
X268058Y429718D01*
X268136Y429715D01*
X268188Y429711D01*
X268233Y429704D01*
X268270Y429695D01*
X268301Y429685D01*
X268327Y429674D01*
X268349Y429663D01*
X268367Y429651D01*
X268384Y429638D01*
X268421Y429603D01*
X268503Y429572D01*
X268949Y429275D01*
X269567Y429152D01*
X270185Y429275D01*
X270709Y429625D01*
X271059Y430149D01*
X271182Y430767D01*
X271059Y431385D01*
X270709Y431909D01*
X270185Y432259D01*
X269567Y432382D01*
X268949Y432259D01*
X268503Y431962D01*
X268421Y431931D01*
X268384Y431896D01*
X268367Y431883D01*
X268348Y431871D01*
X268327Y431860D01*
X268301Y431849D01*
X268270Y431839D01*
X268233Y431830D01*
X268188Y431823D01*
X268136Y431818D01*
X268058Y431816D01*
X267992Y431787D01*
X257455D01*
X255320Y433922D01*
Y434779D01*
X255636Y434918D01*
X255820Y434960D01*
X256308Y434634D01*
X256926Y434511D01*
X257544Y434634D01*
X258068Y434984D01*
X258418Y435508D01*
X258484Y435838D01*
X258800Y436285D01*
X259418Y436408D01*
X259942Y436758D01*
X260292Y437282D01*
X260415Y437900D01*
X260292Y438518D01*
X259942Y439042D01*
X259418Y439392D01*
X258800Y439515D01*
X258778Y439511D01*
X258396Y439893D01*
X258700Y440285D01*
X259318Y440408D01*
X259842Y440758D01*
X260192Y441282D01*
X260315Y441900D01*
X260192Y442518D01*
X259842Y443042D01*
X259318Y443392D01*
X258784Y443499D01*
X258491Y443886D01*
X258621Y444374D01*
X259132Y444476D01*
X259656Y444826D01*
X260006Y445350D01*
X260129Y445968D01*
X260006Y446586D01*
X259656Y447110D01*
X259132Y447460D01*
X258514Y447583D01*
X257896Y447460D01*
X257372Y447110D01*
X257021Y446586D01*
X256899Y445968D01*
X256949Y445714D01*
X256850Y445615D01*
X256232Y445492D01*
X255820Y445217D01*
X255431Y445354D01*
X255320Y445438D01*
Y449140D01*
X255820Y449338D01*
X256279Y448879D01*
X256610Y448658D01*
X257000Y448580D01*
X266300D01*
X266690Y448658D01*
X267021Y448879D01*
X268850Y450708D01*
X269600Y450559D01*
X270419Y450722D01*
X270428Y450727D01*
X271016Y450519D01*
X271258Y450158D01*
X271782Y449808D01*
X272299Y449705D01*
Y449195D01*
X271782Y449092D01*
X271258Y448742D01*
X270908Y448218D01*
X270785Y447600D01*
X270908Y446982D01*
X271258Y446458D01*
X271782Y446108D01*
X272400Y445985D01*
X273018Y446108D01*
X273542Y446458D01*
X273892Y446982D01*
X273995Y447499D01*
X274505D01*
X274608Y446982D01*
X274958Y446458D01*
X275482Y446108D01*
X275998Y446005D01*
Y445495D01*
X275482Y445392D01*
X274958Y445042D01*
X274608Y444518D01*
X274485Y443900D01*
X274608Y443282D01*
X274958Y442758D01*
X275482Y442408D01*
X276100Y442285D01*
X276718Y442408D01*
X277242Y442758D01*
X277592Y443282D01*
X277715Y443900D01*
X277592Y444518D01*
X277242Y445042D01*
X276718Y445392D01*
X276202Y445495D01*
Y446005D01*
X276718Y446108D01*
X277242Y446458D01*
X277592Y446982D01*
X277715Y447600D01*
X277592Y448218D01*
X277242Y448742D01*
X276985Y448914D01*
X277137Y449414D01*
X278400D01*
X279122Y449557D01*
X279734Y449966D01*
X281831Y452064D01*
X284769D01*
X284960Y451602D01*
X284479Y451121D01*
X284258Y450790D01*
X284210Y450548D01*
X284151Y450413D01*
X284149Y450350D01*
X283600D01*
Y448393D01*
X283100Y448116D01*
X282600Y448215D01*
X281982Y448092D01*
X281458Y447742D01*
X281108Y447218D01*
X280985Y446600D01*
X281108Y445982D01*
X281458Y445458D01*
X281982Y445108D01*
X282507Y445003D01*
X282587Y444967D01*
X282638Y444965D01*
X282660Y444962D01*
X282681Y444958D01*
X282704Y444950D01*
X282730Y444940D01*
X282759Y444925D01*
X282791Y444905D01*
X282828Y444878D01*
X282868Y444845D01*
X282925Y444791D01*
X282993Y444766D01*
X283152Y444606D01*
X283179Y444537D01*
X283321Y444390D01*
X283431Y444266D01*
X283516Y444159D01*
X283576Y444072D01*
X283600Y444029D01*
Y443890D01*
X283568Y443771D01*
X283593Y443728D01*
X283587Y443680D01*
X283600Y443663D01*
Y442050D01*
X286800D01*
Y445750D01*
X285296D01*
X285214Y445787D01*
X285162Y445767D01*
X285108Y445782D01*
X285053Y445750D01*
X284998D01*
X284934Y445795D01*
X284669Y446020D01*
X284535Y446150D01*
X284539Y446255D01*
X284618Y446510D01*
X284742Y446650D01*
X286800D01*
Y450350D01*
X287163Y450680D01*
X287837D01*
X288200Y450350D01*
Y446650D01*
X291400D01*
Y447441D01*
X291473Y447447D01*
X291605Y447451D01*
X291672Y447480D01*
X291971D01*
X293057Y446395D01*
X293388Y446174D01*
X293778Y446096D01*
X295422D01*
X295812Y446174D01*
X296143Y446395D01*
X297388Y447640D01*
X297455Y447666D01*
X297513Y447720D01*
X297556Y447756D01*
X297596Y447786D01*
X297633Y447810D01*
X297667Y447829D01*
X297698Y447843D01*
X297727Y447854D01*
X297755Y447861D01*
X297781Y447866D01*
X297835Y447872D01*
X297948Y447934D01*
X298318Y448008D01*
X298842Y448358D01*
X299192Y448882D01*
X299315Y449500D01*
X299192Y450118D01*
X298842Y450642D01*
X298318Y450992D01*
X297700Y451115D01*
X297082Y450992D01*
X296558Y450642D01*
X296379Y450375D01*
X295863Y450365D01*
X295653Y450515D01*
X295652Y450531D01*
X295649Y450609D01*
X295620Y450675D01*
Y450820D01*
X295542Y451210D01*
X295321Y451541D01*
X294441Y452421D01*
X294110Y452642D01*
X293720Y452720D01*
X291040D01*
X290849Y453182D01*
X303904Y466237D01*
X304067Y466269D01*
X304761Y466733D01*
X313487Y475459D01*
X320259D01*
Y456887D01*
X301270Y437898D01*
X300806Y437204D01*
X300643Y436384D01*
Y422112D01*
X300143Y421905D01*
X298743Y423305D01*
X298724Y423318D01*
X296021Y426021D01*
X295690Y426242D01*
X295300Y426320D01*
X269200D01*
X268810Y426242D01*
X268479Y426021D01*
X257378Y414920D01*
X253787D01*
X253635Y415420D01*
X253842Y415558D01*
X254192Y416082D01*
X254315Y416700D01*
X254192Y417318D01*
X254482Y417784D01*
X254742Y417958D01*
X255092Y418482D01*
X255215Y419100D01*
X255092Y419718D01*
X254742Y420242D01*
X254218Y420592D01*
X253656Y420704D01*
X253715Y421000D01*
X253592Y421618D01*
X253242Y422142D01*
X252718Y422492D01*
X252100Y422615D01*
X251482Y422492D01*
X250958Y422142D01*
X250503Y422275D01*
X250318Y422399D01*
X249700Y422521D01*
X249082Y422399D01*
X248775Y422194D01*
X248533Y422053D01*
X248026Y422153D01*
X247818Y422292D01*
X247200Y422415D01*
X246582Y422292D01*
X246058Y421942D01*
X245498Y422005D01*
X245218Y422192D01*
X244600Y422315D01*
X243982Y422192D01*
X243458Y421842D01*
X243108Y421318D01*
X242985Y420700D01*
X243108Y420082D01*
X243458Y419558D01*
X243534Y419507D01*
X243208Y419018D01*
X243085Y418400D01*
X243208Y417782D01*
X243558Y417258D01*
X244082Y416908D01*
X244604Y416804D01*
X244708Y416282D01*
X245058Y415758D01*
X245564Y415420D01*
X245572Y415382D01*
X245473Y414920D01*
X237422D01*
X234620Y417722D01*
Y423400D01*
X234542Y423790D01*
X234321Y424121D01*
X232556Y425886D01*
X232536Y425946D01*
X232513Y426410D01*
X232930Y427418D01*
X233073Y428500D01*
X232930Y429582D01*
X232513Y430589D01*
X231849Y431455D01*
X230983Y432119D01*
X229975Y432537D01*
X228894Y432679D01*
X228106D01*
X227025Y432537D01*
X226017Y432119D01*
X225151Y431455D01*
X224487Y430589D01*
X224070Y429582D01*
X223927Y428500D01*
X224070Y427418D01*
X224487Y426410D01*
X225151Y425545D01*
X226017Y424881D01*
X227025Y424463D01*
X228106Y424321D01*
X228894D01*
X229975Y424463D01*
X230708Y424767D01*
X230725Y424756D01*
X230795Y424703D01*
X230882Y424629D01*
X230993Y424523D01*
X231062Y424497D01*
X232415Y423143D01*
X232208Y422643D01*
X223963D01*
Y414357D01*
X230685D01*
X230686Y414355D01*
X230710Y414357D01*
X231023D01*
X231045Y414350D01*
X231052Y414351D01*
X231084Y414337D01*
X231147Y414301D01*
X231223Y414250D01*
X231452Y414059D01*
X231581Y413935D01*
X231631Y413915D01*
X231660Y413870D01*
X231696Y413862D01*
X234079Y411479D01*
X234410Y411258D01*
X234800Y411180D01*
X258080D01*
X258470Y411258D01*
X258801Y411479D01*
X270102Y422780D01*
X278175D01*
X278225Y422280D01*
X277782Y422192D01*
X277258Y421842D01*
X276908Y421318D01*
X276785Y420700D01*
X276908Y420082D01*
X277205Y419636D01*
X277236Y419554D01*
X277271Y419517D01*
X277284Y419500D01*
X277296Y419481D01*
X277307Y419460D01*
X277318Y419434D01*
X277328Y419403D01*
X277337Y419366D01*
X277344Y419321D01*
X277348Y419269D01*
X277351Y419191D01*
X277380Y419125D01*
Y392165D01*
X274579Y389364D01*
X274358Y389033D01*
X274280Y388643D01*
Y388147D01*
X274255Y388100D01*
X274262Y388074D01*
X274251Y388049D01*
X274249Y387972D01*
X274244Y387924D01*
X274237Y387886D01*
X274229Y387856D01*
X274221Y387833D01*
X274213Y387817D01*
X274206Y387805D01*
X274199Y387796D01*
X274191Y387787D01*
X274156Y387756D01*
X274121Y387684D01*
X274058Y387642D01*
X273708Y387118D01*
X273585Y386500D01*
X273708Y385882D01*
X274058Y385358D01*
X274582Y385008D01*
X275200Y384885D01*
X275818Y385008D01*
X276342Y385358D01*
X276692Y385882D01*
X276815Y386500D01*
X276692Y387118D01*
X276507Y387396D01*
X276472Y387524D01*
X276439Y387567D01*
X276424Y387592D01*
X276409Y387618D01*
X276396Y387648D01*
X276383Y387683D01*
X276373Y387722D01*
X276363Y387767D01*
X276356Y387818D01*
X276351Y387875D01*
X276349Y387955D01*
X276334Y387989D01*
X276364Y388050D01*
X276505Y388142D01*
X276555Y388137D01*
X277028Y387883D01*
X277108Y387482D01*
X277458Y386958D01*
X277982Y386608D01*
X278600Y386485D01*
X279218Y386608D01*
X279664Y386905D01*
X279746Y386936D01*
X279783Y386971D01*
X279800Y386984D01*
X279819Y386996D01*
X279840Y387007D01*
X279866Y387018D01*
X279897Y387028D01*
X279934Y387037D01*
X279979Y387044D01*
X280031Y387049D01*
X280109Y387051D01*
X280175Y387080D01*
X284000D01*
X284390Y387158D01*
X284721Y387379D01*
X288471Y391129D01*
X288692Y391460D01*
X288770Y391850D01*
Y419025D01*
X288799Y419091D01*
X288802Y419169D01*
X288806Y419221D01*
X288813Y419266D01*
X288822Y419303D01*
X288832Y419334D01*
X288843Y419360D01*
X288854Y419382D01*
X288866Y419400D01*
X288879Y419417D01*
X288914Y419454D01*
X288945Y419536D01*
X289242Y419982D01*
X289365Y420600D01*
X289250Y421180D01*
X289258Y421296D01*
X289464Y421680D01*
X294678D01*
X295366Y420993D01*
X295391Y420925D01*
X295445Y420868D01*
X295478Y420828D01*
X295505Y420791D01*
X295525Y420759D01*
X295540Y420730D01*
X295550Y420704D01*
X295558Y420681D01*
X295562Y420659D01*
X295565Y420638D01*
X295567Y420587D01*
X295603Y420507D01*
X295708Y419982D01*
X296058Y419458D01*
X296582Y419108D01*
X297200Y418985D01*
X297818Y419108D01*
X298180Y419350D01*
X298680Y419133D01*
Y418524D01*
X298558Y418442D01*
X298208Y417918D01*
X298085Y417300D01*
X298208Y416682D01*
X298558Y416158D01*
X299082Y415808D01*
X299700Y415685D01*
X300143Y415773D01*
X300643Y415469D01*
Y360906D01*
X300143Y360699D01*
X291521Y369321D01*
X291190Y369542D01*
X290800Y369620D01*
X278022D01*
X275821Y371821D01*
X275490Y372042D01*
X275100Y372120D01*
X272500D01*
X272110Y372042D01*
X271779Y371821D01*
X269378Y369420D01*
X268267D01*
X268050Y369920D01*
X268292Y370282D01*
X268415Y370900D01*
X268292Y371518D01*
X267942Y372042D01*
X267418Y372392D01*
X266800Y372515D01*
X266182Y372392D01*
X266008Y372276D01*
X250492D01*
X250318Y372392D01*
X249700Y372515D01*
X249082Y372392D01*
X248558Y372042D01*
X248208Y371518D01*
X248085Y370900D01*
X248208Y370282D01*
X248558Y369758D01*
X249082Y369408D01*
X249700Y369285D01*
X250318Y369408D01*
X250492Y369524D01*
X253988D01*
X254255Y369023D01*
X254100Y368791D01*
X253977Y368173D01*
X254100Y367555D01*
X254190Y367420D01*
X253923Y366920D01*
X237522D01*
X233490Y370952D01*
X233465Y371019D01*
X233155Y371350D01*
X233059Y371468D01*
X233038Y371498D01*
X233037Y371516D01*
Y371552D01*
X233065Y371596D01*
X233037Y371720D01*
Y377263D01*
X233499Y377454D01*
X236127Y374827D01*
X236573Y374528D01*
X237100Y374424D01*
X250008D01*
X250182Y374308D01*
X250800Y374185D01*
X251418Y374308D01*
X251592Y374424D01*
X252258D01*
X252282Y374408D01*
X252900Y374285D01*
X253518Y374408D01*
X254042Y374758D01*
X254392Y375282D01*
X254515Y375900D01*
X254392Y376518D01*
X254042Y377042D01*
X253518Y377392D01*
X252900Y377515D01*
X252282Y377392D01*
X251959Y377176D01*
X251592D01*
X251418Y377292D01*
X250800Y377415D01*
X250182Y377292D01*
X250008Y377176D01*
X237670D01*
X235621Y379226D01*
X235867Y379687D01*
X235925Y379675D01*
X272183D01*
X278286Y373572D01*
X278279Y373545D01*
X278269Y373514D01*
X278259Y373488D01*
X278247Y373467D01*
X278236Y373449D01*
X278222Y373432D01*
X278188Y373394D01*
X278157Y373312D01*
X277859Y372867D01*
X277736Y372249D01*
X277859Y371630D01*
X278209Y371106D01*
X278733Y370756D01*
X279351Y370633D01*
X279970Y370756D01*
X280494Y371106D01*
X280844Y371630D01*
X280967Y372249D01*
X280844Y372867D01*
X280546Y373312D01*
X280515Y373394D01*
X280481Y373432D01*
X280468Y373448D01*
X280456Y373467D01*
X280445Y373488D01*
X280434Y373514D01*
X280424Y373545D01*
X280415Y373583D01*
X280408Y373627D01*
X280403Y373679D01*
X280401Y373757D01*
X280371Y373823D01*
Y373949D01*
X280293Y374339D01*
X280072Y374670D01*
X274923Y379819D01*
X275115Y380280D01*
X276355D01*
X281454Y375181D01*
X281480Y375114D01*
X281533Y375057D01*
X281567Y375016D01*
X281593Y374980D01*
X281613Y374947D01*
X281628Y374918D01*
X281639Y374892D01*
X281646Y374869D01*
X281651Y374848D01*
X281653Y374827D01*
X281655Y374776D01*
X281692Y374696D01*
X281796Y374170D01*
X282146Y373646D01*
X282670Y373296D01*
X283289Y373173D01*
X283451Y373205D01*
X283764Y372775D01*
X283641Y372157D01*
X283764Y371538D01*
X284114Y371014D01*
X284638Y370664D01*
X285257Y370541D01*
X285875Y370664D01*
X286399Y371014D01*
X286749Y371538D01*
X286872Y372157D01*
X286749Y372775D01*
X286399Y373299D01*
X285875Y373649D01*
X285257Y373772D01*
X285094Y373740D01*
X284781Y374170D01*
X284904Y374788D01*
X284781Y375407D01*
X284431Y375931D01*
X283907Y376281D01*
X283381Y376385D01*
X283301Y376422D01*
X283250Y376424D01*
X283229Y376426D01*
X283208Y376431D01*
X283185Y376438D01*
X283159Y376449D01*
X283130Y376464D01*
X283097Y376484D01*
X283061Y376510D01*
X283020Y376544D01*
X282963Y376597D01*
X282896Y376623D01*
X277498Y382021D01*
X277167Y382242D01*
X276777Y382320D01*
X274402D01*
X273906Y382816D01*
X273575Y383037D01*
X273185Y383114D01*
X252316D01*
X252023Y383614D01*
X252115Y384079D01*
X251992Y384697D01*
X251642Y385221D01*
X251118Y385571D01*
X250500Y385694D01*
X249882Y385571D01*
X249358Y385221D01*
X249008Y384697D01*
X248885Y384079D01*
X248977Y383614D01*
X248684Y383114D01*
X236928D01*
X223220Y396822D01*
Y461878D01*
X235107Y473765D01*
X235568Y473519D01*
X235485Y473100D01*
X235608Y472482D01*
X235733Y472294D01*
X235929Y471900D01*
X235733Y471506D01*
X235608Y471318D01*
X235485Y470700D01*
X235608Y470082D01*
X235958Y469558D01*
X236482Y469208D01*
X237100Y469085D01*
X237718Y469208D01*
X238100Y469463D01*
X238482Y469208D01*
X239100Y469085D01*
X239718Y469208D01*
X240242Y469558D01*
X240272Y469603D01*
X240925Y469679D01*
X241182Y469508D01*
X241800Y469385D01*
X242418Y469508D01*
X242907Y469834D01*
X242958Y469758D01*
X243482Y469408D01*
X244100Y469285D01*
X244718Y469408D01*
X245242Y469758D01*
X245324D01*
X245458Y469558D01*
X245982Y469208D01*
X246600Y469085D01*
X247218Y469208D01*
X247522Y469411D01*
X247558Y469358D01*
X248082Y469008D01*
X248700Y468885D01*
X249318Y469008D01*
X249842Y469358D01*
X249862Y469388D01*
X250282Y469108D01*
X250900Y468985D01*
X251518Y469108D01*
X252042Y469458D01*
X252057D01*
X252258Y469158D01*
X252782Y468808D01*
X253400Y468685D01*
X254018Y468808D01*
X254542Y469158D01*
X254892Y469682D01*
X255015Y470300D01*
X254892Y470918D01*
X254542Y471442D01*
X254328Y471586D01*
X254592Y471982D01*
X254715Y472600D01*
X254592Y473218D01*
X254242Y473742D01*
X253718Y474092D01*
X253100Y474215D01*
X252482Y474092D01*
X251993Y473766D01*
X251942Y473842D01*
X251418Y474192D01*
X250800Y474315D01*
X250182Y474192D01*
X249658Y473842D01*
X249442D01*
X248918Y474192D01*
X248300Y474315D01*
X247682Y474192D01*
X247262Y473912D01*
X247242Y473942D01*
X246718Y474292D01*
X246100Y474415D01*
X245482Y474292D01*
X244993Y473966D01*
X244942Y474042D01*
X244418Y474392D01*
X243800Y474515D01*
X243182Y474392D01*
X242712Y474079D01*
X242642Y474184D01*
X242118Y474534D01*
X241500Y474657D01*
X240882Y474534D01*
X240500Y474279D01*
X240118Y474534D01*
X239500Y474657D01*
X238882Y474534D01*
X238721Y474426D01*
X238256Y474247D01*
X237933Y474448D01*
X237718Y474592D01*
X237100Y474715D01*
X236681Y474632D01*
X236435Y475093D01*
X238022Y476680D01*
X255178D01*
X257180Y474678D01*
D02*
G37*
G36*
X258603Y460491D02*
X258612Y460397D01*
X258626Y460308D01*
X258646Y460222D01*
X258672Y460141D01*
X258704Y460065D01*
X258742Y459993D01*
X258785Y459925D01*
X258834Y459862D01*
X258889Y459803D01*
X257511D01*
X257566Y459862D01*
X257615Y459925D01*
X257658Y459993D01*
X257696Y460065D01*
X257728Y460141D01*
X257754Y460222D01*
X257774Y460308D01*
X257788Y460397D01*
X257797Y460491D01*
X257800Y460590D01*
X258600D01*
X258603Y460491D01*
D02*
G37*
G36*
X249834Y458238D02*
X249785Y458175D01*
X249742Y458107D01*
X249704Y458035D01*
X249672Y457959D01*
X249646Y457878D01*
X249626Y457793D01*
X249612Y457703D01*
X249603Y457609D01*
X249600Y457510D01*
X248800D01*
X248797Y457609D01*
X248788Y457703D01*
X248774Y457793D01*
X248754Y457878D01*
X248728Y457959D01*
X248696Y458035D01*
X248658Y458107D01*
X248615Y458175D01*
X248566Y458238D01*
X248511Y458297D01*
X249889D01*
X249834Y458238D01*
D02*
G37*
G36*
X234336Y456671D02*
X234269Y456599D01*
X234208Y456526D01*
X234155Y456453D01*
X234109Y456378D01*
X234070Y456302D01*
X234039Y456226D01*
X234014Y456148D01*
X233997Y456070D01*
X233987Y455990D01*
X233984Y455910D01*
X233010Y456884D01*
X233090Y456887D01*
X233170Y456897D01*
X233248Y456914D01*
X233326Y456939D01*
X233402Y456970D01*
X233478Y457009D01*
X233553Y457055D01*
X233626Y457108D01*
X233699Y457169D01*
X233771Y457236D01*
X234336Y456671D01*
D02*
G37*
G36*
X259859Y454294D02*
X259791Y454223D01*
X259670Y454081D01*
X259617Y454010D01*
X259527Y453867D01*
X259489Y453796D01*
X259457Y453724D01*
X259429Y453652D01*
X259407Y453580D01*
X258739Y454785D01*
X258813Y454768D01*
X258887Y454760D01*
X258961Y454762D01*
X259034Y454773D01*
X259108Y454794D01*
X259182Y454824D01*
X259255Y454864D01*
X259328Y454913D01*
X259402Y454972D01*
X259475Y455040D01*
X259859Y454294D01*
D02*
G37*
G36*
X233987Y455810D02*
X233997Y455730D01*
X234014Y455652D01*
X234039Y455574D01*
X234070Y455498D01*
X234109Y455422D01*
X234155Y455347D01*
X234208Y455274D01*
X234269Y455201D01*
X234336Y455129D01*
X233771Y454564D01*
X233699Y454631D01*
X233626Y454692D01*
X233553Y454745D01*
X233478Y454791D01*
X233402Y454830D01*
X233326Y454861D01*
X233248Y454886D01*
X233170Y454903D01*
X233090Y454913D01*
X233010Y454916D01*
X233984Y455890D01*
X233987Y455810D01*
D02*
G37*
G36*
X247262Y455234D02*
X247325Y455185D01*
X247393Y455142D01*
X247465Y455104D01*
X247541Y455072D01*
X247622Y455046D01*
X247708Y455026D01*
X247797Y455012D01*
X247891Y455003D01*
X247990Y455000D01*
Y454200D01*
X247891Y454197D01*
X247797Y454188D01*
X247708Y454174D01*
X247622Y454154D01*
X247541Y454128D01*
X247465Y454096D01*
X247393Y454058D01*
X247325Y454015D01*
X247262Y453966D01*
X247203Y453911D01*
Y455289D01*
X247262Y455234D01*
D02*
G37*
G36*
X407000Y485323D02*
X408311Y484781D01*
X409490Y483993D01*
X410493Y482990D01*
X411281Y481811D01*
X411823Y480500D01*
X412100Y479109D01*
Y478400D01*
Y450228D01*
X411600Y450103D01*
X410940Y451338D01*
X409930Y452568D01*
X408700Y453578D01*
X407296Y454328D01*
X405773Y454790D01*
X404189Y454946D01*
X402605Y454790D01*
X401082Y454328D01*
X399678Y453578D01*
X398448Y452568D01*
X397438Y451338D01*
X396688Y449934D01*
X396226Y448411D01*
X396070Y446827D01*
X396226Y445243D01*
X396688Y443720D01*
X397438Y442316D01*
X398448Y441086D01*
X399678Y440076D01*
X401082Y439326D01*
X402605Y438864D01*
X404189Y438708D01*
X405773Y438864D01*
X407296Y439326D01*
X408700Y440076D01*
X409930Y441086D01*
X410940Y442316D01*
X411600Y443551D01*
X412100Y443426D01*
Y302025D01*
Y301244D01*
X411795Y299713D01*
X411198Y298271D01*
X410331Y296973D01*
X409227Y295869D01*
X407929Y295002D01*
X406487Y294405D01*
X404956Y294100D01*
X227604D01*
X225846Y294450D01*
X224189Y295136D01*
X222699Y296132D01*
X221432Y297399D01*
X220436Y298889D01*
X219750Y300546D01*
X219400Y302304D01*
Y303200D01*
X219600Y304100D01*
Y394916D01*
X220010Y395073D01*
X220100Y395078D01*
X231489Y383689D01*
X231243Y383228D01*
X231000Y383277D01*
X225100D01*
X225100Y383277D01*
X224573Y383172D01*
X224127Y382873D01*
X224127Y382873D01*
X221427Y380173D01*
X221128Y379727D01*
X221024Y379200D01*
Y351800D01*
X221128Y351273D01*
X221427Y350827D01*
X224340Y347914D01*
X224360Y347861D01*
X224581Y347630D01*
X224749Y347435D01*
X224870Y347271D01*
X224932Y347169D01*
X224487Y346589D01*
X224069Y345582D01*
X223927Y344500D01*
X224069Y343418D01*
X224487Y342410D01*
X225151Y341545D01*
X226017Y340881D01*
X227025Y340463D01*
X228106Y340321D01*
X228894D01*
X229975Y340463D01*
X230983Y340881D01*
X231849Y341545D01*
X232513Y342410D01*
X232930Y343418D01*
X233073Y344500D01*
X232930Y345582D01*
X232513Y346589D01*
X231849Y347455D01*
X230983Y348119D01*
X229975Y348537D01*
X228894Y348679D01*
X228106D01*
X227840Y348644D01*
X227811Y348652D01*
X227688Y348702D01*
X227536Y348785D01*
X227367Y348898D01*
X226937Y349252D01*
X226700Y349479D01*
X226647Y349499D01*
X225498Y350649D01*
X225828Y351025D01*
X226017Y350881D01*
X227025Y350463D01*
X228106Y350321D01*
X228894D01*
X229975Y350463D01*
X230983Y350881D01*
X231849Y351545D01*
X232513Y352411D01*
X232716Y352900D01*
X232730Y352925D01*
X232731Y352938D01*
X232783Y352965D01*
X232901Y353005D01*
X233059Y353041D01*
X233561Y353094D01*
X233871Y353101D01*
X233923Y353123D01*
X280000D01*
X280527Y353228D01*
X280973Y353527D01*
X281914Y354467D01*
X282118Y354508D01*
X282480Y354750D01*
X282980Y354533D01*
Y351222D01*
X275379Y343621D01*
X275158Y343290D01*
X275080Y342900D01*
Y341775D01*
X275051Y341709D01*
X275048Y341631D01*
X275044Y341579D01*
X275037Y341534D01*
X275028Y341497D01*
X275018Y341466D01*
X275007Y341440D01*
X274996Y341419D01*
X274984Y341400D01*
X274971Y341383D01*
X274936Y341346D01*
X274905Y341264D01*
X274608Y340818D01*
X274485Y340200D01*
X274608Y339582D01*
X274958Y339058D01*
X275482Y338708D01*
X276100Y338585D01*
X276718Y338708D01*
X277242Y339058D01*
X277362Y339237D01*
X277414Y339253D01*
X277941Y339203D01*
X278286Y338686D01*
X278803Y338340D01*
X278854Y337814D01*
X278837Y337762D01*
X278658Y337642D01*
X278308Y337118D01*
X278185Y336500D01*
X278308Y335882D01*
X278658Y335358D01*
X279182Y335008D01*
X279800Y334885D01*
X280418Y335008D01*
X280942Y335358D01*
X281292Y335882D01*
X281395Y336399D01*
X281905D01*
X282008Y335882D01*
X282358Y335358D01*
X282882Y335008D01*
X283500Y334885D01*
X284118Y335008D01*
X284642Y335358D01*
X284992Y335882D01*
X285115Y336500D01*
X284992Y337118D01*
X284642Y337642D01*
X284463Y337762D01*
X284447Y337814D01*
X284497Y338340D01*
X285014Y338686D01*
X288496Y342168D01*
X289039Y342004D01*
X289066Y341866D01*
X289416Y341342D01*
X289940Y340992D01*
X290356Y340909D01*
X290545Y340729D01*
X290569Y340088D01*
X290400Y339915D01*
X289782Y339792D01*
X289258Y339442D01*
X288908Y338918D01*
X288785Y338300D01*
X288908Y337682D01*
X289258Y337158D01*
X289782Y336808D01*
X290364Y336692D01*
X290630Y336260D01*
X290290Y335874D01*
X289882Y335792D01*
X289358Y335442D01*
X289008Y334918D01*
X288885Y334300D01*
X289008Y333682D01*
X289358Y333158D01*
X289882Y332808D01*
X290500Y332685D01*
X291118Y332808D01*
X291564Y333105D01*
X291646Y333136D01*
X291683Y333171D01*
X291700Y333184D01*
X291719Y333196D01*
X291740Y333207D01*
X291766Y333218D01*
X291797Y333228D01*
X291834Y333237D01*
X291879Y333244D01*
X291931Y333248D01*
X292009Y333251D01*
X292075Y333280D01*
X314800D01*
X315190Y333358D01*
X315521Y333579D01*
X328821Y346879D01*
X329042Y347210D01*
X329120Y347600D01*
Y384025D01*
X329149Y384091D01*
X329152Y384169D01*
X329156Y384221D01*
X329163Y384266D01*
X329172Y384303D01*
X329182Y384334D01*
X329193Y384360D01*
X329204Y384382D01*
X329216Y384400D01*
X329229Y384417D01*
X329264Y384454D01*
X329295Y384536D01*
X329592Y384982D01*
X329715Y385600D01*
X329592Y386218D01*
X329242Y386742D01*
X328718Y387092D01*
X328100Y387215D01*
X327482Y387092D01*
X326958Y386742D01*
X326608Y386218D01*
X326604Y386199D01*
X326104Y386248D01*
Y388137D01*
X326134Y388207D01*
X326135Y388293D01*
X326143Y388445D01*
X326158Y388577D01*
X326165Y388617D01*
X326190Y388719D01*
X326198Y388745D01*
X326215Y388790D01*
X326213Y388885D01*
X326315Y389400D01*
X326192Y390018D01*
X325842Y390542D01*
X325318Y390892D01*
X324700Y391015D01*
X324082Y390892D01*
X323558Y390542D01*
X323208Y390018D01*
X323085Y389400D01*
X323208Y388782D01*
X323558Y388258D01*
X324008Y387957D01*
X324024Y387939D01*
X324028Y387919D01*
X324033Y387879D01*
X324035Y387803D01*
X324065Y387738D01*
Y382016D01*
X323565Y381723D01*
X323100Y381815D01*
X322804Y381756D01*
X322304Y382129D01*
Y393716D01*
X322226Y394106D01*
X322005Y394437D01*
X319521Y396921D01*
X319190Y397142D01*
X318800Y397220D01*
X311675D01*
X311609Y397249D01*
X311531Y397252D01*
X311479Y397256D01*
X311434Y397263D01*
X311397Y397272D01*
X311366Y397282D01*
X311340Y397293D01*
X311318Y397304D01*
X311300Y397316D01*
X311283Y397329D01*
X311246Y397364D01*
X311164Y397395D01*
X310718Y397692D01*
X310100Y397815D01*
X309482Y397692D01*
X308958Y397342D01*
X308608Y396818D01*
X308485Y396200D01*
X308608Y395582D01*
X308958Y395058D01*
X309482Y394708D01*
X310100Y394585D01*
X310718Y394708D01*
X311164Y395005D01*
X311246Y395036D01*
X311283Y395071D01*
X311300Y395084D01*
X311319Y395096D01*
X311340Y395107D01*
X311366Y395118D01*
X311397Y395128D01*
X311434Y395137D01*
X311479Y395144D01*
X311531Y395148D01*
X311609Y395151D01*
X311675Y395180D01*
X318378D01*
X320265Y393293D01*
Y384316D01*
X319765Y384023D01*
X319300Y384115D01*
X318682Y383992D01*
X318158Y383642D01*
X317808Y383118D01*
X317685Y382500D01*
X317808Y381882D01*
X318105Y381436D01*
X318136Y381354D01*
X318171Y381317D01*
X318184Y381300D01*
X318196Y381281D01*
X318207Y381260D01*
X318218Y381234D01*
X318228Y381203D01*
X318237Y381166D01*
X318244Y381121D01*
X318249Y381069D01*
X318251Y380991D01*
X318280Y380925D01*
Y358622D01*
X305178Y345520D01*
X293775D01*
X293709Y345549D01*
X293631Y345551D01*
X293579Y345556D01*
X293534Y345563D01*
X293497Y345572D01*
X293466Y345582D01*
X293440Y345593D01*
X293419Y345604D01*
X293400Y345616D01*
X293383Y345629D01*
X293346Y345664D01*
X293264Y345695D01*
X292944Y345908D01*
X292796Y346468D01*
X301699Y355371D01*
X301742Y355400D01*
X301771Y355443D01*
X304298Y357970D01*
X304762Y358665D01*
X304925Y359484D01*
Y400504D01*
X305425Y400656D01*
X305558Y400458D01*
X306082Y400108D01*
X306700Y399985D01*
X307318Y400108D01*
X307640Y400323D01*
X307641Y400322D01*
X307649Y400324D01*
X307654Y400324D01*
X307669Y400329D01*
X307673Y400330D01*
X307684Y400331D01*
X307982Y400350D01*
X308076Y400351D01*
X308137Y400377D01*
X319993D01*
X344213Y376157D01*
X343894Y375769D01*
X343618Y375953D01*
X343000Y376076D01*
X342382Y375953D01*
X341858Y375603D01*
X341508Y375079D01*
X341385Y374461D01*
X341413Y374316D01*
X340079Y372982D01*
X339858Y372651D01*
X339780Y372261D01*
Y351224D01*
X339658Y351142D01*
X339308Y350618D01*
X339185Y350000D01*
X339308Y349382D01*
X339658Y348858D01*
X340182Y348508D01*
X340800Y348385D01*
X341418Y348508D01*
X341942Y348858D01*
X342292Y349382D01*
X342415Y350000D01*
X342292Y350618D01*
X341942Y351142D01*
X341820Y351224D01*
Y371838D01*
X342855Y372874D01*
X343000Y372845D01*
X343618Y372968D01*
X344142Y373319D01*
X344492Y373843D01*
X344615Y374461D01*
X344492Y375079D01*
X344308Y375354D01*
X344696Y375673D01*
X355892Y364477D01*
X356289Y364212D01*
X356757Y364119D01*
X387343D01*
X387811Y364212D01*
X388208Y364477D01*
X395555Y371825D01*
X395911Y371678D01*
X396850Y371554D01*
X397790Y371678D01*
X398666Y372040D01*
X399418Y372618D01*
X399995Y373370D01*
X400358Y374245D01*
X400481Y375185D01*
X400358Y376125D01*
X399995Y377000D01*
X399418Y377753D01*
X398666Y378330D01*
X397790Y378692D01*
X396850Y378816D01*
X395911Y378692D01*
X395035Y378330D01*
X394283Y377753D01*
X393706Y377000D01*
X393343Y376125D01*
X393219Y375185D01*
X393343Y374245D01*
X393686Y373417D01*
X386836Y366566D01*
X357264D01*
X332428Y391403D01*
X332758Y391779D01*
X333017Y391581D01*
X334025Y391163D01*
X335106Y391021D01*
X335894D01*
X336975Y391163D01*
X337983Y391581D01*
X338849Y392245D01*
X339513Y393110D01*
X339930Y394118D01*
X340073Y395200D01*
X339930Y396282D01*
X339513Y397289D01*
X338849Y398155D01*
X337983Y398819D01*
X336975Y399237D01*
X335894Y399379D01*
X335106D01*
X334025Y399237D01*
X333017Y398819D01*
X332151Y398155D01*
X331487Y397289D01*
X331070Y396282D01*
X330927Y395200D01*
X331070Y394118D01*
X331487Y393110D01*
X331685Y392852D01*
X331309Y392522D01*
X321365Y402465D01*
X320968Y402730D01*
X320500Y402823D01*
X308137D01*
X308076Y402849D01*
X307974Y402850D01*
X307809Y402856D01*
X307694Y402867D01*
X307673Y402870D01*
X307669Y402871D01*
X307654Y402876D01*
X307649Y402876D01*
X307641Y402878D01*
X307640Y402877D01*
X307318Y403092D01*
X306700Y403215D01*
X306082Y403092D01*
X305558Y402742D01*
X305425Y402544D01*
X304925Y402696D01*
Y435497D01*
X323914Y454486D01*
X324378Y455181D01*
X324541Y456000D01*
Y477217D01*
X324617Y477600D01*
X324449Y478449D01*
X323968Y479168D01*
X323249Y479649D01*
X322400Y479817D01*
X322017Y479741D01*
X312600D01*
X311781Y479578D01*
X311086Y479114D01*
X301733Y469761D01*
X301269Y469067D01*
X301237Y468904D01*
X288169Y455836D01*
X281050D01*
X280328Y455693D01*
X279716Y455284D01*
X277619Y453186D01*
X276100D01*
X275378Y453043D01*
X274766Y452634D01*
X274368Y452038D01*
X274170Y451988D01*
X273842Y451994D01*
X273542Y452442D01*
X273264Y452628D01*
X273199Y452748D01*
X273123Y453217D01*
X273136Y453269D01*
X273478Y453781D01*
X273486Y453820D01*
X273542Y453858D01*
X273892Y454382D01*
X274015Y455000D01*
X273892Y455618D01*
X273542Y456142D01*
X273018Y456492D01*
X272400Y456615D01*
X272266Y456589D01*
X271500Y456741D01*
X270681Y456578D01*
X269986Y456114D01*
X268086Y454214D01*
X267622Y453519D01*
X267459Y452700D01*
X267542Y452284D01*
X265878Y450620D01*
X257422D01*
X257420Y450622D01*
Y452095D01*
X257920Y452334D01*
X258458Y452227D01*
X259076Y452350D01*
X259600Y452700D01*
X259950Y453224D01*
X259969Y453317D01*
X260027Y453387D01*
X260043Y453439D01*
X260056Y453473D01*
X260073Y453510D01*
X260089Y453542D01*
X260153Y453642D01*
X260179Y453676D01*
X260273Y453787D01*
X260327Y453843D01*
X260354Y453912D01*
X260905Y454463D01*
X261126Y454794D01*
X261204Y455184D01*
Y472501D01*
X261696Y472573D01*
X261980Y471888D01*
X261987Y471791D01*
X262068Y471628D01*
X262134Y471472D01*
X262193Y471300D01*
X262244Y471120D01*
X262332Y470682D01*
X262360Y470461D01*
X262396Y469934D01*
X262401Y469650D01*
X262414Y469620D01*
Y463300D01*
X262557Y462578D01*
X262966Y461966D01*
X263578Y461557D01*
X264300Y461414D01*
X265022Y461557D01*
X265634Y461966D01*
X266043Y462578D01*
X266186Y463300D01*
Y468752D01*
X266199Y468781D01*
X266208Y469062D01*
X266232Y469295D01*
X266271Y469501D01*
X266321Y469680D01*
X266382Y469832D01*
X266452Y469960D01*
X266529Y470068D01*
X266615Y470159D01*
X266712Y470237D01*
X266860Y470327D01*
X266895Y470374D01*
X266949Y470397D01*
X267691Y470966D01*
X268261Y471708D01*
X268619Y472573D01*
X268741Y473500D01*
X268619Y474428D01*
X268261Y475292D01*
X267691Y476034D01*
X266949Y476603D01*
X266085Y476961D01*
X265158Y477083D01*
X264230Y476961D01*
X263366Y476603D01*
X262624Y476034D01*
X262054Y475292D01*
X261696Y474428D01*
X261204Y474499D01*
Y475096D01*
X261126Y475486D01*
X260905Y475817D01*
X256901Y479821D01*
X256570Y480042D01*
X256180Y480120D01*
X237020D01*
X236630Y480042D01*
X236299Y479821D01*
X220100Y463622D01*
X220010Y463627D01*
X219600Y463784D01*
Y475600D01*
Y476585D01*
X219984Y478517D01*
X220738Y480337D01*
X221832Y481975D01*
X223225Y483367D01*
X224863Y484462D01*
X226683Y485216D01*
X228615Y485600D01*
X405609D01*
X407000Y485323D01*
D02*
G37*
G36*
X236324Y450725D02*
X236333Y450631D01*
X236347Y450541D01*
X236367Y450456D01*
X236393Y450375D01*
X236425Y450298D01*
X236463Y450226D01*
X236506Y450158D01*
X236555Y450095D01*
X236610Y450036D01*
X235232D01*
X235287Y450095D01*
X235336Y450158D01*
X235379Y450226D01*
X235417Y450298D01*
X235449Y450375D01*
X235475Y450456D01*
X235495Y450541D01*
X235509Y450631D01*
X235518Y450725D01*
X235521Y450823D01*
X236321D01*
X236324Y450725D01*
D02*
G37*
G36*
X295003Y450491D02*
X295012Y450397D01*
X295026Y450308D01*
X295046Y450222D01*
X295072Y450141D01*
X295104Y450065D01*
X295142Y449993D01*
X295185Y449925D01*
X295234Y449862D01*
X295289Y449803D01*
X293911D01*
X293966Y449862D01*
X294015Y449925D01*
X294058Y449993D01*
X294096Y450065D01*
X294128Y450141D01*
X294154Y450222D01*
X294174Y450308D01*
X294188Y450397D01*
X294197Y450491D01*
X294200Y450590D01*
X295000D01*
X295003Y450491D01*
D02*
G37*
G36*
X285603Y450272D02*
X285624Y450056D01*
X285642Y449969D01*
X285665Y449895D01*
X285694Y449834D01*
X285728Y449787D01*
X285768Y449753D01*
X285812Y449733D01*
X285862Y449726D01*
X284538D01*
X284588Y449733D01*
X284632Y449753D01*
X284672Y449787D01*
X284706Y449834D01*
X284735Y449895D01*
X284758Y449969D01*
X284776Y450056D01*
X284789Y450157D01*
X284797Y450272D01*
X284800Y450400D01*
X285600D01*
X285603Y450272D01*
D02*
G37*
G36*
X297765Y448518D02*
X297685Y448509D01*
X297606Y448494D01*
X297528Y448472D01*
X297451Y448444D01*
X297375Y448409D01*
X297300Y448368D01*
X297226Y448320D01*
X297152Y448266D01*
X297080Y448205D01*
X297009Y448137D01*
X296396Y448655D01*
X296463Y448727D01*
X296523Y448800D01*
X296575Y448874D01*
X296620Y448949D01*
X296656Y449024D01*
X296684Y449101D01*
X296705Y449178D01*
X296718Y449256D01*
X296722Y449335D01*
X296719Y449415D01*
X297765Y448518D01*
D02*
G37*
G36*
X236555Y448572D02*
X236506Y448508D01*
X236463Y448441D01*
X236425Y448369D01*
X236393Y448292D01*
X236367Y448211D01*
X236347Y448126D01*
X236333Y448036D01*
X236324Y447942D01*
X236321Y447844D01*
X235521D01*
X235518Y447942D01*
X235509Y448036D01*
X235495Y448126D01*
X235475Y448211D01*
X235449Y448292D01*
X235417Y448369D01*
X235379Y448441D01*
X235336Y448508D01*
X235287Y448572D01*
X235232Y448630D01*
X236610D01*
X236555Y448572D01*
D02*
G37*
G36*
X290796Y449224D02*
X290820Y449156D01*
X290860Y449096D01*
X290916Y449044D01*
X290988Y449000D01*
X291076Y448964D01*
X291180Y448936D01*
X291300Y448916D01*
X291436Y448904D01*
X291588Y448900D01*
Y448100D01*
X291436Y448096D01*
X291300Y448084D01*
X291180Y448064D01*
X291076Y448036D01*
X290988Y448000D01*
X290916Y447956D01*
X290860Y447904D01*
X290820Y447844D01*
X290796Y447776D01*
X290788Y447700D01*
Y449300D01*
X290796Y449224D01*
D02*
G37*
G36*
X283587Y446510D02*
X283597Y446430D01*
X283614Y446352D01*
X283639Y446274D01*
X283670Y446198D01*
X283709Y446122D01*
X283755Y446047D01*
X283808Y445974D01*
X283869Y445901D01*
X283936Y445829D01*
X283371Y445264D01*
X283299Y445331D01*
X283226Y445392D01*
X283153Y445445D01*
X283078Y445491D01*
X283002Y445530D01*
X282926Y445561D01*
X282848Y445586D01*
X282770Y445603D01*
X282690Y445613D01*
X282610Y445616D01*
X283584Y446590D01*
X283587Y446510D01*
D02*
G37*
G36*
X284233Y445539D02*
X284536Y445281D01*
X284668Y445188D01*
X284788Y445119D01*
X284895Y445075D01*
X284988Y445054D01*
X285070Y445058D01*
X285138Y445086D01*
X285193Y445138D01*
X284212Y443857D01*
X284250Y443926D01*
X284268Y444004D01*
X284264Y444093D01*
X284239Y444191D01*
X284193Y444300D01*
X284126Y444418D01*
X284038Y444546D01*
X283928Y444683D01*
X283798Y444831D01*
X283646Y444988D01*
X284062Y445704D01*
X284233Y445539D01*
D02*
G37*
G36*
X236324Y444622D02*
X236333Y444528D01*
X236349Y444439D01*
X236370Y444355D01*
X236398Y444276D01*
X236432Y444202D01*
X236473Y444133D01*
X236519Y444069D01*
X236572Y444010D01*
X236630Y443956D01*
X235257Y443845D01*
X235307Y443908D01*
X235352Y443975D01*
X235391Y444045D01*
X235426Y444120D01*
X235455Y444199D01*
X235479Y444281D01*
X235497Y444368D01*
X235510Y444458D01*
X235518Y444552D01*
X235521Y444650D01*
X236321Y444721D01*
X236324Y444622D01*
D02*
G37*
G36*
X236987Y443110D02*
X236997Y443030D01*
X237014Y442952D01*
X237039Y442874D01*
X237070Y442798D01*
X237109Y442722D01*
X237155Y442647D01*
X237208Y442574D01*
X237269Y442501D01*
X237336Y442429D01*
X236771Y441864D01*
X236699Y441931D01*
X236626Y441992D01*
X236553Y442045D01*
X236478Y442091D01*
X236402Y442130D01*
X236326Y442161D01*
X236248Y442186D01*
X236170Y442203D01*
X236090Y442213D01*
X236010Y442216D01*
X236984Y443190D01*
X236987Y443110D01*
D02*
G37*
G36*
X237553Y439591D02*
X237562Y439497D01*
X237576Y439407D01*
X237596Y439322D01*
X237622Y439241D01*
X237654Y439165D01*
X237692Y439093D01*
X237735Y439025D01*
X237784Y438962D01*
X237839Y438903D01*
X236461D01*
X236516Y438962D01*
X236565Y439025D01*
X236608Y439093D01*
X236646Y439165D01*
X236678Y439241D01*
X236704Y439322D01*
X236724Y439407D01*
X236738Y439497D01*
X236747Y439591D01*
X236750Y439690D01*
X237550D01*
X237553Y439591D01*
D02*
G37*
G36*
X268864Y430078D02*
X268805Y430133D01*
X268742Y430182D01*
X268674Y430225D01*
X268602Y430263D01*
X268526Y430295D01*
X268445Y430321D01*
X268359Y430341D01*
X268270Y430355D01*
X268176Y430364D01*
X268077Y430367D01*
Y431167D01*
X268176Y431170D01*
X268270Y431179D01*
X268359Y431193D01*
X268445Y431213D01*
X268526Y431239D01*
X268602Y431271D01*
X268674Y431309D01*
X268742Y431352D01*
X268805Y431401D01*
X268864Y431456D01*
Y430078D01*
D02*
G37*
G36*
X231674Y426348D02*
X231641Y426286D01*
X231627Y426216D01*
X231630Y426138D01*
X231653Y426053D01*
X231695Y425961D01*
X231754Y425862D01*
X231833Y425755D01*
X231930Y425641D01*
X232046Y425520D01*
X231441Y424993D01*
X231318Y425111D01*
X231201Y425211D01*
X231091Y425293D01*
X230987Y425357D01*
X230890Y425404D01*
X230800Y425433D01*
X230716Y425444D01*
X230638Y425437D01*
X230568Y425413D01*
X230504Y425370D01*
X231726Y426404D01*
X231674Y426348D01*
D02*
G37*
G36*
X296501Y421869D02*
X296574Y421808D01*
X296647Y421755D01*
X296722Y421709D01*
X296798Y421670D01*
X296874Y421639D01*
X296952Y421614D01*
X297030Y421597D01*
X297110Y421587D01*
X297190Y421584D01*
X296216Y420610D01*
X296213Y420690D01*
X296203Y420770D01*
X296186Y420848D01*
X296161Y420926D01*
X296130Y421002D01*
X296091Y421078D01*
X296045Y421153D01*
X295992Y421226D01*
X295931Y421299D01*
X295864Y421371D01*
X296429Y421936D01*
X296501Y421869D01*
D02*
G37*
G36*
X279034Y419938D02*
X278985Y419875D01*
X278942Y419807D01*
X278904Y419735D01*
X278872Y419659D01*
X278846Y419578D01*
X278826Y419492D01*
X278812Y419403D01*
X278803Y419309D01*
X278800Y419210D01*
X278000D01*
X277997Y419309D01*
X277988Y419403D01*
X277974Y419492D01*
X277954Y419578D01*
X277928Y419659D01*
X277896Y419735D01*
X277858Y419807D01*
X277815Y419875D01*
X277766Y419938D01*
X277711Y419997D01*
X279089D01*
X279034Y419938D01*
D02*
G37*
G36*
X288384Y419838D02*
X288335Y419775D01*
X288292Y419707D01*
X288254Y419635D01*
X288222Y419559D01*
X288196Y419478D01*
X288176Y419392D01*
X288162Y419303D01*
X288153Y419209D01*
X288150Y419110D01*
X287350D01*
X287347Y419209D01*
X287338Y419303D01*
X287324Y419392D01*
X287304Y419478D01*
X287278Y419559D01*
X287246Y419635D01*
X287208Y419707D01*
X287165Y419775D01*
X287116Y419838D01*
X287061Y419897D01*
X288439D01*
X288384Y419838D01*
D02*
G37*
G36*
X232362Y415662D02*
X232326Y415602D01*
X232316Y415527D01*
X232332Y415437D01*
X232376Y415331D01*
X232446Y415211D01*
X232542Y415074D01*
X232665Y414923D01*
X232991Y414575D01*
X232031Y414403D01*
X231885Y414544D01*
X231614Y414769D01*
X231490Y414854D01*
X231373Y414920D01*
X231264Y414967D01*
X231162Y414995D01*
X231067Y415005D01*
X230980Y414996D01*
X230900Y414969D01*
X232425Y415706D01*
X232362Y415662D01*
D02*
G37*
G36*
X281722Y408491D02*
X281731Y408397D01*
X281746Y408308D01*
X281766Y408222D01*
X281792Y408141D01*
X281823Y408065D01*
X281861Y407993D01*
X281904Y407925D01*
X281954Y407862D01*
X282009Y407803D01*
X280630D01*
X280685Y407862D01*
X280735Y407925D01*
X280778Y407993D01*
X280816Y408065D01*
X280847Y408141D01*
X280873Y408222D01*
X280893Y408308D01*
X280908Y408397D01*
X280917Y408491D01*
X280920Y408590D01*
X281719D01*
X281722Y408491D01*
D02*
G37*
G36*
X307425Y402272D02*
X307457Y402257D01*
X307500Y402244D01*
X307552Y402232D01*
X307613Y402222D01*
X307767Y402208D01*
X307960Y402201D01*
X308071Y402200D01*
Y401000D01*
X307960Y400999D01*
X307613Y400978D01*
X307552Y400968D01*
X307500Y400956D01*
X307457Y400943D01*
X307425Y400928D01*
X307403Y400911D01*
Y402289D01*
X307425Y402272D01*
D02*
G37*
G36*
X310862Y396834D02*
X310925Y396785D01*
X310993Y396742D01*
X311065Y396704D01*
X311141Y396672D01*
X311222Y396646D01*
X311308Y396626D01*
X311397Y396612D01*
X311491Y396603D01*
X311590Y396600D01*
Y395800D01*
X311491Y395797D01*
X311397Y395788D01*
X311308Y395774D01*
X311222Y395754D01*
X311141Y395728D01*
X311065Y395696D01*
X310993Y395658D01*
X310925Y395615D01*
X310862Y395566D01*
X310803Y395511D01*
Y396889D01*
X310862Y396834D01*
D02*
G37*
G36*
X280177Y405958D02*
X280701Y405608D01*
X281319Y405485D01*
X281938Y405608D01*
X282462Y405958D01*
X282517Y406041D01*
X283197Y406160D01*
X283280Y406099D01*
Y393722D01*
X282195Y392637D01*
X282142Y392642D01*
X281618Y392992D01*
X281000Y393115D01*
X280382Y392992D01*
X279920Y392684D01*
X279657Y392754D01*
X279420Y392886D01*
Y406192D01*
X279920Y406344D01*
X280177Y405958D01*
D02*
G37*
G36*
X285813Y421358D02*
X286175Y420804D01*
X286135Y420600D01*
X286258Y419982D01*
X286555Y419536D01*
X286586Y419454D01*
X286621Y419417D01*
X286634Y419400D01*
X286646Y419381D01*
X286657Y419360D01*
X286668Y419334D01*
X286678Y419303D01*
X286687Y419266D01*
X286694Y419221D01*
X286699Y419169D01*
X286701Y419091D01*
X286730Y419025D01*
Y392272D01*
X283578Y389120D01*
X280175D01*
X280109Y389149D01*
X280031Y389152D01*
X279979Y389156D01*
X279934Y389163D01*
X279897Y389172D01*
X279866Y389182D01*
X279840Y389193D01*
X279819Y389204D01*
X279800Y389216D01*
X279783Y389229D01*
X279746Y389264D01*
X279664Y389295D01*
X279218Y389592D01*
X278600Y389715D01*
X278502Y389696D01*
X278256Y390157D01*
X278995Y390896D01*
X279232Y390889D01*
X279462Y390846D01*
X279568Y390791D01*
X279858Y390358D01*
X280382Y390008D01*
X281000Y389885D01*
X281618Y390008D01*
X281813Y390138D01*
X282100Y390080D01*
X282490Y390158D01*
X282821Y390379D01*
X285021Y392579D01*
X285242Y392910D01*
X285320Y393300D01*
Y421031D01*
X285696Y421375D01*
X285813Y421358D01*
D02*
G37*
G36*
X325585Y388960D02*
X325564Y388894D01*
X325529Y388749D01*
X325515Y388670D01*
X325495Y388501D01*
X325485Y388314D01*
X325484Y388215D01*
X324684Y387825D01*
X324681Y387926D01*
X324671Y388019D01*
X324653Y388104D01*
X324629Y388182D01*
X324598Y388252D01*
X324560Y388314D01*
X324516Y388368D01*
X324464Y388414D01*
X324406Y388453D01*
X324340Y388484D01*
X325609Y389022D01*
X325585Y388960D01*
D02*
G37*
G36*
X279362Y388734D02*
X279425Y388685D01*
X279493Y388642D01*
X279565Y388604D01*
X279641Y388572D01*
X279722Y388546D01*
X279807Y388526D01*
X279897Y388512D01*
X279991Y388503D01*
X280090Y388500D01*
Y387700D01*
X279991Y387697D01*
X279897Y387688D01*
X279807Y387674D01*
X279722Y387654D01*
X279641Y387628D01*
X279565Y387596D01*
X279493Y387558D01*
X279425Y387515D01*
X279362Y387466D01*
X279303Y387411D01*
Y388789D01*
X279362Y388734D01*
D02*
G37*
G36*
X275700Y387938D02*
X275703Y387840D01*
X275710Y387746D01*
X275723Y387655D01*
X275741Y387569D01*
X275764Y387486D01*
X275793Y387407D01*
X275826Y387332D01*
X275864Y387261D01*
X275908Y387193D01*
X275957Y387129D01*
X274586Y387269D01*
X274646Y387322D01*
X274699Y387380D01*
X274746Y387443D01*
X274787Y387511D01*
X274821Y387584D01*
X274850Y387663D01*
X274872Y387746D01*
X274887Y387835D01*
X274897Y387929D01*
X274900Y388028D01*
X275700Y387938D01*
D02*
G37*
G36*
X328734Y384838D02*
X328685Y384775D01*
X328642Y384707D01*
X328604Y384635D01*
X328572Y384559D01*
X328546Y384478D01*
X328526Y384392D01*
X328512Y384303D01*
X328503Y384209D01*
X328500Y384110D01*
X327700D01*
X327697Y384209D01*
X327688Y384303D01*
X327674Y384392D01*
X327654Y384478D01*
X327628Y384559D01*
X327596Y384635D01*
X327558Y384707D01*
X327515Y384775D01*
X327466Y384838D01*
X327411Y384897D01*
X328789D01*
X328734Y384838D01*
D02*
G37*
G36*
X319934Y381738D02*
X319885Y381675D01*
X319842Y381607D01*
X319804Y381535D01*
X319772Y381459D01*
X319746Y381378D01*
X319726Y381293D01*
X319712Y381203D01*
X319703Y381109D01*
X319700Y381010D01*
X318900D01*
X318897Y381109D01*
X318888Y381203D01*
X318874Y381293D01*
X318854Y381378D01*
X318828Y381459D01*
X318796Y381535D01*
X318758Y381607D01*
X318715Y381675D01*
X318666Y381738D01*
X318611Y381797D01*
X319989D01*
X319934Y381738D01*
D02*
G37*
G36*
X323460Y379284D02*
X323394Y379253D01*
X323336Y379214D01*
X323284Y379168D01*
X323240Y379114D01*
X323202Y379052D01*
X323171Y378982D01*
X323147Y378904D01*
X323130Y378819D01*
X323119Y378726D01*
X323116Y378625D01*
X322316Y379015D01*
X322315Y379114D01*
X322296Y379388D01*
X322285Y379470D01*
X322255Y379624D01*
X322236Y379694D01*
X322191Y379822D01*
X323460Y379284D01*
D02*
G37*
G36*
X282590Y376057D02*
X282662Y375997D01*
X282736Y375943D01*
X282811Y375898D01*
X282886Y375859D01*
X282963Y375827D01*
X283040Y375803D01*
X283119Y375785D01*
X283198Y375776D01*
X283279Y375773D01*
X282304Y374798D01*
X282301Y374879D01*
X282292Y374958D01*
X282274Y375037D01*
X282250Y375114D01*
X282218Y375191D01*
X282179Y375266D01*
X282134Y375341D01*
X282080Y375415D01*
X282020Y375487D01*
X281952Y375559D01*
X282518Y376125D01*
X282590Y376057D01*
D02*
G37*
G36*
X279754Y373640D02*
X279763Y373546D01*
X279778Y373456D01*
X279798Y373371D01*
X279824Y373290D01*
X279855Y373213D01*
X279893Y373141D01*
X279936Y373074D01*
X279986Y373010D01*
X280041Y372951D01*
X278662D01*
X278717Y373010D01*
X278767Y373074D01*
X278810Y373141D01*
X278848Y373213D01*
X278879Y373290D01*
X278905Y373371D01*
X278925Y373456D01*
X278940Y373546D01*
X278949Y373640D01*
X278952Y373738D01*
X279751D01*
X279754Y373640D01*
D02*
G37*
G36*
X232362Y371662D02*
X232326Y371602D01*
X232316Y371527D01*
X232332Y371437D01*
X232376Y371331D01*
X232446Y371211D01*
X232542Y371075D01*
X232665Y370923D01*
X232991Y370575D01*
X232031Y370403D01*
X231885Y370544D01*
X231614Y370769D01*
X231490Y370854D01*
X231373Y370919D01*
X231264Y370967D01*
X231162Y370995D01*
X231067Y371005D01*
X230980Y370996D01*
X230900Y370969D01*
X232425Y371706D01*
X232362Y371662D01*
D02*
G37*
G36*
X231045Y370350D02*
X231052Y370351D01*
X231084Y370337D01*
X231147Y370302D01*
X231223Y370250D01*
X231452Y370059D01*
X231581Y369935D01*
X231631Y369915D01*
X231660Y369870D01*
X231696Y369862D01*
X235577Y365982D01*
X235385Y365520D01*
X233285D01*
X233218Y365549D01*
X233071Y365553D01*
X232963Y365561D01*
X232932Y365566D01*
X232930Y365582D01*
X232513Y366589D01*
X231849Y367455D01*
X230983Y368119D01*
X229975Y368537D01*
X228894Y368679D01*
X228106D01*
X227025Y368537D01*
X226017Y368119D01*
X225151Y367455D01*
X224487Y366589D01*
X224276Y366081D01*
X223777Y366180D01*
Y369934D01*
X223963Y370357D01*
X230685D01*
X230686Y370355D01*
X230710Y370357D01*
X231023D01*
X231045Y370350D01*
D02*
G37*
G36*
X263680Y369050D02*
X263739Y368997D01*
X263804Y368951D01*
X263873Y368911D01*
X263947Y368877D01*
X264026Y368849D01*
X264110Y368828D01*
X264199Y368812D01*
X264293Y368803D01*
X264392Y368800D01*
X264327Y368000D01*
X264229Y367997D01*
X264134Y367989D01*
X264044Y367976D01*
X263958Y367957D01*
X263875Y367934D01*
X263797Y367904D01*
X263722Y367870D01*
X263652Y367830D01*
X263585Y367785D01*
X263523Y367734D01*
X263626Y369108D01*
X263680Y369050D01*
D02*
G37*
G36*
X262414Y367603D02*
X262348Y367635D01*
X262278Y367664D01*
X262204Y367690D01*
X262127Y367712D01*
X261963Y367746D01*
X261875Y367758D01*
X261689Y367772D01*
X261591Y367773D01*
X261304Y368573D01*
X261404Y368577D01*
X261497Y368587D01*
X261583Y368604D01*
X261663Y368628D01*
X261735Y368659D01*
X261801Y368696D01*
X261860Y368741D01*
X261911Y368792D01*
X261956Y368850D01*
X261994Y368915D01*
X262414Y367603D01*
D02*
G37*
G36*
X256354Y368807D02*
X256417Y368758D01*
X256485Y368715D01*
X256557Y368677D01*
X256634Y368646D01*
X256714Y368619D01*
X256800Y368599D01*
X256890Y368585D01*
X256984Y368576D01*
X257082Y368573D01*
Y367773D01*
X256984Y367770D01*
X256890Y367762D01*
X256800Y367747D01*
X256714Y367727D01*
X256634Y367701D01*
X256557Y367669D01*
X256485Y367632D01*
X256417Y367588D01*
X256354Y367539D01*
X256295Y367484D01*
Y368862D01*
X256354Y368807D01*
D02*
G37*
G36*
X326734Y366638D02*
X326685Y366575D01*
X326642Y366507D01*
X326604Y366435D01*
X326572Y366359D01*
X326546Y366278D01*
X326526Y366193D01*
X326512Y366103D01*
X326503Y366009D01*
X326500Y365910D01*
X325700D01*
X325697Y366009D01*
X325688Y366103D01*
X325674Y366193D01*
X325654Y366278D01*
X325628Y366359D01*
X325596Y366435D01*
X325558Y366507D01*
X325515Y366575D01*
X325466Y366638D01*
X325411Y366697D01*
X326789D01*
X326734Y366638D01*
D02*
G37*
G36*
X232339Y365221D02*
X232365Y365154D01*
X232408Y365094D01*
X232469Y365043D01*
X232548Y364999D01*
X232644Y364963D01*
X232757Y364936D01*
X232888Y364916D01*
X233037Y364904D01*
X233203Y364900D01*
Y364100D01*
X233037Y364096D01*
X232888Y364084D01*
X232757Y364064D01*
X232644Y364037D01*
X232548Y364001D01*
X232469Y363957D01*
X232408Y363906D01*
X232365Y363846D01*
X232339Y363779D01*
X232330Y363703D01*
Y365297D01*
X232339Y365221D01*
D02*
G37*
G36*
X282656Y360602D02*
X282652Y360565D01*
X282431Y360120D01*
X279175D01*
X279109Y360149D01*
X279031Y360152D01*
X278979Y360156D01*
X278934Y360163D01*
X278897Y360172D01*
X278866Y360182D01*
X278840Y360193D01*
X278818Y360204D01*
X278800Y360216D01*
X278783Y360229D01*
X278746Y360264D01*
X278664Y360295D01*
X278218Y360592D01*
X277693Y360697D01*
X277613Y360733D01*
X277562Y360735D01*
X277540Y360738D01*
X277519Y360742D01*
X277496Y360750D01*
X277470Y360760D01*
X277441Y360775D01*
X277409Y360795D01*
X277372Y360822D01*
X277332Y360855D01*
X277275Y360909D01*
X277207Y360934D01*
X276921Y361221D01*
X276590Y361442D01*
X276200Y361520D01*
X255200D01*
X254810Y361442D01*
X254479Y361221D01*
X253578Y360320D01*
X252275D01*
X252209Y360349D01*
X252131Y360351D01*
X252079Y360356D01*
X252034Y360363D01*
X251997Y360372D01*
X251966Y360382D01*
X251940Y360393D01*
X251919Y360404D01*
X251900Y360416D01*
X251883Y360429D01*
X251846Y360464D01*
X251764Y360495D01*
X251318Y360792D01*
X250700Y360915D01*
X250082Y360792D01*
X249558Y360442D01*
X249208Y359918D01*
X249085Y359300D01*
X249208Y358682D01*
X249558Y358158D01*
X250082Y357808D01*
X250700Y357685D01*
X251318Y357808D01*
X251764Y358105D01*
X251846Y358136D01*
X251883Y358171D01*
X251900Y358184D01*
X251919Y358196D01*
X251940Y358207D01*
X251966Y358218D01*
X251997Y358228D01*
X252034Y358237D01*
X252079Y358244D01*
X252131Y358248D01*
X252209Y358251D01*
X252275Y358280D01*
X254000D01*
X254390Y358358D01*
X254721Y358579D01*
X255622Y359480D01*
X267349D01*
X267616Y358980D01*
X267508Y358818D01*
X267385Y358200D01*
X267508Y357582D01*
X267858Y357058D01*
X268382Y356708D01*
X269000Y356585D01*
X269618Y356708D01*
X270142Y357058D01*
X270492Y357582D01*
X270615Y358200D01*
X270492Y358818D01*
X270384Y358980D01*
X270651Y359480D01*
X275770D01*
X275791Y359425D01*
X275845Y359368D01*
X275878Y359328D01*
X275905Y359291D01*
X275925Y359259D01*
X275940Y359230D01*
X275950Y359204D01*
X275958Y359181D01*
X275962Y359159D01*
X275965Y359138D01*
X275967Y359087D01*
X276003Y359008D01*
X276108Y358482D01*
X276458Y357958D01*
X276982Y357608D01*
X277600Y357485D01*
X278218Y357608D01*
X278664Y357905D01*
X278746Y357936D01*
X278783Y357971D01*
X278800Y357984D01*
X278819Y357996D01*
X278840Y358007D01*
X278866Y358018D01*
X278897Y358028D01*
X278934Y358037D01*
X278979Y358044D01*
X279031Y358049D01*
X279109Y358051D01*
X279175Y358080D01*
X281275D01*
X281325Y357580D01*
X280882Y357492D01*
X280358Y357142D01*
X280008Y356618D01*
X279967Y356414D01*
X279430Y355876D01*
X233923D01*
X233871Y355899D01*
X233551Y355906D01*
X233288Y355926D01*
X233070Y355956D01*
X232901Y355995D01*
X232783Y356035D01*
X232731Y356062D01*
X232730Y356075D01*
X232716Y356100D01*
X232513Y356590D01*
X231849Y357455D01*
X230983Y358119D01*
X229975Y358537D01*
X228894Y358679D01*
X228106D01*
X227025Y358537D01*
X226017Y358119D01*
X225151Y357455D01*
X224487Y356590D01*
X224276Y356081D01*
X223777Y356181D01*
Y362820D01*
X224276Y362919D01*
X224487Y362410D01*
X225151Y361545D01*
X226017Y360881D01*
X227025Y360463D01*
X228106Y360321D01*
X228894D01*
X229975Y360463D01*
X230983Y360881D01*
X231849Y361545D01*
X232513Y362410D01*
X232930Y363418D01*
X232932Y363434D01*
X232963Y363439D01*
X233071Y363447D01*
X233218Y363451D01*
X233285Y363480D01*
X279778D01*
X282656Y360602D01*
D02*
G37*
G36*
X290097Y359811D02*
X290038Y359866D01*
X289975Y359915D01*
X289907Y359958D01*
X289835Y359996D01*
X289759Y360028D01*
X289678Y360054D01*
X289593Y360074D01*
X289503Y360088D01*
X289409Y360097D01*
X289310Y360100D01*
Y360900D01*
X289409Y360903D01*
X289503Y360912D01*
X289593Y360926D01*
X289678Y360946D01*
X289759Y360972D01*
X289835Y361004D01*
X289907Y361042D01*
X289975Y361085D01*
X290038Y361134D01*
X290097Y361189D01*
Y359811D01*
D02*
G37*
G36*
X276901Y360369D02*
X276974Y360308D01*
X277047Y360255D01*
X277122Y360209D01*
X277198Y360170D01*
X277274Y360139D01*
X277352Y360114D01*
X277430Y360097D01*
X277510Y360087D01*
X277590Y360084D01*
X276616Y359110D01*
X276613Y359190D01*
X276603Y359270D01*
X276586Y359348D01*
X276561Y359426D01*
X276530Y359502D01*
X276491Y359578D01*
X276445Y359653D01*
X276392Y359726D01*
X276331Y359799D01*
X276264Y359871D01*
X276829Y360436D01*
X276901Y360369D01*
D02*
G37*
G36*
X276879Y367879D02*
X277210Y367658D01*
X277600Y367580D01*
X290378D01*
X299005Y358953D01*
X298643Y358401D01*
X298557Y358285D01*
X282613Y342341D01*
X279800D01*
X278981Y342178D01*
X278286Y341714D01*
X277941Y341197D01*
X277414Y341146D01*
X277362Y341163D01*
X277295Y341264D01*
X277264Y341346D01*
X277229Y341383D01*
X277216Y341400D01*
X277204Y341419D01*
X277193Y341440D01*
X277182Y341466D01*
X277172Y341497D01*
X277163Y341534D01*
X277156Y341579D01*
X277151Y341631D01*
X277149Y341709D01*
X277120Y341775D01*
Y342478D01*
X284721Y350079D01*
X284942Y350410D01*
X285020Y350800D01*
Y357524D01*
X285219Y357674D01*
X285444Y357750D01*
X285502Y357756D01*
X285579Y357679D01*
X285665Y357622D01*
X285948Y357372D01*
X285991Y357358D01*
X286058Y357258D01*
X286582Y356908D01*
X286961Y356832D01*
X287205Y356318D01*
X287205Y356313D01*
X287008Y356018D01*
X286885Y355400D01*
X287008Y354782D01*
X287358Y354258D01*
X287882Y353908D01*
X288500Y353785D01*
X289118Y353908D01*
X289642Y354258D01*
X289992Y354782D01*
X290115Y355400D01*
X289992Y356018D01*
X289642Y356542D01*
X289118Y356892D01*
X288739Y356968D01*
X288495Y357482D01*
X288495Y357487D01*
X288692Y357782D01*
X288815Y358400D01*
X288700Y358980D01*
X288708Y359096D01*
X288914Y359480D01*
X289225D01*
X289291Y359451D01*
X289369Y359449D01*
X289421Y359444D01*
X289466Y359437D01*
X289503Y359428D01*
X289534Y359418D01*
X289560Y359407D01*
X289581Y359396D01*
X289600Y359384D01*
X289617Y359371D01*
X289654Y359336D01*
X289736Y359305D01*
X290182Y359008D01*
X290800Y358885D01*
X291418Y359008D01*
X291942Y359358D01*
X292292Y359882D01*
X292415Y360500D01*
X292292Y361118D01*
X291942Y361642D01*
X291418Y361992D01*
X290800Y362115D01*
X290182Y361992D01*
X289736Y361695D01*
X289654Y361664D01*
X289617Y361629D01*
X289600Y361616D01*
X289581Y361604D01*
X289560Y361593D01*
X289534Y361582D01*
X289503Y361572D01*
X289466Y361563D01*
X289421Y361556D01*
X289369Y361551D01*
X289291Y361549D01*
X289225Y361520D01*
X286602D01*
X281501Y366621D01*
X281170Y366842D01*
X280780Y366920D01*
X274686D01*
X274554Y367157D01*
X274483Y367420D01*
X274792Y367882D01*
X274915Y368500D01*
X274792Y369118D01*
X274509Y369542D01*
X274898Y369860D01*
X276879Y367879D01*
D02*
G37*
G36*
X251462Y359934D02*
X251525Y359885D01*
X251593Y359842D01*
X251665Y359804D01*
X251741Y359772D01*
X251822Y359746D01*
X251907Y359726D01*
X251997Y359712D01*
X252091Y359703D01*
X252190Y359700D01*
Y358900D01*
X252091Y358897D01*
X251997Y358888D01*
X251907Y358874D01*
X251822Y358854D01*
X251741Y358828D01*
X251665Y358796D01*
X251593Y358758D01*
X251525Y358715D01*
X251462Y358666D01*
X251403Y358611D01*
Y359989D01*
X251462Y359934D01*
D02*
G37*
G36*
X278362Y359734D02*
X278425Y359685D01*
X278493Y359642D01*
X278565Y359604D01*
X278641Y359572D01*
X278722Y359546D01*
X278807Y359526D01*
X278897Y359512D01*
X278991Y359503D01*
X279090Y359500D01*
Y358700D01*
X278991Y358697D01*
X278897Y358688D01*
X278807Y358674D01*
X278722Y358654D01*
X278641Y358628D01*
X278565Y358596D01*
X278493Y358558D01*
X278425Y358515D01*
X278362Y358466D01*
X278303Y358411D01*
Y359789D01*
X278362Y359734D01*
D02*
G37*
G36*
X286015Y359255D02*
X286087Y359196D01*
X286156Y359149D01*
X286222Y359113D01*
X286285Y359089D01*
X286346Y359077D01*
X286403Y359076D01*
X286457Y359087D01*
X286508Y359110D01*
X286556Y359144D01*
X286377Y357860D01*
X285519Y358616D01*
X285940Y359326D01*
X286015Y359255D01*
D02*
G37*
G36*
X300629Y359111D02*
X300653Y359029D01*
X300693Y358931D01*
X300748Y358819D01*
X300908Y358548D01*
X301131Y358217D01*
X301418Y357826D01*
X300656D01*
X300676Y357760D01*
X300707Y357690D01*
X300745Y357628D01*
X300790Y357573D01*
X300841Y357527D01*
X300900Y357488D01*
X300965Y357456D01*
X299693Y356926D01*
X299718Y356988D01*
X299739Y357054D01*
X299775Y357200D01*
X299789Y357279D01*
X299810Y357449D01*
X299820Y357635D01*
X299821Y357734D01*
X300012Y357826D01*
X299025D01*
X299176Y358029D01*
X299694Y358819D01*
X299749Y358931D01*
X299789Y359029D01*
X299813Y359111D01*
X299821Y359179D01*
X300621D01*
X300629Y359111D01*
D02*
G37*
G36*
X232103Y355853D02*
X232156Y355726D01*
X232245Y355615D01*
X232369Y355518D01*
X232528Y355436D01*
X232723Y355369D01*
X232953Y355317D01*
X233219Y355280D01*
X233520Y355257D01*
X233856Y355250D01*
Y353750D01*
X233520Y353743D01*
X232953Y353683D01*
X232723Y353631D01*
X232528Y353564D01*
X232369Y353482D01*
X232245Y353385D01*
X232156Y353274D01*
X232103Y353147D01*
X232085Y353006D01*
Y355994D01*
X232103Y355853D01*
D02*
G37*
G36*
X226505Y348766D02*
X226980Y348375D01*
X227199Y348229D01*
X227407Y348115D01*
X227604Y348035D01*
X227788Y347986D01*
X227962Y347970D01*
X228123Y347987D01*
X228273Y348036D01*
X225369Y346712D01*
X225494Y346787D01*
X225580Y346882D01*
X225625Y346995D01*
X225631Y347127D01*
X225597Y347277D01*
X225523Y347446D01*
X225410Y347634D01*
X225256Y347841D01*
X225063Y348066D01*
X224829Y348310D01*
X226251Y349010D01*
X226505Y348766D01*
D02*
G37*
G36*
X292962Y345134D02*
X293025Y345085D01*
X293093Y345042D01*
X293165Y345004D01*
X293241Y344972D01*
X293322Y344946D01*
X293408Y344926D01*
X293497Y344912D01*
X293591Y344903D01*
X293690Y344900D01*
Y344100D01*
X293591Y344097D01*
X293497Y344088D01*
X293408Y344074D01*
X293322Y344054D01*
X293241Y344028D01*
X293165Y343996D01*
X293093Y343958D01*
X293025Y343915D01*
X292962Y343866D01*
X292903Y343811D01*
Y345189D01*
X292962Y345134D01*
D02*
G37*
G36*
X291320Y343118D02*
X291384Y343069D01*
X291451Y343026D01*
X291523Y342988D01*
X291600Y342956D01*
X291681Y342931D01*
X291766Y342910D01*
X291856Y342896D01*
X291950Y342887D01*
X292048Y342884D01*
X292048Y342084D01*
X291950Y342081D01*
X291856Y342073D01*
X291766Y342058D01*
X291681Y342038D01*
X291600Y342012D01*
X291523Y341980D01*
X291451Y341943D01*
X291384Y341899D01*
X291320Y341850D01*
X291261Y341795D01*
X291261Y343173D01*
X291320Y343118D01*
D02*
G37*
G36*
X276503Y341591D02*
X276512Y341497D01*
X276526Y341407D01*
X276546Y341322D01*
X276572Y341241D01*
X276604Y341165D01*
X276642Y341093D01*
X276685Y341025D01*
X276734Y340962D01*
X276789Y340903D01*
X275411D01*
X275466Y340962D01*
X275515Y341025D01*
X275558Y341093D01*
X275596Y341165D01*
X275628Y341241D01*
X275654Y341322D01*
X275674Y341407D01*
X275688Y341497D01*
X275697Y341591D01*
X275700Y341690D01*
X276500D01*
X276503Y341591D01*
D02*
G37*
G36*
X293162Y341134D02*
X293225Y341085D01*
X293293Y341042D01*
X293365Y341004D01*
X293441Y340972D01*
X293522Y340946D01*
X293607Y340926D01*
X293697Y340912D01*
X293791Y340903D01*
X293890Y340900D01*
Y340100D01*
X293791Y340097D01*
X293697Y340088D01*
X293607Y340074D01*
X293522Y340054D01*
X293441Y340028D01*
X293365Y339996D01*
X293293Y339958D01*
X293225Y339915D01*
X293162Y339866D01*
X293103Y339811D01*
Y341189D01*
X293162Y341134D01*
D02*
G37*
G36*
X323096Y355941D02*
Y350838D01*
X311714Y339456D01*
X306665D01*
X306458Y339956D01*
X322634Y356133D01*
X323096Y355941D01*
D02*
G37*
G36*
X291065Y339034D02*
X291134Y338992D01*
X291206Y338956D01*
X291283Y338924D01*
X291362Y338898D01*
X291445Y338876D01*
X291532Y338859D01*
X291623Y338846D01*
X291718Y338839D01*
X291816Y338837D01*
X291939Y338037D01*
X291840Y338034D01*
X291746Y338024D01*
X291658Y338008D01*
X291575Y337985D01*
X291497Y337956D01*
X291425Y337921D01*
X291359Y337879D01*
X291298Y337831D01*
X291242Y337776D01*
X291192Y337715D01*
X291000Y339080D01*
X291065Y339034D01*
D02*
G37*
G36*
X293062Y337087D02*
X293125Y337037D01*
X293193Y336994D01*
X293265Y336957D01*
X293341Y336925D01*
X293422Y336899D01*
X293508Y336878D01*
X293597Y336864D01*
X293691Y336855D01*
X293790Y336853D01*
Y336052D01*
X293691Y336050D01*
X293597Y336041D01*
X293508Y336027D01*
X293422Y336006D01*
X293341Y335980D01*
X293265Y335948D01*
X293193Y335911D01*
X293125Y335868D01*
X293062Y335818D01*
X293003Y335764D01*
Y337141D01*
X293062Y337087D01*
D02*
G37*
G36*
X327080Y349252D02*
Y348022D01*
X314378Y335320D01*
X313134D01*
X313027Y335477D01*
X312941Y335820D01*
X326580Y349459D01*
X327080Y349252D01*
D02*
G37*
G36*
X291262Y334934D02*
X291325Y334885D01*
X291393Y334842D01*
X291465Y334804D01*
X291541Y334772D01*
X291622Y334746D01*
X291707Y334726D01*
X291797Y334712D01*
X291891Y334703D01*
X291990Y334700D01*
Y333900D01*
X291891Y333897D01*
X291797Y333888D01*
X291707Y333874D01*
X291622Y333854D01*
X291541Y333828D01*
X291465Y333796D01*
X291393Y333758D01*
X291325Y333715D01*
X291262Y333666D01*
X291203Y333611D01*
Y334989D01*
X291262Y334934D01*
D02*
G37*
%LPC*%
G36*
X231300Y465315D02*
X230682Y465192D01*
X230158Y464842D01*
X229808Y464318D01*
X229685Y463700D01*
X229808Y463082D01*
X230158Y462558D01*
X230682Y462208D01*
X231300Y462085D01*
X231918Y462208D01*
X232442Y462558D01*
X232792Y463082D01*
X232915Y463700D01*
X232792Y464318D01*
X232442Y464842D01*
X231918Y465192D01*
X231300Y465315D01*
D02*
G37*
G36*
X305800Y463615D02*
X305182Y463492D01*
X304658Y463142D01*
X304308Y462618D01*
X304185Y462000D01*
X304050Y461866D01*
X303800Y461915D01*
X303182Y461792D01*
X302658Y461442D01*
X302308Y460918D01*
X302185Y460300D01*
X302249Y459975D01*
X302022Y459555D01*
X301875Y459490D01*
X301382Y459392D01*
X300858Y459042D01*
X300508Y458518D01*
X300385Y457900D01*
X300281Y457796D01*
X299934Y457602D01*
X299382Y457492D01*
X298858Y457142D01*
X298508Y456618D01*
X298385Y456000D01*
X298508Y455382D01*
X298858Y454858D01*
X298910Y454823D01*
X299058Y454642D01*
X298708Y454118D01*
X298585Y453500D01*
X298708Y452882D01*
X299058Y452358D01*
X299582Y452008D01*
X300200Y451885D01*
X300818Y452008D01*
X300846Y452026D01*
X300848Y452026D01*
X301347Y451760D01*
X301350Y451718D01*
X301351Y451624D01*
X301377Y451563D01*
Y448907D01*
X297593Y445123D01*
X292063D01*
X292005Y445149D01*
X291797Y445155D01*
X291638Y445169D01*
X291514Y445189D01*
X291428Y445213D01*
X291404Y445222D01*
X291400Y445230D01*
Y445750D01*
X288200D01*
Y442050D01*
X291400D01*
Y442570D01*
X291404Y442578D01*
X291428Y442588D01*
X291514Y442611D01*
X291638Y442631D01*
X291797Y442645D01*
X292005Y442651D01*
X292063Y442676D01*
X298100D01*
X298568Y442770D01*
X298965Y443035D01*
X303465Y447535D01*
X303730Y447932D01*
X303823Y448400D01*
Y451563D01*
X303849Y451624D01*
X303850Y451726D01*
X303856Y451891D01*
X303867Y452006D01*
X303869Y452019D01*
X303961Y452080D01*
X304320Y452276D01*
X304516Y452185D01*
X304782Y452008D01*
X305400Y451885D01*
X306018Y452008D01*
X306542Y452358D01*
X306892Y452882D01*
X307015Y453500D01*
X306892Y454118D01*
X306542Y454642D01*
X306018Y454992D01*
X305803Y455035D01*
X305915Y455600D01*
X305792Y456218D01*
X305697Y456361D01*
X305842Y456458D01*
X306192Y456982D01*
X306315Y457600D01*
X306264Y457857D01*
X306518Y457908D01*
X307042Y458258D01*
X307392Y458782D01*
X307515Y459400D01*
X307392Y460018D01*
X307042Y460542D01*
X307105Y461101D01*
X307292Y461382D01*
X307415Y462000D01*
X307292Y462618D01*
X306942Y463142D01*
X306418Y463492D01*
X305800Y463615D01*
D02*
G37*
G36*
X228894Y452679D02*
X228106D01*
X227025Y452537D01*
X226017Y452119D01*
X225151Y451455D01*
X224487Y450590D01*
X224070Y449582D01*
X223927Y448500D01*
X224070Y447418D01*
X224487Y446411D01*
X225151Y445545D01*
X226017Y444881D01*
X227025Y444463D01*
X228106Y444321D01*
X228894D01*
X229975Y444463D01*
X230983Y444881D01*
X231849Y445545D01*
X232513Y446411D01*
X232930Y447418D01*
X233073Y448500D01*
X232930Y449582D01*
X232513Y450590D01*
X231849Y451455D01*
X230983Y452119D01*
X229975Y452537D01*
X228894Y452679D01*
D02*
G37*
G36*
X268700Y445515D02*
X268082Y445392D01*
X267558Y445042D01*
X267208Y444518D01*
X267105Y444001D01*
X266595D01*
X266492Y444518D01*
X266142Y445042D01*
X265618Y445392D01*
X265000Y445515D01*
X264382Y445392D01*
X263858Y445042D01*
X263508Y444518D01*
X263385Y443900D01*
X263508Y443282D01*
X263858Y442758D01*
X264382Y442408D01*
X264898Y442305D01*
Y441795D01*
X264382Y441692D01*
X263858Y441342D01*
X263508Y440818D01*
X263385Y440200D01*
X263508Y439582D01*
X263858Y439058D01*
X264382Y438708D01*
X265000Y438585D01*
X265618Y438708D01*
X266142Y439058D01*
X266492Y439582D01*
X266595Y440098D01*
X267105D01*
X267208Y439582D01*
X267558Y439058D01*
X268082Y438708D01*
X268700Y438585D01*
X269318Y438708D01*
X269842Y439058D01*
X270192Y439582D01*
X270295Y440098D01*
X270805D01*
X270908Y439582D01*
X271258Y439058D01*
X271782Y438708D01*
X272400Y438585D01*
X273018Y438708D01*
X273542Y439058D01*
X273892Y439582D01*
X274015Y440200D01*
X273892Y440818D01*
X273542Y441342D01*
X273018Y441692D01*
X272400Y441815D01*
X271782Y441692D01*
X271258Y441342D01*
X270908Y440818D01*
X270805Y440302D01*
X270295D01*
X270192Y440818D01*
X269842Y441342D01*
X269318Y441692D01*
X268801Y441795D01*
Y442305D01*
X269318Y442408D01*
X269842Y442758D01*
X270192Y443282D01*
X270315Y443900D01*
X270192Y444518D01*
X269842Y445042D01*
X269318Y445392D01*
X268700Y445515D01*
D02*
G37*
G36*
X228894Y442679D02*
X228106D01*
X227025Y442537D01*
X226017Y442119D01*
X225151Y441455D01*
X224487Y440590D01*
X224070Y439582D01*
X223927Y438500D01*
X224070Y437418D01*
X224487Y436411D01*
X225151Y435545D01*
X226017Y434881D01*
X227025Y434463D01*
X228106Y434321D01*
X228894D01*
X229975Y434463D01*
X230983Y434881D01*
X231849Y435545D01*
X232513Y436411D01*
X232930Y437418D01*
X233073Y438500D01*
X232930Y439582D01*
X232513Y440590D01*
X231849Y441455D01*
X230983Y442119D01*
X229975Y442537D01*
X228894Y442679D01*
D02*
G37*
G36*
X283400Y439327D02*
X282782Y439204D01*
X282258Y438854D01*
X281908Y438330D01*
X281785Y437711D01*
X281908Y437093D01*
X282123Y436772D01*
X282122Y436771D01*
X282124Y436762D01*
X282124Y436758D01*
X282129Y436743D01*
X282130Y436738D01*
X282131Y436727D01*
X282150Y436429D01*
X282151Y436336D01*
X282176Y436274D01*
Y434300D01*
X282270Y433832D01*
X282535Y433435D01*
X287835Y428135D01*
X288232Y427870D01*
X288700Y427776D01*
X288863D01*
X288924Y427751D01*
X289026Y427750D01*
X289191Y427744D01*
X289306Y427733D01*
X289327Y427730D01*
X289331Y427729D01*
X289346Y427724D01*
X289351Y427724D01*
X289359Y427723D01*
X289360Y427723D01*
X289682Y427508D01*
X290300Y427385D01*
X290918Y427508D01*
X291442Y427858D01*
X291792Y428382D01*
X291915Y429000D01*
X291792Y429618D01*
X291442Y430142D01*
X290918Y430492D01*
X290300Y430615D01*
X289682Y430492D01*
X289360Y430277D01*
X289359Y430277D01*
X289351Y430276D01*
X289346Y430276D01*
X289331Y430271D01*
X289327Y430270D01*
X289316Y430268D01*
X289171Y430260D01*
X284624Y434807D01*
Y436274D01*
X284649Y436336D01*
X284650Y436437D01*
X284656Y436603D01*
X284667Y436717D01*
X284670Y436738D01*
X284671Y436743D01*
X284676Y436758D01*
X284676Y436762D01*
X284678Y436771D01*
X284677Y436772D01*
X284892Y437093D01*
X285015Y437711D01*
X284892Y438330D01*
X284542Y438854D01*
X284018Y439204D01*
X283400Y439327D01*
D02*
G37*
G36*
X264200Y414515D02*
X263582Y414392D01*
X263058Y414042D01*
X262708Y413518D01*
X262585Y412900D01*
X262708Y412282D01*
X263058Y411758D01*
X263582Y411408D01*
X264200Y411285D01*
X264818Y411408D01*
X265342Y411758D01*
X265692Y412282D01*
X265815Y412900D01*
X265692Y413518D01*
X265342Y414042D01*
X264818Y414392D01*
X264200Y414515D01*
D02*
G37*
G36*
X256950Y406115D02*
X256332Y405992D01*
X255808Y405642D01*
X255458Y405118D01*
X255335Y404500D01*
X255458Y403882D01*
X255808Y403358D01*
X256332Y403008D01*
X256950Y402885D01*
X257568Y403008D01*
X258092Y403358D01*
X258442Y403882D01*
X258565Y404500D01*
X258442Y405118D01*
X258092Y405642D01*
X257568Y405992D01*
X256950Y406115D01*
D02*
G37*
G36*
X293130Y376115D02*
X292512Y375992D01*
X291988Y375642D01*
X291638Y375118D01*
X291515Y374500D01*
X291542Y374364D01*
X291189Y374010D01*
X291162Y374015D01*
X290544Y373892D01*
X290020Y373542D01*
X289670Y373018D01*
X289547Y372400D01*
X289670Y371782D01*
X290020Y371258D01*
X290544Y370908D01*
X291162Y370785D01*
X291781Y370908D01*
X292305Y371258D01*
X292655Y371782D01*
X292778Y372400D01*
X292751Y372536D01*
X293104Y372890D01*
X293130Y372885D01*
X293749Y373008D01*
X294273Y373358D01*
X294623Y373882D01*
X294746Y374500D01*
X294623Y375118D01*
X294273Y375642D01*
X293749Y375992D01*
X293130Y376115D01*
D02*
G37*
%LPD*%
G36*
X303272Y452275D02*
X303257Y452243D01*
X303244Y452200D01*
X303232Y452148D01*
X303222Y452086D01*
X303208Y451933D01*
X303201Y451740D01*
X303200Y451629D01*
X302000D01*
X301999Y451740D01*
X301978Y452086D01*
X301968Y452148D01*
X301956Y452200D01*
X301943Y452243D01*
X301928Y452275D01*
X301911Y452297D01*
X303289D01*
X303272Y452275D01*
D02*
G37*
G36*
X290800Y444986D02*
X290836Y444884D01*
X290896Y444794D01*
X290980Y444716D01*
X291088Y444650D01*
X291220Y444596D01*
X291376Y444554D01*
X291556Y444524D01*
X291760Y444506D01*
X291988Y444500D01*
Y443300D01*
X291760Y443294D01*
X291556Y443276D01*
X291376Y443246D01*
X291220Y443204D01*
X291088Y443150D01*
X290980Y443084D01*
X290896Y443006D01*
X290836Y442916D01*
X290800Y442814D01*
X290788Y442700D01*
Y445100D01*
X290800Y444986D01*
D02*
G37*
G36*
X284072Y436986D02*
X284057Y436954D01*
X284044Y436912D01*
X284032Y436860D01*
X284022Y436798D01*
X284008Y436645D01*
X284001Y436452D01*
X284000Y436341D01*
X282800D01*
X282799Y436452D01*
X282778Y436798D01*
X282768Y436860D01*
X282756Y436912D01*
X282743Y436954D01*
X282728Y436986D01*
X282711Y437009D01*
X284089D01*
X284072Y436986D01*
D02*
G37*
G36*
X289597Y428311D02*
X289575Y428328D01*
X289543Y428343D01*
X289500Y428356D01*
X289448Y428368D01*
X289387Y428378D01*
X289233Y428392D01*
X289040Y428399D01*
X288929Y428400D01*
Y429600D01*
X289040Y429601D01*
X289387Y429622D01*
X289448Y429632D01*
X289500Y429644D01*
X289543Y429657D01*
X289575Y429672D01*
X289597Y429689D01*
Y428311D01*
D02*
G37*
%LPC*%
G36*
X361800Y465565D02*
X361182Y465442D01*
X360700Y465120D01*
X360218Y465442D01*
X359600Y465565D01*
X358982Y465442D01*
X358863Y465363D01*
X358450Y465097D01*
X358037Y465363D01*
X357918Y465442D01*
X357300Y465565D01*
X356682Y465442D01*
X356158Y465092D01*
X355808Y464568D01*
X355685Y463950D01*
X355808Y463332D01*
X356158Y462808D01*
Y462542D01*
X355808Y462018D01*
X355685Y461400D01*
X355808Y460782D01*
X355933Y460594D01*
X356129Y460200D01*
X355933Y459806D01*
X355808Y459618D01*
X355685Y459000D01*
X355808Y458382D01*
X356158Y457858D01*
Y457742D01*
X355808Y457218D01*
X355685Y456600D01*
X355808Y455982D01*
X356158Y455458D01*
X356682Y455108D01*
X357300Y454985D01*
X357918Y455108D01*
X358037Y455187D01*
X358450Y455453D01*
X358863Y455187D01*
X358982Y455108D01*
X359600Y454985D01*
X360218Y455108D01*
X360337Y455187D01*
X360750Y455453D01*
X361163Y455187D01*
X361282Y455108D01*
X361900Y454985D01*
X362518Y455108D01*
X363042Y455458D01*
X363392Y455982D01*
X363515Y456600D01*
X363392Y457218D01*
X363042Y457742D01*
X363191Y458230D01*
X363292Y458382D01*
X363415Y459000D01*
X363292Y459618D01*
X362942Y460142D01*
Y460258D01*
X363292Y460782D01*
X363415Y461400D01*
X363292Y462018D01*
X363097Y462310D01*
X362984Y462675D01*
X363097Y463040D01*
X363292Y463332D01*
X363415Y463950D01*
X363292Y464568D01*
X362942Y465092D01*
X362418Y465442D01*
X361800Y465565D01*
D02*
G37*
G36*
X288395Y477053D02*
X281290D01*
Y470685D01*
X281255Y470620D01*
X281265Y470589D01*
X281252Y470559D01*
X281290Y470469D01*
Y469947D01*
X281050Y469546D01*
X280757Y469243D01*
X280745Y469212D01*
X275566Y464034D01*
X275157Y463422D01*
X275014Y462700D01*
X275157Y461978D01*
X275566Y461366D01*
X276178Y460957D01*
X276900Y460814D01*
X277622Y460957D01*
X278234Y461366D01*
X284293Y467425D01*
X284323Y467437D01*
X285312Y468377D01*
X286171Y469091D01*
X286542Y469358D01*
X286882Y469573D01*
X287181Y469732D01*
X287435Y469837D01*
X287636Y469892D01*
X287848Y469913D01*
X287912Y469947D01*
X288395D01*
Y470469D01*
X288433Y470559D01*
X288420Y470591D01*
X288429Y470624D01*
X288395Y470688D01*
Y477053D01*
D02*
G37*
G36*
X275000Y477083D02*
X274073Y476961D01*
X273208Y476603D01*
X272466Y476034D01*
X271897Y475292D01*
X271539Y474428D01*
X271423Y473549D01*
X271398Y473495D01*
X271391Y473298D01*
X271369Y473133D01*
X271330Y472966D01*
X271273Y472796D01*
X271199Y472623D01*
X271104Y472446D01*
X270989Y472264D01*
X270852Y472079D01*
X270694Y471890D01*
X270500Y471686D01*
X270489Y471656D01*
X269232Y470400D01*
X268823Y469788D01*
X268679Y469066D01*
Y462226D01*
X268783Y461703D01*
Y460551D01*
X268714Y460200D01*
X268857Y459478D01*
X269266Y458866D01*
X269878Y458457D01*
X270600Y458314D01*
X271322Y458457D01*
X271934Y458866D01*
X272004Y458936D01*
X272412Y459548D01*
X272556Y460270D01*
Y462122D01*
X272452Y462645D01*
Y468285D01*
X273156Y468989D01*
X273186Y469000D01*
X273390Y469194D01*
X273579Y469352D01*
X273764Y469489D01*
X273946Y469604D01*
X274123Y469698D01*
X274296Y469773D01*
X274466Y469830D01*
X274633Y469869D01*
X274798Y469891D01*
X274995Y469898D01*
X275049Y469923D01*
X275927Y470039D01*
X276792Y470397D01*
X277534Y470966D01*
X278103Y471708D01*
X278461Y472573D01*
X278583Y473500D01*
X278461Y474428D01*
X278103Y475292D01*
X277534Y476034D01*
X276792Y476603D01*
X275927Y476961D01*
X275000Y477083D01*
D02*
G37*
G36*
X354500Y448736D02*
X353264Y448574D01*
X352113Y448097D01*
X351124Y447338D01*
X350365Y446349D01*
X349888Y445197D01*
X349725Y443962D01*
X349888Y442726D01*
X350365Y441574D01*
X351124Y440585D01*
X352113Y439827D01*
X353264Y439350D01*
X354500Y439187D01*
X355736Y439350D01*
X356887Y439827D01*
X357876Y440585D01*
X358635Y441574D01*
X359112Y442726D01*
X359275Y443962D01*
X359112Y445197D01*
X358635Y446349D01*
X357876Y447338D01*
X356887Y448097D01*
X355736Y448574D01*
X354500Y448736D01*
D02*
G37*
G36*
X319500Y433215D02*
X318882Y433092D01*
X318486Y432828D01*
X318150Y432775D01*
X317814Y432828D01*
X317418Y433092D01*
X316800Y433215D01*
X316182Y433092D01*
X315786Y432828D01*
X315450Y432775D01*
X315114Y432828D01*
X314718Y433092D01*
X314100Y433215D01*
X313482Y433092D01*
X312958Y432742D01*
X312742D01*
X312218Y433092D01*
X311600Y433215D01*
X310982Y433092D01*
X310586Y432828D01*
X310250Y432775D01*
X309914Y432828D01*
X309518Y433092D01*
X308900Y433215D01*
X308282Y433092D01*
X307758Y432742D01*
X307408Y432218D01*
X307285Y431600D01*
X307408Y430982D01*
X307758Y430458D01*
X308282Y430108D01*
X308900Y429985D01*
X309518Y430108D01*
X309914Y430372D01*
X310250Y430425D01*
X310586Y430372D01*
X310982Y430108D01*
X311600Y429985D01*
X312218Y430108D01*
X312742Y430458D01*
X312958D01*
X313482Y430108D01*
X314100Y429985D01*
X314718Y430108D01*
X315114Y430372D01*
X315450Y430425D01*
X315786Y430372D01*
X316182Y430108D01*
X316800Y429985D01*
X317418Y430108D01*
X317814Y430372D01*
X318150Y430425D01*
X318486Y430372D01*
X318882Y430108D01*
X319500Y429985D01*
X320118Y430108D01*
X320642Y430458D01*
X320992Y430982D01*
X321115Y431600D01*
X320992Y432218D01*
X320642Y432742D01*
X320118Y433092D01*
X319500Y433215D01*
D02*
G37*
G36*
X395100Y433915D02*
X394482Y433792D01*
X393958Y433442D01*
X393608Y432918D01*
X393485Y432300D01*
X393608Y431682D01*
X393813Y431375D01*
X393508Y430918D01*
X393385Y430300D01*
X393508Y429682D01*
X393858Y429158D01*
X394382Y428808D01*
X395000Y428685D01*
X395618Y428808D01*
X396142Y429158D01*
X396458D01*
X396982Y428808D01*
X397600Y428685D01*
X398218Y428808D01*
X398742Y429158D01*
X399163Y428887D01*
X399432Y428708D01*
X400050Y428585D01*
X400668Y428708D01*
X401192Y429058D01*
X401736Y428972D01*
X401982Y428808D01*
X402600Y428685D01*
X403218Y428808D01*
X403742Y429158D01*
X404092Y429682D01*
X404215Y430300D01*
X404092Y430918D01*
X403754Y431425D01*
X403792Y431482D01*
X403915Y432100D01*
X403792Y432718D01*
X403442Y433242D01*
X402918Y433592D01*
X402300Y433715D01*
X401682Y433592D01*
X401158Y433242D01*
X400722Y433490D01*
X400418Y433692D01*
X399800Y433815D01*
X399182Y433692D01*
X399063Y433613D01*
X398650Y433347D01*
X398237Y433613D01*
X398118Y433692D01*
X397500Y433815D01*
X396882Y433692D01*
X396358Y433342D01*
X396263Y433411D01*
X396242Y433442D01*
X395718Y433792D01*
X395100Y433915D01*
D02*
G37*
G36*
X399000Y427515D02*
X398382Y427392D01*
X397858Y427042D01*
X397508Y426518D01*
X397385Y425900D01*
X397508Y425282D01*
X397858Y424758D01*
X398382Y424408D01*
X399000Y424285D01*
X399618Y424408D01*
X400142Y424758D01*
X400492Y425282D01*
X400615Y425900D01*
X400492Y426518D01*
X400142Y427042D01*
X399618Y427392D01*
X399000Y427515D01*
D02*
G37*
G36*
X340037Y429343D02*
X330963D01*
Y428403D01*
X330939Y428351D01*
X330918Y427961D01*
X330863Y427601D01*
X330771Y427236D01*
X330641Y426867D01*
X330471Y426492D01*
X330260Y426111D01*
X330008Y425724D01*
X329713Y425332D01*
X329375Y424935D01*
X328983Y424522D01*
X328976Y424504D01*
X324386Y419914D01*
X323922Y419219D01*
X323759Y418400D01*
Y413841D01*
X322409D01*
X322249Y413949D01*
X321400Y414117D01*
X320551Y413949D01*
X319832Y413468D01*
X319351Y412749D01*
X319183Y411900D01*
X319351Y411051D01*
X319832Y410332D01*
X319921Y410272D01*
X319942Y410242D01*
X320703Y409733D01*
X321600Y409555D01*
Y409559D01*
X325517D01*
X325900Y409483D01*
X326749Y409651D01*
X327468Y410132D01*
X327949Y410851D01*
X328117Y411700D01*
X328041Y412083D01*
Y417513D01*
X329885Y419357D01*
X329904Y419365D01*
X331113Y420528D01*
X331511Y420872D01*
X331647Y420978D01*
X331735Y421039D01*
X331769Y421057D01*
X340037D01*
Y429343D01*
D02*
G37*
G36*
X335894Y419379D02*
X335106D01*
X334025Y419237D01*
X333017Y418819D01*
X332151Y418155D01*
X331487Y417289D01*
X331070Y416282D01*
X330927Y415200D01*
X331070Y414118D01*
X331487Y413110D01*
X332151Y412245D01*
X333017Y411581D01*
X334025Y411163D01*
X335106Y411021D01*
X335894D01*
X336975Y411163D01*
X337983Y411581D01*
X338849Y412245D01*
X339513Y413110D01*
X339930Y414118D01*
X340073Y415200D01*
X339930Y416282D01*
X339513Y417289D01*
X338849Y418155D01*
X337983Y418819D01*
X336975Y419237D01*
X335894Y419379D01*
D02*
G37*
G36*
X383700Y414415D02*
X383082Y414292D01*
X382558Y413942D01*
X382208Y413418D01*
X382132Y413039D01*
X382132Y413038D01*
X382127Y413031D01*
X382123Y413028D01*
X382116Y413014D01*
X382114Y413010D01*
X382107Y413001D01*
X381909Y412777D01*
X381844Y412711D01*
X381819Y412649D01*
X377493Y408323D01*
X374837D01*
X374776Y408349D01*
X374674Y408350D01*
X374509Y408356D01*
X374394Y408367D01*
X374373Y408370D01*
X374369Y408371D01*
X374354Y408376D01*
X374349Y408376D01*
X374341Y408378D01*
X374340Y408377D01*
X374018Y408592D01*
X373400Y408715D01*
X372782Y408592D01*
X372258Y408242D01*
X371908Y407718D01*
X371785Y407100D01*
X371908Y406482D01*
X372258Y405958D01*
X372782Y405608D01*
X373400Y405485D01*
X374018Y405608D01*
X374340Y405823D01*
X374341Y405823D01*
X374349Y405824D01*
X374354Y405824D01*
X374369Y405829D01*
X374373Y405830D01*
X374384Y405831D01*
X374682Y405850D01*
X374776Y405851D01*
X374837Y405876D01*
X378000D01*
X378468Y405970D01*
X378865Y406235D01*
X383549Y410919D01*
X383611Y410944D01*
X383683Y411015D01*
X383804Y411128D01*
X383893Y411201D01*
X383910Y411214D01*
X383914Y411216D01*
X383928Y411223D01*
X383931Y411227D01*
X383938Y411232D01*
X383939Y411232D01*
X384318Y411308D01*
X384842Y411658D01*
X385192Y412182D01*
X385315Y412800D01*
X385192Y413418D01*
X384842Y413942D01*
X384318Y414292D01*
X383700Y414415D01*
D02*
G37*
G36*
X405600Y409315D02*
X404982Y409192D01*
X404458Y408842D01*
X404108Y408318D01*
X403985Y407700D01*
X404108Y407082D01*
X404458Y406558D01*
X404982Y406208D01*
X405600Y406085D01*
X406218Y406208D01*
X406742Y406558D01*
X407092Y407082D01*
X407215Y407700D01*
X407092Y408318D01*
X406742Y408842D01*
X406218Y409192D01*
X405600Y409315D01*
D02*
G37*
G36*
X399900D02*
X399282Y409192D01*
X398758Y408842D01*
X398408Y408318D01*
X398285Y407700D01*
X398408Y407082D01*
X398758Y406558D01*
X399282Y406208D01*
X399900Y406085D01*
X400518Y406208D01*
X401042Y406558D01*
X401392Y407082D01*
X401515Y407700D01*
X401392Y408318D01*
X401042Y408842D01*
X400518Y409192D01*
X399900Y409315D01*
D02*
G37*
G36*
X335894Y409379D02*
X335106D01*
X334025Y409237D01*
X333017Y408819D01*
X332151Y408155D01*
X331487Y407290D01*
X331070Y406282D01*
X330927Y405200D01*
X331070Y404118D01*
X331487Y403111D01*
X332151Y402245D01*
X333017Y401581D01*
X334025Y401163D01*
X335106Y401021D01*
X335894D01*
X336975Y401163D01*
X337983Y401581D01*
X338849Y402245D01*
X339513Y403111D01*
X339930Y404118D01*
X340073Y405200D01*
X339930Y406282D01*
X339513Y407290D01*
X338849Y408155D01*
X337983Y408819D01*
X336975Y409237D01*
X335894Y409379D01*
D02*
G37*
G36*
X307500Y390131D02*
X306882Y390008D01*
X306358Y389658D01*
X306008Y389134D01*
X305885Y388516D01*
X306008Y387898D01*
X306358Y387374D01*
X306882Y387024D01*
X307447Y386911D01*
X307517Y386878D01*
X307591Y386683D01*
X307575Y386598D01*
X307280Y386151D01*
X306882Y386071D01*
X306358Y385721D01*
X306008Y385197D01*
X305885Y384579D01*
X306008Y383961D01*
X306358Y383437D01*
X306882Y383087D01*
X307500Y382964D01*
X308118Y383087D01*
X308642Y383437D01*
X308992Y383961D01*
X309100Y384502D01*
X309216Y384686D01*
X309468Y384938D01*
X309500Y384932D01*
X310118Y385055D01*
X310642Y385405D01*
X310992Y385929D01*
X311115Y386547D01*
X310992Y387165D01*
X310642Y387689D01*
X310118Y388039D01*
X309553Y388152D01*
X309396Y388228D01*
X309214Y388409D01*
X309100Y388593D01*
X308992Y389134D01*
X308642Y389658D01*
X308118Y390008D01*
X307500Y390131D01*
D02*
G37*
G36*
X309400Y374136D02*
X308782Y374013D01*
X308258Y373663D01*
X307908Y373139D01*
X307785Y372521D01*
X307908Y371903D01*
X308258Y371379D01*
X308782Y371029D01*
X309400Y370906D01*
X310018Y371029D01*
X310542Y371379D01*
X310892Y371903D01*
X311015Y372521D01*
X310892Y373139D01*
X310542Y373663D01*
X310018Y374013D01*
X309400Y374136D01*
D02*
G37*
G36*
X396850Y368973D02*
X395911Y368849D01*
X395035Y368487D01*
X394283Y367910D01*
X393706Y367158D01*
X393343Y366282D01*
X393219Y365342D01*
X393343Y364402D01*
X393706Y363527D01*
X394283Y362774D01*
X395035Y362197D01*
X395911Y361835D01*
X396850Y361711D01*
X397790Y361835D01*
X398666Y362197D01*
X399418Y362774D01*
X399995Y363527D01*
X400358Y364402D01*
X400481Y365342D01*
X400358Y366282D01*
X399995Y367158D01*
X399418Y367910D01*
X398666Y368487D01*
X397790Y368849D01*
X396850Y368973D01*
D02*
G37*
G36*
X313300Y359315D02*
X312682Y359192D01*
X312158Y358842D01*
X311808Y358318D01*
X311685Y357700D01*
X311808Y357082D01*
X312158Y356558D01*
X312682Y356208D01*
X313300Y356085D01*
X313918Y356208D01*
X314442Y356558D01*
X314792Y357082D01*
X314915Y357700D01*
X314792Y358318D01*
X314442Y358842D01*
X313918Y359192D01*
X313300Y359315D01*
D02*
G37*
G36*
X265720Y342005D02*
X265101Y341882D01*
X264577Y341532D01*
X264227Y341008D01*
X264104Y340389D01*
X264227Y339771D01*
X264577Y339247D01*
X265101Y338897D01*
X265720Y338774D01*
X266338Y338897D01*
X266862Y339247D01*
X267212Y339771D01*
X267335Y340389D01*
X267212Y341008D01*
X266862Y341532D01*
X266338Y341882D01*
X265720Y342005D01*
D02*
G37*
G36*
X257500Y338250D02*
X254300D01*
Y337459D01*
X254230Y337453D01*
X254095Y337449D01*
X254029Y337420D01*
X253900D01*
X253510Y337342D01*
X253179Y337121D01*
X252093Y336034D01*
X252025Y336009D01*
X251968Y335955D01*
X251928Y335922D01*
X251891Y335895D01*
X251859Y335875D01*
X251830Y335860D01*
X251804Y335850D01*
X251781Y335842D01*
X251760Y335838D01*
X251738Y335835D01*
X251687Y335833D01*
X251607Y335797D01*
X251082Y335692D01*
X250558Y335342D01*
X250208Y334818D01*
X250085Y334200D01*
X250208Y333582D01*
X250558Y333058D01*
X251082Y332708D01*
X251700Y332585D01*
X252318Y332708D01*
X252842Y333058D01*
X253192Y333582D01*
X253297Y334107D01*
X253333Y334187D01*
X253335Y334238D01*
X253338Y334260D01*
X253342Y334281D01*
X253350Y334304D01*
X253360Y334330D01*
X253375Y334359D01*
X253395Y334391D01*
X253422Y334428D01*
X253455Y334468D01*
X253509Y334525D01*
X253815Y334686D01*
X254300Y334550D01*
Y334550D01*
X257500D01*
Y338250D01*
D02*
G37*
G36*
X262200D02*
X259000D01*
Y334550D01*
X260637D01*
X260740Y334513D01*
X260791Y334538D01*
X260847Y334528D01*
X260878Y334550D01*
X260907D01*
X260955Y334516D01*
X261226Y334285D01*
X261365Y334150D01*
X261361Y334046D01*
X261285Y333800D01*
X261201Y333650D01*
X259000D01*
Y329950D01*
X262200D01*
Y330741D01*
X262273Y330747D01*
X262405Y330751D01*
X262472Y330780D01*
X263278D01*
X263345Y330751D01*
X263425Y330749D01*
X263482Y330744D01*
X263533Y330737D01*
X263578Y330728D01*
X263617Y330716D01*
X263652Y330704D01*
X263682Y330691D01*
X263708Y330676D01*
X263733Y330661D01*
X263776Y330628D01*
X263904Y330593D01*
X264182Y330408D01*
X264800Y330285D01*
X265418Y330408D01*
X265942Y330758D01*
X266292Y331282D01*
X266415Y331900D01*
X266292Y332518D01*
X266268Y332554D01*
X266430Y333211D01*
X266627Y333342D01*
X266977Y333866D01*
X267100Y334485D01*
X266977Y335103D01*
X266627Y335627D01*
X266103Y335977D01*
X265484Y336100D01*
X264866Y335977D01*
X264421Y335679D01*
X264338Y335648D01*
X264301Y335613D01*
X264284Y335600D01*
X264266Y335589D01*
X264245Y335578D01*
X264219Y335567D01*
X264188Y335557D01*
X264150Y335548D01*
X264106Y335541D01*
X264054Y335536D01*
X263976Y335534D01*
X263910Y335504D01*
X262938D01*
X262649Y335793D01*
X262621Y335862D01*
X262484Y336005D01*
X262378Y336125D01*
X262296Y336230D01*
X262237Y336315D01*
X262202Y336377D01*
X262200Y336382D01*
Y336558D01*
X262222Y336684D01*
X262200Y336715D01*
Y338250D01*
D02*
G37*
G36*
X327900Y332615D02*
X327282Y332492D01*
X326758Y332142D01*
X326408Y331618D01*
X326285Y331000D01*
X326408Y330382D01*
X326758Y329858D01*
X327282Y329508D01*
X327900Y329385D01*
X328518Y329508D01*
X329042Y329858D01*
X329392Y330382D01*
X329515Y331000D01*
X329392Y331618D01*
X329042Y332142D01*
X328518Y332492D01*
X327900Y332615D01*
D02*
G37*
G36*
X396850Y335974D02*
X395911Y335850D01*
X395035Y335487D01*
X394283Y334910D01*
X393706Y334158D01*
X393343Y333282D01*
X393219Y332343D01*
X393343Y331403D01*
X393706Y330527D01*
X394283Y329775D01*
X395035Y329198D01*
X395911Y328835D01*
X396850Y328711D01*
X397790Y328835D01*
X398666Y329198D01*
X399418Y329775D01*
X399995Y330527D01*
X400358Y331403D01*
X400481Y332343D01*
X400358Y333282D01*
X399995Y334158D01*
X399418Y334910D01*
X398666Y335487D01*
X397790Y335850D01*
X396850Y335974D01*
D02*
G37*
G36*
X322100Y331815D02*
X321482Y331692D01*
X320958Y331342D01*
X320608Y330818D01*
X320485Y330200D01*
X320608Y329582D01*
X320958Y329058D01*
X321482Y328708D01*
X322100Y328585D01*
X322718Y328708D01*
X323242Y329058D01*
X323592Y329582D01*
X323715Y330200D01*
X323592Y330818D01*
X323242Y331342D01*
X322718Y331692D01*
X322100Y331815D01*
D02*
G37*
G36*
X257500Y333650D02*
X254300D01*
Y330630D01*
X252651Y328981D01*
X252590Y328956D01*
X252517Y328885D01*
X252396Y328772D01*
X252307Y328699D01*
X252290Y328686D01*
X252286Y328684D01*
X252272Y328677D01*
X252269Y328673D01*
X252262Y328668D01*
X252261Y328668D01*
X251882Y328592D01*
X251508Y328343D01*
X251442Y328442D01*
X250918Y328792D01*
X250300Y328915D01*
X249682Y328792D01*
X249158Y328442D01*
X248977Y328590D01*
X248942Y328642D01*
X248418Y328992D01*
X247800Y329115D01*
X247182Y328992D01*
X246693Y328666D01*
X246642Y328742D01*
X246118Y329092D01*
X245500Y329215D01*
X244882Y329092D01*
X244358Y328742D01*
X244242D01*
X243718Y329092D01*
X243100Y329215D01*
X242482Y329092D01*
X241958Y328742D01*
X241923Y328689D01*
X241337Y328713D01*
X240918Y328992D01*
X240300Y329115D01*
X239682Y328992D01*
X239158Y328642D01*
X238808Y328118D01*
X238685Y327500D01*
X238808Y326882D01*
X239158Y326358D01*
Y326209D01*
X239058Y326142D01*
X238708Y325618D01*
X238585Y325000D01*
X238708Y324382D01*
X239058Y323858D01*
X239582Y323508D01*
X240200Y323385D01*
X240818Y323508D01*
X241342Y323858D01*
X241377Y323911D01*
X241963Y323887D01*
X242382Y323608D01*
X243000Y323485D01*
X243618Y323608D01*
X244142Y323958D01*
X244239Y324103D01*
X244682Y323808D01*
X245300Y323685D01*
X245918Y323808D01*
X246176Y323980D01*
X246550Y324118D01*
X246924Y323980D01*
X247182Y323808D01*
X247800Y323685D01*
X248418Y323808D01*
X248653Y323965D01*
X248658Y323958D01*
X249182Y323608D01*
X249800Y323485D01*
X250418Y323608D01*
X250942Y323958D01*
X251123Y323810D01*
X251158Y323758D01*
X251682Y323408D01*
X252300Y323285D01*
X252918Y323408D01*
X253442Y323758D01*
X253792Y324282D01*
X253915Y324900D01*
X253792Y325518D01*
X253543Y325891D01*
X253642Y325958D01*
X253992Y326482D01*
X254068Y326861D01*
X254068Y326862D01*
X254073Y326869D01*
X254077Y326872D01*
X254084Y326886D01*
X254086Y326890D01*
X254093Y326899D01*
X254291Y327123D01*
X254356Y327189D01*
X254381Y327251D01*
X256765Y329635D01*
X256976Y329950D01*
X257500D01*
Y333650D01*
D02*
G37*
G36*
X296650Y328265D02*
X296032Y328142D01*
X295508Y327792D01*
X295158Y327268D01*
X295035Y326650D01*
X295158Y326032D01*
X295508Y325508D01*
X296032Y325158D01*
X296650Y325035D01*
X297268Y325158D01*
X297792Y325508D01*
X298142Y326032D01*
X298265Y326650D01*
X298142Y327268D01*
X297792Y327792D01*
X297268Y328142D01*
X296650Y328265D01*
D02*
G37*
G36*
X291100Y328215D02*
X290482Y328092D01*
X289958Y327742D01*
X289608Y327218D01*
X289485Y326600D01*
X289608Y325982D01*
X289958Y325458D01*
X290482Y325108D01*
X291100Y324985D01*
X291718Y325108D01*
X292242Y325458D01*
X292592Y325982D01*
X292715Y326600D01*
X292592Y327218D01*
X292242Y327742D01*
X291718Y328092D01*
X291100Y328215D01*
D02*
G37*
G36*
X354500Y332375D02*
X353264Y332212D01*
X352113Y331735D01*
X351124Y330976D01*
X350365Y329987D01*
X349888Y328836D01*
X349725Y327600D01*
X349888Y326364D01*
X350365Y325213D01*
X351124Y324224D01*
X352113Y323465D01*
X353264Y322988D01*
X354500Y322825D01*
X355736Y322988D01*
X356887Y323465D01*
X357876Y324224D01*
X358635Y325213D01*
X359112Y326364D01*
X359275Y327600D01*
X359112Y328836D01*
X358635Y329987D01*
X357876Y330976D01*
X356887Y331735D01*
X355736Y332212D01*
X354500Y332375D01*
D02*
G37*
G36*
X272400Y338115D02*
X271782Y337992D01*
X271258Y337642D01*
X270908Y337118D01*
X270785Y336500D01*
X270908Y335882D01*
X271258Y335358D01*
X271782Y335008D01*
X272299Y334905D01*
Y334395D01*
X271782Y334292D01*
X271258Y333942D01*
X270908Y333418D01*
X270785Y332800D01*
X270908Y332182D01*
X271258Y331658D01*
X271782Y331308D01*
X272299Y331205D01*
Y330695D01*
X271782Y330592D01*
X271258Y330242D01*
X270908Y329718D01*
X270785Y329100D01*
X270908Y328482D01*
X271258Y327958D01*
X271782Y327608D01*
X272299Y327505D01*
Y326995D01*
X271782Y326892D01*
X271258Y326542D01*
X270908Y326018D01*
X270785Y325400D01*
X270908Y324782D01*
X271258Y324258D01*
X271782Y323908D01*
X272400Y323785D01*
X273018Y323908D01*
X273542Y324258D01*
X273892Y324782D01*
X273995Y325299D01*
X274505D01*
X274608Y324782D01*
X274958Y324258D01*
X275482Y323908D01*
X276100Y323785D01*
X276718Y323908D01*
X277242Y324258D01*
X277592Y324782D01*
X277695Y325299D01*
X278205D01*
X278308Y324782D01*
X278605Y324336D01*
X278636Y324254D01*
X278671Y324217D01*
X278684Y324200D01*
X278696Y324181D01*
X278707Y324160D01*
X278718Y324134D01*
X278728Y324103D01*
X278737Y324066D01*
X278744Y324021D01*
X278748Y323969D01*
X278751Y323891D01*
X278780Y323825D01*
Y323400D01*
X278858Y323010D01*
X279079Y322679D01*
X279603Y322155D01*
X279284Y321767D01*
X278722Y322143D01*
X278000Y322286D01*
X277278Y322143D01*
X276666Y321734D01*
X276257Y321122D01*
X276114Y320400D01*
Y310772D01*
X276101Y310744D01*
X276092Y310460D01*
X276068Y310229D01*
X276030Y310033D01*
X275982Y309872D01*
X275927Y309745D01*
X275869Y309647D01*
X275808Y309575D01*
X275744Y309520D01*
X275671Y309475D01*
X275534Y309421D01*
X275462Y309350D01*
X274866Y309103D01*
X274124Y308534D01*
X273554Y307792D01*
X273196Y306927D01*
X273074Y306000D01*
X273196Y305073D01*
X273554Y304208D01*
X274124Y303466D01*
X274866Y302897D01*
X275730Y302539D01*
X276658Y302417D01*
X277585Y302539D01*
X278449Y302897D01*
X279191Y303466D01*
X279761Y304208D01*
X280119Y305073D01*
X280241Y306000D01*
X280119Y306927D01*
X280044Y307108D01*
X280052Y307202D01*
X280025Y307291D01*
X280004Y307385D01*
X279985Y307491D01*
X279901Y308883D01*
X279899Y309189D01*
X279886Y309220D01*
Y320400D01*
X279743Y321122D01*
X279367Y321684D01*
X279755Y322003D01*
X281179Y320579D01*
X281510Y320358D01*
X281900Y320280D01*
X310225D01*
X310291Y320251D01*
X310369Y320249D01*
X310421Y320244D01*
X310466Y320237D01*
X310503Y320228D01*
X310534Y320218D01*
X310560Y320207D01*
X310581Y320196D01*
X310600Y320184D01*
X310617Y320171D01*
X310654Y320136D01*
X310736Y320105D01*
X311182Y319808D01*
X311800Y319685D01*
X312418Y319808D01*
X312942Y320158D01*
X313292Y320682D01*
X313415Y321300D01*
X313292Y321918D01*
X312942Y322442D01*
X312418Y322792D01*
X311800Y322915D01*
X311182Y322792D01*
X310736Y322495D01*
X310654Y322464D01*
X310617Y322429D01*
X310600Y322416D01*
X310581Y322404D01*
X310560Y322393D01*
X310534Y322382D01*
X310503Y322372D01*
X310466Y322363D01*
X310421Y322356D01*
X310369Y322352D01*
X310291Y322349D01*
X310225Y322320D01*
X282322D01*
X280820Y323822D01*
Y323825D01*
X280849Y323891D01*
X280852Y323969D01*
X280856Y324021D01*
X280863Y324066D01*
X280872Y324103D01*
X280882Y324134D01*
X280893Y324160D01*
X280904Y324182D01*
X280916Y324200D01*
X280929Y324217D01*
X280964Y324254D01*
X280995Y324336D01*
X281292Y324782D01*
X281415Y325400D01*
X281292Y326018D01*
X280942Y326542D01*
X280418Y326892D01*
X279800Y327015D01*
X279182Y326892D01*
X278658Y326542D01*
X278308Y326018D01*
X278205Y325501D01*
X277695D01*
X277592Y326018D01*
X277242Y326542D01*
X276718Y326892D01*
X276202Y326995D01*
Y327505D01*
X276718Y327608D01*
X277242Y327958D01*
X277592Y328482D01*
X277715Y329100D01*
X277592Y329718D01*
X277242Y330242D01*
X276718Y330592D01*
X276202Y330695D01*
Y331205D01*
X276718Y331308D01*
X277242Y331658D01*
X277592Y332182D01*
X277715Y332800D01*
X277592Y333418D01*
X277242Y333942D01*
X276718Y334292D01*
X276100Y334415D01*
X275482Y334292D01*
X274958Y333942D01*
X274608Y333418D01*
X274505Y332902D01*
X273995D01*
X273892Y333418D01*
X273542Y333942D01*
X273018Y334292D01*
X272501Y334395D01*
Y334905D01*
X273018Y335008D01*
X273542Y335358D01*
X273892Y335882D01*
X274015Y336500D01*
X273892Y337118D01*
X273542Y337642D01*
X273018Y337992D01*
X272400Y338115D01*
D02*
G37*
G36*
X396850Y326131D02*
X395911Y326007D01*
X395035Y325644D01*
X394283Y325067D01*
X393706Y324315D01*
X393343Y323439D01*
X393219Y322499D01*
X393343Y321560D01*
X393706Y320684D01*
X394283Y319932D01*
X395035Y319355D01*
X395911Y318992D01*
X396850Y318868D01*
X397790Y318992D01*
X398666Y319355D01*
X399418Y319932D01*
X399995Y320684D01*
X400358Y321560D01*
X400481Y322499D01*
X400358Y323439D01*
X399995Y324315D01*
X399418Y325067D01*
X398666Y325644D01*
X397790Y326007D01*
X396850Y326131D01*
D02*
G37*
G36*
X270700Y318986D02*
X269978Y318843D01*
X269366Y318434D01*
X268957Y317822D01*
X268814Y317100D01*
Y316302D01*
X268425Y316042D01*
X268123Y315591D01*
X265481Y312949D01*
X265072Y312337D01*
X264929Y311615D01*
Y311487D01*
X264916Y311458D01*
X264904Y311000D01*
X264870Y310618D01*
X264817Y310297D01*
X264748Y310040D01*
X264671Y309850D01*
X264594Y309724D01*
X264527Y309652D01*
X264471Y309614D01*
X264408Y309592D01*
X264247Y309575D01*
X264207Y309553D01*
X263262D01*
Y302447D01*
X270368D01*
Y309553D01*
X269423D01*
X269383Y309575D01*
X269222Y309592D01*
X269159Y309614D01*
X269103Y309652D01*
X269036Y309724D01*
X268959Y309850D01*
X268882Y310040D01*
X268813Y310297D01*
X268760Y310618D01*
X268738Y310870D01*
X272034Y314166D01*
X272443Y314778D01*
X272586Y315500D01*
Y317100D01*
X272443Y317822D01*
X272034Y318434D01*
X271422Y318843D01*
X270700Y318986D01*
D02*
G37*
G36*
X346400Y310181D02*
X345460Y310057D01*
X344584Y309695D01*
X343832Y309118D01*
X343255Y308366D01*
X342893Y307490D01*
X342769Y306550D01*
Y306050D01*
X342893Y305110D01*
X343255Y304235D01*
X343832Y303483D01*
X344584Y302905D01*
X345460Y302543D01*
X346400Y302419D01*
X347340Y302543D01*
X348216Y302905D01*
X348968Y303483D01*
X349545Y304235D01*
X349907Y305110D01*
X350031Y306050D01*
Y306550D01*
X349907Y307490D01*
X349545Y308366D01*
X348968Y309118D01*
X348216Y309695D01*
X347340Y310057D01*
X346400Y310181D01*
D02*
G37*
G36*
X336390D02*
X335450Y310057D01*
X334574Y309695D01*
X333822Y309118D01*
X333245Y308366D01*
X332883Y307490D01*
X332759Y306550D01*
Y306050D01*
X332883Y305110D01*
X333245Y304235D01*
X333822Y303483D01*
X334574Y302905D01*
X335450Y302543D01*
X336390Y302419D01*
X337330Y302543D01*
X338205Y302905D01*
X338958Y303483D01*
X339534Y304235D01*
X339897Y305110D01*
X340021Y306050D01*
Y306550D01*
X339897Y307490D01*
X339534Y308366D01*
X338958Y309118D01*
X338205Y309695D01*
X337330Y310057D01*
X336390Y310181D01*
D02*
G37*
G36*
X286500Y309583D02*
X285573Y309461D01*
X284708Y309103D01*
X283966Y308534D01*
X283397Y307792D01*
X283039Y306927D01*
X282917Y306000D01*
X283039Y305073D01*
X283397Y304208D01*
X283966Y303466D01*
X284708Y302897D01*
X285573Y302539D01*
X286500Y302417D01*
X287427Y302539D01*
X288292Y302897D01*
X289034Y303466D01*
X289603Y304208D01*
X289961Y305073D01*
X290083Y306000D01*
X289961Y306927D01*
X289603Y307792D01*
X289034Y308534D01*
X288292Y309103D01*
X287427Y309461D01*
X286500Y309583D01*
D02*
G37*
%LPD*%
G36*
X287518Y470533D02*
X287225Y470453D01*
X286904Y470321D01*
X286555Y470135D01*
X286178Y469896D01*
X285773Y469605D01*
X284880Y468862D01*
X283875Y467908D01*
X281224Y468791D01*
X281549Y469127D01*
X282027Y469693D01*
X282181Y469923D01*
X282277Y470117D01*
X282316Y470276D01*
X282298Y470400D01*
X282223Y470489D01*
X282091Y470542D01*
X281902Y470559D01*
X287783D01*
X287518Y470533D01*
D02*
G37*
G36*
X274971Y470547D02*
X274742Y470539D01*
X274515Y470508D01*
X274289Y470455D01*
X274064Y470381D01*
X273841Y470284D01*
X273618Y470166D01*
X273397Y470025D01*
X273177Y469863D01*
X272957Y469678D01*
X272740Y469472D01*
X270972Y471240D01*
X271178Y471457D01*
X271363Y471677D01*
X271525Y471897D01*
X271666Y472118D01*
X271784Y472341D01*
X271881Y472565D01*
X271955Y472789D01*
X272008Y473015D01*
X272039Y473242D01*
X272047Y473470D01*
X274971Y470547D01*
D02*
G37*
G36*
X331575Y421669D02*
X331503Y421650D01*
X331399Y421595D01*
X331264Y421503D01*
X331099Y421375D01*
X330675Y421008D01*
X329454Y419832D01*
Y424075D01*
X329858Y424501D01*
X330221Y424926D01*
X330540Y425351D01*
X330817Y425776D01*
X331052Y426200D01*
X331244Y426625D01*
X331393Y427048D01*
X331501Y427472D01*
X331565Y427895D01*
X331587Y428318D01*
X331575Y421669D01*
D02*
G37*
G36*
X383690Y411816D02*
X383662Y411812D01*
X383629Y411800D01*
X383590Y411779D01*
X383545Y411751D01*
X383494Y411714D01*
X383376Y411616D01*
X383234Y411484D01*
X383155Y411407D01*
X382306Y412255D01*
X382384Y412334D01*
X382614Y412594D01*
X382651Y412645D01*
X382680Y412690D01*
X382700Y412729D01*
X382712Y412762D01*
X382716Y412790D01*
X383690Y411816D01*
D02*
G37*
G36*
X374125Y407772D02*
X374158Y407757D01*
X374200Y407744D01*
X374252Y407732D01*
X374313Y407722D01*
X374467Y407708D01*
X374660Y407701D01*
X374771Y407700D01*
Y406500D01*
X374660Y406499D01*
X374313Y406478D01*
X374252Y406468D01*
X374200Y406456D01*
X374158Y406443D01*
X374125Y406428D01*
X374103Y406411D01*
Y407789D01*
X374125Y407772D01*
D02*
G37*
G36*
X254924Y335600D02*
X254916Y335676D01*
X254891Y335744D01*
X254851Y335804D01*
X254794Y335856D01*
X254721Y335900D01*
X254632Y335936D01*
X254526Y335964D01*
X254404Y335984D01*
X254266Y335996D01*
X254112Y336000D01*
Y336800D01*
X254266Y336804D01*
X254404Y336816D01*
X254526Y336836D01*
X254632Y336864D01*
X254721Y336900D01*
X254794Y336944D01*
X254851Y336996D01*
X254891Y337056D01*
X254916Y337124D01*
X254924Y337200D01*
Y335600D01*
D02*
G37*
G36*
X253036Y334971D02*
X252969Y334899D01*
X252908Y334826D01*
X252855Y334753D01*
X252809Y334678D01*
X252770Y334602D01*
X252739Y334526D01*
X252714Y334448D01*
X252697Y334370D01*
X252687Y334290D01*
X252684Y334210D01*
X251710Y335184D01*
X251790Y335187D01*
X251870Y335197D01*
X251948Y335214D01*
X252026Y335239D01*
X252102Y335270D01*
X252178Y335309D01*
X252253Y335355D01*
X252326Y335408D01*
X252399Y335469D01*
X252471Y335536D01*
X253036Y334971D01*
D02*
G37*
G36*
X261554Y336470D02*
X261540Y336388D01*
X261546Y336297D01*
X261573Y336197D01*
X261619Y336088D01*
X261686Y335970D01*
X261773Y335844D01*
X261879Y335709D01*
X262006Y335565D01*
X262154Y335412D01*
X261838Y334596D01*
X261663Y334766D01*
X261353Y335030D01*
X261220Y335124D01*
X261100Y335193D01*
X260993Y335237D01*
X260901Y335256D01*
X260822Y335250D01*
X260758Y335219D01*
X260707Y335162D01*
X261588Y336543D01*
X261554Y336470D01*
D02*
G37*
G36*
X264782Y333795D02*
X264723Y333850D01*
X264660Y333900D01*
X264592Y333943D01*
X264520Y333980D01*
X264443Y334012D01*
X264362Y334038D01*
X264277Y334058D01*
X264187Y334073D01*
X264093Y334082D01*
X263995Y334085D01*
Y334885D01*
X264093Y334887D01*
X264187Y334896D01*
X264277Y334910D01*
X264362Y334931D01*
X264443Y334957D01*
X264520Y334988D01*
X264592Y335026D01*
X264660Y335069D01*
X264723Y335119D01*
X264782Y335174D01*
Y333795D01*
D02*
G37*
G36*
X264171Y331143D02*
X264107Y331192D01*
X264039Y331236D01*
X263968Y331274D01*
X263893Y331308D01*
X263814Y331336D01*
X263731Y331359D01*
X263645Y331377D01*
X263554Y331390D01*
X263460Y331397D01*
X263362Y331400D01*
X263272Y332200D01*
X263371Y332203D01*
X263465Y332213D01*
X263554Y332228D01*
X263637Y332250D01*
X263716Y332278D01*
X263789Y332313D01*
X263857Y332354D01*
X263920Y332401D01*
X263978Y332454D01*
X264031Y332514D01*
X264171Y331143D01*
D02*
G37*
G36*
X261596Y332524D02*
X261620Y332456D01*
X261660Y332396D01*
X261716Y332344D01*
X261788Y332300D01*
X261876Y332264D01*
X261980Y332236D01*
X262100Y332216D01*
X262236Y332204D01*
X262388Y332200D01*
Y331400D01*
X262236Y331396D01*
X262100Y331384D01*
X261980Y331364D01*
X261876Y331336D01*
X261788Y331300D01*
X261716Y331256D01*
X261660Y331204D01*
X261620Y331144D01*
X261596Y331076D01*
X261588Y331000D01*
Y332600D01*
X261596Y332524D01*
D02*
G37*
G36*
X253894Y327645D02*
X253816Y327566D01*
X253586Y327306D01*
X253549Y327255D01*
X253520Y327210D01*
X253500Y327171D01*
X253488Y327138D01*
X253484Y327110D01*
X252510Y328084D01*
X252538Y328088D01*
X252571Y328100D01*
X252610Y328120D01*
X252655Y328149D01*
X252706Y328186D01*
X252824Y328284D01*
X252966Y328415D01*
X253045Y328494D01*
X253894Y327645D01*
D02*
G37*
G36*
X280434Y324638D02*
X280385Y324575D01*
X280342Y324507D01*
X280304Y324435D01*
X280272Y324359D01*
X280246Y324278D01*
X280226Y324193D01*
X280212Y324103D01*
X280203Y324009D01*
X280200Y323910D01*
X279400D01*
X279397Y324009D01*
X279388Y324103D01*
X279374Y324193D01*
X279354Y324278D01*
X279328Y324359D01*
X279296Y324435D01*
X279258Y324507D01*
X279215Y324575D01*
X279166Y324638D01*
X279111Y324697D01*
X280489D01*
X280434Y324638D01*
D02*
G37*
G36*
X311097Y320611D02*
X311038Y320666D01*
X310975Y320715D01*
X310907Y320758D01*
X310835Y320796D01*
X310759Y320828D01*
X310678Y320854D01*
X310593Y320874D01*
X310503Y320888D01*
X310409Y320897D01*
X310310Y320900D01*
Y321700D01*
X310409Y321703D01*
X310503Y321712D01*
X310593Y321726D01*
X310678Y321746D01*
X310759Y321772D01*
X310835Y321804D01*
X310907Y321842D01*
X310975Y321885D01*
X311038Y321934D01*
X311097Y321989D01*
Y320611D01*
D02*
G37*
G36*
X279250Y309185D02*
X279252Y308862D01*
X279339Y307416D01*
X279366Y307257D01*
X279398Y307122D01*
X279432Y307010D01*
X275775Y308818D01*
X275960Y308892D01*
X276126Y308992D01*
X276272Y309118D01*
X276399Y309269D01*
X276506Y309447D01*
X276594Y309650D01*
X276662Y309879D01*
X276711Y310135D01*
X276740Y310416D01*
X276750Y310723D01*
X279250Y309185D01*
D02*
G37*
G36*
X268077Y310964D02*
X268115Y310536D01*
X268178Y310160D01*
X268265Y309833D01*
X268377Y309557D01*
X268515Y309331D01*
X268677Y309155D01*
X268865Y309029D01*
X269077Y308954D01*
X269315Y308929D01*
X264315D01*
X264552Y308954D01*
X264765Y309029D01*
X264952Y309155D01*
X265115Y309331D01*
X265252Y309557D01*
X265365Y309833D01*
X265453Y310160D01*
X265515Y310536D01*
X265552Y310964D01*
X265565Y311441D01*
X268065D01*
X268077Y310964D01*
D02*
G37*
D12*
X299700Y417300D02*
Y420906D01*
X340800Y372261D02*
X343000Y374461D01*
X340800Y350000D02*
Y372261D01*
X237020Y479100D02*
X256180D01*
X220800Y462880D02*
X237020Y479100D01*
X220800Y395820D02*
Y462880D01*
X237600Y477700D02*
X255600D01*
X222200Y462300D02*
X237600Y477700D01*
X222200Y396400D02*
Y462300D01*
X255592Y368173D02*
X262873D01*
X262947Y368400D02*
X269800D01*
X262873Y368473D02*
X262947Y368400D01*
X262873Y368173D02*
Y368473D01*
X269800Y368400D02*
X272500Y371100D01*
X300221Y356921D02*
Y359179D01*
X290800Y368600D02*
X300221Y359179D01*
X277600Y368600D02*
X290800D01*
X275100Y371100D02*
X277600Y368600D01*
X272500Y371100D02*
X275100D01*
X237100Y365900D02*
X280780D01*
X228500Y364500D02*
X280200D01*
X228500Y374500D02*
X237100Y365900D01*
X276100Y340200D02*
Y342900D01*
X284000Y350800D01*
Y357700D01*
X282600Y359100D02*
X284000Y357700D01*
X277600Y359100D02*
X282600D01*
X276200Y360500D02*
X277600Y359100D01*
X255200Y360500D02*
X276200D01*
X254000Y359300D02*
X255200Y360500D01*
X250700Y359300D02*
X254000D01*
X276777Y381300D02*
X283289Y374788D01*
X273980Y381300D02*
X276777D01*
X273185Y382095D02*
X273980Y381300D01*
X236505Y382095D02*
X273185D01*
X222200Y396400D02*
X236505Y382095D01*
X235925Y380695D02*
X272605D01*
X220800Y395820D02*
X235925Y380695D01*
X272605D02*
X279351Y373949D01*
X233600Y417300D02*
X237000Y413900D01*
X233600Y417300D02*
Y423400D01*
X237000Y413900D02*
X257800D01*
X269200Y425300D01*
X234800Y412200D02*
X258080D01*
X228500Y418500D02*
X234800Y412200D01*
X258080D02*
X269680Y423800D01*
X269200Y425300D02*
X295300D01*
X256180Y479100D02*
X260184Y475096D01*
X258842Y453842D02*
X260184Y455184D01*
Y475096D01*
X233000Y455900D02*
X235921Y452979D01*
Y449333D02*
Y452979D01*
Y443279D02*
X236000Y443200D01*
X235921Y443279D02*
Y449333D01*
X236000Y443200D02*
X237150Y442050D01*
Y438200D02*
Y442050D01*
X278400Y391742D02*
Y420700D01*
X249100Y457300D02*
X253200D01*
X234400D02*
X249100D01*
X249200Y457400D01*
Y459000D01*
X268700Y452000D02*
X269600Y452700D01*
X266300Y449600D02*
X268700Y452000D01*
X257000Y449600D02*
X266300D01*
X256400Y450200D02*
X257000Y449600D01*
X256400Y450200D02*
Y454100D01*
X253200Y457300D02*
X256400Y454100D01*
X233000Y455900D02*
X234400Y457300D01*
X254300Y433500D02*
Y453582D01*
X253282Y454600D02*
X254300Y453582D01*
X246500Y454600D02*
X253282D01*
X279800Y323400D02*
Y325400D01*
Y323400D02*
X281900Y321300D01*
X311800D01*
X279351Y372249D02*
Y373949D01*
X258458Y453842D02*
X258842D01*
X255600Y477700D02*
X258200Y475100D01*
Y459100D02*
Y475100D01*
X279481Y423800D02*
X281319Y421961D01*
X269680Y423800D02*
X279481D01*
X295300Y425300D02*
X298016Y422584D01*
X228500Y428500D02*
X233600Y423400D01*
X284300Y393300D02*
Y421500D01*
X254300Y433500D02*
X257033Y430767D01*
X269567D01*
X286300Y358400D02*
X287200D01*
X286180Y360500D02*
X290800D01*
X280780Y365900D02*
X286180Y360500D01*
X281000Y391500D02*
X281700D01*
X282100Y391100D01*
X278600Y388100D02*
X284000D01*
X305564Y342484D02*
X321100Y358020D01*
X290559Y342484D02*
X305564D01*
X305560Y340500D02*
X322716Y357656D01*
X292400Y340500D02*
X305560D01*
X312137Y338437D02*
X324116Y350416D01*
X290537Y338437D02*
X312137D01*
X318800Y396200D02*
X321284Y393716D01*
Y381678D02*
Y393716D01*
X325084Y379378D02*
Y389016D01*
X324116Y378410D02*
X325084Y379378D01*
X324116Y350416D02*
Y378410D01*
X324700Y389400D02*
X325084Y389016D01*
X322716Y357656D02*
Y379816D01*
X323100Y380200D01*
X321100Y381494D02*
X321284Y381678D01*
X321100Y358020D02*
Y381494D01*
X310100Y396200D02*
X318800D01*
X328100Y347600D02*
Y385600D01*
X314800Y334300D02*
X328100Y347600D01*
X290500Y334300D02*
X314800D01*
X292300Y336453D02*
X312132D01*
X326100Y350420D01*
X290400Y338300D02*
X290537Y338437D01*
X290559Y342484D02*
X290559Y342484D01*
X326100Y350420D02*
Y367400D01*
X305253Y344500D02*
X305427Y344326D01*
X292200Y344500D02*
X305253D01*
X305427Y344326D02*
X319300Y358200D01*
Y382500D01*
X281319Y407100D02*
Y421961D01*
X298016Y422584D02*
X298022D01*
X299700Y420906D01*
X275300Y388643D02*
X278400Y391742D01*
X275300Y386600D02*
Y388643D01*
X284000Y388100D02*
X287750Y391850D01*
X282100Y391100D02*
X284300Y393300D01*
Y421500D02*
X285500Y422700D01*
X295100D01*
X297200Y420600D01*
X287750Y391850D02*
Y420600D01*
X280200Y364500D02*
X286300Y358400D01*
X251700Y334200D02*
X253900Y336400D01*
X255900D01*
X262515Y334485D02*
X265484D01*
X260600Y336400D02*
X262515Y334485D01*
X264700Y331800D02*
X264800Y331900D01*
X260600Y331800D02*
X264700D01*
X285200Y443900D02*
Y444000D01*
X282600Y446600D02*
X285200Y444000D01*
X289800Y448500D02*
X292394D01*
X293778Y447116D01*
X295422D01*
X297700Y449394D01*
Y449500D01*
X294600Y449100D02*
Y450820D01*
X293720Y451700D02*
X294600Y450820D01*
X285200Y448500D02*
Y450400D01*
X286500Y451700D01*
X293720D01*
D26*
X285200Y448500D02*
D03*
Y443900D02*
D03*
X289800D02*
D03*
Y448500D02*
D03*
X260600Y331800D02*
D03*
Y336400D02*
D03*
X255900Y331800D02*
D03*
Y336400D02*
D03*
D90*
X356757Y365342D02*
X387343D01*
X396850Y374850D02*
Y375185D01*
X387343Y365342D02*
X396850Y374850D01*
X283400Y434300D02*
X288700Y429000D01*
X290300D01*
X302600Y448400D02*
Y453000D01*
X298100Y443900D02*
X302600Y448400D01*
X289800Y443900D02*
X298100D01*
X252500Y327100D02*
X255900Y330500D01*
Y331800D01*
X283400Y434300D02*
Y437711D01*
X320500Y401600D02*
X356757Y365342D01*
X306700Y401600D02*
X320500D01*
X378000Y407100D02*
X383700Y412800D01*
X373400Y407100D02*
X378000D01*
D91*
X321400Y411900D02*
G03*
X321600Y411700I200J0D01*
G01*
X325900D01*
X302784Y436384D02*
X322400Y456000D01*
X302784Y359484D02*
Y436384D01*
X300221Y356921D02*
X302784Y359484D01*
X283500Y340200D02*
X300221Y356921D01*
X269600Y452700D02*
X271500Y454600D01*
X322400Y456000D02*
Y477600D01*
X312600D02*
X322400D01*
X303247Y468247D02*
X312600Y477600D01*
X279800Y340200D02*
X283500D01*
X332700Y425200D02*
X335500D01*
X325900Y418400D02*
X332700Y425200D01*
X325900Y411700D02*
Y418400D01*
D92*
X250800Y375800D02*
X252900D01*
X237100D02*
X250800D01*
X249700Y370900D02*
X266800D01*
X231000Y381900D02*
X237100Y375800D01*
X225100Y381900D02*
X231000D01*
X222400Y379200D02*
X225100Y381900D01*
X222400Y351800D02*
Y379200D01*
Y351800D02*
X228500Y345700D01*
Y344500D02*
Y345700D01*
X280000Y354500D02*
X281500Y356000D01*
X228500Y354500D02*
X280000D01*
D95*
X427811Y487575D02*
D03*
Y434425D02*
D03*
D96*
X404189Y475173D02*
D03*
Y446827D02*
D03*
D97*
X346400Y306300D02*
D03*
X336390D02*
D03*
D98*
X228500Y418500D02*
D03*
X335500Y425200D02*
D03*
X228500Y374500D02*
D03*
D99*
Y428500D02*
D03*
X228500Y438500D02*
D03*
Y448500D02*
D03*
X335500Y395200D02*
D03*
Y405200D02*
D03*
X335500Y415200D02*
D03*
X228500Y344500D02*
D03*
Y354500D02*
D03*
X228500Y364500D02*
D03*
D100*
X286500Y306000D02*
D03*
X276658D02*
D03*
X265158Y473500D02*
D03*
X275000D02*
D03*
D101*
X266815Y306000D02*
D03*
X284842Y473500D02*
D03*
D102*
X396850Y375185D02*
D03*
Y365342D02*
D03*
Y355500D02*
D03*
Y332343D02*
D03*
Y322499D02*
D03*
Y312657D02*
D03*
D103*
X264200Y412900D02*
D03*
X299700Y417300D02*
D03*
X340800Y350000D02*
D03*
X404400Y485020D02*
D03*
X389400D02*
D03*
X374400D02*
D03*
X398983Y296700D02*
D03*
X383983D02*
D03*
X368983D02*
D03*
X353983D02*
D03*
X338983D02*
D03*
X323983D02*
D03*
X308983D02*
D03*
X293983D02*
D03*
X278983D02*
D03*
X263983D02*
D03*
X248983D02*
D03*
X409900Y305900D02*
D03*
X411000Y315400D02*
D03*
X410900Y322100D02*
D03*
X410700Y331400D02*
D03*
X410600Y339200D02*
D03*
Y349400D02*
D03*
X410800Y359800D02*
D03*
X410626Y368849D02*
D03*
X410800Y380200D02*
D03*
X411085Y396000D02*
D03*
X411100Y406300D02*
D03*
X411085Y417500D02*
D03*
X359400Y485020D02*
D03*
X344000D02*
D03*
X330300Y485400D02*
D03*
X317500Y485200D02*
D03*
X294900Y484800D02*
D03*
X279827Y484700D02*
D03*
X260900Y484400D02*
D03*
X253100Y484500D02*
D03*
X243982Y484200D02*
D03*
X235658Y484400D02*
D03*
X229300Y484200D02*
D03*
X224863Y481700D02*
D03*
X221500Y476100D02*
D03*
X221300Y471300D02*
D03*
Y467200D02*
D03*
X222700Y342140D02*
D03*
Y336316D02*
D03*
X222100Y314678D02*
D03*
X234300Y296600D02*
D03*
X221900Y309900D02*
D03*
Y301951D02*
D03*
X228300Y296600D02*
D03*
X408200Y298600D02*
D03*
X273400Y463400D02*
D03*
X267400Y462500D02*
D03*
X262873Y368473D02*
D03*
X246200Y416900D02*
D03*
X285257Y372157D02*
D03*
X266800Y370900D02*
D03*
X255592Y368173D02*
D03*
X250700Y359300D02*
D03*
X277600Y359100D02*
D03*
X250800Y375800D02*
D03*
X252900Y375900D02*
D03*
X277982Y316600D02*
D03*
X278100Y312500D02*
D03*
X269567Y314900D02*
D03*
X279100Y464900D02*
D03*
X270500Y463950D02*
D03*
X264300Y466100D02*
D03*
X278000Y320400D02*
D03*
X270700Y317100D02*
D03*
X276900Y462700D02*
D03*
X264300Y463300D02*
D03*
X273504Y462283D02*
D03*
X270600Y460200D02*
D03*
X282397Y458800D02*
D03*
X284092Y462800D02*
D03*
X282250Y460900D02*
D03*
X280300Y459900D02*
D03*
X260182Y317000D02*
D03*
X263200Y317148D02*
D03*
X265900Y318000D02*
D03*
X267592Y320394D02*
D03*
X275153Y317600D02*
D03*
X275047Y314832D02*
D03*
X281081Y313893D02*
D03*
Y317470D02*
D03*
X343000Y374461D02*
D03*
X236000Y443200D02*
D03*
X235921Y449333D02*
D03*
X237150Y438200D02*
D03*
X311600Y444700D02*
D03*
X278400Y420700D02*
D03*
X302768Y422750D02*
D03*
X309400Y372521D02*
D03*
X256950Y404500D02*
D03*
X250500Y384079D02*
D03*
X249200Y459000D02*
D03*
X233000Y455900D02*
D03*
X265720Y340389D02*
D03*
X300600Y356542D02*
D03*
X273300Y368500D02*
D03*
X353000Y393900D02*
D03*
X348400Y408400D02*
D03*
X311800Y321300D02*
D03*
X322100Y330200D02*
D03*
X248700Y470500D02*
D03*
X246600Y470700D02*
D03*
X248300Y472700D02*
D03*
X246100Y472800D02*
D03*
X244100Y470900D02*
D03*
X258458Y453842D02*
D03*
X279351Y372249D02*
D03*
X250900Y470600D02*
D03*
X250800Y472700D02*
D03*
X253400Y470300D02*
D03*
X253100Y472600D02*
D03*
X258200Y459100D02*
D03*
X244700Y418400D02*
D03*
X246900Y418800D02*
D03*
X248200Y416800D02*
D03*
X249500Y418700D02*
D03*
X250600Y416800D02*
D03*
X251600Y418500D02*
D03*
X252700Y416700D02*
D03*
X247200Y420800D02*
D03*
X244600Y420700D02*
D03*
X249700Y420906D02*
D03*
X252100Y421000D02*
D03*
X253600Y419100D02*
D03*
X241800Y471000D02*
D03*
X239100Y470700D02*
D03*
X237100D02*
D03*
X243800Y472900D02*
D03*
X241500Y473041D02*
D03*
X239500D02*
D03*
X237100Y473100D02*
D03*
X256850Y444000D02*
D03*
X258700Y441900D02*
D03*
X256763Y440063D02*
D03*
X258800Y437900D02*
D03*
X288500Y355400D02*
D03*
X287200Y358400D02*
D03*
X281000Y391500D02*
D03*
X293130Y374500D02*
D03*
X275200Y386500D02*
D03*
X278600Y388100D02*
D03*
X265000Y440200D02*
D03*
X268700D02*
D03*
X272400D02*
D03*
X268700Y443900D02*
D03*
X283289Y374788D02*
D03*
X256926Y436126D02*
D03*
X258514Y445968D02*
D03*
X309500Y386547D02*
D03*
X307500Y388516D02*
D03*
Y384579D02*
D03*
X291162Y372400D02*
D03*
X313300Y357700D02*
D03*
X246500Y454600D02*
D03*
X231300Y463700D02*
D03*
X296650Y326650D02*
D03*
X291100Y326600D02*
D03*
X290300Y429000D02*
D03*
X319300Y382500D02*
D03*
X310100Y396200D02*
D03*
X324700Y389400D02*
D03*
X323100Y380200D02*
D03*
X328100Y385600D02*
D03*
X326100Y367400D02*
D03*
X292300Y336453D02*
D03*
X290400Y338300D02*
D03*
X290559Y342484D02*
D03*
X292400Y340500D02*
D03*
X292200Y344500D02*
D03*
X290500Y334300D02*
D03*
X327900Y331000D02*
D03*
X283400Y437711D02*
D03*
X319500Y431600D02*
D03*
X316800D02*
D03*
X314100D02*
D03*
X311600D02*
D03*
X308900D02*
D03*
X300000Y456000D02*
D03*
X300200Y453500D02*
D03*
X302600Y453000D02*
D03*
X305400Y453500D02*
D03*
X304300Y455600D02*
D03*
X302000Y455300D02*
D03*
X305900Y459400D02*
D03*
X304700Y457600D02*
D03*
X302000Y457900D02*
D03*
X303800Y460300D02*
D03*
X305800Y462000D02*
D03*
X240200Y325000D02*
D03*
X240300Y327500D02*
D03*
X243000Y325100D02*
D03*
X243100Y327600D02*
D03*
X252500Y327100D02*
D03*
X252300Y324900D02*
D03*
X249800Y325100D02*
D03*
X247800Y325300D02*
D03*
X245300D02*
D03*
X250300Y327300D02*
D03*
X247800Y327500D02*
D03*
X245500Y327600D02*
D03*
X361900Y456600D02*
D03*
X359600D02*
D03*
X357300D02*
D03*
X361800Y459000D02*
D03*
X359600D02*
D03*
X357300D02*
D03*
X361800Y461400D02*
D03*
X359600D02*
D03*
X357300D02*
D03*
X361800Y463950D02*
D03*
X359600D02*
D03*
X357300D02*
D03*
X281500Y356000D02*
D03*
X281319Y407100D02*
D03*
X297200Y420600D02*
D03*
X287750D02*
D03*
X399000Y425900D02*
D03*
X402600Y430300D02*
D03*
X400050Y430200D02*
D03*
X397600Y430300D02*
D03*
X395000D02*
D03*
X405600Y407700D02*
D03*
X399900D02*
D03*
X397500Y432200D02*
D03*
X402300Y432100D02*
D03*
X399800Y432200D02*
D03*
X395100Y432300D02*
D03*
X269567Y430767D02*
D03*
X249700Y370900D02*
D03*
X290800Y360500D02*
D03*
X269000Y358200D02*
D03*
X251700Y334200D02*
D03*
X264800Y331900D02*
D03*
X265484Y334485D02*
D03*
X297700Y449500D02*
D03*
X294600Y449100D02*
D03*
X282600Y446600D02*
D03*
X306700Y401600D02*
D03*
X383700Y412800D02*
D03*
X373400Y407100D02*
D03*
X279800Y325400D02*
D03*
X276100D02*
D03*
X272400D02*
D03*
X276100Y329100D02*
D03*
X272400D02*
D03*
Y332800D02*
D03*
X276100D02*
D03*
X272400Y336500D02*
D03*
X279800D02*
D03*
X283500D02*
D03*
X276100Y340200D02*
D03*
X279800D02*
D03*
X283500D02*
D03*
X265000Y443900D02*
D03*
X276100D02*
D03*
X272400Y447600D02*
D03*
X276100D02*
D03*
Y451300D02*
D03*
X272400D02*
D03*
Y455000D02*
D03*
X269600Y452700D02*
D03*
D104*
X354500Y327600D02*
D03*
Y443962D02*
D03*
X225700Y327600D02*
D03*
D105*
X322400Y477600D02*
D03*
X325900Y411700D02*
D03*
X321400Y411900D02*
D03*
D106*
X270566Y469066D02*
X275000Y473500D01*
X270566Y462226D02*
Y469066D01*
Y462226D02*
X270670Y462122D01*
Y460270D02*
Y462122D01*
X266815Y306000D02*
Y311615D01*
X270700Y315500D01*
Y317100D01*
X276658Y306000D02*
X278000Y307343D01*
Y320400D01*
X276900Y462700D02*
X284842Y470643D01*
Y473500D01*
X264300Y472643D02*
X265158Y473500D01*
X264300Y463300D02*
Y472643D01*
X270600Y460200D02*
X270670Y460270D01*
X281050Y453950D02*
X288950D01*
X278400Y451300D02*
X281050Y453950D01*
X276100Y451300D02*
X278400D01*
X288950Y453950D02*
X303247Y468247D01*
M02*
