G04*
G04 #@! TF.GenerationSoftware,Altium Limited,Altium Designer,18.1.7 (191)*
G04*
G04 Layer_Color=255*
%FSLAX25Y25*%
%MOIN*%
G70*
G01*
G75*
%ADD26R,0.02000X0.02500*%
%ADD95O,0.08661X0.04724*%
%ADD96C,0.14961*%
%ADD97O,0.06000X0.06500*%
%ADD98R,0.07874X0.07087*%
%ADD99O,0.07874X0.07087*%
%ADD100C,0.05906*%
%ADD101R,0.05906X0.05906*%
%ADD102C,0.06000*%
D26*
X285200Y448500D02*
D03*
Y443900D02*
D03*
X289800D02*
D03*
Y448500D02*
D03*
X260600Y331800D02*
D03*
Y336400D02*
D03*
X255900Y331800D02*
D03*
Y336400D02*
D03*
D95*
X427811Y487575D02*
D03*
Y434425D02*
D03*
D96*
X404189Y475173D02*
D03*
Y446827D02*
D03*
D97*
X346400Y306300D02*
D03*
X336390D02*
D03*
D98*
X228500Y418500D02*
D03*
X335500Y425200D02*
D03*
X228500Y374500D02*
D03*
D99*
Y428500D02*
D03*
X228500Y438500D02*
D03*
Y448500D02*
D03*
X335500Y395200D02*
D03*
Y405200D02*
D03*
X335500Y415200D02*
D03*
X228500Y344500D02*
D03*
Y354500D02*
D03*
X228500Y364500D02*
D03*
D100*
X286500Y306000D02*
D03*
X276658D02*
D03*
X265158Y473500D02*
D03*
X275000D02*
D03*
D101*
X266815Y306000D02*
D03*
X284842Y473500D02*
D03*
D102*
X396850Y375185D02*
D03*
Y365342D02*
D03*
Y355500D02*
D03*
Y332343D02*
D03*
Y322499D02*
D03*
Y312657D02*
D03*
M02*
