G04*
G04 #@! TF.GenerationSoftware,Altium Limited,Altium Designer,18.1.7 (191)*
G04*
G04 Layer_Color=16711935*
%FSLAX25Y25*%
%MOIN*%
G70*
G01*
G75*
%ADD48R,0.02800X0.03300*%
%ADD70O,0.09055X0.05118*%
%ADD71C,0.15354*%
%ADD72O,0.06800X0.07300*%
%ADD73R,0.08674X0.07887*%
%ADD74O,0.08674X0.07887*%
%ADD75C,0.06706*%
%ADD76R,0.06706X0.06706*%
%ADD77C,0.06394*%
%ADD78C,0.09068*%
D48*
X285200Y448500D02*
D03*
Y443900D02*
D03*
X289800D02*
D03*
Y448500D02*
D03*
X260600Y331800D02*
D03*
Y336400D02*
D03*
X255900Y331800D02*
D03*
Y336400D02*
D03*
D70*
X427811Y487575D02*
D03*
Y434425D02*
D03*
D71*
X404189Y475173D02*
D03*
Y446827D02*
D03*
D72*
X346400Y306300D02*
D03*
X336390D02*
D03*
D73*
X228500Y418500D02*
D03*
X335500Y425200D02*
D03*
X228500Y374500D02*
D03*
D74*
Y428500D02*
D03*
X228500Y438500D02*
D03*
Y448500D02*
D03*
X335500Y395200D02*
D03*
Y405200D02*
D03*
X335500Y415200D02*
D03*
X228500Y344500D02*
D03*
Y354500D02*
D03*
X228500Y364500D02*
D03*
D75*
X286500Y306000D02*
D03*
X276658D02*
D03*
X265158Y473500D02*
D03*
X275000D02*
D03*
D76*
X266815Y306000D02*
D03*
X284842Y473500D02*
D03*
D77*
X396850Y375185D02*
D03*
Y365342D02*
D03*
Y355500D02*
D03*
Y332343D02*
D03*
Y322499D02*
D03*
Y312657D02*
D03*
D78*
X354500Y327600D02*
D03*
Y443962D02*
D03*
X225700Y327600D02*
D03*
M02*
