G04*
G04 #@! TF.GenerationSoftware,Altium Limited,Altium Designer,18.1.7 (191)*
G04*
G04 Layer_Physical_Order=3*
G04 Layer_Color=16776960*
%FSLAX25Y25*%
%MOIN*%
G70*
G01*
G75*
%ADD12C,0.00800*%
%ADD92C,0.01500*%
%ADD95O,0.08661X0.04724*%
%ADD96C,0.14961*%
%ADD97O,0.06000X0.06500*%
%ADD98R,0.07874X0.07087*%
%ADD99O,0.07874X0.07087*%
%ADD100C,0.05906*%
%ADD101R,0.05906X0.05906*%
%ADD102C,0.06000*%
%ADD103C,0.01968*%
%ADD104C,0.08268*%
%ADD105C,0.03150*%
G36*
X353487Y484680D02*
X357288Y483963D01*
X361000Y482878D01*
X364588Y481434D01*
X368018Y479645D01*
X371255Y477528D01*
X374269Y475104D01*
X375650Y473750D01*
X375686Y473027D01*
X375968Y471609D01*
X376521Y470273D01*
X377324Y469071D01*
X378346Y468049D01*
X379548Y467246D01*
X380884Y466693D01*
X382302Y466411D01*
X383025Y466375D01*
X402000Y465500D01*
X402985D01*
X404917Y465116D01*
X406737Y464362D01*
X408375Y463268D01*
X409767Y461875D01*
X410862Y460237D01*
X411616Y458417D01*
X412000Y456485D01*
Y451400D01*
X412100D01*
Y437024D01*
X411992Y436483D01*
X411781Y435974D01*
X411475Y435515D01*
X411085Y435125D01*
X410626Y434819D01*
X410117Y434608D01*
X409576Y434500D01*
X361600D01*
X360792Y434500D01*
X359208Y434815D01*
X357716Y435433D01*
X356373Y436331D01*
X355231Y437473D01*
X354415Y438694D01*
X354447Y438878D01*
X354497Y438989D01*
X354709Y439215D01*
X355736Y439350D01*
X356887Y439827D01*
X357876Y440585D01*
X358635Y441574D01*
X359112Y442726D01*
X359275Y443962D01*
X359112Y445197D01*
X358635Y446349D01*
X357876Y447338D01*
X356887Y448097D01*
X355736Y448574D01*
X354500Y448736D01*
X353264Y448574D01*
X353100Y448506D01*
X352904Y448980D01*
X352447Y449664D01*
X351864Y450247D01*
X351180Y450704D01*
X350419Y451019D01*
X349612Y451180D01*
X349200Y451200D01*
X291100D01*
X290509Y451200D01*
X289350Y451431D01*
X288258Y451883D01*
X287275Y452539D01*
X286439Y453375D01*
X285783Y454358D01*
X285331Y455450D01*
X285100Y456609D01*
X285100Y457200D01*
Y461568D01*
X285234Y461658D01*
X285585Y462182D01*
X285708Y462800D01*
X285585Y463418D01*
X285234Y463942D01*
X284711Y464292D01*
X284092Y464415D01*
X284039Y464405D01*
X283651Y464565D01*
X283300Y464600D01*
X280961D01*
X280715Y464900D01*
X280592Y465518D01*
X280242Y466042D01*
X279718Y466392D01*
X279100Y466515D01*
X278482Y466392D01*
X277958Y466042D01*
X277608Y465518D01*
X277485Y464900D01*
X277238Y464600D01*
X274456D01*
X274018Y464892D01*
X273400Y465015D01*
X272782Y464892D01*
X272344Y464600D01*
X271971D01*
X271642Y465092D01*
X271118Y465442D01*
X270500Y465565D01*
X269882Y465442D01*
X269358Y465092D01*
X269029Y464600D01*
X265759D01*
X265721Y464642D01*
X265537Y465100D01*
X265792Y465482D01*
X265915Y466100D01*
X265792Y466718D01*
X265442Y467242D01*
X264918Y467592D01*
X264300Y467715D01*
X263682Y467592D01*
X263158Y467242D01*
X262808Y466718D01*
X262685Y466100D01*
X262808Y465482D01*
X263063Y465100D01*
X262879Y464642D01*
X262841Y464600D01*
X259900D01*
X259900Y464600D01*
X259626Y464586D01*
X259087Y464479D01*
X258580Y464269D01*
X258124Y463964D01*
X257736Y463576D01*
X257431Y463120D01*
X257221Y462613D01*
X257114Y462074D01*
X257100Y461800D01*
Y460270D01*
X257058Y460242D01*
X256708Y459718D01*
X256585Y459100D01*
X256708Y458482D01*
X257058Y457958D01*
X257100Y457930D01*
Y454661D01*
X256966Y454460D01*
X256843Y453842D01*
X256966Y453224D01*
X257100Y453023D01*
Y446704D01*
X257021Y446586D01*
X256899Y445968D01*
X256949Y445714D01*
X256850Y445615D01*
X256232Y445492D01*
X255708Y445142D01*
X255358Y444618D01*
X255253Y444093D01*
X255217Y444013D01*
X255215Y443962D01*
X255212Y443940D01*
X255208Y443919D01*
X255200Y443896D01*
X255190Y443870D01*
X255175Y443841D01*
X255155Y443809D01*
X255128Y443772D01*
X255095Y443732D01*
X255041Y443675D01*
X255015Y443607D01*
X252579Y441171D01*
X252358Y440840D01*
X252280Y440450D01*
Y432024D01*
X252358Y431634D01*
X252579Y431303D01*
X257122Y426760D01*
X257124Y426700D01*
X257320Y425719D01*
X257702Y424796D01*
X258258Y423965D01*
X258965Y423258D01*
X259796Y422702D01*
X260719Y422320D01*
X261700Y422124D01*
X261760Y422122D01*
X268000Y415882D01*
Y372605D01*
X267500Y372338D01*
X267418Y372392D01*
X266800Y372515D01*
X266182Y372392D01*
X265658Y372042D01*
X265308Y371518D01*
X265185Y370900D01*
X265308Y370282D01*
X265658Y369758D01*
X266182Y369408D01*
X266800Y369285D01*
X267418Y369408D01*
X267500Y369462D01*
X268000Y369195D01*
Y359437D01*
X267858Y359342D01*
X267508Y358818D01*
X267385Y358200D01*
X267508Y357582D01*
X267858Y357058D01*
X268000Y356963D01*
Y354684D01*
X267923Y354300D01*
Y342570D01*
X267119Y341766D01*
X266511D01*
X266338Y341882D01*
X265720Y342005D01*
X265101Y341882D01*
X264577Y341532D01*
X264227Y341008D01*
X264104Y340389D01*
X264227Y339771D01*
X264577Y339247D01*
X265101Y338897D01*
X265720Y338774D01*
X266338Y338897D01*
X266511Y339013D01*
X267689D01*
X268000Y338758D01*
Y322322D01*
X267614Y322005D01*
X267592Y322009D01*
X266973Y321886D01*
X266449Y321536D01*
X266099Y321012D01*
X265976Y320394D01*
X266035Y320098D01*
X265921Y319690D01*
X265669Y319569D01*
X265282Y319492D01*
X264758Y319142D01*
X264493Y318745D01*
X264408Y318618D01*
X263892Y318591D01*
X263818Y318640D01*
X263200Y318763D01*
X262582Y318640D01*
X262058Y318290D01*
X261942Y318117D01*
X261341D01*
X261324Y318142D01*
X260800Y318492D01*
X260182Y318615D01*
X259564Y318492D01*
X259040Y318142D01*
X258690Y317618D01*
X258567Y317000D01*
X258690Y316382D01*
X259040Y315858D01*
X259564Y315508D01*
X260182Y315385D01*
X260800Y315508D01*
X261324Y315858D01*
X261440Y316031D01*
X262041D01*
X262058Y316006D01*
X262582Y315656D01*
X263200Y315533D01*
X263818Y315656D01*
X264342Y316006D01*
X264607Y316403D01*
X264692Y316530D01*
X265208Y316557D01*
X265282Y316508D01*
X265900Y316385D01*
X266518Y316508D01*
X267042Y316858D01*
X267392Y317382D01*
X267500Y317923D01*
X268000Y317874D01*
Y315400D01*
X268000Y315400D01*
X268000Y315143D01*
X267952Y314900D01*
X267966Y314827D01*
X267842Y314204D01*
X267533Y313458D01*
X267085Y312786D01*
X266514Y312215D01*
X265842Y311767D01*
X265096Y311457D01*
X264304Y311300D01*
X263900Y311300D01*
X237967D01*
X237117Y311469D01*
X236316Y311801D01*
X235595Y312282D01*
X234982Y312895D01*
X234501Y313616D01*
X234169Y314417D01*
X234000Y315267D01*
Y315700D01*
Y442571D01*
X234500Y442620D01*
X234508Y442582D01*
X234858Y442058D01*
X235382Y441708D01*
X236000Y441585D01*
X236618Y441708D01*
X237142Y442058D01*
X237492Y442582D01*
X237615Y443200D01*
X237492Y443818D01*
X237142Y444342D01*
X236618Y444692D01*
X236000Y444815D01*
X235382Y444692D01*
X234858Y444342D01*
X234508Y443818D01*
X234500Y443780D01*
X234000Y443829D01*
Y448502D01*
X234500Y448608D01*
X234779Y448191D01*
X235303Y447841D01*
X235921Y447718D01*
X236539Y447841D01*
X237063Y448191D01*
X237413Y448715D01*
X237536Y449333D01*
X237413Y449952D01*
X237063Y450476D01*
X236539Y450826D01*
X235921Y450949D01*
X235303Y450826D01*
X234779Y450476D01*
X234500Y450058D01*
X234000Y450164D01*
Y454663D01*
X234142Y454758D01*
X234492Y455282D01*
X234615Y455900D01*
X234492Y456518D01*
X234142Y457042D01*
X234000Y457137D01*
Y473100D01*
X234000Y473100D01*
X234000Y473100D01*
X233895Y473775D01*
X233863Y475141D01*
X234010Y476500D01*
X234333Y477827D01*
X234827Y479102D01*
X235482Y480300D01*
X236288Y481403D01*
X237232Y482392D01*
X238297Y483249D01*
X239464Y483959D01*
X240714Y484511D01*
X241993Y484886D01*
X242066Y484849D01*
X242416Y484450D01*
X242367Y484200D01*
X242490Y483582D01*
X242840Y483058D01*
X243364Y482708D01*
X243982Y482585D01*
X244600Y482708D01*
X245124Y483058D01*
X245474Y483582D01*
X245597Y484200D01*
X245537Y484500D01*
X245908Y485000D01*
X251190D01*
X251507Y484614D01*
X251485Y484500D01*
X251608Y483882D01*
X251958Y483358D01*
X252482Y483008D01*
X253100Y482885D01*
X253718Y483008D01*
X254242Y483358D01*
X254592Y483882D01*
X254715Y484500D01*
X254693Y484614D01*
X255010Y485000D01*
X259010D01*
X259327Y484614D01*
X259285Y484400D01*
X259408Y483782D01*
X259758Y483258D01*
X260282Y482908D01*
X260900Y482785D01*
X261518Y482908D01*
X262042Y483258D01*
X262392Y483782D01*
X262515Y484400D01*
X262473Y484614D01*
X262790Y485000D01*
X277966Y485000D01*
X278212Y484700D01*
X278335Y484082D01*
X278685Y483558D01*
X279209Y483208D01*
X279827Y483085D01*
X280445Y483208D01*
X280969Y483558D01*
X281319Y484082D01*
X281442Y484700D01*
X281689Y485000D01*
X293121Y485000D01*
X293285Y484800D01*
X293408Y484182D01*
X293758Y483658D01*
X294282Y483308D01*
X294900Y483185D01*
X295518Y483308D01*
X296042Y483658D01*
X296392Y484182D01*
X296515Y484800D01*
X296679Y485000D01*
X315925Y485000D01*
X316008Y484582D01*
X316358Y484058D01*
X316882Y483708D01*
X317500Y483585D01*
X318118Y483708D01*
X318642Y484058D01*
X318992Y484582D01*
X319075Y485000D01*
X328764Y485000D01*
X328808Y484782D01*
X329158Y484258D01*
X329682Y483908D01*
X330300Y483785D01*
X330918Y483908D01*
X331442Y484258D01*
X331792Y484782D01*
X331836Y485000D01*
X342389Y485000D01*
X342508Y484402D01*
X342858Y483878D01*
X343382Y483527D01*
X344000Y483404D01*
X344618Y483527D01*
X345142Y483878D01*
X345492Y484402D01*
X345611Y485000D01*
X347700D01*
X347700Y485000D01*
X347700Y485000D01*
X349634Y485020D01*
X353487Y484680D01*
D02*
G37*
G36*
X230597Y463011D02*
X230538Y463066D01*
X230475Y463115D01*
X230407Y463158D01*
X230335Y463196D01*
X230259Y463228D01*
X230178Y463254D01*
X230093Y463274D01*
X230003Y463288D01*
X229909Y463297D01*
X229810Y463300D01*
Y464100D01*
X229909Y464103D01*
X230003Y464112D01*
X230093Y464126D01*
X230178Y464146D01*
X230259Y464172D01*
X230335Y464204D01*
X230407Y464242D01*
X230475Y464285D01*
X230538Y464334D01*
X230597Y464389D01*
Y463011D01*
D02*
G37*
G36*
X342617Y449016D02*
X344437Y448262D01*
X346075Y447167D01*
X347467Y445775D01*
X348562Y444137D01*
X349316Y442317D01*
X349700Y440385D01*
Y439400D01*
Y410038D01*
X349200Y409771D01*
X349018Y409892D01*
X348400Y410015D01*
X347782Y409892D01*
X347258Y409542D01*
X346908Y409018D01*
X346785Y408400D01*
X346908Y407782D01*
X347258Y407258D01*
X347782Y406908D01*
X348400Y406785D01*
X349018Y406908D01*
X349200Y407029D01*
X349700Y406762D01*
Y336100D01*
Y335430D01*
X349439Y334117D01*
X348926Y332879D01*
X348182Y331765D01*
X347235Y330818D01*
X346121Y330074D01*
X344883Y329561D01*
X343570Y329300D01*
X295885D01*
X295702Y329800D01*
X295842Y330010D01*
X295920Y330400D01*
Y349000D01*
X295842Y349390D01*
X295621Y349721D01*
X290335Y355007D01*
X290309Y355075D01*
X290255Y355132D01*
X290222Y355172D01*
X290195Y355209D01*
X290175Y355241D01*
X290160Y355270D01*
X290150Y355296D01*
X290142Y355319D01*
X290138Y355341D01*
X290135Y355362D01*
X290133Y355413D01*
X290097Y355492D01*
X289992Y356018D01*
X289642Y356542D01*
X289118Y356892D01*
X288739Y356968D01*
X288495Y357482D01*
X288495Y357487D01*
X288692Y357782D01*
X288815Y358400D01*
X288692Y359018D01*
X288342Y359542D01*
X287818Y359892D01*
X287200Y360015D01*
X286582Y359892D01*
X286058Y359542D01*
X285708Y359018D01*
X285585Y358400D01*
X285708Y357782D01*
X286058Y357258D01*
X286582Y356908D01*
X286961Y356832D01*
X287205Y356318D01*
X287205Y356313D01*
X287008Y356018D01*
X286885Y355400D01*
X287008Y354782D01*
X287358Y354258D01*
X287047Y353892D01*
X286283Y354403D01*
X284906Y354973D01*
X283445Y355263D01*
X282700Y355300D01*
X273362D01*
X272737Y355559D01*
X272259Y356037D01*
X272000Y356662D01*
Y366862D01*
X272500Y367129D01*
X272682Y367008D01*
X273300Y366885D01*
X273918Y367008D01*
X274442Y367358D01*
X274792Y367882D01*
X274915Y368500D01*
X274792Y369118D01*
X274442Y369642D01*
X273918Y369992D01*
X273300Y370115D01*
X272682Y369992D01*
X272500Y369871D01*
X272000Y370138D01*
Y403005D01*
X272462Y403196D01*
X285680Y389978D01*
Y374022D01*
X285649Y373991D01*
X285582Y373965D01*
X285525Y373912D01*
X285138Y373873D01*
X284802Y374275D01*
X284904Y374788D01*
X284781Y375407D01*
X284431Y375931D01*
X283907Y376281D01*
X283289Y376404D01*
X282670Y376281D01*
X282146Y375931D01*
X281796Y375407D01*
X281673Y374788D01*
X281796Y374170D01*
X282146Y373646D01*
X282670Y373296D01*
X283289Y373173D01*
X283451Y373205D01*
X283764Y372775D01*
X283641Y372157D01*
X283764Y371538D01*
X284114Y371014D01*
X284638Y370664D01*
X285257Y370541D01*
X285875Y370664D01*
X286399Y371014D01*
X286749Y371538D01*
X286853Y372064D01*
X286890Y372144D01*
X286892Y372195D01*
X286894Y372216D01*
X286899Y372237D01*
X286906Y372260D01*
X286917Y372286D01*
X286932Y372315D01*
X286952Y372348D01*
X286978Y372384D01*
X287012Y372425D01*
X287065Y372482D01*
X287091Y372549D01*
X287421Y372879D01*
X287642Y373210D01*
X287720Y373600D01*
Y390231D01*
X288165Y390452D01*
X288202Y390456D01*
X290143Y388515D01*
Y375404D01*
X290127Y375322D01*
Y373678D01*
X290138Y373621D01*
X290020Y373542D01*
X289670Y373018D01*
X289547Y372400D01*
X289670Y371782D01*
X290020Y371258D01*
X290544Y370908D01*
X291162Y370785D01*
X291781Y370908D01*
X292305Y371258D01*
X292655Y371782D01*
X292778Y372400D01*
X292751Y372536D01*
X293104Y372890D01*
X293130Y372885D01*
X293749Y373008D01*
X294273Y373358D01*
X294623Y373882D01*
X294746Y374500D01*
X294623Y375118D01*
X294325Y375564D01*
X294294Y375646D01*
X294260Y375683D01*
X294247Y375700D01*
X294235Y375719D01*
X294223Y375740D01*
X294213Y375766D01*
X294203Y375797D01*
X294194Y375834D01*
X294187Y375879D01*
X294182Y375931D01*
X294180Y376009D01*
X294150Y376075D01*
Y397898D01*
X294643Y398112D01*
X304960Y387795D01*
X305291Y387574D01*
X305681Y387496D01*
X305925D01*
X305991Y387467D01*
X306069Y387464D01*
X306121Y387460D01*
X306166Y387453D01*
X306203Y387444D01*
X306234Y387434D01*
X306260Y387423D01*
X306281Y387412D01*
X306300Y387400D01*
X306317Y387387D01*
X306354Y387352D01*
X306436Y387321D01*
X306882Y387024D01*
X307447Y386911D01*
X307517Y386878D01*
X307591Y386683D01*
X307575Y386598D01*
X307280Y386151D01*
X306882Y386071D01*
X306358Y385721D01*
X306008Y385197D01*
X305885Y384579D01*
X306008Y383961D01*
X306358Y383437D01*
X306882Y383087D01*
X307500Y382964D01*
X308118Y383087D01*
X308531Y383363D01*
X308627Y383397D01*
X308665Y383431D01*
X308683Y383445D01*
X308703Y383457D01*
X308726Y383469D01*
X308753Y383480D01*
X308786Y383490D01*
X308824Y383499D01*
X308870Y383506D01*
X308923Y383511D01*
X309001Y383514D01*
X309067Y383543D01*
X312002D01*
X312392Y383621D01*
X312723Y383842D01*
X313721Y384840D01*
X313942Y385171D01*
X314020Y385561D01*
Y389380D01*
X313942Y389770D01*
X313721Y390101D01*
X309659Y394163D01*
X309906Y394623D01*
X310100Y394585D01*
X310718Y394708D01*
X311242Y395058D01*
X311592Y395582D01*
X311715Y396200D01*
X311592Y396818D01*
X311242Y397342D01*
X310718Y397692D01*
X310100Y397815D01*
X309482Y397692D01*
X308958Y397342D01*
X308608Y396818D01*
X308485Y396200D01*
X308608Y395582D01*
X308745Y395377D01*
X308525Y394997D01*
X308449Y394920D01*
X305330D01*
X282920Y417330D01*
Y422200D01*
X282842Y422590D01*
X282621Y422921D01*
X278504Y427038D01*
X278695Y427500D01*
X282600D01*
X283262Y427532D01*
X284559Y427791D01*
X285782Y428297D01*
X286882Y429032D01*
X287818Y429968D01*
X288553Y431068D01*
X289059Y432291D01*
X289317Y433588D01*
X289350Y434250D01*
Y448420D01*
X289500Y448500D01*
X289500D01*
X289500Y448679D01*
X289637Y449010D01*
X289890Y449263D01*
X290221Y449400D01*
X292739D01*
X292985Y449100D01*
X293108Y448482D01*
X293458Y447958D01*
X293982Y447608D01*
X294600Y447485D01*
X295218Y447608D01*
X295742Y447958D01*
X295983Y448318D01*
X296495Y448375D01*
X296558Y448358D01*
X297082Y448008D01*
X297700Y447885D01*
X298318Y448008D01*
X298842Y448358D01*
X299192Y448882D01*
X299295Y449400D01*
X340685D01*
X342617Y449016D01*
D02*
G37*
G36*
X259501Y445878D02*
X259511Y445798D01*
X259528Y445720D01*
X259553Y445642D01*
X259584Y445566D01*
X259623Y445490D01*
X259669Y445415D01*
X259722Y445342D01*
X259783Y445269D01*
X259850Y445197D01*
X259284Y444632D01*
X259213Y444699D01*
X259140Y444760D01*
X259066Y444813D01*
X258992Y444859D01*
X258916Y444898D01*
X258840Y444929D01*
X258762Y444954D01*
X258684Y444971D01*
X258604Y444981D01*
X258524Y444984D01*
X259498Y445958D01*
X259501Y445878D01*
D02*
G37*
G36*
X256840Y443016D02*
X256760Y443013D01*
X256680Y443003D01*
X256602Y442986D01*
X256524Y442961D01*
X256448Y442930D01*
X256372Y442891D01*
X256297Y442845D01*
X256224Y442792D01*
X256151Y442731D01*
X256079Y442664D01*
X255514Y443229D01*
X255581Y443301D01*
X255642Y443374D01*
X255695Y443447D01*
X255741Y443522D01*
X255780Y443598D01*
X255811Y443674D01*
X255836Y443752D01*
X255853Y443830D01*
X255863Y443910D01*
X255866Y443990D01*
X256840Y443016D01*
D02*
G37*
G36*
X259691Y441881D02*
X259705Y441802D01*
X259727Y441724D01*
X259755Y441647D01*
X259790Y441570D01*
X259831Y441495D01*
X259879Y441421D01*
X259933Y441348D01*
X259994Y441275D01*
X260062Y441204D01*
X259541Y440594D01*
X259469Y440661D01*
X259396Y440721D01*
X259322Y440773D01*
X259247Y440818D01*
X259171Y440854D01*
X259095Y440883D01*
X259018Y440904D01*
X258940Y440917D01*
X258860Y440922D01*
X258781Y440919D01*
X259682Y441961D01*
X259691Y441881D01*
D02*
G37*
G36*
X256753Y439079D02*
X256673Y439076D01*
X256593Y439066D01*
X256515Y439049D01*
X256437Y439024D01*
X256361Y438993D01*
X256285Y438954D01*
X256210Y438908D01*
X256137Y438855D01*
X256064Y438794D01*
X255992Y438727D01*
X255427Y439292D01*
X255494Y439364D01*
X255555Y439437D01*
X255608Y439510D01*
X255654Y439585D01*
X255693Y439661D01*
X255724Y439737D01*
X255749Y439815D01*
X255766Y439893D01*
X255776Y439973D01*
X255779Y440053D01*
X256753Y439079D01*
D02*
G37*
G36*
X259515Y437215D02*
X259472Y437147D01*
X259434Y437075D01*
X259401Y437000D01*
X259373Y436920D01*
X259351Y436837D01*
X259333Y436751D01*
X259320Y436660D01*
X259313Y436566D01*
X259310Y436468D01*
X258510Y436369D01*
X258507Y436468D01*
X258498Y436562D01*
X258482Y436650D01*
X258460Y436734D01*
X258431Y436812D01*
X258396Y436885D01*
X258355Y436953D01*
X258308Y437015D01*
X258254Y437072D01*
X258194Y437124D01*
X259563Y437279D01*
X259515Y437215D01*
D02*
G37*
G36*
X257560Y435364D02*
X257511Y435301D01*
X257468Y435233D01*
X257430Y435161D01*
X257398Y435085D01*
X257372Y435004D01*
X257352Y434918D01*
X257338Y434829D01*
X257329Y434735D01*
X257326Y434636D01*
X256526D01*
X256523Y434735D01*
X256514Y434829D01*
X256500Y434918D01*
X256480Y435004D01*
X256454Y435085D01*
X256422Y435161D01*
X256384Y435233D01*
X256341Y435301D01*
X256292Y435364D01*
X256237Y435423D01*
X257615D01*
X257560Y435364D01*
D02*
G37*
G36*
X280880Y421778D02*
Y417446D01*
X280380Y417238D01*
X278877Y418742D01*
X278922Y418889D01*
X279078Y419248D01*
X279542Y419558D01*
X279892Y420082D01*
X280015Y420700D01*
X279892Y421318D01*
X279542Y421842D01*
X279018Y422192D01*
X278400Y422315D01*
X277782Y422192D01*
X277258Y421842D01*
X276948Y421378D01*
X276589Y421222D01*
X276442Y421177D01*
X272000Y425619D01*
Y425978D01*
X272289Y426676D01*
X272824Y427211D01*
X273522Y427500D01*
X275158D01*
X280880Y421778D01*
D02*
G37*
G36*
X408316Y432619D02*
X409019Y431916D01*
X409400Y430997D01*
Y430500D01*
Y380956D01*
X409308Y380818D01*
X409185Y380200D01*
X409308Y379582D01*
X409400Y379444D01*
Y369866D01*
X409134Y369467D01*
X409011Y368849D01*
X409134Y368231D01*
X409400Y367833D01*
Y360556D01*
X409308Y360418D01*
X409185Y359800D01*
X409308Y359182D01*
X409400Y359044D01*
Y350456D01*
X409108Y350018D01*
X408985Y349400D01*
X409108Y348782D01*
X409400Y348344D01*
Y340256D01*
X409108Y339818D01*
X408985Y339200D01*
X409108Y338582D01*
X409400Y338144D01*
Y332306D01*
X409208Y332018D01*
X409085Y331400D01*
X409208Y330782D01*
X409400Y330494D01*
Y322680D01*
X409285Y322100D01*
X409400Y321520D01*
Y315477D01*
X409385Y315400D01*
X409400Y315323D01*
Y314417D01*
X409212Y313471D01*
X408842Y312579D01*
X408306Y311776D01*
X407624Y311094D01*
X406821Y310558D01*
X405929Y310188D01*
X404983Y310000D01*
X399979D01*
X399733Y310500D01*
X399995Y310842D01*
X400358Y311718D01*
X400481Y312657D01*
X400358Y313597D01*
X399995Y314473D01*
X399418Y315225D01*
X398666Y315802D01*
X397790Y316165D01*
X396850Y316289D01*
X395911Y316165D01*
X395035Y315802D01*
X394283Y315225D01*
X393706Y314473D01*
X393343Y313597D01*
X393219Y312657D01*
X393343Y311718D01*
X393706Y310842D01*
X393968Y310500D01*
X393722Y310000D01*
X370115D01*
X368183Y310384D01*
X366363Y311138D01*
X364725Y312232D01*
X363333Y313625D01*
X362238Y315263D01*
X361484Y317083D01*
X361100Y319015D01*
Y320000D01*
Y393400D01*
Y394050D01*
X361354Y395325D01*
X361851Y396526D01*
X362573Y397607D01*
X363493Y398527D01*
X364574Y399249D01*
X365775Y399746D01*
X367050Y400000D01*
X371800D01*
X372780Y400048D01*
X374703Y400431D01*
X376514Y401181D01*
X378144Y402270D01*
X379530Y403656D01*
X380619Y405286D01*
X381369Y407097D01*
X381752Y409020D01*
X381800Y410000D01*
Y411892D01*
X382300Y412044D01*
X382558Y411658D01*
X383082Y411308D01*
X383700Y411185D01*
X384318Y411308D01*
X384842Y411658D01*
X385192Y412182D01*
X385315Y412800D01*
X385192Y413418D01*
X384842Y413942D01*
X384318Y414292D01*
X383700Y414415D01*
X383082Y414292D01*
X382558Y413942D01*
X382300Y413556D01*
X381800Y413708D01*
Y432040D01*
X381990Y432376D01*
X382068Y432489D01*
X382350Y432772D01*
X382902Y433000D01*
X407397D01*
X408316Y432619D01*
D02*
G37*
G36*
X280717Y409066D02*
X280571Y408505D01*
X280177Y408242D01*
X279827Y407718D01*
X279704Y407100D01*
X279827Y406482D01*
X280177Y405958D01*
X280701Y405608D01*
X281319Y405485D01*
X281938Y405608D01*
X282462Y405958D01*
X282725Y406352D01*
X283286Y406498D01*
X292111Y397673D01*
Y390138D01*
X291611Y389931D01*
X272000Y409542D01*
Y417130D01*
X272462Y417322D01*
X280717Y409066D01*
D02*
G37*
G36*
X306797Y387827D02*
X306738Y387882D01*
X306675Y387931D01*
X306607Y387974D01*
X306535Y388012D01*
X306459Y388044D01*
X306378Y388070D01*
X306293Y388090D01*
X306203Y388104D01*
X306109Y388113D01*
X306010Y388116D01*
Y388916D01*
X306109Y388919D01*
X306203Y388928D01*
X306293Y388942D01*
X306378Y388962D01*
X306459Y388988D01*
X306535Y389020D01*
X306607Y389058D01*
X306675Y389101D01*
X306738Y389150D01*
X306797Y389205D01*
Y387827D01*
D02*
G37*
G36*
X309903Y387938D02*
X309912Y387844D01*
X309926Y387755D01*
X309946Y387669D01*
X309972Y387588D01*
X310004Y387512D01*
X310042Y387440D01*
X310085Y387372D01*
X310134Y387309D01*
X310189Y387250D01*
X308811D01*
X308866Y387309D01*
X308915Y387372D01*
X308958Y387440D01*
X308996Y387512D01*
X309028Y387588D01*
X309054Y387669D01*
X309074Y387755D01*
X309088Y387844D01*
X309097Y387938D01*
X309100Y388037D01*
X309900D01*
X309903Y387938D01*
D02*
G37*
G36*
X308272Y385201D02*
X308335Y385151D01*
X308401Y385107D01*
X308473Y385068D01*
X308549Y385036D01*
X308630Y385010D01*
X308715Y384989D01*
X308804Y384975D01*
X308898Y384966D01*
X308997Y384963D01*
X308982Y384163D01*
X308884Y384160D01*
X308790Y384151D01*
X308700Y384137D01*
X308614Y384117D01*
X308533Y384092D01*
X308456Y384060D01*
X308384Y384023D01*
X308315Y383981D01*
X308251Y383932D01*
X308191Y383878D01*
X308214Y385256D01*
X308272Y385201D01*
D02*
G37*
G36*
X293533Y375891D02*
X293542Y375797D01*
X293556Y375708D01*
X293577Y375622D01*
X293603Y375541D01*
X293635Y375465D01*
X293672Y375393D01*
X293715Y375325D01*
X293765Y375262D01*
X293819Y375203D01*
X292442D01*
X292496Y375262D01*
X292546Y375325D01*
X292589Y375393D01*
X292627Y375465D01*
X292658Y375541D01*
X292684Y375622D01*
X292705Y375708D01*
X292719Y375797D01*
X292728Y375891D01*
X292730Y375990D01*
X293531D01*
X293533Y375891D01*
D02*
G37*
G36*
X286593Y372927D02*
X286525Y372855D01*
X286465Y372783D01*
X286411Y372709D01*
X286366Y372635D01*
X286327Y372559D01*
X286295Y372482D01*
X286271Y372405D01*
X286253Y372326D01*
X286244Y372247D01*
X286241Y372166D01*
X285266Y373141D01*
X285347Y373144D01*
X285426Y373153D01*
X285505Y373171D01*
X285582Y373195D01*
X285659Y373227D01*
X285735Y373266D01*
X285809Y373311D01*
X285883Y373365D01*
X285955Y373425D01*
X286027Y373493D01*
X286593Y372927D01*
D02*
G37*
G36*
X289487Y355310D02*
X289497Y355230D01*
X289514Y355152D01*
X289539Y355074D01*
X289570Y354998D01*
X289609Y354922D01*
X289655Y354847D01*
X289708Y354774D01*
X289769Y354701D01*
X289836Y354629D01*
X289271Y354064D01*
X289199Y354131D01*
X289126Y354192D01*
X289053Y354245D01*
X288978Y354291D01*
X288902Y354330D01*
X288826Y354361D01*
X288748Y354386D01*
X288670Y354403D01*
X288590Y354413D01*
X288510Y354416D01*
X289484Y355390D01*
X289487Y355310D01*
D02*
G37*
G36*
X292436Y327371D02*
X292369Y327299D01*
X292308Y327226D01*
X292255Y327153D01*
X292209Y327078D01*
X292170Y327002D01*
X292139Y326926D01*
X292114Y326848D01*
X292097Y326770D01*
X292087Y326690D01*
X292084Y326610D01*
X291110Y327584D01*
X291190Y327587D01*
X291270Y327597D01*
X291348Y327614D01*
X291426Y327639D01*
X291502Y327670D01*
X291578Y327709D01*
X291653Y327755D01*
X291726Y327808D01*
X291799Y327869D01*
X291871Y327936D01*
X292436Y327371D01*
D02*
G37*
G36*
X296640Y325666D02*
X296560Y325663D01*
X296480Y325653D01*
X296402Y325636D01*
X296324Y325611D01*
X296248Y325580D01*
X296172Y325541D01*
X296097Y325495D01*
X296024Y325442D01*
X295951Y325381D01*
X295879Y325314D01*
X295314Y325879D01*
X295381Y325951D01*
X295442Y326024D01*
X295495Y326097D01*
X295541Y326172D01*
X295580Y326248D01*
X295611Y326324D01*
X295636Y326402D01*
X295653Y326480D01*
X295663Y326560D01*
X295666Y326640D01*
X296640Y325666D01*
D02*
G37*
%LPC*%
G36*
X322400Y479817D02*
X321551Y479649D01*
X320832Y479168D01*
X320351Y478449D01*
X320183Y477600D01*
X320351Y476751D01*
X320832Y476032D01*
X321551Y475551D01*
X322400Y475383D01*
X323249Y475551D01*
X323968Y476032D01*
X324449Y476751D01*
X324617Y477600D01*
X324449Y478449D01*
X323968Y479168D01*
X323249Y479649D01*
X322400Y479817D01*
D02*
G37*
G36*
X288395Y477053D02*
X281290D01*
Y469947D01*
X288395D01*
Y477053D01*
D02*
G37*
G36*
X275000Y477083D02*
X274073Y476961D01*
X273208Y476603D01*
X272466Y476034D01*
X271897Y475292D01*
X271539Y474428D01*
X271417Y473500D01*
X271539Y472573D01*
X271897Y471708D01*
X272466Y470966D01*
X273208Y470397D01*
X274073Y470039D01*
X275000Y469917D01*
X275927Y470039D01*
X276792Y470397D01*
X277534Y470966D01*
X278103Y471708D01*
X278461Y472573D01*
X278583Y473500D01*
X278461Y474428D01*
X278103Y475292D01*
X277534Y476034D01*
X276792Y476603D01*
X275927Y476961D01*
X275000Y477083D01*
D02*
G37*
G36*
X265158D02*
X264230Y476961D01*
X263366Y476603D01*
X262624Y476034D01*
X262054Y475292D01*
X261696Y474428D01*
X261574Y473500D01*
X261696Y472573D01*
X262054Y471708D01*
X262624Y470966D01*
X263366Y470397D01*
X264230Y470039D01*
X265158Y469917D01*
X266085Y470039D01*
X266949Y470397D01*
X267691Y470966D01*
X268261Y471708D01*
X268619Y472573D01*
X268741Y473500D01*
X268619Y474428D01*
X268261Y475292D01*
X267691Y476034D01*
X266949Y476603D01*
X266085Y476961D01*
X265158Y477083D01*
D02*
G37*
G36*
X249200Y460615D02*
X248582Y460492D01*
X248058Y460142D01*
X247708Y459618D01*
X247585Y459000D01*
X247708Y458382D01*
X248058Y457858D01*
X248582Y457508D01*
X249200Y457385D01*
X249818Y457508D01*
X250342Y457858D01*
X250692Y458382D01*
X250815Y459000D01*
X250692Y459618D01*
X250342Y460142D01*
X249818Y460492D01*
X249200Y460615D01*
D02*
G37*
G36*
X246500Y456215D02*
X245882Y456092D01*
X245358Y455742D01*
X245008Y455218D01*
X244885Y454600D01*
X245008Y453982D01*
X245358Y453458D01*
X245882Y453108D01*
X246500Y452985D01*
X247118Y453108D01*
X247642Y453458D01*
X247992Y453982D01*
X248115Y454600D01*
X247992Y455218D01*
X247642Y455742D01*
X247118Y456092D01*
X246500Y456215D01*
D02*
G37*
G36*
X237150Y439815D02*
X236532Y439692D01*
X236008Y439342D01*
X235658Y438818D01*
X235535Y438200D01*
X235658Y437582D01*
X236008Y437058D01*
X236532Y436708D01*
X237150Y436585D01*
X237768Y436708D01*
X238292Y437058D01*
X238642Y437582D01*
X238765Y438200D01*
X238642Y438818D01*
X238292Y439342D01*
X237768Y439692D01*
X237150Y439815D01*
D02*
G37*
G36*
X264200Y414515D02*
X263582Y414392D01*
X263058Y414042D01*
X262708Y413518D01*
X262585Y412900D01*
X262708Y412282D01*
X263058Y411758D01*
X263582Y411408D01*
X264200Y411285D01*
X264818Y411408D01*
X265342Y411758D01*
X265692Y412282D01*
X265815Y412900D01*
X265692Y413518D01*
X265342Y414042D01*
X264818Y414392D01*
X264200Y414515D01*
D02*
G37*
G36*
X256950Y406115D02*
X256332Y405992D01*
X255808Y405642D01*
X255458Y405118D01*
X255335Y404500D01*
X255458Y403882D01*
X255808Y403358D01*
X256332Y403008D01*
X256950Y402885D01*
X257568Y403008D01*
X258092Y403358D01*
X258442Y403882D01*
X258565Y404500D01*
X258442Y405118D01*
X258092Y405642D01*
X257568Y405992D01*
X256950Y406115D01*
D02*
G37*
G36*
X250500Y385694D02*
X249882Y385571D01*
X249358Y385221D01*
X249008Y384697D01*
X248885Y384079D01*
X249008Y383461D01*
X249358Y382937D01*
X249882Y382587D01*
X250500Y382464D01*
X251118Y382587D01*
X251642Y382937D01*
X251992Y383461D01*
X252115Y384079D01*
X251992Y384697D01*
X251642Y385221D01*
X251118Y385571D01*
X250500Y385694D01*
D02*
G37*
G36*
X252900Y377515D02*
X252282Y377392D01*
X251775Y377054D01*
X251418Y377292D01*
X250800Y377415D01*
X250182Y377292D01*
X249658Y376942D01*
X249308Y376418D01*
X249185Y375800D01*
X249308Y375182D01*
X249658Y374658D01*
X250182Y374308D01*
X250800Y374185D01*
X251418Y374308D01*
X251925Y374646D01*
X252282Y374408D01*
X252900Y374285D01*
X253518Y374408D01*
X254042Y374758D01*
X254392Y375282D01*
X254515Y375900D01*
X254392Y376518D01*
X254042Y377042D01*
X253518Y377392D01*
X252900Y377515D01*
D02*
G37*
G36*
X249700Y372515D02*
X249082Y372392D01*
X248558Y372042D01*
X248208Y371518D01*
X248085Y370900D01*
X248208Y370282D01*
X248558Y369758D01*
X249082Y369408D01*
X249700Y369285D01*
X250318Y369408D01*
X250842Y369758D01*
X251192Y370282D01*
X251315Y370900D01*
X251192Y371518D01*
X250842Y372042D01*
X250318Y372392D01*
X249700Y372515D01*
D02*
G37*
G36*
X262873Y370089D02*
X262255Y369966D01*
X261731Y369616D01*
X261381Y369091D01*
X261258Y368473D01*
X261381Y367855D01*
X261731Y367331D01*
X262255Y366981D01*
X262873Y366858D01*
X263491Y366981D01*
X264016Y367331D01*
X264366Y367855D01*
X264489Y368473D01*
X264366Y369091D01*
X264016Y369616D01*
X263491Y369966D01*
X262873Y370089D01*
D02*
G37*
G36*
X255592Y369789D02*
X254974Y369666D01*
X254450Y369316D01*
X254100Y368791D01*
X253977Y368173D01*
X254100Y367555D01*
X254450Y367031D01*
X254974Y366681D01*
X255592Y366558D01*
X256210Y366681D01*
X256734Y367031D01*
X257085Y367555D01*
X257208Y368173D01*
X257085Y368791D01*
X256734Y369316D01*
X256210Y369666D01*
X255592Y369789D01*
D02*
G37*
G36*
X250700Y360915D02*
X250082Y360792D01*
X249558Y360442D01*
X249208Y359918D01*
X249085Y359300D01*
X249208Y358682D01*
X249558Y358158D01*
X250082Y357808D01*
X250700Y357685D01*
X251318Y357808D01*
X251842Y358158D01*
X252192Y358682D01*
X252315Y359300D01*
X252192Y359918D01*
X251842Y360442D01*
X251318Y360792D01*
X250700Y360915D01*
D02*
G37*
G36*
X251700Y335815D02*
X251082Y335692D01*
X250558Y335342D01*
X250208Y334818D01*
X250085Y334200D01*
X250208Y333582D01*
X250558Y333058D01*
X251082Y332708D01*
X251700Y332585D01*
X252318Y332708D01*
X252842Y333058D01*
X253192Y333582D01*
X253315Y334200D01*
X253192Y334818D01*
X252842Y335342D01*
X252318Y335692D01*
X251700Y335815D01*
D02*
G37*
G36*
X265484Y336100D02*
X264866Y335977D01*
X264342Y335627D01*
X263992Y335103D01*
X263869Y334485D01*
X263992Y333866D01*
X264016Y333830D01*
X263854Y333173D01*
X263658Y333042D01*
X263308Y332518D01*
X263185Y331900D01*
X263308Y331282D01*
X263658Y330758D01*
X264182Y330408D01*
X264800Y330285D01*
X265418Y330408D01*
X265942Y330758D01*
X266292Y331282D01*
X266415Y331900D01*
X266292Y332518D01*
X266268Y332554D01*
X266430Y333211D01*
X266627Y333342D01*
X266977Y333866D01*
X267100Y334485D01*
X266977Y335103D01*
X266627Y335627D01*
X266103Y335977D01*
X265484Y336100D01*
D02*
G37*
G36*
X311600Y446315D02*
X310982Y446192D01*
X310458Y445842D01*
X310108Y445318D01*
X309985Y444700D01*
X310108Y444082D01*
X310458Y443558D01*
X310982Y443208D01*
X311600Y443085D01*
X312218Y443208D01*
X312742Y443558D01*
X313092Y444082D01*
X313215Y444700D01*
X313092Y445318D01*
X312742Y445842D01*
X312218Y446192D01*
X311600Y446315D01*
D02*
G37*
G36*
X302768Y424365D02*
X302150Y424242D01*
X301626Y423892D01*
X301276Y423368D01*
X301153Y422750D01*
X301276Y422132D01*
X301626Y421608D01*
X302150Y421258D01*
X302768Y421135D01*
X303386Y421258D01*
X303910Y421608D01*
X304260Y422132D01*
X304383Y422750D01*
X304260Y423368D01*
X303910Y423892D01*
X303386Y424242D01*
X302768Y424365D01*
D02*
G37*
G36*
X340037Y429343D02*
X330963D01*
Y421057D01*
X340037D01*
Y429343D01*
D02*
G37*
G36*
X297200Y422215D02*
X296582Y422092D01*
X296058Y421742D01*
X295708Y421218D01*
X295585Y420600D01*
X295708Y419982D01*
X296058Y419458D01*
X296582Y419108D01*
X297200Y418985D01*
X297818Y419108D01*
X298342Y419458D01*
X298692Y419982D01*
X298815Y420600D01*
X298692Y421218D01*
X298342Y421742D01*
X297818Y422092D01*
X297200Y422215D01*
D02*
G37*
G36*
X287750D02*
X287132Y422092D01*
X286608Y421742D01*
X286258Y421218D01*
X286135Y420600D01*
X286258Y419982D01*
X286608Y419458D01*
X287132Y419108D01*
X287750Y418985D01*
X288368Y419108D01*
X288892Y419458D01*
X289242Y419982D01*
X289365Y420600D01*
X289242Y421218D01*
X288892Y421742D01*
X288368Y422092D01*
X287750Y422215D01*
D02*
G37*
G36*
X299700Y418915D02*
X299082Y418792D01*
X298558Y418442D01*
X298208Y417918D01*
X298085Y417300D01*
X298208Y416682D01*
X298558Y416158D01*
X299082Y415808D01*
X299700Y415685D01*
X300318Y415808D01*
X300842Y416158D01*
X301192Y416682D01*
X301315Y417300D01*
X301192Y417918D01*
X300842Y418442D01*
X300318Y418792D01*
X299700Y418915D01*
D02*
G37*
G36*
X335894Y419379D02*
X335106D01*
X334025Y419237D01*
X333017Y418819D01*
X332151Y418155D01*
X331487Y417289D01*
X331070Y416282D01*
X330927Y415200D01*
X331070Y414118D01*
X331487Y413110D01*
X332151Y412245D01*
X333017Y411581D01*
X334025Y411163D01*
X335106Y411021D01*
X335894D01*
X336975Y411163D01*
X337983Y411581D01*
X338849Y412245D01*
X339513Y413110D01*
X339930Y414118D01*
X340073Y415200D01*
X339930Y416282D01*
X339513Y417289D01*
X338849Y418155D01*
X337983Y418819D01*
X336975Y419237D01*
X335894Y419379D01*
D02*
G37*
G36*
X321400Y414117D02*
X320551Y413949D01*
X319832Y413468D01*
X319351Y412749D01*
X319183Y411900D01*
X319351Y411051D01*
X319832Y410332D01*
X320551Y409851D01*
X321400Y409683D01*
X322249Y409851D01*
X322968Y410332D01*
X323336Y410882D01*
X323668Y410862D01*
X323873Y410819D01*
X324332Y410132D01*
X325051Y409651D01*
X325900Y409483D01*
X326749Y409651D01*
X327468Y410132D01*
X327949Y410851D01*
X328117Y411700D01*
X327949Y412549D01*
X327468Y413268D01*
X326749Y413749D01*
X325900Y413917D01*
X325051Y413749D01*
X324332Y413268D01*
X323965Y412718D01*
X323632Y412738D01*
X323427Y412781D01*
X322968Y413468D01*
X322249Y413949D01*
X321400Y414117D01*
D02*
G37*
G36*
X335894Y409379D02*
X335106D01*
X334025Y409237D01*
X333017Y408819D01*
X332151Y408155D01*
X331487Y407290D01*
X331070Y406282D01*
X330927Y405200D01*
X331070Y404118D01*
X331487Y403111D01*
X332151Y402245D01*
X333017Y401581D01*
X334025Y401163D01*
X335106Y401021D01*
X335894D01*
X336975Y401163D01*
X337983Y401581D01*
X338849Y402245D01*
X339513Y403111D01*
X339930Y404118D01*
X340073Y405200D01*
X339930Y406282D01*
X339513Y407290D01*
X338849Y408155D01*
X337983Y408819D01*
X336975Y409237D01*
X335894Y409379D01*
D02*
G37*
G36*
X306700Y403215D02*
X306082Y403092D01*
X305558Y402742D01*
X305208Y402218D01*
X305085Y401600D01*
X305208Y400982D01*
X305558Y400458D01*
X306082Y400108D01*
X306700Y399985D01*
X307318Y400108D01*
X307842Y400458D01*
X308192Y400982D01*
X308315Y401600D01*
X308192Y402218D01*
X307842Y402742D01*
X307318Y403092D01*
X306700Y403215D01*
D02*
G37*
G36*
X281000Y393115D02*
X280382Y392992D01*
X279858Y392642D01*
X279508Y392118D01*
X279385Y391500D01*
X279508Y390882D01*
X279858Y390358D01*
X280382Y390008D01*
X281000Y389885D01*
X281618Y390008D01*
X282142Y390358D01*
X282492Y390882D01*
X282615Y391500D01*
X282492Y392118D01*
X282142Y392642D01*
X281618Y392992D01*
X281000Y393115D01*
D02*
G37*
G36*
X324700Y391015D02*
X324082Y390892D01*
X323558Y390542D01*
X323208Y390018D01*
X323085Y389400D01*
X323208Y388782D01*
X323558Y388258D01*
X324082Y387908D01*
X324700Y387785D01*
X325318Y387908D01*
X325842Y388258D01*
X326192Y388782D01*
X326315Y389400D01*
X326192Y390018D01*
X325842Y390542D01*
X325318Y390892D01*
X324700Y391015D01*
D02*
G37*
G36*
X278600Y389715D02*
X277982Y389592D01*
X277458Y389242D01*
X277108Y388718D01*
X276985Y388100D01*
X277108Y387482D01*
X277458Y386958D01*
X277982Y386608D01*
X278600Y386485D01*
X279218Y386608D01*
X279742Y386958D01*
X280092Y387482D01*
X280215Y388100D01*
X280092Y388718D01*
X279742Y389242D01*
X279218Y389592D01*
X278600Y389715D01*
D02*
G37*
G36*
X275200Y388115D02*
X274582Y387992D01*
X274058Y387642D01*
X273708Y387118D01*
X273585Y386500D01*
X273708Y385882D01*
X274058Y385358D01*
X274582Y385008D01*
X275200Y384885D01*
X275818Y385008D01*
X276342Y385358D01*
X276692Y385882D01*
X276815Y386500D01*
X276692Y387118D01*
X276342Y387642D01*
X275818Y387992D01*
X275200Y388115D01*
D02*
G37*
G36*
X328100Y387215D02*
X327482Y387092D01*
X326958Y386742D01*
X326608Y386218D01*
X326485Y385600D01*
X326608Y384982D01*
X326958Y384458D01*
X327482Y384108D01*
X328100Y383985D01*
X328718Y384108D01*
X329242Y384458D01*
X329592Y384982D01*
X329715Y385600D01*
X329592Y386218D01*
X329242Y386742D01*
X328718Y387092D01*
X328100Y387215D01*
D02*
G37*
G36*
X319300Y384115D02*
X318682Y383992D01*
X318158Y383642D01*
X317808Y383118D01*
X317685Y382500D01*
X317808Y381882D01*
X318158Y381358D01*
X318682Y381008D01*
X319300Y380885D01*
X319918Y381008D01*
X320442Y381358D01*
X320792Y381882D01*
X320915Y382500D01*
X320792Y383118D01*
X320442Y383642D01*
X319918Y383992D01*
X319300Y384115D01*
D02*
G37*
G36*
X323100Y381815D02*
X322482Y381692D01*
X321958Y381342D01*
X321608Y380818D01*
X321485Y380200D01*
X321608Y379582D01*
X321958Y379058D01*
X322482Y378708D01*
X323100Y378585D01*
X323718Y378708D01*
X324242Y379058D01*
X324592Y379582D01*
X324715Y380200D01*
X324592Y380818D01*
X324242Y381342D01*
X323718Y381692D01*
X323100Y381815D01*
D02*
G37*
G36*
X343000Y376076D02*
X342382Y375953D01*
X341858Y375603D01*
X341508Y375079D01*
X341385Y374461D01*
X341508Y373843D01*
X341858Y373319D01*
X342382Y372968D01*
X343000Y372845D01*
X343618Y372968D01*
X344142Y373319D01*
X344492Y373843D01*
X344615Y374461D01*
X344492Y375079D01*
X344142Y375603D01*
X343618Y375953D01*
X343000Y376076D01*
D02*
G37*
G36*
X309400Y374136D02*
X308782Y374013D01*
X308258Y373663D01*
X307908Y373139D01*
X307785Y372521D01*
X307908Y371903D01*
X308258Y371379D01*
X308782Y371029D01*
X309400Y370906D01*
X310018Y371029D01*
X310542Y371379D01*
X310892Y371903D01*
X311015Y372521D01*
X310892Y373139D01*
X310542Y373663D01*
X310018Y374013D01*
X309400Y374136D01*
D02*
G37*
G36*
X279351Y373864D02*
X278733Y373741D01*
X278209Y373391D01*
X277859Y372867D01*
X277736Y372249D01*
X277859Y371630D01*
X278209Y371106D01*
X278733Y370756D01*
X279351Y370633D01*
X279970Y370756D01*
X280494Y371106D01*
X280844Y371630D01*
X280967Y372249D01*
X280844Y372867D01*
X280494Y373391D01*
X279970Y373741D01*
X279351Y373864D01*
D02*
G37*
G36*
X326100Y369015D02*
X325482Y368892D01*
X324958Y368542D01*
X324608Y368018D01*
X324485Y367400D01*
X324608Y366782D01*
X324958Y366258D01*
X325482Y365908D01*
X326100Y365785D01*
X326718Y365908D01*
X327242Y366258D01*
X327592Y366782D01*
X327715Y367400D01*
X327592Y368018D01*
X327242Y368542D01*
X326718Y368892D01*
X326100Y369015D01*
D02*
G37*
G36*
X290800Y362115D02*
X290182Y361992D01*
X289658Y361642D01*
X289308Y361118D01*
X289185Y360500D01*
X289308Y359882D01*
X289658Y359358D01*
X290182Y359008D01*
X290800Y358885D01*
X291418Y359008D01*
X291942Y359358D01*
X292292Y359882D01*
X292415Y360500D01*
X292292Y361118D01*
X291942Y361642D01*
X291418Y361992D01*
X290800Y362115D01*
D02*
G37*
G36*
X277600Y360715D02*
X276982Y360592D01*
X276458Y360242D01*
X276108Y359718D01*
X275985Y359100D01*
X276108Y358482D01*
X276458Y357958D01*
X276982Y357608D01*
X277600Y357485D01*
X278218Y357608D01*
X278742Y357958D01*
X279092Y358482D01*
X279215Y359100D01*
X279092Y359718D01*
X278742Y360242D01*
X278218Y360592D01*
X277600Y360715D01*
D02*
G37*
G36*
X300600Y358157D02*
X299982Y358034D01*
X299458Y357684D01*
X299108Y357160D01*
X298985Y356542D01*
X299108Y355924D01*
X299458Y355400D01*
X299982Y355050D01*
X300600Y354927D01*
X301218Y355050D01*
X301742Y355400D01*
X302092Y355924D01*
X302215Y356542D01*
X302092Y357160D01*
X301742Y357684D01*
X301218Y358034D01*
X300600Y358157D01*
D02*
G37*
G36*
X340800Y351615D02*
X340182Y351492D01*
X339658Y351142D01*
X339308Y350618D01*
X339185Y350000D01*
X339308Y349382D01*
X339658Y348858D01*
X340182Y348508D01*
X340800Y348385D01*
X341418Y348508D01*
X341942Y348858D01*
X342292Y349382D01*
X342415Y350000D01*
X342292Y350618D01*
X341942Y351142D01*
X341418Y351492D01*
X340800Y351615D01*
D02*
G37*
G36*
X396850Y378816D02*
X395911Y378692D01*
X395035Y378330D01*
X394283Y377753D01*
X393706Y377000D01*
X393343Y376125D01*
X393219Y375185D01*
X393343Y374245D01*
X393706Y373370D01*
X394283Y372618D01*
X395035Y372040D01*
X395911Y371678D01*
X396850Y371554D01*
X397790Y371678D01*
X398666Y372040D01*
X399418Y372618D01*
X399995Y373370D01*
X400358Y374245D01*
X400481Y375185D01*
X400358Y376125D01*
X399995Y377000D01*
X399418Y377753D01*
X398666Y378330D01*
X397790Y378692D01*
X396850Y378816D01*
D02*
G37*
G36*
Y359131D02*
X395911Y359007D01*
X395035Y358645D01*
X394283Y358067D01*
X393706Y357315D01*
X393343Y356440D01*
X393219Y355500D01*
X393343Y354560D01*
X393706Y353684D01*
X394283Y352933D01*
X395035Y352355D01*
X395911Y351993D01*
X396850Y351869D01*
X397790Y351993D01*
X398666Y352355D01*
X399418Y352933D01*
X399995Y353684D01*
X400358Y354560D01*
X400481Y355500D01*
X400358Y356440D01*
X399995Y357315D01*
X399418Y358067D01*
X398666Y358645D01*
X397790Y359007D01*
X396850Y359131D01*
D02*
G37*
G36*
Y335974D02*
X395911Y335850D01*
X395035Y335487D01*
X394283Y334910D01*
X393706Y334158D01*
X393343Y333282D01*
X393219Y332343D01*
X393343Y331403D01*
X393706Y330527D01*
X394283Y329775D01*
X395035Y329198D01*
X395911Y328835D01*
X396850Y328711D01*
X397790Y328835D01*
X398666Y329198D01*
X399418Y329775D01*
X399995Y330527D01*
X400358Y331403D01*
X400481Y332343D01*
X400358Y333282D01*
X399995Y334158D01*
X399418Y334910D01*
X398666Y335487D01*
X397790Y335850D01*
X396850Y335974D01*
D02*
G37*
%LPD*%
D12*
X285257Y372157D02*
X286700Y373600D01*
X307500Y384579D02*
X307516Y384563D01*
X312002D01*
X313000Y385561D01*
Y389380D01*
X308480Y393900D02*
X313000Y389380D01*
X304908Y393900D02*
X308480D01*
X281900Y416908D02*
X304908Y393900D01*
X281900Y416908D02*
Y422200D01*
X271100Y433000D02*
X281900Y422200D01*
X261600Y434577D02*
X303677Y392500D01*
X258910Y435287D02*
X305681Y388516D01*
X256926Y434300D02*
X293130Y398095D01*
X261600Y434577D02*
Y439100D01*
X258910Y435287D02*
Y437959D01*
X256926Y434300D02*
Y436126D01*
X303677Y392500D02*
X307900D01*
X305681Y388516D02*
X307500D01*
X265157Y433000D02*
X271100D01*
X263000Y435157D02*
X265157Y433000D01*
X263000Y435157D02*
Y441482D01*
X258514Y445968D02*
X263000Y441482D01*
X253300Y440450D02*
X256850Y444000D01*
X258700Y441900D02*
X258800D01*
X253300Y432024D02*
Y440450D01*
X286700Y373600D02*
Y390400D01*
X269100Y408000D02*
X286700Y390400D01*
X269100Y408000D02*
Y416224D01*
X253300Y432024D02*
X269100Y416224D01*
X254700Y438000D02*
X256763Y440063D01*
X258800Y437900D02*
Y437931D01*
X258869Y438000D01*
X258800Y441900D02*
X261600Y439100D01*
X258869Y438000D02*
X258910Y437959D01*
X288500Y355400D02*
X294900Y349000D01*
X291162Y375338D02*
Y388937D01*
X270500Y409600D02*
X291162Y388937D01*
X270500Y409600D02*
Y417749D01*
X291162Y372400D02*
Y373662D01*
X291146Y373678D02*
X291162Y373662D01*
X291146Y373678D02*
Y375322D01*
X291162Y375338D01*
X293130Y374500D02*
Y398095D01*
X309500Y386547D02*
Y390900D01*
X307900Y392500D02*
X309500Y390900D01*
X254700Y433549D02*
X270500Y417749D01*
X254700Y433549D02*
Y438000D01*
X227900Y463700D02*
X231300D01*
X220200Y456000D02*
X227900Y463700D01*
X220200Y320617D02*
Y456000D01*
Y320617D02*
X230617Y310200D01*
X280200D01*
X296650Y326650D01*
X291100Y326600D02*
X294900Y330400D01*
Y349000D01*
D92*
X265720Y340389D02*
X267689D01*
X271000Y356000D02*
X281500D01*
X269300Y354300D02*
X271000Y356000D01*
X269300Y342000D02*
Y354300D01*
X267689Y340389D02*
X269300Y342000D01*
D95*
X427811Y487575D02*
D03*
Y434425D02*
D03*
D96*
X404189Y475173D02*
D03*
Y446827D02*
D03*
D97*
X346400Y306300D02*
D03*
X336390D02*
D03*
D98*
X228500Y418500D02*
D03*
X335500Y425200D02*
D03*
X228500Y374500D02*
D03*
D99*
Y428500D02*
D03*
X228500Y438500D02*
D03*
Y448500D02*
D03*
X335500Y395200D02*
D03*
Y405200D02*
D03*
X335500Y415200D02*
D03*
X228500Y344500D02*
D03*
Y354500D02*
D03*
X228500Y364500D02*
D03*
D100*
X286500Y306000D02*
D03*
X276658D02*
D03*
X265158Y473500D02*
D03*
X275000D02*
D03*
D101*
X266815Y306000D02*
D03*
X284842Y473500D02*
D03*
D102*
X396850Y375185D02*
D03*
Y365342D02*
D03*
Y355500D02*
D03*
Y332343D02*
D03*
Y322499D02*
D03*
Y312657D02*
D03*
D103*
X264200Y412900D02*
D03*
X299700Y417300D02*
D03*
X340800Y350000D02*
D03*
X404400Y485020D02*
D03*
X389400D02*
D03*
X374400D02*
D03*
X398983Y296700D02*
D03*
X383983D02*
D03*
X368983D02*
D03*
X353983D02*
D03*
X338983D02*
D03*
X323983D02*
D03*
X308983D02*
D03*
X293983D02*
D03*
X278983D02*
D03*
X263983D02*
D03*
X248983D02*
D03*
X409900Y305900D02*
D03*
X411000Y315400D02*
D03*
X410900Y322100D02*
D03*
X410700Y331400D02*
D03*
X410600Y339200D02*
D03*
Y349400D02*
D03*
X410800Y359800D02*
D03*
X410626Y368849D02*
D03*
X410800Y380200D02*
D03*
X411085Y396000D02*
D03*
X411100Y406300D02*
D03*
X411085Y417500D02*
D03*
X359400Y485020D02*
D03*
X344000D02*
D03*
X330300Y485400D02*
D03*
X317500Y485200D02*
D03*
X294900Y484800D02*
D03*
X279827Y484700D02*
D03*
X260900Y484400D02*
D03*
X253100Y484500D02*
D03*
X243982Y484200D02*
D03*
X235658Y484400D02*
D03*
X229300Y484200D02*
D03*
X224863Y481700D02*
D03*
X221500Y476100D02*
D03*
X221300Y471300D02*
D03*
Y467200D02*
D03*
X222700Y342140D02*
D03*
Y336316D02*
D03*
X222100Y314678D02*
D03*
X234300Y296600D02*
D03*
X221900Y309900D02*
D03*
Y301951D02*
D03*
X228300Y296600D02*
D03*
X408200Y298600D02*
D03*
X273400Y463400D02*
D03*
X267400Y462500D02*
D03*
X262873Y368473D02*
D03*
X246200Y416900D02*
D03*
X285257Y372157D02*
D03*
X266800Y370900D02*
D03*
X255592Y368173D02*
D03*
X250700Y359300D02*
D03*
X277600Y359100D02*
D03*
X250800Y375800D02*
D03*
X252900Y375900D02*
D03*
X277982Y316600D02*
D03*
X278100Y312500D02*
D03*
X269567Y314900D02*
D03*
X279100Y464900D02*
D03*
X270500Y463950D02*
D03*
X264300Y466100D02*
D03*
X278000Y320400D02*
D03*
X270700Y317100D02*
D03*
X276900Y462700D02*
D03*
X264300Y463300D02*
D03*
X273504Y462283D02*
D03*
X270600Y460200D02*
D03*
X282397Y458800D02*
D03*
X284092Y462800D02*
D03*
X282250Y460900D02*
D03*
X280300Y459900D02*
D03*
X260182Y317000D02*
D03*
X263200Y317148D02*
D03*
X265900Y318000D02*
D03*
X267592Y320394D02*
D03*
X275153Y317600D02*
D03*
X275047Y314832D02*
D03*
X281081Y313893D02*
D03*
Y317470D02*
D03*
X343000Y374461D02*
D03*
X236000Y443200D02*
D03*
X235921Y449333D02*
D03*
X237150Y438200D02*
D03*
X311600Y444700D02*
D03*
X278400Y420700D02*
D03*
X302768Y422750D02*
D03*
X309400Y372521D02*
D03*
X256950Y404500D02*
D03*
X250500Y384079D02*
D03*
X249200Y459000D02*
D03*
X233000Y455900D02*
D03*
X265720Y340389D02*
D03*
X300600Y356542D02*
D03*
X273300Y368500D02*
D03*
X353000Y393900D02*
D03*
X348400Y408400D02*
D03*
X311800Y321300D02*
D03*
X322100Y330200D02*
D03*
X248700Y470500D02*
D03*
X246600Y470700D02*
D03*
X248300Y472700D02*
D03*
X246100Y472800D02*
D03*
X244100Y470900D02*
D03*
X258458Y453842D02*
D03*
X279351Y372249D02*
D03*
X250900Y470600D02*
D03*
X250800Y472700D02*
D03*
X253400Y470300D02*
D03*
X253100Y472600D02*
D03*
X258200Y459100D02*
D03*
X244700Y418400D02*
D03*
X246900Y418800D02*
D03*
X248200Y416800D02*
D03*
X249500Y418700D02*
D03*
X250600Y416800D02*
D03*
X251600Y418500D02*
D03*
X252700Y416700D02*
D03*
X247200Y420800D02*
D03*
X244600Y420700D02*
D03*
X249700Y420906D02*
D03*
X252100Y421000D02*
D03*
X253600Y419100D02*
D03*
X241800Y471000D02*
D03*
X239100Y470700D02*
D03*
X237100D02*
D03*
X243800Y472900D02*
D03*
X241500Y473041D02*
D03*
X239500D02*
D03*
X237100Y473100D02*
D03*
X256850Y444000D02*
D03*
X258700Y441900D02*
D03*
X256763Y440063D02*
D03*
X258800Y437900D02*
D03*
X288500Y355400D02*
D03*
X287200Y358400D02*
D03*
X281000Y391500D02*
D03*
X293130Y374500D02*
D03*
X275200Y386500D02*
D03*
X278600Y388100D02*
D03*
X265000Y440200D02*
D03*
X268700D02*
D03*
X272400D02*
D03*
X268700Y443900D02*
D03*
X283289Y374788D02*
D03*
X256926Y436126D02*
D03*
X258514Y445968D02*
D03*
X309500Y386547D02*
D03*
X307500Y388516D02*
D03*
Y384579D02*
D03*
X291162Y372400D02*
D03*
X313300Y357700D02*
D03*
X246500Y454600D02*
D03*
X231300Y463700D02*
D03*
X296650Y326650D02*
D03*
X291100Y326600D02*
D03*
X290300Y429000D02*
D03*
X319300Y382500D02*
D03*
X310100Y396200D02*
D03*
X324700Y389400D02*
D03*
X323100Y380200D02*
D03*
X328100Y385600D02*
D03*
X326100Y367400D02*
D03*
X292300Y336453D02*
D03*
X290400Y338300D02*
D03*
X290559Y342484D02*
D03*
X292400Y340500D02*
D03*
X292200Y344500D02*
D03*
X290500Y334300D02*
D03*
X327900Y331000D02*
D03*
X283400Y437711D02*
D03*
X319500Y431600D02*
D03*
X316800D02*
D03*
X314100D02*
D03*
X311600D02*
D03*
X308900D02*
D03*
X300000Y456000D02*
D03*
X300200Y453500D02*
D03*
X302600Y453000D02*
D03*
X305400Y453500D02*
D03*
X304300Y455600D02*
D03*
X302000Y455300D02*
D03*
X305900Y459400D02*
D03*
X304700Y457600D02*
D03*
X302000Y457900D02*
D03*
X303800Y460300D02*
D03*
X305800Y462000D02*
D03*
X240200Y325000D02*
D03*
X240300Y327500D02*
D03*
X243000Y325100D02*
D03*
X243100Y327600D02*
D03*
X252500Y327100D02*
D03*
X252300Y324900D02*
D03*
X249800Y325100D02*
D03*
X247800Y325300D02*
D03*
X245300D02*
D03*
X250300Y327300D02*
D03*
X247800Y327500D02*
D03*
X245500Y327600D02*
D03*
X361900Y456600D02*
D03*
X359600D02*
D03*
X357300D02*
D03*
X361800Y459000D02*
D03*
X359600D02*
D03*
X357300D02*
D03*
X361800Y461400D02*
D03*
X359600D02*
D03*
X357300D02*
D03*
X361800Y463950D02*
D03*
X359600D02*
D03*
X357300D02*
D03*
X281500Y356000D02*
D03*
X281319Y407100D02*
D03*
X297200Y420600D02*
D03*
X287750D02*
D03*
X399000Y425900D02*
D03*
X402600Y430300D02*
D03*
X400050Y430200D02*
D03*
X397600Y430300D02*
D03*
X395000D02*
D03*
X405600Y407700D02*
D03*
X399900D02*
D03*
X397500Y432200D02*
D03*
X402300Y432100D02*
D03*
X399800Y432200D02*
D03*
X395100Y432300D02*
D03*
X269567Y430767D02*
D03*
X249700Y370900D02*
D03*
X290800Y360500D02*
D03*
X269000Y358200D02*
D03*
X251700Y334200D02*
D03*
X264800Y331900D02*
D03*
X265484Y334485D02*
D03*
X297700Y449500D02*
D03*
X294600Y449100D02*
D03*
X282600Y446600D02*
D03*
X306700Y401600D02*
D03*
X383700Y412800D02*
D03*
X373400Y407100D02*
D03*
X279800Y325400D02*
D03*
X276100D02*
D03*
X272400D02*
D03*
X276100Y329100D02*
D03*
X272400D02*
D03*
Y332800D02*
D03*
X276100D02*
D03*
X272400Y336500D02*
D03*
X279800D02*
D03*
X283500D02*
D03*
X276100Y340200D02*
D03*
X279800D02*
D03*
X283500D02*
D03*
X265000Y443900D02*
D03*
X276100D02*
D03*
X272400Y447600D02*
D03*
X276100D02*
D03*
Y451300D02*
D03*
X272400D02*
D03*
Y455000D02*
D03*
X269600Y452700D02*
D03*
D104*
X354500Y327600D02*
D03*
Y443962D02*
D03*
X225700Y327600D02*
D03*
D105*
X322400Y477600D02*
D03*
X325900Y411700D02*
D03*
X321400Y411900D02*
D03*
M02*
